<?xml version="1.0" encoding="UTF-8"?>
<svg xmlns="http://www.w3.org/2000/svg" xmlns:xlink="http://www.w3.org/1999/xlink" width="576" height="216" viewBox="0 0 576 216">
<defs>
<g>
<g id="glyph-0-0">
<path d="M 4.546875 -3.03125 C 4.546875 -2.019531 4.367188 -1.25 4.015625 -0.71875 C 3.660156 -0.1875 3.132812 0.078125 2.4375 0.078125 C 1.738281 0.078125 1.210938 -0.179688 0.859375 -0.703125 C 0.515625 -1.234375 0.34375 -2.007812 0.34375 -3.03125 C 0.34375 -4.070312 0.507812 -4.847656 0.84375 -5.359375 C 1.1875 -5.878906 1.726562 -6.140625 2.46875 -6.140625 C 3.175781 -6.140625 3.695312 -5.875 4.03125 -5.34375 C 4.375 -4.820312 4.546875 -4.050781 4.546875 -3.03125 Z M 3.765625 -3.03125 C 3.765625 -3.90625 3.660156 -4.535156 3.453125 -4.921875 C 3.253906 -5.316406 2.925781 -5.515625 2.46875 -5.515625 C 1.988281 -5.515625 1.644531 -5.320312 1.4375 -4.9375 C 1.226562 -4.550781 1.125 -3.914062 1.125 -3.03125 C 1.125 -2.164062 1.226562 -1.535156 1.4375 -1.140625 C 1.644531 -0.742188 1.976562 -0.546875 2.4375 -0.546875 C 2.894531 -0.546875 3.226562 -0.75 3.4375 -1.15625 C 3.65625 -1.5625 3.765625 -2.1875 3.765625 -3.03125 Z M 3.765625 -3.03125 "/>
</g>
<g id="glyph-0-1">
<path d="M 0.4375 0 L 0.4375 -0.546875 C 0.582031 -0.878906 0.757812 -1.171875 0.96875 -1.421875 C 1.1875 -1.679688 1.410156 -1.914062 1.640625 -2.125 C 1.867188 -2.332031 2.097656 -2.523438 2.328125 -2.703125 C 2.554688 -2.878906 2.757812 -3.054688 2.9375 -3.234375 C 3.125 -3.410156 3.273438 -3.597656 3.390625 -3.796875 C 3.503906 -3.992188 3.5625 -4.210938 3.5625 -4.453125 C 3.5625 -4.785156 3.460938 -5.039062 3.265625 -5.21875 C 3.078125 -5.40625 2.804688 -5.5 2.453125 -5.5 C 2.128906 -5.5 1.859375 -5.410156 1.640625 -5.234375 C 1.429688 -5.054688 1.304688 -4.804688 1.265625 -4.484375 L 0.484375 -4.5625 C 0.535156 -5.039062 0.738281 -5.421875 1.09375 -5.703125 C 1.445312 -5.992188 1.898438 -6.140625 2.453125 -6.140625 C 3.066406 -6.140625 3.535156 -5.992188 3.859375 -5.703125 C 4.191406 -5.421875 4.359375 -5.015625 4.359375 -4.484375 C 4.359375 -4.242188 4.300781 -4.007812 4.1875 -3.78125 C 4.082031 -3.550781 3.921875 -3.316406 3.703125 -3.078125 C 3.492188 -2.847656 3.09375 -2.492188 2.5 -2.015625 C 2.164062 -1.742188 1.898438 -1.5 1.703125 -1.28125 C 1.515625 -1.0625 1.378906 -0.851562 1.296875 -0.65625 L 4.453125 -0.65625 L 4.453125 0 Z M 0.4375 0 "/>
</g>
<g id="glyph-0-2">
<path d="M 3.78125 -1.375 L 3.78125 0 L 3.046875 0 L 3.046875 -1.375 L 0.203125 -1.375 L 0.203125 -1.96875 L 2.96875 -6.046875 L 3.78125 -6.046875 L 3.78125 -1.984375 L 4.640625 -1.984375 L 4.640625 -1.375 Z M 3.046875 -5.1875 C 3.046875 -5.164062 3.007812 -5.085938 2.9375 -4.953125 C 2.863281 -4.816406 2.804688 -4.722656 2.765625 -4.671875 L 1.21875 -2.390625 L 0.984375 -2.0625 L 0.921875 -1.984375 L 3.046875 -1.984375 Z M 3.046875 -5.1875 "/>
</g>
<g id="glyph-0-3">
<path d="M 4.5 -1.984375 C 4.5 -1.335938 4.328125 -0.832031 3.984375 -0.46875 C 3.640625 -0.101562 3.160156 0.078125 2.546875 0.078125 C 1.867188 0.078125 1.347656 -0.171875 0.984375 -0.671875 C 0.628906 -1.179688 0.453125 -1.921875 0.453125 -2.890625 C 0.453125 -3.929688 0.640625 -4.734375 1.015625 -5.296875 C 1.390625 -5.859375 1.921875 -6.140625 2.609375 -6.140625 C 3.523438 -6.140625 4.101562 -5.726562 4.34375 -4.90625 L 3.59375 -4.78125 C 3.445312 -5.269531 3.117188 -5.515625 2.609375 -5.515625 C 2.160156 -5.515625 1.816406 -5.304688 1.578125 -4.890625 C 1.335938 -4.484375 1.21875 -3.890625 1.21875 -3.109375 C 1.351562 -3.367188 1.546875 -3.566406 1.796875 -3.703125 C 2.054688 -3.835938 2.351562 -3.90625 2.6875 -3.90625 C 3.238281 -3.90625 3.675781 -3.726562 4 -3.375 C 4.332031 -3.03125 4.5 -2.566406 4.5 -1.984375 Z M 3.71875 -1.953125 C 3.71875 -2.390625 3.609375 -2.722656 3.390625 -2.953125 C 3.179688 -3.191406 2.882812 -3.3125 2.5 -3.3125 C 2.132812 -3.3125 1.84375 -3.207031 1.625 -3 C 1.40625 -2.789062 1.296875 -2.5 1.296875 -2.125 C 1.296875 -1.664062 1.410156 -1.285156 1.640625 -0.984375 C 1.867188 -0.679688 2.164062 -0.53125 2.53125 -0.53125 C 2.894531 -0.53125 3.179688 -0.65625 3.390625 -0.90625 C 3.609375 -1.15625 3.71875 -1.503906 3.71875 -1.953125 Z M 3.71875 -1.953125 "/>
</g>
<g id="glyph-0-4">
<path d="M 4.515625 -1.6875 C 4.515625 -1.125 4.332031 -0.6875 3.96875 -0.375 C 3.613281 -0.0703125 3.109375 0.078125 2.453125 0.078125 C 1.804688 0.078125 1.296875 -0.0703125 0.921875 -0.375 C 0.554688 -0.675781 0.375 -1.109375 0.375 -1.671875 C 0.375 -2.066406 0.488281 -2.398438 0.71875 -2.671875 C 0.945312 -2.941406 1.238281 -3.109375 1.59375 -3.171875 L 1.59375 -3.1875 C 1.257812 -3.257812 1 -3.425781 0.8125 -3.6875 C 0.625 -3.945312 0.53125 -4.25 0.53125 -4.59375 C 0.53125 -5.050781 0.703125 -5.421875 1.046875 -5.703125 C 1.390625 -5.992188 1.851562 -6.140625 2.4375 -6.140625 C 3.03125 -6.140625 3.5 -6 3.84375 -5.71875 C 4.1875 -5.4375 4.359375 -5.054688 4.359375 -4.578125 C 4.359375 -4.234375 4.257812 -3.929688 4.0625 -3.671875 C 3.875 -3.421875 3.613281 -3.257812 3.28125 -3.1875 L 3.28125 -3.171875 C 3.664062 -3.109375 3.96875 -2.941406 4.1875 -2.671875 C 4.40625 -2.410156 4.515625 -2.082031 4.515625 -1.6875 Z M 3.5625 -4.546875 C 3.5625 -5.222656 3.1875 -5.5625 2.4375 -5.5625 C 2.070312 -5.5625 1.789062 -5.472656 1.59375 -5.296875 C 1.40625 -5.128906 1.3125 -4.878906 1.3125 -4.546875 C 1.3125 -4.191406 1.410156 -3.921875 1.609375 -3.734375 C 1.804688 -3.554688 2.082031 -3.46875 2.4375 -3.46875 C 2.800781 -3.46875 3.078125 -3.550781 3.265625 -3.71875 C 3.460938 -3.894531 3.5625 -4.171875 3.5625 -4.546875 Z M 3.703125 -1.765625 C 3.703125 -2.140625 3.585938 -2.421875 3.359375 -2.609375 C 3.140625 -2.796875 2.832031 -2.890625 2.4375 -2.890625 C 2.039062 -2.890625 1.734375 -2.785156 1.515625 -2.578125 C 1.296875 -2.378906 1.1875 -2.101562 1.1875 -1.75 C 1.1875 -0.914062 1.609375 -0.5 2.453125 -0.5 C 2.878906 -0.5 3.191406 -0.597656 3.390625 -0.796875 C 3.597656 -0.992188 3.703125 -1.316406 3.703125 -1.765625 Z M 3.703125 -1.765625 "/>
</g>
<g id="glyph-0-5">
<path d="M 0.671875 0 L 0.671875 -0.65625 L 2.21875 -0.65625 L 2.21875 -5.3125 L 0.84375 -4.34375 L 0.84375 -5.0625 L 2.28125 -6.046875 L 2.984375 -6.046875 L 2.984375 -0.65625 L 4.46875 -0.65625 L 4.46875 0 Z M 0.671875 0 "/>
</g>
<g id="glyph-1-0">
<path d="M 6.78125 -3.515625 C 6.78125 -1.085938 5.925781 0.125 4.21875 0.125 C 3.144531 0.125 2.425781 -0.273438 2.0625 -1.078125 L 2.03125 -1.078125 C 2.039062 -1.046875 2.046875 -0.679688 2.046875 0.015625 L 2.046875 2.734375 L 0.890625 2.734375 L 0.890625 -5.546875 C 0.890625 -6.265625 0.875 -6.738281 0.84375 -6.96875 L 1.96875 -6.96875 C 1.976562 -6.957031 1.984375 -6.898438 1.984375 -6.796875 C 1.992188 -6.691406 2.003906 -6.523438 2.015625 -6.296875 C 2.023438 -6.078125 2.03125 -5.929688 2.03125 -5.859375 L 2.0625 -5.859375 C 2.269531 -6.285156 2.539062 -6.597656 2.875 -6.796875 C 3.21875 -6.992188 3.664062 -7.09375 4.21875 -7.09375 C 5.082031 -7.09375 5.722656 -6.804688 6.140625 -6.234375 C 6.566406 -5.660156 6.78125 -4.753906 6.78125 -3.515625 Z M 5.5625 -3.5 C 5.5625 -4.46875 5.429688 -5.160156 5.171875 -5.578125 C 4.910156 -5.992188 4.492188 -6.203125 3.921875 -6.203125 C 3.460938 -6.203125 3.101562 -6.101562 2.84375 -5.90625 C 2.582031 -5.71875 2.382812 -5.414062 2.25 -5 C 2.113281 -4.59375 2.046875 -4.0625 2.046875 -3.40625 C 2.046875 -2.488281 2.191406 -1.8125 2.484375 -1.375 C 2.773438 -0.945312 3.25 -0.734375 3.90625 -0.734375 C 4.488281 -0.734375 4.910156 -0.941406 5.171875 -1.359375 C 5.429688 -1.785156 5.5625 -2.5 5.5625 -3.5 Z M 5.5625 -3.5 "/>
</g>
<g id="glyph-1-1">
<path d="M 6.125 -1.921875 C 6.125 -1.265625 5.875 -0.757812 5.375 -0.40625 C 4.882812 -0.0507812 4.191406 0.125 3.296875 0.125 C 2.421875 0.125 1.75 -0.015625 1.28125 -0.296875 C 0.8125 -0.585938 0.507812 -1.035156 0.375 -1.640625 L 1.390625 -1.84375 C 1.492188 -1.46875 1.695312 -1.191406 2 -1.015625 C 2.3125 -0.835938 2.742188 -0.75 3.296875 -0.75 C 3.878906 -0.75 4.304688 -0.835938 4.578125 -1.015625 C 4.859375 -1.203125 5 -1.476562 5 -1.84375 C 5 -2.113281 4.898438 -2.332031 4.703125 -2.5 C 4.515625 -2.675781 4.210938 -2.820312 3.796875 -2.9375 L 2.96875 -3.15625 C 2.300781 -3.320312 1.828125 -3.488281 1.546875 -3.65625 C 1.265625 -3.820312 1.039062 -4.019531 0.875 -4.25 C 0.71875 -4.488281 0.640625 -4.78125 0.640625 -5.125 C 0.640625 -5.757812 0.863281 -6.242188 1.3125 -6.578125 C 1.769531 -6.910156 2.4375 -7.078125 3.3125 -7.078125 C 4.082031 -7.078125 4.691406 -6.941406 5.140625 -6.671875 C 5.597656 -6.398438 5.882812 -5.96875 6 -5.375 L 4.953125 -5.25 C 4.890625 -5.5625 4.71875 -5.796875 4.4375 -5.953125 C 4.15625 -6.117188 3.78125 -6.203125 3.3125 -6.203125 C 2.78125 -6.203125 2.390625 -6.125 2.140625 -5.96875 C 1.890625 -5.8125 1.765625 -5.570312 1.765625 -5.25 C 1.765625 -5.050781 1.816406 -4.882812 1.921875 -4.75 C 2.023438 -4.625 2.175781 -4.515625 2.375 -4.421875 C 2.582031 -4.335938 3.007812 -4.21875 3.65625 -4.0625 C 4.269531 -3.90625 4.710938 -3.757812 4.984375 -3.625 C 5.253906 -3.5 5.46875 -3.351562 5.625 -3.1875 C 5.78125 -3.03125 5.898438 -2.847656 5.984375 -2.640625 C 6.078125 -2.429688 6.125 -2.191406 6.125 -1.921875 Z M 6.125 -1.921875 "/>
</g>
<g id="glyph-1-2">
<path d="M 1.234375 2.734375 C 0.910156 2.734375 0.644531 2.710938 0.4375 2.671875 L 0.4375 1.796875 C 0.59375 1.828125 0.769531 1.84375 0.96875 1.84375 C 1.695312 1.84375 2.269531 1.3125 2.6875 0.25 L 2.796875 -0.03125 L 0.03125 -6.96875 L 1.265625 -6.96875 L 2.734375 -3.125 C 2.753906 -3.0625 2.78125 -2.988281 2.8125 -2.90625 C 2.84375 -2.820312 2.941406 -2.539062 3.109375 -2.0625 C 3.273438 -1.582031 3.363281 -1.316406 3.375 -1.265625 L 3.828125 -2.53125 L 5.34375 -6.96875 L 6.578125 -6.96875 L 3.890625 0 C 3.609375 0.738281 3.34375 1.289062 3.09375 1.65625 C 2.84375 2.019531 2.566406 2.289062 2.265625 2.46875 C 1.960938 2.644531 1.617188 2.734375 1.234375 2.734375 Z M 1.234375 2.734375 "/>
</g>
<g id="glyph-1-3">
<path d="M 0.65625 0 L 0.65625 -0.8125 C 0.882812 -1.320312 1.15625 -1.769531 1.46875 -2.15625 C 1.78125 -2.539062 2.109375 -2.882812 2.453125 -3.1875 C 2.804688 -3.5 3.15625 -3.789062 3.5 -4.0625 C 3.84375 -4.332031 4.148438 -4.597656 4.421875 -4.859375 C 4.691406 -5.128906 4.910156 -5.410156 5.078125 -5.703125 C 5.253906 -5.992188 5.34375 -6.320312 5.34375 -6.6875 C 5.34375 -7.1875 5.195312 -7.570312 4.90625 -7.84375 C 4.613281 -8.125 4.207031 -8.265625 3.6875 -8.265625 C 3.195312 -8.265625 2.789062 -8.128906 2.46875 -7.859375 C 2.144531 -7.585938 1.957031 -7.210938 1.90625 -6.734375 L 0.71875 -6.84375 C 0.800781 -7.5625 1.109375 -8.132812 1.640625 -8.5625 C 2.171875 -9 2.851562 -9.21875 3.6875 -9.21875 C 4.601562 -9.21875 5.304688 -9 5.796875 -8.5625 C 6.285156 -8.132812 6.53125 -7.523438 6.53125 -6.734375 C 6.53125 -6.378906 6.445312 -6.023438 6.28125 -5.671875 C 6.125 -5.328125 5.882812 -4.976562 5.5625 -4.625 C 5.25 -4.28125 4.644531 -3.742188 3.75 -3.015625 C 3.257812 -2.609375 2.867188 -2.242188 2.578125 -1.921875 C 2.285156 -1.597656 2.070312 -1.285156 1.9375 -0.984375 L 6.671875 -0.984375 L 6.671875 0 Z M 0.65625 0 "/>
</g>
</g>
<clipPath id="clip-0">
<path clip-rule="nonzero" d="M 15.410156 23.957031 L 570.519531 23.957031 L 570.519531 196.585938 L 15.410156 196.585938 Z M 15.410156 23.957031 "/>
</clipPath>
<clipPath id="clip-1">
<path clip-rule="nonzero" d="M 15.410156 144 L 570.519531 144 L 570.519531 146 L 15.410156 146 Z M 15.410156 144 "/>
</clipPath>
<clipPath id="clip-2">
<path clip-rule="nonzero" d="M 15.410156 89 L 570.519531 89 L 570.519531 91 L 15.410156 91 Z M 15.410156 89 "/>
</clipPath>
<clipPath id="clip-3">
<path clip-rule="nonzero" d="M 15.410156 33 L 570.519531 33 L 570.519531 36 L 15.410156 36 Z M 15.410156 33 "/>
</clipPath>
<clipPath id="clip-4">
<path clip-rule="nonzero" d="M 33 23.957031 L 35 23.957031 L 35 196.585938 L 33 196.585938 Z M 33 23.957031 "/>
</clipPath>
<clipPath id="clip-5">
<path clip-rule="nonzero" d="M 161 23.957031 L 163 23.957031 L 163 196.585938 L 161 196.585938 Z M 161 23.957031 "/>
</clipPath>
<clipPath id="clip-6">
<path clip-rule="nonzero" d="M 289 23.957031 L 291 23.957031 L 291 196.585938 L 289 196.585938 Z M 289 23.957031 "/>
</clipPath>
<clipPath id="clip-7">
<path clip-rule="nonzero" d="M 416 23.957031 L 419 23.957031 L 419 196.585938 L 416 196.585938 Z M 416 23.957031 "/>
</clipPath>
<clipPath id="clip-8">
<path clip-rule="nonzero" d="M 544 23.957031 L 547 23.957031 L 547 196.585938 L 544 196.585938 Z M 544 23.957031 "/>
</clipPath>
<clipPath id="clip-9">
<path clip-rule="nonzero" d="M 47 23.957031 L 169 23.957031 L 169 196.585938 L 47 196.585938 Z M 47 23.957031 "/>
</clipPath>
<clipPath id="clip-10">
<path clip-rule="nonzero" d="M 334 23.957031 L 341 23.957031 L 341 196.585938 L 334 196.585938 Z M 334 23.957031 "/>
</clipPath>
<clipPath id="clip-11">
<path clip-rule="nonzero" d="M 353 23.957031 L 361 23.957031 L 361 196.585938 L 353 196.585938 Z M 353 23.957031 "/>
</clipPath>
<clipPath id="clip-12">
<path clip-rule="nonzero" d="M 15.410156 23.957031 L 570.519531 23.957031 L 570.519531 196.585938 L 15.410156 196.585938 Z M 15.410156 23.957031 "/>
</clipPath>
</defs>
<rect x="-57.6" y="-21.6" width="691.2" height="259.2" fill="rgb(100%, 100%, 100%)" fill-opacity="1"/>
<rect x="-57.6" y="-21.6" width="691.2" height="259.2" fill="rgb(100%, 100%, 100%)" fill-opacity="1"/>
<path fill="none" stroke-width="1.066978" stroke-linecap="round" stroke-linejoin="round" stroke="rgb(100%, 100%, 100%)" stroke-opacity="1" stroke-miterlimit="10" d="M 0 216 L 576 216 L 576 0 L 0 0 Z M 0 216 "/>
<g clip-path="url(#clip-0)">
<path fill-rule="nonzero" fill="rgb(100%, 100%, 100%)" fill-opacity="1" d="M 15.410156 196.589844 L 570.519531 196.589844 L 570.519531 23.960938 L 15.410156 23.960938 Z M 15.410156 196.589844 "/>
</g>
<g clip-path="url(#clip-1)">
<path fill="none" stroke-width="1.49377" stroke-linecap="butt" stroke-linejoin="round" stroke="rgb(92.156863%, 92.156863%, 92.156863%)" stroke-opacity="1" stroke-dasharray="5.975079 5.975079" stroke-miterlimit="10" d="M 15.410156 145.238281 L 570.519531 145.238281 "/>
</g>
<g clip-path="url(#clip-2)">
<path fill="none" stroke-width="1.49377" stroke-linecap="butt" stroke-linejoin="round" stroke="rgb(92.156863%, 92.156863%, 92.156863%)" stroke-opacity="1" stroke-dasharray="5.975079 5.975079" stroke-miterlimit="10" d="M 15.410156 89.75 L 570.519531 89.75 "/>
</g>
<g clip-path="url(#clip-3)">
<path fill="none" stroke-width="1.49377" stroke-linecap="butt" stroke-linejoin="round" stroke="rgb(92.156863%, 92.156863%, 92.156863%)" stroke-opacity="1" stroke-dasharray="5.975079 5.975079" stroke-miterlimit="10" d="M 15.410156 34.261719 L 570.519531 34.261719 "/>
</g>
<g clip-path="url(#clip-4)">
<path fill="none" stroke-width="1.49377" stroke-linecap="butt" stroke-linejoin="round" stroke="rgb(92.156863%, 92.156863%, 92.156863%)" stroke-opacity="1" stroke-dasharray="5.975079 5.975079" stroke-miterlimit="10" d="M 34.253906 196.589844 L 34.253906 23.957031 "/>
</g>
<g clip-path="url(#clip-5)">
<path fill="none" stroke-width="1.49377" stroke-linecap="butt" stroke-linejoin="round" stroke="rgb(92.156863%, 92.156863%, 92.156863%)" stroke-opacity="1" stroke-dasharray="5.975079 5.975079" stroke-miterlimit="10" d="M 162.011719 196.589844 L 162.011719 23.957031 "/>
</g>
<g clip-path="url(#clip-6)">
<path fill="none" stroke-width="1.49377" stroke-linecap="butt" stroke-linejoin="round" stroke="rgb(92.156863%, 92.156863%, 92.156863%)" stroke-opacity="1" stroke-dasharray="5.975079 5.975079" stroke-miterlimit="10" d="M 289.773438 196.589844 L 289.773438 23.957031 "/>
</g>
<g clip-path="url(#clip-7)">
<path fill="none" stroke-width="1.49377" stroke-linecap="butt" stroke-linejoin="round" stroke="rgb(92.156863%, 92.156863%, 92.156863%)" stroke-opacity="1" stroke-dasharray="5.975079 5.975079" stroke-miterlimit="10" d="M 417.53125 196.589844 L 417.53125 23.957031 "/>
</g>
<g clip-path="url(#clip-8)">
<path fill="none" stroke-width="1.49377" stroke-linecap="butt" stroke-linejoin="round" stroke="rgb(92.156863%, 92.156863%, 92.156863%)" stroke-opacity="1" stroke-dasharray="5.975079 5.975079" stroke-miterlimit="10" d="M 545.289062 196.589844 L 545.289062 23.957031 "/>
</g>
<path fill="none" stroke-width="1.707165" stroke-linecap="butt" stroke-linejoin="round" stroke="rgb(100%, 0%, 0%)" stroke-opacity="1" stroke-dasharray="6.828661 6.828661" stroke-miterlimit="10" d="M 40.644531 143.933594 L 47.03125 139.753906 L 53.417969 135.550781 L 59.808594 132.308594 L 66.195312 130.703125 L 72.582031 129.769531 L 78.96875 127.835938 L 85.359375 124.363281 L 91.746094 122.902344 L 98.132812 121.675781 L 104.523438 120.085938 L 110.910156 119.554688 L 117.296875 118.394531 L 123.6875 117.945312 L 130.074219 117.714844 L 136.460938 116.867188 L 142.851562 115.953125 L 149.238281 115.953125 L 155.625 115.664062 L 162.011719 115.335938 L 168.402344 114.691406 L 174.789062 114.410156 L 181.175781 114.394531 L 187.566406 114.382812 L 193.953125 114.25 L 200.339844 114.21875 L 206.730469 114.21875 L 213.117188 114.175781 L 219.503906 113.726562 L 225.894531 113.726562 L 232.28125 113.636719 L 238.667969 113.636719 L 245.054688 112.9375 L 251.445312 112.914062 L 257.832031 112.914062 L 264.21875 112.742188 L 270.609375 112.742188 L 276.996094 112.414062 L 283.382812 112.023438 L 289.773438 111.976562 L 296.160156 111.371094 L 302.546875 111.210938 L 308.933594 110.359375 L 315.324219 110.359375 L 321.710938 110.09375 L 334.488281 110.09375 L 340.875 110.003906 L 360.039062 110.003906 L 366.425781 109.851562 L 372.816406 109.851562 L 379.203125 109.371094 L 385.589844 109.371094 L 391.976562 109.210938 L 455.859375 109.210938 L 462.246094 109 L 487.796875 109 L 494.183594 108.714844 L 500.574219 108.714844 L 506.960938 108.578125 L 545.289062 108.578125 "/>
<path fill="none" stroke-width="1.49377" stroke-linecap="butt" stroke-linejoin="round" stroke="rgb(0%, 0%, 100%)" stroke-opacity="1" stroke-miterlimit="10" d="M 40.644531 146.867188 L 47.03125 112.628906 L 53.417969 106.757812 L 59.808594 78.425781 L 66.195312 52.566406 L 72.582031 55.941406 L 78.96875 99.878906 L 85.359375 86.921875 L 91.746094 85.75 L 98.132812 71.488281 L 104.523438 63.589844 L 110.910156 51.953125 L 117.296875 45.105469 L 123.6875 31.804688 L 130.074219 32.148438 L 136.460938 36.921875 L 142.851562 36.441406 L 149.238281 46.714844 L 155.625 43 L 162.011719 37.023438 L 168.402344 181.285156 L 174.789062 188.742188 L 181.175781 187.230469 L 187.566406 181.976562 L 193.953125 180.664062 L 200.339844 179.535156 L 206.730469 178.988281 L 213.117188 177.507812 L 219.503906 176.472656 L 225.894531 175.941406 L 232.28125 175.65625 L 238.667969 176.136719 L 245.054688 177.945312 L 251.445312 178.535156 L 257.832031 179.792969 L 264.21875 180.113281 L 270.609375 180.054688 L 276.996094 180.59375 L 283.382812 181.636719 L 289.773438 183.148438 L 296.160156 177.632812 L 302.546875 178.601562 L 308.933594 145.253906 L 315.324219 139.3125 L 321.710938 125.507812 L 328.097656 110.113281 L 334.488281 109.699219 L 340.875 119.535156 L 347.261719 113.078125 L 353.652344 102.347656 L 360.039062 182.464844 L 366.425781 186.078125 L 372.816406 186.863281 L 379.203125 185.402344 L 385.589844 186.351562 L 391.976562 186.667969 L 398.367188 185.945312 L 404.753906 188.035156 L 411.140625 187.445312 L 417.53125 185.039062 L 423.917969 183.429688 L 430.304688 183.574219 L 436.695312 181.777344 L 443.082031 182.207031 L 449.46875 181.234375 L 455.859375 178.539062 L 462.246094 182.203125 L 468.632812 181.640625 L 475.019531 181.480469 L 481.410156 169.746094 L 487.796875 161.171875 L 494.183594 176.144531 L 500.574219 182.96875 L 506.960938 183.894531 L 513.347656 184.902344 L 519.738281 178.433594 L 526.125 170.585938 L 532.511719 186.308594 L 538.898438 185.625 L 545.289062 182.21875 "/>
<g clip-path="url(#clip-9)">
<path fill-rule="nonzero" fill="rgb(100%, 75.294118%, 79.607843%)" fill-opacity="0.298039" d="M 47.03125 196.589844 L 168.402344 196.589844 L 168.402344 23.960938 L 47.03125 23.960938 Z M 47.03125 196.589844 "/>
</g>
<g clip-path="url(#clip-10)">
<path fill-rule="nonzero" fill="rgb(100%, 75.294118%, 79.607843%)" fill-opacity="0.298039" d="M 334.488281 196.589844 L 340.875 196.589844 L 340.875 23.960938 L 334.488281 23.960938 Z M 334.488281 196.589844 "/>
</g>
<g clip-path="url(#clip-11)">
<path fill-rule="nonzero" fill="rgb(100%, 75.294118%, 79.607843%)" fill-opacity="0.298039" d="M 353.652344 196.589844 L 360.039062 196.589844 L 360.039062 23.960938 L 353.652344 23.960938 Z M 353.652344 196.589844 "/>
</g>
<g clip-path="url(#clip-12)">
<path fill="none" stroke-width="1.066978" stroke-linecap="round" stroke-linejoin="round" stroke="rgb(74.901961%, 74.901961%, 74.901961%)" stroke-opacity="1" stroke-miterlimit="10" d="M 15.410156 196.589844 L 570.519531 196.589844 L 570.519531 23.960938 L 15.410156 23.960938 Z M 15.410156 196.589844 "/>
</g>
<g fill="rgb(30.196078%, 30.196078%, 30.196078%)" fill-opacity="1">
<use xlink:href="#glyph-0-0" x="5.480469" y="148.704102"/>
</g>
<g fill="rgb(30.196078%, 30.196078%, 30.196078%)" fill-opacity="1">
<use xlink:href="#glyph-0-1" x="5.480469" y="93.21582"/>
</g>
<g fill="rgb(30.196078%, 30.196078%, 30.196078%)" fill-opacity="1">
<use xlink:href="#glyph-0-2" x="5.480469" y="37.727539"/>
</g>
<path fill="none" stroke-width="1.066978" stroke-linecap="butt" stroke-linejoin="round" stroke="rgb(20%, 20%, 20%)" stroke-opacity="1" stroke-miterlimit="10" d="M 12.671875 145.238281 L 15.410156 145.238281 "/>
<path fill="none" stroke-width="1.066978" stroke-linecap="butt" stroke-linejoin="round" stroke="rgb(20%, 20%, 20%)" stroke-opacity="1" stroke-miterlimit="10" d="M 12.671875 89.75 L 15.410156 89.75 "/>
<path fill="none" stroke-width="1.066978" stroke-linecap="butt" stroke-linejoin="round" stroke="rgb(20%, 20%, 20%)" stroke-opacity="1" stroke-miterlimit="10" d="M 12.671875 34.261719 L 15.410156 34.261719 "/>
<path fill="none" stroke-width="1.066978" stroke-linecap="butt" stroke-linejoin="round" stroke="rgb(20%, 20%, 20%)" stroke-opacity="1" stroke-miterlimit="10" d="M 34.253906 199.328125 L 34.253906 196.589844 "/>
<path fill="none" stroke-width="1.066978" stroke-linecap="butt" stroke-linejoin="round" stroke="rgb(20%, 20%, 20%)" stroke-opacity="1" stroke-miterlimit="10" d="M 162.011719 199.328125 L 162.011719 196.589844 "/>
<path fill="none" stroke-width="1.066978" stroke-linecap="butt" stroke-linejoin="round" stroke="rgb(20%, 20%, 20%)" stroke-opacity="1" stroke-miterlimit="10" d="M 289.773438 199.328125 L 289.773438 196.589844 "/>
<path fill="none" stroke-width="1.066978" stroke-linecap="butt" stroke-linejoin="round" stroke="rgb(20%, 20%, 20%)" stroke-opacity="1" stroke-miterlimit="10" d="M 417.53125 199.328125 L 417.53125 196.589844 "/>
<path fill="none" stroke-width="1.066978" stroke-linecap="butt" stroke-linejoin="round" stroke="rgb(20%, 20%, 20%)" stroke-opacity="1" stroke-miterlimit="10" d="M 545.289062 199.328125 L 545.289062 196.589844 "/>
<g fill="rgb(30.196078%, 30.196078%, 30.196078%)" fill-opacity="1">
<use xlink:href="#glyph-0-1" x="29.253906" y="208.485352"/>
<use xlink:href="#glyph-0-0" x="34.253906" y="208.485352"/>
</g>
<g fill="rgb(30.196078%, 30.196078%, 30.196078%)" fill-opacity="1">
<use xlink:href="#glyph-0-2" x="157.011719" y="208.485352"/>
<use xlink:href="#glyph-0-0" x="162.011719" y="208.485352"/>
</g>
<g fill="rgb(30.196078%, 30.196078%, 30.196078%)" fill-opacity="1">
<use xlink:href="#glyph-0-3" x="284.773438" y="208.485352"/>
<use xlink:href="#glyph-0-0" x="289.773438" y="208.485352"/>
</g>
<g fill="rgb(30.196078%, 30.196078%, 30.196078%)" fill-opacity="1">
<use xlink:href="#glyph-0-4" x="412.53125" y="208.485352"/>
<use xlink:href="#glyph-0-0" x="417.53125" y="208.485352"/>
</g>
<g fill="rgb(30.196078%, 30.196078%, 30.196078%)" fill-opacity="1">
<use xlink:href="#glyph-0-5" x="537.789062" y="208.485352"/>
<use xlink:href="#glyph-0-0" x="542.789062" y="208.485352"/>
<use xlink:href="#glyph-0-0" x="547.789062" y="208.485352"/>
</g>
<g fill="rgb(0%, 0%, 0%)" fill-opacity="1">
<use xlink:href="#glyph-1-0" x="15.410156" y="15.429688"/>
<use xlink:href="#glyph-1-1" x="22.410156" y="15.429688"/>
<use xlink:href="#glyph-1-2" x="29.410156" y="15.429688"/>
<use xlink:href="#glyph-1-3" x="36.410156" y="15.429688"/>
</g>
</svg>
