<?xml version="1.0" encoding="UTF-8"?>
<svg xmlns="http://www.w3.org/2000/svg" xmlns:xlink="http://www.w3.org/1999/xlink" width="576pt" height="216pt" viewBox="0 0 576 216">
<defs>
<g>
<g id="glyph-0-0">
<path d="M 5.554688 -2.203125 L 6.753906 -2.054688 C 6.5625 -1.351562 6.210938 -0.808594 5.703125 -0.421875 C 5.1875 -0.0390625 4.535156 0.152344 3.746094 0.15625 C 2.738281 0.152344 1.945312 -0.152344 1.363281 -0.769531 C 0.773438 -1.382812 0.480469 -2.25 0.484375 -3.363281 C 0.480469 -4.515625 0.777344 -5.410156 1.371094 -6.046875 C 1.964844 -6.679688 2.734375 -6.996094 3.679688 -7 C 4.59375 -6.996094 5.339844 -6.683594 5.921875 -6.0625 C 6.5 -5.4375 6.789062 -4.5625 6.792969 -3.433594 C 6.789062 -3.363281 6.789062 -3.257812 6.785156 -3.125 L 1.683594 -3.125 C 1.722656 -2.371094 1.9375 -1.796875 2.320312 -1.398438 C 2.703125 -0.996094 3.179688 -0.796875 3.75 -0.800781 C 4.175781 -0.796875 4.539062 -0.90625 4.839844 -1.132812 C 5.140625 -1.351562 5.378906 -1.710938 5.554688 -2.203125 Z M 1.746094 -4.078125 L 5.570312 -4.078125 C 5.515625 -4.65625 5.367188 -5.085938 5.128906 -5.375 C 4.757812 -5.820312 4.28125 -6.046875 3.691406 -6.046875 C 3.160156 -6.046875 2.710938 -5.867188 2.347656 -5.511719 C 1.984375 -5.152344 1.785156 -4.675781 1.746094 -4.078125 Z M 1.746094 -4.078125 "/>
</g>
<g id="glyph-0-1">
<path d="M 2.773438 0 L 0.167969 -6.84375 L 1.390625 -6.84375 L 2.863281 -2.746094 C 3.019531 -2.300781 3.164062 -1.839844 3.300781 -1.367188 C 3.398438 -1.722656 3.542969 -2.15625 3.730469 -2.667969 L 5.253906 -6.84375 L 6.445312 -6.84375 L 3.855469 0 Z M 2.773438 0 "/>
</g>
<g id="glyph-0-2">
<path d="M 5.335938 -0.84375 C 4.902344 -0.476562 4.488281 -0.21875 4.09375 -0.0703125 C 3.695312 0.078125 3.269531 0.152344 2.816406 0.15625 C 2.0625 0.152344 1.484375 -0.0273438 1.082031 -0.394531 C 0.675781 -0.761719 0.472656 -1.234375 0.476562 -1.804688 C 0.472656 -2.140625 0.550781 -2.445312 0.703125 -2.722656 C 0.855469 -3 1.054688 -3.222656 1.304688 -3.390625 C 1.550781 -3.554688 1.828125 -3.679688 2.140625 -3.769531 C 2.363281 -3.824219 2.707031 -3.882812 3.171875 -3.945312 C 4.105469 -4.054688 4.796875 -4.1875 5.238281 -4.34375 C 5.242188 -4.5 5.242188 -4.601562 5.246094 -4.648438 C 5.242188 -5.117188 5.132812 -5.449219 4.917969 -5.644531 C 4.617188 -5.902344 4.179688 -6.035156 3.597656 -6.039062 C 3.050781 -6.035156 2.644531 -5.9375 2.386719 -5.75 C 2.125 -5.554688 1.933594 -5.21875 1.8125 -4.738281 L 0.675781 -4.890625 C 0.777344 -5.375 0.949219 -5.765625 1.183594 -6.066406 C 1.417969 -6.363281 1.757812 -6.59375 2.210938 -6.757812 C 2.65625 -6.914062 3.175781 -6.996094 3.765625 -7 C 4.347656 -6.996094 4.820312 -6.925781 5.1875 -6.792969 C 5.550781 -6.652344 5.820312 -6.480469 5.996094 -6.273438 C 6.164062 -6.0625 6.285156 -5.800781 6.355469 -5.484375 C 6.390625 -5.285156 6.410156 -4.925781 6.414062 -4.414062 L 6.414062 -2.867188 C 6.410156 -1.785156 6.433594 -1.105469 6.488281 -0.820312 C 6.535156 -0.535156 6.632812 -0.261719 6.78125 0 L 5.570312 0 C 5.445312 -0.238281 5.367188 -0.519531 5.335938 -0.84375 Z M 5.238281 -3.433594 C 4.816406 -3.261719 4.183594 -3.113281 3.34375 -2.996094 C 2.863281 -2.925781 2.527344 -2.851562 2.332031 -2.765625 C 2.132812 -2.679688 1.980469 -2.550781 1.875 -2.386719 C 1.765625 -2.21875 1.710938 -2.035156 1.714844 -1.835938 C 1.710938 -1.523438 1.828125 -1.265625 2.066406 -1.0625 C 2.296875 -0.851562 2.640625 -0.75 3.09375 -0.753906 C 3.539062 -0.75 3.933594 -0.847656 4.285156 -1.046875 C 4.628906 -1.238281 4.886719 -1.507812 5.054688 -1.851562 C 5.175781 -2.109375 5.238281 -2.496094 5.238281 -3.011719 Z M 5.238281 -3.433594 "/>
</g>
<g id="glyph-0-3">
<path d="M 0.871094 0 L 0.871094 -6.84375 L 1.914062 -6.84375 L 1.914062 -5.871094 C 2.414062 -6.621094 3.140625 -6.996094 4.09375 -7 C 4.503906 -6.996094 4.882812 -6.921875 5.230469 -6.777344 C 5.574219 -6.625 5.832031 -6.429688 6.007812 -6.191406 C 6.175781 -5.949219 6.296875 -5.664062 6.367188 -5.335938 C 6.410156 -5.121094 6.433594 -4.746094 6.433594 -4.207031 L 6.433594 0 L 5.273438 0 L 5.273438 -4.164062 C 5.273438 -4.632812 5.226562 -4.984375 5.136719 -5.222656 C 5.042969 -5.453125 4.882812 -5.640625 4.65625 -5.785156 C 4.425781 -5.921875 4.15625 -5.992188 3.847656 -5.996094 C 3.351562 -5.992188 2.925781 -5.835938 2.566406 -5.523438 C 2.207031 -5.207031 2.027344 -4.613281 2.03125 -3.738281 L 2.03125 0 Z M 0.871094 0 "/>
</g>
<g id="glyph-0-4">
<path d="M 0.40625 -2.042969 L 1.554688 -2.222656 C 1.613281 -1.761719 1.792969 -1.410156 2.089844 -1.167969 C 2.382812 -0.917969 2.792969 -0.796875 3.324219 -0.800781 C 3.855469 -0.796875 4.253906 -0.90625 4.511719 -1.125 C 4.769531 -1.339844 4.898438 -1.59375 4.898438 -1.886719 C 4.898438 -2.148438 4.785156 -2.355469 4.558594 -2.507812 C 4.398438 -2.609375 4 -2.738281 3.371094 -2.902344 C 2.515625 -3.113281 1.925781 -3.300781 1.601562 -3.457031 C 1.269531 -3.613281 1.019531 -3.828125 0.851562 -4.105469 C 0.679688 -4.382812 0.597656 -4.691406 0.597656 -5.027344 C 0.597656 -5.332031 0.667969 -5.613281 0.808594 -5.875 C 0.949219 -6.132812 1.136719 -6.347656 1.378906 -6.523438 C 1.554688 -6.652344 1.800781 -6.765625 2.117188 -6.859375 C 2.425781 -6.949219 2.761719 -6.996094 3.121094 -7 C 3.65625 -6.996094 4.128906 -6.917969 4.535156 -6.765625 C 4.941406 -6.609375 5.238281 -6.398438 5.433594 -6.136719 C 5.621094 -5.871094 5.753906 -5.519531 5.832031 -5.078125 L 4.699219 -4.925781 C 4.644531 -5.273438 4.492188 -5.546875 4.25 -5.75 C 4 -5.945312 3.652344 -6.046875 3.203125 -6.046875 C 2.667969 -6.046875 2.289062 -5.957031 2.0625 -5.78125 C 1.835938 -5.601562 1.722656 -5.394531 1.722656 -5.164062 C 1.722656 -5.007812 1.769531 -4.875 1.863281 -4.757812 C 1.957031 -4.632812 2.105469 -4.527344 2.308594 -4.445312 C 2.421875 -4.402344 2.761719 -4.304688 3.332031 -4.152344 C 4.148438 -3.929688 4.71875 -3.75 5.046875 -3.609375 C 5.367188 -3.46875 5.625 -3.265625 5.8125 -3.003906 C 5.996094 -2.734375 6.085938 -2.402344 6.089844 -2.011719 C 6.085938 -1.621094 5.972656 -1.257812 5.75 -0.917969 C 5.523438 -0.574219 5.199219 -0.308594 4.773438 -0.125 C 4.347656 0.0625 3.867188 0.152344 3.332031 0.15625 C 2.441406 0.152344 1.761719 -0.03125 1.296875 -0.398438 C 0.828125 -0.765625 0.53125 -1.3125 0.40625 -2.042969 Z M 0.40625 -2.042969 "/>
</g>
<g id="glyph-0-5">
<path d="M 1.941406 0 L 0.863281 0 L 0.863281 -9.449219 L 2.023438 -9.449219 L 2.023438 -6.078125 C 2.507812 -6.6875 3.132812 -6.996094 3.898438 -7 C 4.316406 -6.996094 4.714844 -6.910156 5.09375 -6.746094 C 5.46875 -6.574219 5.78125 -6.335938 6.023438 -6.03125 C 6.265625 -5.71875 6.453125 -5.347656 6.59375 -4.917969 C 6.726562 -4.480469 6.796875 -4.019531 6.800781 -3.527344 C 6.796875 -2.351562 6.507812 -1.441406 5.929688 -0.804688 C 5.347656 -0.164062 4.648438 0.152344 3.839844 0.15625 C 3.027344 0.152344 2.394531 -0.183594 1.941406 -0.855469 Z M 1.925781 -3.472656 C 1.921875 -2.648438 2.035156 -2.054688 2.261719 -1.695312 C 2.625 -1.09375 3.117188 -0.796875 3.746094 -0.800781 C 4.246094 -0.796875 4.683594 -1.015625 5.058594 -1.460938 C 5.425781 -1.898438 5.613281 -2.554688 5.613281 -3.429688 C 5.613281 -4.320312 5.433594 -4.980469 5.082031 -5.40625 C 4.722656 -5.832031 4.296875 -6.046875 3.796875 -6.046875 C 3.289062 -6.046875 2.847656 -5.824219 2.480469 -5.382812 C 2.105469 -4.941406 1.921875 -4.304688 1.925781 -3.472656 Z M 1.925781 -3.472656 "/>
</g>
<g id="glyph-0-6">
<path d="M 0.84375 0 L 0.84375 -9.449219 L 2.003906 -9.449219 L 2.003906 0 Z M 0.84375 0 "/>
</g>
<g id="glyph-0-7">
<path d="M 0.871094 2.625 L 0.871094 -6.84375 L 1.925781 -6.84375 L 1.925781 -5.957031 C 2.171875 -6.300781 2.453125 -6.5625 2.769531 -6.738281 C 3.082031 -6.910156 3.464844 -6.996094 3.914062 -7 C 4.496094 -6.996094 5.007812 -6.84375 5.457031 -6.546875 C 5.902344 -6.242188 6.242188 -5.820312 6.46875 -5.273438 C 6.695312 -4.726562 6.808594 -4.125 6.8125 -3.472656 C 6.808594 -2.769531 6.683594 -2.140625 6.433594 -1.582031 C 6.183594 -1.019531 5.816406 -0.589844 5.339844 -0.292969 C 4.855469 0.00390625 4.351562 0.152344 3.828125 0.15625 C 3.4375 0.152344 3.09375 0.0742188 2.789062 -0.0898438 C 2.480469 -0.25 2.226562 -0.457031 2.03125 -0.710938 L 2.03125 2.625 Z M 1.921875 -3.382812 C 1.921875 -2.5 2.097656 -1.851562 2.457031 -1.429688 C 2.808594 -1.007812 3.242188 -0.796875 3.75 -0.800781 C 4.265625 -0.796875 4.707031 -1.015625 5.074219 -1.453125 C 5.441406 -1.890625 5.625 -2.566406 5.625 -3.480469 C 5.625 -4.351562 5.445312 -5.003906 5.085938 -5.4375 C 4.726562 -5.871094 4.296875 -6.085938 3.804688 -6.089844 C 3.304688 -6.085938 2.867188 -5.855469 2.492188 -5.394531 C 2.109375 -4.929688 1.921875 -4.257812 1.921875 -3.382812 Z M 1.921875 -3.382812 "/>
</g>
<g id="glyph-0-8">
<path d="M 0.820312 2.636719 L 0.691406 1.546875 C 0.941406 1.613281 1.160156 1.644531 1.351562 1.648438 C 1.609375 1.644531 1.816406 1.601562 1.972656 1.519531 C 2.125 1.429688 2.25 1.3125 2.351562 1.160156 C 2.421875 1.042969 2.542969 0.753906 2.707031 0.296875 C 2.726562 0.230469 2.757812 0.136719 2.808594 0.0117188 L 0.210938 -6.84375 L 1.464844 -6.84375 L 2.886719 -2.882812 C 3.070312 -2.375 3.234375 -1.84375 3.382812 -1.296875 C 3.511719 -1.824219 3.671875 -2.34375 3.859375 -2.855469 L 5.324219 -6.84375 L 6.484375 -6.84375 L 3.878906 0.117188 C 3.597656 0.867188 3.378906 1.382812 3.230469 1.667969 C 3.019531 2.046875 2.785156 2.328125 2.519531 2.507812 C 2.253906 2.6875 1.933594 2.777344 1.566406 2.777344 C 1.339844 2.777344 1.09375 2.730469 0.820312 2.636719 Z M 0.820312 2.636719 "/>
</g>
<g id="glyph-0-9">
<path d="M 4.917969 0 L 3.757812 0 L 3.757812 -7.394531 C 3.476562 -7.125 3.113281 -6.855469 2.660156 -6.59375 C 2.207031 -6.324219 1.796875 -6.125 1.4375 -5.996094 L 1.4375 -7.117188 C 2.082031 -7.417969 2.648438 -7.785156 3.136719 -8.222656 C 3.621094 -8.652344 3.96875 -9.074219 4.171875 -9.488281 L 4.917969 -9.488281 Z M 4.917969 0 "/>
</g>
<g id="glyph-0-10">
<path d="M 6.644531 -1.113281 L 6.644531 0 L 0.398438 0 C 0.390625 -0.277344 0.433594 -0.542969 0.535156 -0.804688 C 0.691406 -1.226562 0.945312 -1.648438 1.296875 -2.0625 C 1.644531 -2.472656 2.152344 -2.949219 2.816406 -3.492188 C 3.839844 -4.335938 4.535156 -5.003906 4.898438 -5.496094 C 5.257812 -5.988281 5.4375 -6.453125 5.441406 -6.890625 C 5.4375 -7.347656 5.273438 -7.734375 4.945312 -8.050781 C 4.617188 -8.367188 4.1875 -8.523438 3.660156 -8.527344 C 3.101562 -8.523438 2.65625 -8.355469 2.320312 -8.023438 C 1.984375 -7.6875 1.8125 -7.226562 1.8125 -6.632812 L 0.617188 -6.753906 C 0.695312 -7.640625 1.003906 -8.320312 1.539062 -8.789062 C 2.070312 -9.253906 2.785156 -9.484375 3.6875 -9.488281 C 4.589844 -9.484375 5.308594 -9.234375 5.839844 -8.734375 C 6.367188 -8.230469 6.632812 -7.605469 6.632812 -6.863281 C 6.632812 -6.480469 6.554688 -6.109375 6.398438 -5.75 C 6.242188 -5.382812 5.984375 -5 5.628906 -4.59375 C 5.269531 -4.1875 4.671875 -3.632812 3.839844 -2.933594 C 3.140625 -2.34375 2.695312 -1.945312 2.5 -1.742188 C 2.300781 -1.53125 2.136719 -1.324219 2.011719 -1.113281 Z M 6.644531 -1.113281 "/>
</g>
<g id="glyph-1-0">
<path d="M 4.429688 -0.742188 L 4.429688 0 L 0.265625 0 C 0.257812 -0.1875 0.289062 -0.367188 0.355469 -0.539062 C 0.460938 -0.820312 0.628906 -1.097656 0.863281 -1.375 C 1.09375 -1.648438 1.433594 -1.964844 1.878906 -2.328125 C 2.5625 -2.886719 3.023438 -3.332031 3.265625 -3.664062 C 3.5 -3.988281 3.621094 -4.300781 3.625 -4.59375 C 3.621094 -4.898438 3.511719 -5.15625 3.296875 -5.367188 C 3.074219 -5.578125 2.789062 -5.683594 2.441406 -5.683594 C 2.066406 -5.683594 1.769531 -5.570312 1.546875 -5.347656 C 1.320312 -5.125 1.207031 -4.816406 1.207031 -4.421875 L 0.414062 -4.503906 C 0.464844 -5.09375 0.667969 -5.542969 1.027344 -5.855469 C 1.378906 -6.164062 1.855469 -6.320312 2.457031 -6.324219 C 3.058594 -6.320312 3.539062 -6.152344 3.890625 -5.820312 C 4.242188 -5.484375 4.417969 -5.070312 4.421875 -4.578125 C 4.417969 -4.320312 4.367188 -4.074219 4.265625 -3.832031 C 4.164062 -3.589844 3.992188 -3.332031 3.753906 -3.0625 C 3.511719 -2.792969 3.113281 -2.425781 2.5625 -1.957031 C 2.09375 -1.566406 1.796875 -1.300781 1.664062 -1.160156 C 1.53125 -1.019531 1.421875 -0.878906 1.339844 -0.742188 Z M 4.429688 -0.742188 "/>
</g>
<g id="glyph-1-1">
<path d="M 0.367188 -3.105469 C 0.363281 -3.847656 0.4375 -4.445312 0.59375 -4.902344 C 0.742188 -5.355469 0.972656 -5.707031 1.277344 -5.953125 C 1.578125 -6.199219 1.957031 -6.320312 2.417969 -6.324219 C 2.753906 -6.320312 3.050781 -6.253906 3.308594 -6.121094 C 3.5625 -5.984375 3.773438 -5.789062 3.9375 -5.53125 C 4.101562 -5.273438 4.230469 -4.960938 4.328125 -4.59375 C 4.421875 -4.226562 4.46875 -3.730469 4.472656 -3.105469 C 4.46875 -2.367188 4.394531 -1.769531 4.242188 -1.316406 C 4.089844 -0.859375 3.863281 -0.507812 3.5625 -0.261719 C 3.257812 -0.015625 2.875 0.105469 2.417969 0.109375 C 1.808594 0.105469 1.332031 -0.109375 0.988281 -0.546875 C 0.570312 -1.066406 0.363281 -1.921875 0.367188 -3.105469 Z M 1.160156 -3.105469 C 1.160156 -2.070312 1.28125 -1.378906 1.523438 -1.039062 C 1.765625 -0.695312 2.0625 -0.527344 2.417969 -0.527344 C 2.773438 -0.527344 3.074219 -0.699219 3.316406 -1.042969 C 3.558594 -1.386719 3.679688 -2.074219 3.679688 -3.105469 C 3.679688 -4.144531 3.558594 -4.832031 3.316406 -5.171875 C 3.074219 -5.511719 2.769531 -5.683594 2.410156 -5.683594 C 2.050781 -5.683594 1.769531 -5.53125 1.558594 -5.234375 C 1.292969 -4.84375 1.160156 -4.136719 1.160156 -3.105469 Z M 1.160156 -3.105469 "/>
</g>
<g id="glyph-1-2">
<path d="M 2.84375 0 L 2.84375 -1.507812 L 0.113281 -1.507812 L 0.113281 -2.21875 L 2.988281 -6.300781 L 3.617188 -6.300781 L 3.617188 -2.21875 L 4.46875 -2.21875 L 4.46875 -1.507812 L 3.617188 -1.507812 L 3.617188 0 Z M 2.84375 -2.21875 L 2.84375 -5.058594 L 0.871094 -2.21875 Z M 2.84375 -2.21875 "/>
</g>
<g id="glyph-1-3">
<path d="M 4.378906 -4.757812 L 3.609375 -4.695312 C 3.539062 -4.996094 3.441406 -5.21875 3.316406 -5.359375 C 3.105469 -5.574219 2.847656 -5.683594 2.542969 -5.6875 C 2.296875 -5.683594 2.078125 -5.617188 1.894531 -5.484375 C 1.648438 -5.304688 1.457031 -5.042969 1.320312 -4.703125 C 1.175781 -4.363281 1.105469 -3.878906 1.101562 -3.25 C 1.285156 -3.53125 1.511719 -3.742188 1.78125 -3.878906 C 2.050781 -4.015625 2.332031 -4.082031 2.628906 -4.085938 C 3.140625 -4.082031 3.578125 -3.894531 3.945312 -3.515625 C 4.304688 -3.136719 4.488281 -2.644531 4.492188 -2.046875 C 4.488281 -1.648438 4.402344 -1.28125 4.234375 -0.941406 C 4.0625 -0.601562 3.828125 -0.339844 3.53125 -0.160156 C 3.230469 0.0195312 2.894531 0.105469 2.519531 0.109375 C 1.871094 0.105469 1.34375 -0.128906 0.941406 -0.601562 C 0.53125 -1.074219 0.328125 -1.855469 0.332031 -2.949219 C 0.328125 -4.160156 0.550781 -5.046875 1.003906 -5.601562 C 1.394531 -6.082031 1.925781 -6.320312 2.589844 -6.324219 C 3.085938 -6.320312 3.492188 -6.183594 3.808594 -5.90625 C 4.125 -5.628906 4.3125 -5.246094 4.378906 -4.757812 Z M 1.21875 -2.039062 C 1.21875 -1.773438 1.273438 -1.515625 1.386719 -1.273438 C 1.5 -1.027344 1.660156 -0.84375 1.863281 -0.71875 C 2.066406 -0.589844 2.277344 -0.527344 2.503906 -0.527344 C 2.828125 -0.527344 3.109375 -0.65625 3.347656 -0.921875 C 3.578125 -1.183594 3.695312 -1.542969 3.699219 -2 C 3.695312 -2.429688 3.582031 -2.773438 3.351562 -3.027344 C 3.117188 -3.273438 2.824219 -3.398438 2.476562 -3.402344 C 2.121094 -3.398438 1.824219 -3.273438 1.582031 -3.027344 C 1.339844 -2.773438 1.21875 -2.445312 1.21875 -2.039062 Z M 1.21875 -2.039062 "/>
</g>
<g id="glyph-1-4">
<path d="M 1.554688 -3.417969 C 1.230469 -3.53125 0.992188 -3.699219 0.839844 -3.917969 C 0.683594 -4.132812 0.609375 -4.394531 0.609375 -4.699219 C 0.609375 -5.15625 0.773438 -5.539062 1.101562 -5.855469 C 1.429688 -6.164062 1.867188 -6.320312 2.417969 -6.324219 C 2.96875 -6.320312 3.410156 -6.160156 3.746094 -5.84375 C 4.078125 -5.523438 4.246094 -5.136719 4.25 -4.679688 C 4.246094 -4.386719 4.171875 -4.132812 4.019531 -3.917969 C 3.863281 -3.699219 3.628906 -3.53125 3.320312 -3.417969 C 3.707031 -3.285156 4 -3.082031 4.203125 -2.804688 C 4.402344 -2.519531 4.503906 -2.183594 4.507812 -1.800781 C 4.503906 -1.257812 4.3125 -0.804688 3.933594 -0.441406 C 3.550781 -0.0742188 3.050781 0.105469 2.433594 0.109375 C 1.808594 0.105469 1.308594 -0.0742188 0.925781 -0.441406 C 0.542969 -0.808594 0.351562 -1.269531 0.355469 -1.820312 C 0.351562 -2.230469 0.457031 -2.574219 0.667969 -2.851562 C 0.875 -3.125 1.167969 -3.3125 1.554688 -3.417969 Z M 1.402344 -4.726562 C 1.398438 -4.425781 1.496094 -4.183594 1.6875 -3.996094 C 1.878906 -3.804688 2.128906 -3.707031 2.4375 -3.710938 C 2.734375 -3.707031 2.976562 -3.800781 3.167969 -3.992188 C 3.355469 -4.175781 3.449219 -4.40625 3.453125 -4.683594 C 3.449219 -4.964844 3.351562 -5.203125 3.160156 -5.398438 C 2.960938 -5.585938 2.71875 -5.683594 2.429688 -5.6875 C 2.128906 -5.683594 1.882812 -5.589844 1.691406 -5.402344 C 1.496094 -5.214844 1.398438 -4.988281 1.402344 -4.726562 Z M 1.152344 -1.816406 C 1.148438 -1.597656 1.199219 -1.382812 1.308594 -1.175781 C 1.410156 -0.96875 1.566406 -0.808594 1.773438 -0.695312 C 1.980469 -0.582031 2.203125 -0.527344 2.441406 -0.527344 C 2.808594 -0.527344 3.113281 -0.644531 3.355469 -0.882812 C 3.59375 -1.121094 3.714844 -1.425781 3.71875 -1.792969 C 3.714844 -2.164062 3.589844 -2.46875 3.34375 -2.714844 C 3.09375 -2.957031 2.785156 -3.082031 2.414062 -3.082031 C 2.050781 -3.082031 1.75 -2.960938 1.511719 -2.71875 C 1.269531 -2.476562 1.148438 -2.175781 1.152344 -1.816406 Z M 1.152344 -1.816406 "/>
</g>
<g id="glyph-1-5">
<path d="M 3.277344 0 L 2.503906 0 L 2.503906 -4.929688 C 2.316406 -4.75 2.074219 -4.574219 1.773438 -4.394531 C 1.46875 -4.214844 1.195312 -4.082031 0.957031 -3.996094 L 0.957031 -4.742188 C 1.386719 -4.941406 1.765625 -5.1875 2.089844 -5.480469 C 2.414062 -5.769531 2.644531 -6.050781 2.78125 -6.324219 L 3.277344 -6.324219 Z M 3.277344 0 "/>
</g>
<g id="glyph-1-6">
<path d="M 0.28125 -1.890625 L 0.28125 -2.667969 L 2.65625 -2.667969 L 2.65625 -1.890625 Z M 0.28125 -1.890625 "/>
</g>
<g id="glyph-1-7">
<path d="M 0.371094 -1.664062 L 1.144531 -1.765625 C 1.230469 -1.324219 1.382812 -1.007812 1.597656 -0.816406 C 1.808594 -0.621094 2.066406 -0.527344 2.375 -0.527344 C 2.734375 -0.527344 3.042969 -0.652344 3.296875 -0.90625 C 3.546875 -1.15625 3.671875 -1.46875 3.675781 -1.84375 C 3.671875 -2.195312 3.554688 -2.488281 3.324219 -2.71875 C 3.089844 -2.949219 2.796875 -3.0625 2.441406 -3.066406 C 2.292969 -3.0625 2.109375 -3.035156 1.894531 -2.980469 L 1.980469 -3.660156 C 2.03125 -3.652344 2.070312 -3.648438 2.105469 -3.652344 C 2.433594 -3.648438 2.730469 -3.734375 2.996094 -3.910156 C 3.253906 -4.078125 3.386719 -4.34375 3.390625 -4.703125 C 3.386719 -4.984375 3.289062 -5.21875 3.101562 -5.40625 C 2.90625 -5.589844 2.660156 -5.683594 2.359375 -5.6875 C 2.054688 -5.683594 1.804688 -5.589844 1.605469 -5.402344 C 1.402344 -5.214844 1.273438 -4.929688 1.21875 -4.554688 L 0.445312 -4.691406 C 0.539062 -5.207031 0.753906 -5.609375 1.089844 -5.894531 C 1.425781 -6.179688 1.84375 -6.320312 2.34375 -6.324219 C 2.6875 -6.320312 3.003906 -6.246094 3.292969 -6.101562 C 3.582031 -5.953125 3.800781 -5.753906 3.953125 -5.5 C 4.105469 -5.242188 4.183594 -4.972656 4.183594 -4.6875 C 4.183594 -4.414062 4.109375 -4.164062 3.964844 -3.945312 C 3.816406 -3.71875 3.601562 -3.542969 3.316406 -3.410156 C 3.6875 -3.324219 3.976562 -3.144531 4.183594 -2.875 C 4.390625 -2.601562 4.492188 -2.261719 4.496094 -1.859375 C 4.492188 -1.304688 4.292969 -0.839844 3.894531 -0.460938 C 3.492188 -0.078125 2.984375 0.109375 2.371094 0.113281 C 1.816406 0.109375 1.355469 -0.0507812 0.992188 -0.378906 C 0.625 -0.707031 0.417969 -1.136719 0.371094 -1.664062 Z M 0.371094 -1.664062 "/>
</g>
</g>
<clipPath id="clip-0">
<path clip-rule="nonzero" d="M 20.199219 23.1875 L 286.242188 23.1875 L 286.242188 92.179688 L 20.199219 92.179688 Z M 20.199219 23.1875 "/>
</clipPath>
<clipPath id="clip-1">
<path clip-rule="nonzero" d="M 20.199219 81 L 286.242188 81 L 286.242188 84 L 20.199219 84 Z M 20.199219 81 "/>
</clipPath>
<clipPath id="clip-2">
<path clip-rule="nonzero" d="M 20.199219 71 L 286.242188 71 L 286.242188 73 L 20.199219 73 Z M 20.199219 71 "/>
</clipPath>
<clipPath id="clip-3">
<path clip-rule="nonzero" d="M 20.199219 60 L 286.242188 60 L 286.242188 62 L 20.199219 62 Z M 20.199219 60 "/>
</clipPath>
<clipPath id="clip-4">
<path clip-rule="nonzero" d="M 20.199219 49 L 286.242188 49 L 286.242188 51 L 20.199219 51 Z M 20.199219 49 "/>
</clipPath>
<clipPath id="clip-5">
<path clip-rule="nonzero" d="M 20.199219 38 L 286.242188 38 L 286.242188 41 L 20.199219 41 Z M 20.199219 38 "/>
</clipPath>
<clipPath id="clip-6">
<path clip-rule="nonzero" d="M 20.199219 27 L 286.242188 27 L 286.242188 30 L 20.199219 30 Z M 20.199219 27 "/>
</clipPath>
<clipPath id="clip-7">
<path clip-rule="nonzero" d="M 28 23.1875 L 30 23.1875 L 30 92.179688 L 28 92.179688 Z M 28 23.1875 "/>
</clipPath>
<clipPath id="clip-8">
<path clip-rule="nonzero" d="M 89 23.1875 L 92 23.1875 L 92 92.179688 L 89 92.179688 Z M 89 23.1875 "/>
</clipPath>
<clipPath id="clip-9">
<path clip-rule="nonzero" d="M 150 23.1875 L 153 23.1875 L 153 92.179688 L 150 92.179688 Z M 150 23.1875 "/>
</clipPath>
<clipPath id="clip-10">
<path clip-rule="nonzero" d="M 212 23.1875 L 214 23.1875 L 214 92.179688 L 212 92.179688 Z M 212 23.1875 "/>
</clipPath>
<clipPath id="clip-11">
<path clip-rule="nonzero" d="M 273 23.1875 L 275 23.1875 L 275 92.179688 L 273 92.179688 Z M 273 23.1875 "/>
</clipPath>
<clipPath id="clip-12">
<path clip-rule="nonzero" d="M 114 23.1875 L 140 23.1875 L 140 92.179688 L 114 92.179688 Z M 114 23.1875 "/>
</clipPath>
<clipPath id="clip-13">
<path clip-rule="nonzero" d="M 261 23.1875 L 269 23.1875 L 269 92.179688 L 261 92.179688 Z M 261 23.1875 "/>
</clipPath>
<clipPath id="clip-14">
<path clip-rule="nonzero" d="M 20.199219 23.1875 L 286.242188 23.1875 L 286.242188 92.179688 L 20.199219 92.179688 Z M 20.199219 23.1875 "/>
</clipPath>
<clipPath id="clip-15">
<path clip-rule="nonzero" d="M 20.199219 128.445312 L 286.242188 128.445312 L 286.242188 197.4375 L 20.199219 197.4375 Z M 20.199219 128.445312 "/>
</clipPath>
<clipPath id="clip-16">
<path clip-rule="nonzero" d="M 20.199219 188 L 286.242188 188 L 286.242188 191 L 20.199219 191 Z M 20.199219 188 "/>
</clipPath>
<clipPath id="clip-17">
<path clip-rule="nonzero" d="M 20.199219 169 L 286.242188 169 L 286.242188 171 L 20.199219 171 Z M 20.199219 169 "/>
</clipPath>
<clipPath id="clip-18">
<path clip-rule="nonzero" d="M 20.199219 149 L 286.242188 149 L 286.242188 151 L 20.199219 151 Z M 20.199219 149 "/>
</clipPath>
<clipPath id="clip-19">
<path clip-rule="nonzero" d="M 20.199219 129 L 286.242188 129 L 286.242188 131 L 20.199219 131 Z M 20.199219 129 "/>
</clipPath>
<clipPath id="clip-20">
<path clip-rule="nonzero" d="M 28 128.445312 L 30 128.445312 L 30 197.4375 L 28 197.4375 Z M 28 128.445312 "/>
</clipPath>
<clipPath id="clip-21">
<path clip-rule="nonzero" d="M 89 128.445312 L 92 128.445312 L 92 197.4375 L 89 197.4375 Z M 89 128.445312 "/>
</clipPath>
<clipPath id="clip-22">
<path clip-rule="nonzero" d="M 150 128.445312 L 153 128.445312 L 153 197.4375 L 150 197.4375 Z M 150 128.445312 "/>
</clipPath>
<clipPath id="clip-23">
<path clip-rule="nonzero" d="M 212 128.445312 L 214 128.445312 L 214 197.4375 L 212 197.4375 Z M 212 128.445312 "/>
</clipPath>
<clipPath id="clip-24">
<path clip-rule="nonzero" d="M 273 128.445312 L 275 128.445312 L 275 197.4375 L 273 197.4375 Z M 273 128.445312 "/>
</clipPath>
<clipPath id="clip-25">
<path clip-rule="nonzero" d="M 84 128.445312 L 97 128.445312 L 97 197.4375 L 84 197.4375 Z M 84 128.445312 "/>
</clipPath>
<clipPath id="clip-26">
<path clip-rule="nonzero" d="M 200 128.445312 L 238 128.445312 L 238 197.4375 L 200 197.4375 Z M 200 128.445312 "/>
</clipPath>
<clipPath id="clip-27">
<path clip-rule="nonzero" d="M 20.199219 128.445312 L 286.242188 128.445312 L 286.242188 197.4375 L 20.199219 197.4375 Z M 20.199219 128.445312 "/>
</clipPath>
<clipPath id="clip-28">
<path clip-rule="nonzero" d="M 304.476562 23.1875 L 570.519531 23.1875 L 570.519531 92.179688 L 304.476562 92.179688 Z M 304.476562 23.1875 "/>
</clipPath>
<clipPath id="clip-29">
<path clip-rule="nonzero" d="M 304.476562 70 L 570.519531 70 L 570.519531 73 L 304.476562 73 Z M 304.476562 70 "/>
</clipPath>
<clipPath id="clip-30">
<path clip-rule="nonzero" d="M 304.476562 48 L 570.519531 48 L 570.519531 51 L 304.476562 51 Z M 304.476562 48 "/>
</clipPath>
<clipPath id="clip-31">
<path clip-rule="nonzero" d="M 304.476562 26 L 570.519531 26 L 570.519531 29 L 304.476562 29 Z M 304.476562 26 "/>
</clipPath>
<clipPath id="clip-32">
<path clip-rule="nonzero" d="M 312 23.1875 L 315 23.1875 L 315 92.179688 L 312 92.179688 Z M 312 23.1875 "/>
</clipPath>
<clipPath id="clip-33">
<path clip-rule="nonzero" d="M 373 23.1875 L 376 23.1875 L 376 92.179688 L 373 92.179688 Z M 373 23.1875 "/>
</clipPath>
<clipPath id="clip-34">
<path clip-rule="nonzero" d="M 435 23.1875 L 437 23.1875 L 437 92.179688 L 435 92.179688 Z M 435 23.1875 "/>
</clipPath>
<clipPath id="clip-35">
<path clip-rule="nonzero" d="M 496 23.1875 L 498 23.1875 L 498 92.179688 L 496 92.179688 Z M 496 23.1875 "/>
</clipPath>
<clipPath id="clip-36">
<path clip-rule="nonzero" d="M 557 23.1875 L 560 23.1875 L 560 92.179688 L 557 92.179688 Z M 557 23.1875 "/>
</clipPath>
<clipPath id="clip-37">
<path clip-rule="nonzero" d="M 319 23.1875 L 378 23.1875 L 378 92.179688 L 319 92.179688 Z M 319 23.1875 "/>
</clipPath>
<clipPath id="clip-38">
<path clip-rule="nonzero" d="M 457 23.1875 L 461 23.1875 L 461 92.179688 L 457 92.179688 Z M 457 23.1875 "/>
</clipPath>
<clipPath id="clip-39">
<path clip-rule="nonzero" d="M 466 23.1875 L 470 23.1875 L 470 92.179688 L 466 92.179688 Z M 466 23.1875 "/>
</clipPath>
<clipPath id="clip-40">
<path clip-rule="nonzero" d="M 304.476562 23.1875 L 570.519531 23.1875 L 570.519531 92.179688 L 304.476562 92.179688 Z M 304.476562 23.1875 "/>
</clipPath>
<clipPath id="clip-41">
<path clip-rule="nonzero" d="M 304.476562 128.445312 L 570.519531 128.445312 L 570.519531 197.4375 L 304.476562 197.4375 Z M 304.476562 128.445312 "/>
</clipPath>
<clipPath id="clip-42">
<path clip-rule="nonzero" d="M 304.476562 184 L 570.519531 184 L 570.519531 187 L 304.476562 187 Z M 304.476562 184 "/>
</clipPath>
<clipPath id="clip-43">
<path clip-rule="nonzero" d="M 304.476562 173 L 570.519531 173 L 570.519531 175 L 304.476562 175 Z M 304.476562 173 "/>
</clipPath>
<clipPath id="clip-44">
<path clip-rule="nonzero" d="M 304.476562 161 L 570.519531 161 L 570.519531 163 L 304.476562 163 Z M 304.476562 161 "/>
</clipPath>
<clipPath id="clip-45">
<path clip-rule="nonzero" d="M 304.476562 149 L 570.519531 149 L 570.519531 151 L 304.476562 151 Z M 304.476562 149 "/>
</clipPath>
<clipPath id="clip-46">
<path clip-rule="nonzero" d="M 304.476562 137 L 570.519531 137 L 570.519531 139 L 304.476562 139 Z M 304.476562 137 "/>
</clipPath>
<clipPath id="clip-47">
<path clip-rule="nonzero" d="M 312 128.445312 L 315 128.445312 L 315 197.4375 L 312 197.4375 Z M 312 128.445312 "/>
</clipPath>
<clipPath id="clip-48">
<path clip-rule="nonzero" d="M 373 128.445312 L 376 128.445312 L 376 197.4375 L 373 197.4375 Z M 373 128.445312 "/>
</clipPath>
<clipPath id="clip-49">
<path clip-rule="nonzero" d="M 435 128.445312 L 437 128.445312 L 437 197.4375 L 435 197.4375 Z M 435 128.445312 "/>
</clipPath>
<clipPath id="clip-50">
<path clip-rule="nonzero" d="M 496 128.445312 L 498 128.445312 L 498 197.4375 L 496 197.4375 Z M 496 128.445312 "/>
</clipPath>
<clipPath id="clip-51">
<path clip-rule="nonzero" d="M 557 128.445312 L 560 128.445312 L 560 197.4375 L 557 197.4375 Z M 557 128.445312 "/>
</clipPath>
<clipPath id="clip-52">
<path clip-rule="nonzero" d="M 353 128.445312 L 357 128.445312 L 357 197.4375 L 353 197.4375 Z M 353 128.445312 "/>
</clipPath>
<clipPath id="clip-53">
<path clip-rule="nonzero" d="M 304.476562 128.445312 L 570.519531 128.445312 L 570.519531 197.4375 L 304.476562 197.4375 Z M 304.476562 128.445312 "/>
</clipPath>
<clipPath id="clip-54">
<path clip-rule="nonzero" d="M 20.199219 113 L 55 113 L 55 121 L 20.199219 121 Z M 20.199219 113 "/>
</clipPath>
<clipPath id="clip-55">
<path clip-rule="nonzero" d="M 305 110.738281 L 329 110.738281 L 329 121 L 305 121 Z M 305 110.738281 "/>
</clipPath>
<clipPath id="clip-56">
<path clip-rule="nonzero" d="M 21 5.480469 L 46 5.480469 L 46 18 L 21 18 Z M 21 5.480469 "/>
</clipPath>
<clipPath id="clip-57">
<path clip-rule="nonzero" d="M 305 5.480469 L 332 5.480469 L 332 18 L 305 18 Z M 305 5.480469 "/>
</clipPath>
</defs>
<rect x="-57.6" y="-21.6" width="691.2" height="259.2" fill="rgb(100%, 100%, 100%)" fill-opacity="1"/>
<rect x="-57.6" y="-21.6" width="691.2" height="259.2" fill="rgb(100%, 100%, 100%)" fill-opacity="1"/>
<path fill="none" stroke-width="1.066978" stroke-linecap="round" stroke-linejoin="round" stroke="rgb(100%, 100%, 100%)" stroke-opacity="1" stroke-miterlimit="10" d="M 0 216 L 576 216 L 576 0 L 0 0 Z M 0 216 "/>
<g clip-path="url(#clip-0)">
<path fill-rule="nonzero" fill="rgb(100%, 100%, 100%)" fill-opacity="1" d="M 20.199219 92.175781 L 286.242188 92.175781 L 286.242188 23.183594 L 20.199219 23.183594 Z M 20.199219 92.175781 "/>
</g>
<g clip-path="url(#clip-1)">
<path fill="none" stroke-width="1.49377" stroke-linecap="butt" stroke-linejoin="round" stroke="rgb(92.156863%, 92.156863%, 92.156863%)" stroke-opacity="1" stroke-dasharray="5.975079 5.975079" stroke-miterlimit="10" d="M 20.199219 82.601562 L 286.242188 82.601562 "/>
</g>
<g clip-path="url(#clip-2)">
<path fill="none" stroke-width="1.49377" stroke-linecap="butt" stroke-linejoin="round" stroke="rgb(92.156863%, 92.156863%, 92.156863%)" stroke-opacity="1" stroke-dasharray="5.975079 5.975079" stroke-miterlimit="10" d="M 20.199219 71.800781 L 286.242188 71.800781 "/>
</g>
<g clip-path="url(#clip-3)">
<path fill="none" stroke-width="1.49377" stroke-linecap="butt" stroke-linejoin="round" stroke="rgb(92.156863%, 92.156863%, 92.156863%)" stroke-opacity="1" stroke-dasharray="5.975079 5.975079" stroke-miterlimit="10" d="M 20.199219 61 L 286.242188 61 "/>
</g>
<g clip-path="url(#clip-4)">
<path fill="none" stroke-width="1.49377" stroke-linecap="butt" stroke-linejoin="round" stroke="rgb(92.156863%, 92.156863%, 92.156863%)" stroke-opacity="1" stroke-dasharray="5.975079 5.975079" stroke-miterlimit="10" d="M 20.199219 50.203125 L 286.242188 50.203125 "/>
</g>
<g clip-path="url(#clip-5)">
<path fill="none" stroke-width="1.49377" stroke-linecap="butt" stroke-linejoin="round" stroke="rgb(92.156863%, 92.156863%, 92.156863%)" stroke-opacity="1" stroke-dasharray="5.975079 5.975079" stroke-miterlimit="10" d="M 20.199219 39.402344 L 286.242188 39.402344 "/>
</g>
<g clip-path="url(#clip-6)">
<path fill="none" stroke-width="1.49377" stroke-linecap="butt" stroke-linejoin="round" stroke="rgb(92.156863%, 92.156863%, 92.156863%)" stroke-opacity="1" stroke-dasharray="5.975079 5.975079" stroke-miterlimit="10" d="M 20.199219 28.601562 L 286.242188 28.601562 "/>
</g>
<g clip-path="url(#clip-7)">
<path fill="none" stroke-width="1.49377" stroke-linecap="butt" stroke-linejoin="round" stroke="rgb(92.156863%, 92.156863%, 92.156863%)" stroke-opacity="1" stroke-dasharray="5.975079 5.975079" stroke-miterlimit="10" d="M 29.230469 92.175781 L 29.230469 23.1875 "/>
</g>
<g clip-path="url(#clip-8)">
<path fill="none" stroke-width="1.49377" stroke-linecap="butt" stroke-linejoin="round" stroke="rgb(92.156863%, 92.156863%, 92.156863%)" stroke-opacity="1" stroke-dasharray="5.975079 5.975079" stroke-miterlimit="10" d="M 90.460938 92.175781 L 90.460938 23.1875 "/>
</g>
<g clip-path="url(#clip-9)">
<path fill="none" stroke-width="1.49377" stroke-linecap="butt" stroke-linejoin="round" stroke="rgb(92.156863%, 92.156863%, 92.156863%)" stroke-opacity="1" stroke-dasharray="5.975079 5.975079" stroke-miterlimit="10" d="M 151.691406 92.175781 L 151.691406 23.1875 "/>
</g>
<g clip-path="url(#clip-10)">
<path fill="none" stroke-width="1.49377" stroke-linecap="butt" stroke-linejoin="round" stroke="rgb(92.156863%, 92.156863%, 92.156863%)" stroke-opacity="1" stroke-dasharray="5.975079 5.975079" stroke-miterlimit="10" d="M 212.917969 92.175781 L 212.917969 23.1875 "/>
</g>
<g clip-path="url(#clip-11)">
<path fill="none" stroke-width="1.49377" stroke-linecap="butt" stroke-linejoin="round" stroke="rgb(92.156863%, 92.156863%, 92.156863%)" stroke-opacity="1" stroke-dasharray="5.975079 5.975079" stroke-miterlimit="10" d="M 274.148438 92.175781 L 274.148438 23.1875 "/>
</g>
<path fill="none" stroke-width="1.707165" stroke-linecap="butt" stroke-linejoin="round" stroke="rgb(100%, 0%, 0%)" stroke-opacity="1" stroke-dasharray="6.828661 6.828661" stroke-miterlimit="10" d="M 32.292969 60.492188 L 35.355469 58.867188 L 38.414062 57.230469 L 41.476562 55.96875 L 44.539062 55.34375 L 47.597656 54.980469 L 50.660156 54.226562 L 53.722656 52.875 L 56.785156 52.308594 L 59.84375 51.828125 L 62.90625 51.210938 L 65.96875 51.003906 L 69.03125 50.550781 L 72.089844 50.375 L 75.152344 50.289062 L 78.214844 49.957031 L 81.277344 49.601562 L 84.335938 49.601562 L 87.398438 49.488281 L 90.460938 49.363281 L 93.523438 49.113281 L 96.582031 49 L 102.707031 48.992188 L 105.769531 48.9375 L 108.828125 48.925781 L 111.890625 48.925781 L 114.953125 48.910156 L 118.011719 48.734375 L 121.074219 48.734375 L 124.136719 48.699219 L 127.199219 48.699219 L 130.257812 48.429688 L 133.320312 48.417969 L 136.382812 48.417969 L 139.445312 48.351562 L 142.503906 48.351562 L 145.566406 48.222656 L 148.628906 48.074219 L 151.691406 48.054688 L 154.75 47.820312 L 157.8125 47.753906 L 160.875 47.425781 L 163.9375 47.425781 L 166.996094 47.320312 L 173.121094 47.320312 L 176.183594 47.285156 L 185.367188 47.285156 L 188.425781 47.226562 L 191.488281 47.226562 L 194.550781 47.039062 L 197.613281 47.039062 L 200.671875 46.976562 L 231.289062 46.976562 L 234.351562 46.894531 L 246.597656 46.894531 L 249.65625 46.785156 L 252.71875 46.785156 L 255.78125 46.730469 L 274.148438 46.730469 "/>
<path fill="none" stroke-width="1.49377" stroke-linecap="butt" stroke-linejoin="round" stroke="rgb(0%, 0%, 100%)" stroke-opacity="1" stroke-miterlimit="10" d="M 32.292969 72.382812 L 35.355469 67.804688 L 38.414062 64.121094 L 41.476562 64.777344 L 44.539062 76.25 L 47.597656 74.269531 L 50.660156 74.773438 L 53.722656 75.691406 L 56.785156 78.917969 L 59.84375 79.699219 L 62.90625 78.605469 L 65.96875 79.570312 L 69.03125 79.988281 L 72.089844 79.839844 L 75.152344 80.277344 L 78.214844 82.417969 L 81.277344 83 L 84.335938 82.675781 L 87.398438 81.804688 L 90.460938 84.1875 L 93.523438 81.972656 L 96.582031 79.234375 L 99.644531 74.425781 L 102.707031 58.78125 L 105.769531 54.027344 L 108.828125 57.507812 L 111.890625 55 L 114.953125 47.070312 L 118.011719 40.644531 L 121.074219 39.710938 L 124.136719 32.109375 L 127.199219 30.058594 L 130.257812 32.191406 L 133.320312 26.320312 L 136.382812 30.078125 L 139.445312 89.042969 L 142.503906 77.441406 L 145.566406 77.558594 L 148.628906 77.519531 L 151.691406 77.847656 L 154.75 78.003906 L 157.8125 78.488281 L 160.875 77.730469 L 163.9375 77.269531 L 166.996094 76.933594 L 170.058594 76.457031 L 173.121094 76.261719 L 176.183594 75.847656 L 179.242188 76.597656 L 182.304688 77.054688 L 185.367188 77.921875 L 188.425781 78.457031 L 191.488281 78.804688 L 194.550781 79.28125 L 197.613281 73.917969 L 200.671875 76.261719 L 203.734375 76.664062 L 206.796875 77.433594 L 209.859375 77.945312 L 212.917969 78.386719 L 215.980469 78.867188 L 219.042969 77.777344 L 222.105469 75.613281 L 225.164062 79.179688 L 228.226562 74.410156 L 231.289062 74.78125 L 234.351562 76.324219 L 237.410156 78.472656 L 240.472656 78.015625 L 243.535156 78.242188 L 246.597656 78.550781 L 249.65625 79.394531 L 252.71875 77.695312 L 255.78125 72.988281 L 258.84375 55.496094 L 261.902344 43.511719 L 264.964844 43.40625 L 268.027344 61.40625 L 271.085938 67.109375 L 274.148438 72.308594 "/>
<g clip-path="url(#clip-12)">
<path fill-rule="nonzero" fill="rgb(54.901961%, 54.901961%, 54.901961%)" fill-opacity="0.298039" d="M 114.953125 92.175781 L 139.445312 92.175781 L 139.445312 23.183594 L 114.953125 23.183594 Z M 114.953125 92.175781 "/>
</g>
<g clip-path="url(#clip-13)">
<path fill-rule="nonzero" fill="rgb(54.901961%, 54.901961%, 54.901961%)" fill-opacity="0.298039" d="M 261.902344 92.175781 L 268.023438 92.175781 L 268.023438 23.183594 L 261.902344 23.183594 Z M 261.902344 92.175781 "/>
</g>
<g clip-path="url(#clip-14)">
<path fill="none" stroke-width="1.066978" stroke-linecap="round" stroke-linejoin="round" stroke="rgb(74.901961%, 74.901961%, 74.901961%)" stroke-opacity="1" stroke-miterlimit="10" d="M 20.199219 92.175781 L 286.242188 92.175781 L 286.242188 23.183594 L 20.199219 23.183594 Z M 20.199219 92.175781 "/>
</g>
<g clip-path="url(#clip-15)">
<path fill-rule="nonzero" fill="rgb(100%, 100%, 100%)" fill-opacity="1" d="M 20.199219 197.4375 L 286.242188 197.4375 L 286.242188 128.445312 L 20.199219 128.445312 Z M 20.199219 197.4375 "/>
</g>
<g clip-path="url(#clip-16)">
<path fill="none" stroke-width="1.49377" stroke-linecap="butt" stroke-linejoin="round" stroke="rgb(92.156863%, 92.156863%, 92.156863%)" stroke-opacity="1" stroke-dasharray="5.975079 5.975079" stroke-miterlimit="10" d="M 20.199219 189.660156 L 286.242188 189.660156 "/>
</g>
<g clip-path="url(#clip-17)">
<path fill="none" stroke-width="1.49377" stroke-linecap="butt" stroke-linejoin="round" stroke="rgb(92.156863%, 92.156863%, 92.156863%)" stroke-opacity="1" stroke-dasharray="5.975079 5.975079" stroke-miterlimit="10" d="M 20.199219 169.839844 L 286.242188 169.839844 "/>
</g>
<g clip-path="url(#clip-18)">
<path fill="none" stroke-width="1.49377" stroke-linecap="butt" stroke-linejoin="round" stroke="rgb(92.156863%, 92.156863%, 92.156863%)" stroke-opacity="1" stroke-dasharray="5.975079 5.975079" stroke-miterlimit="10" d="M 20.199219 150.019531 L 286.242188 150.019531 "/>
</g>
<g clip-path="url(#clip-19)">
<path fill="none" stroke-width="1.49377" stroke-linecap="butt" stroke-linejoin="round" stroke="rgb(92.156863%, 92.156863%, 92.156863%)" stroke-opacity="1" stroke-dasharray="5.975079 5.975079" stroke-miterlimit="10" d="M 20.199219 130.195312 L 286.242188 130.195312 "/>
</g>
<g clip-path="url(#clip-20)">
<path fill="none" stroke-width="1.49377" stroke-linecap="butt" stroke-linejoin="round" stroke="rgb(92.156863%, 92.156863%, 92.156863%)" stroke-opacity="1" stroke-dasharray="5.975079 5.975079" stroke-miterlimit="10" d="M 29.230469 197.4375 L 29.230469 128.445312 "/>
</g>
<g clip-path="url(#clip-21)">
<path fill="none" stroke-width="1.49377" stroke-linecap="butt" stroke-linejoin="round" stroke="rgb(92.156863%, 92.156863%, 92.156863%)" stroke-opacity="1" stroke-dasharray="5.975079 5.975079" stroke-miterlimit="10" d="M 90.460938 197.4375 L 90.460938 128.445312 "/>
</g>
<g clip-path="url(#clip-22)">
<path fill="none" stroke-width="1.49377" stroke-linecap="butt" stroke-linejoin="round" stroke="rgb(92.156863%, 92.156863%, 92.156863%)" stroke-opacity="1" stroke-dasharray="5.975079 5.975079" stroke-miterlimit="10" d="M 151.691406 197.4375 L 151.691406 128.445312 "/>
</g>
<g clip-path="url(#clip-23)">
<path fill="none" stroke-width="1.49377" stroke-linecap="butt" stroke-linejoin="round" stroke="rgb(92.156863%, 92.156863%, 92.156863%)" stroke-opacity="1" stroke-dasharray="5.975079 5.975079" stroke-miterlimit="10" d="M 212.917969 197.4375 L 212.917969 128.445312 "/>
</g>
<g clip-path="url(#clip-24)">
<path fill="none" stroke-width="1.49377" stroke-linecap="butt" stroke-linejoin="round" stroke="rgb(92.156863%, 92.156863%, 92.156863%)" stroke-opacity="1" stroke-dasharray="5.975079 5.975079" stroke-miterlimit="10" d="M 274.148438 197.4375 L 274.148438 128.445312 "/>
</g>
<path fill="none" stroke-width="1.707165" stroke-linecap="butt" stroke-linejoin="round" stroke="rgb(100%, 0%, 0%)" stroke-opacity="1" stroke-dasharray="6.828661 6.828661" stroke-miterlimit="10" d="M 32.292969 189.570312 L 35.355469 189.269531 L 38.414062 188.96875 L 41.476562 188.738281 L 44.539062 188.625 L 47.597656 188.554688 L 50.660156 188.417969 L 53.722656 188.171875 L 56.785156 188.066406 L 59.84375 187.976562 L 62.90625 187.863281 L 65.96875 187.828125 L 69.03125 187.742188 L 72.089844 187.710938 L 75.152344 187.695312 L 81.277344 187.570312 L 84.335938 187.570312 L 90.460938 187.523438 L 93.523438 187.480469 L 96.582031 187.460938 L 99.644531 187.457031 L 102.707031 187.457031 L 105.769531 187.449219 L 108.828125 187.445312 L 111.890625 187.445312 L 114.953125 187.441406 L 118.011719 187.410156 L 121.074219 187.410156 L 124.136719 187.402344 L 127.199219 187.402344 L 130.257812 187.355469 L 133.320312 187.351562 L 136.382812 187.351562 L 139.445312 187.339844 L 142.503906 187.339844 L 145.566406 187.316406 L 148.628906 187.289062 L 151.691406 187.285156 L 154.75 187.242188 L 157.8125 187.230469 L 160.875 187.167969 L 163.9375 187.167969 L 166.996094 187.152344 L 173.121094 187.152344 L 176.183594 187.144531 L 185.367188 187.144531 L 188.425781 187.132812 L 191.488281 187.132812 L 194.550781 187.097656 L 197.613281 187.097656 L 200.671875 187.085938 L 231.289062 187.085938 L 234.351562 187.074219 L 246.597656 187.074219 L 249.65625 187.050781 L 252.71875 187.050781 L 255.78125 187.042969 L 274.148438 187.042969 "/>
<path fill="none" stroke-width="1.49377" stroke-linecap="butt" stroke-linejoin="round" stroke="rgb(0%, 0%, 100%)" stroke-opacity="1" stroke-miterlimit="10" d="M 32.292969 192.929688 L 35.355469 192.722656 L 38.414062 192.738281 L 41.476562 192.519531 L 44.539062 192.367188 L 47.597656 192.210938 L 50.660156 192.246094 L 53.722656 192.4375 L 56.785156 192.507812 L 59.84375 192.53125 L 62.90625 192.570312 L 65.96875 192.558594 L 69.03125 192.453125 L 72.089844 192.179688 L 75.152344 192.007812 L 78.214844 191.507812 L 81.277344 189.257812 L 84.335938 186.890625 L 87.398438 178.296875 L 90.460938 174.125 L 93.523438 172.742188 L 96.582031 189.003906 L 99.644531 193.933594 L 102.707031 193.9375 L 105.769531 193.953125 L 108.828125 193.9375 L 111.890625 193.921875 L 114.953125 193.921875 L 118.011719 193.925781 L 121.074219 193.90625 L 124.136719 193.894531 L 127.199219 193.871094 L 130.257812 193.851562 L 133.320312 193.824219 L 136.382812 193.789062 L 139.445312 193.738281 L 142.503906 193.746094 L 148.628906 194.003906 L 151.691406 194.121094 L 154.75 188.109375 L 157.8125 192.929688 L 160.875 193.433594 L 163.9375 193.515625 L 166.996094 193.828125 L 173.121094 194.078125 L 176.183594 194.195312 L 179.242188 194.300781 L 182.304688 194.203125 L 185.367188 194.128906 L 188.425781 193.828125 L 191.488281 193.191406 L 194.550781 192.546875 L 197.613281 189.839844 L 200.671875 185.230469 L 203.734375 178.304688 L 206.796875 170.03125 L 209.859375 164.113281 L 212.917969 151.105469 L 215.980469 141.046875 L 219.042969 144.53125 L 222.105469 131.582031 L 225.164062 133.128906 L 228.226562 132.828125 L 231.289062 162.261719 L 234.351562 159.851562 L 237.410156 191.351562 L 240.472656 193.75 L 243.535156 193.746094 L 246.597656 193.746094 L 249.65625 193.742188 L 255.78125 193.734375 L 258.84375 193.726562 L 261.902344 193.710938 L 264.964844 193.691406 L 268.027344 193.667969 L 271.085938 193.632812 L 274.148438 193.578125 "/>
<g clip-path="url(#clip-25)">
<path fill-rule="nonzero" fill="rgb(54.901961%, 54.901961%, 54.901961%)" fill-opacity="0.298039" d="M 84.335938 197.4375 L 96.582031 197.4375 L 96.582031 128.445312 L 84.335938 128.445312 Z M 84.335938 197.4375 "/>
</g>
<g clip-path="url(#clip-26)">
<path fill-rule="nonzero" fill="rgb(54.901961%, 54.901961%, 54.901961%)" fill-opacity="0.298039" d="M 200.671875 197.4375 L 237.410156 197.4375 L 237.410156 128.445312 L 200.671875 128.445312 Z M 200.671875 197.4375 "/>
</g>
<g clip-path="url(#clip-27)">
<path fill="none" stroke-width="1.066978" stroke-linecap="round" stroke-linejoin="round" stroke="rgb(74.901961%, 74.901961%, 74.901961%)" stroke-opacity="1" stroke-miterlimit="10" d="M 20.199219 197.4375 L 286.242188 197.4375 L 286.242188 128.445312 L 20.199219 128.445312 Z M 20.199219 197.4375 "/>
</g>
<g clip-path="url(#clip-28)">
<path fill-rule="nonzero" fill="rgb(100%, 100%, 100%)" fill-opacity="1" d="M 304.476562 92.175781 L 570.519531 92.175781 L 570.519531 23.183594 L 304.476562 23.183594 Z M 304.476562 92.175781 "/>
</g>
<g clip-path="url(#clip-29)">
<path fill="none" stroke-width="1.49377" stroke-linecap="butt" stroke-linejoin="round" stroke="rgb(92.156863%, 92.156863%, 92.156863%)" stroke-opacity="1" stroke-dasharray="5.975079 5.975079" stroke-miterlimit="10" d="M 304.476562 71.65625 L 570.519531 71.65625 "/>
</g>
<g clip-path="url(#clip-30)">
<path fill="none" stroke-width="1.49377" stroke-linecap="butt" stroke-linejoin="round" stroke="rgb(92.156863%, 92.156863%, 92.156863%)" stroke-opacity="1" stroke-dasharray="5.975079 5.975079" stroke-miterlimit="10" d="M 304.476562 49.480469 L 570.519531 49.480469 "/>
</g>
<g clip-path="url(#clip-31)">
<path fill="none" stroke-width="1.49377" stroke-linecap="butt" stroke-linejoin="round" stroke="rgb(92.156863%, 92.156863%, 92.156863%)" stroke-opacity="1" stroke-dasharray="5.975079 5.975079" stroke-miterlimit="10" d="M 304.476562 27.304688 L 570.519531 27.304688 "/>
</g>
<g clip-path="url(#clip-32)">
<path fill="none" stroke-width="1.49377" stroke-linecap="butt" stroke-linejoin="round" stroke="rgb(92.156863%, 92.156863%, 92.156863%)" stroke-opacity="1" stroke-dasharray="5.975079 5.975079" stroke-miterlimit="10" d="M 313.507812 92.175781 L 313.507812 23.1875 "/>
</g>
<g clip-path="url(#clip-33)">
<path fill="none" stroke-width="1.49377" stroke-linecap="butt" stroke-linejoin="round" stroke="rgb(92.156863%, 92.156863%, 92.156863%)" stroke-opacity="1" stroke-dasharray="5.975079 5.975079" stroke-miterlimit="10" d="M 374.738281 92.175781 L 374.738281 23.1875 "/>
</g>
<g clip-path="url(#clip-34)">
<path fill="none" stroke-width="1.49377" stroke-linecap="butt" stroke-linejoin="round" stroke="rgb(92.156863%, 92.156863%, 92.156863%)" stroke-opacity="1" stroke-dasharray="5.975079 5.975079" stroke-miterlimit="10" d="M 435.96875 92.175781 L 435.96875 23.1875 "/>
</g>
<g clip-path="url(#clip-35)">
<path fill="none" stroke-width="1.49377" stroke-linecap="butt" stroke-linejoin="round" stroke="rgb(92.156863%, 92.156863%, 92.156863%)" stroke-opacity="1" stroke-dasharray="5.975079 5.975079" stroke-miterlimit="10" d="M 497.199219 92.175781 L 497.199219 23.1875 "/>
</g>
<g clip-path="url(#clip-36)">
<path fill="none" stroke-width="1.49377" stroke-linecap="butt" stroke-linejoin="round" stroke="rgb(92.156863%, 92.156863%, 92.156863%)" stroke-opacity="1" stroke-dasharray="5.975079 5.975079" stroke-miterlimit="10" d="M 558.425781 92.175781 L 558.425781 23.1875 "/>
</g>
<path fill="none" stroke-width="1.707165" stroke-linecap="butt" stroke-linejoin="round" stroke="rgb(100%, 0%, 0%)" stroke-opacity="1" stroke-dasharray="6.828661 6.828661" stroke-miterlimit="10" d="M 316.570312 71.132812 L 319.632812 69.464844 L 322.695312 67.785156 L 325.753906 66.488281 L 328.816406 65.847656 L 331.878906 65.472656 L 334.9375 64.699219 L 338 63.3125 L 341.0625 62.726562 L 344.125 62.238281 L 347.183594 61.601562 L 350.246094 61.390625 L 353.308594 60.925781 L 356.371094 60.746094 L 359.429688 60.65625 L 362.492188 60.316406 L 365.554688 59.953125 L 368.617188 59.953125 L 371.675781 59.835938 L 374.738281 59.707031 L 377.800781 59.449219 L 380.863281 59.335938 L 383.921875 59.328125 L 386.984375 59.324219 L 390.046875 59.269531 L 393.109375 59.257812 L 396.167969 59.257812 L 399.230469 59.242188 L 402.292969 59.0625 L 405.355469 59.0625 L 408.414062 59.027344 L 411.476562 59.027344 L 414.539062 58.746094 L 417.597656 58.738281 L 420.660156 58.738281 L 423.722656 58.667969 L 426.785156 58.667969 L 429.84375 58.535156 L 432.90625 58.382812 L 435.96875 58.363281 L 439.03125 58.121094 L 442.089844 58.054688 L 445.152344 57.714844 L 448.214844 57.714844 L 451.277344 57.609375 L 457.398438 57.609375 L 460.460938 57.574219 L 469.644531 57.574219 L 472.707031 57.511719 L 475.769531 57.511719 L 478.828125 57.320312 L 481.890625 57.320312 L 484.953125 57.257812 L 515.566406 57.257812 L 518.628906 57.171875 L 530.875 57.171875 L 533.9375 57.058594 L 536.996094 57.058594 L 540.058594 57.003906 L 558.425781 57.003906 "/>
<path fill="none" stroke-width="1.49377" stroke-linecap="butt" stroke-linejoin="round" stroke="rgb(0%, 0%, 100%)" stroke-opacity="1" stroke-miterlimit="10" d="M 316.570312 72.304688 L 319.632812 58.621094 L 322.695312 56.277344 L 325.753906 44.953125 L 328.816406 34.617188 L 331.878906 35.96875 L 334.9375 53.527344 L 338 48.347656 L 341.0625 47.882812 L 344.125 42.179688 L 347.183594 39.023438 L 350.246094 34.375 L 353.308594 31.636719 L 356.371094 26.320312 L 359.429688 26.460938 L 362.492188 28.367188 L 365.554688 28.175781 L 368.617188 32.28125 L 371.675781 30.796875 L 374.738281 28.40625 L 377.800781 86.0625 L 380.863281 89.042969 L 383.921875 88.4375 L 386.984375 86.335938 L 390.046875 85.8125 L 393.109375 85.363281 L 396.167969 85.144531 L 399.230469 84.550781 L 402.292969 84.140625 L 405.355469 83.925781 L 408.414062 83.8125 L 411.476562 84.003906 L 414.539062 84.726562 L 417.597656 84.960938 L 420.660156 85.464844 L 423.722656 85.59375 L 426.785156 85.570312 L 429.84375 85.785156 L 432.90625 86.199219 L 435.96875 86.808594 L 439.03125 84.601562 L 442.089844 84.988281 L 445.152344 71.660156 L 448.214844 69.285156 L 451.277344 63.769531 L 454.335938 57.617188 L 457.398438 57.453125 L 460.460938 61.382812 L 463.523438 58.800781 L 466.582031 54.515625 L 469.644531 86.53125 L 472.707031 87.976562 L 475.769531 88.292969 L 478.828125 87.707031 L 481.890625 88.085938 L 484.953125 88.210938 L 488.011719 87.921875 L 491.074219 88.757812 L 494.136719 88.523438 L 497.199219 87.5625 L 500.257812 86.917969 L 503.320312 86.976562 L 506.382812 86.257812 L 509.445312 86.429688 L 512.503906 86.042969 L 515.566406 84.964844 L 518.628906 86.429688 L 521.691406 86.203125 L 524.75 86.140625 L 527.8125 81.449219 L 530.875 78.023438 L 533.9375 84.007812 L 536.996094 86.734375 L 540.058594 87.105469 L 543.121094 87.507812 L 546.183594 84.921875 L 549.242188 81.785156 L 552.304688 88.070312 L 555.367188 87.796875 L 558.425781 86.433594 "/>
<g clip-path="url(#clip-37)">
<path fill-rule="nonzero" fill="rgb(54.901961%, 54.901961%, 54.901961%)" fill-opacity="0.298039" d="M 319.632812 92.175781 L 377.800781 92.175781 L 377.800781 23.183594 L 319.632812 23.183594 Z M 319.632812 92.175781 "/>
</g>
<g clip-path="url(#clip-38)">
<path fill-rule="nonzero" fill="rgb(54.901961%, 54.901961%, 54.901961%)" fill-opacity="0.298039" d="M 457.398438 92.175781 L 460.460938 92.175781 L 460.460938 23.183594 L 457.398438 23.183594 Z M 457.398438 92.175781 "/>
</g>
<g clip-path="url(#clip-39)">
<path fill-rule="nonzero" fill="rgb(54.901961%, 54.901961%, 54.901961%)" fill-opacity="0.298039" d="M 466.582031 92.175781 L 469.644531 92.175781 L 469.644531 23.183594 L 466.582031 23.183594 Z M 466.582031 92.175781 "/>
</g>
<g clip-path="url(#clip-40)">
<path fill="none" stroke-width="1.066978" stroke-linecap="round" stroke-linejoin="round" stroke="rgb(74.901961%, 74.901961%, 74.901961%)" stroke-opacity="1" stroke-miterlimit="10" d="M 304.476562 92.175781 L 570.519531 92.175781 L 570.519531 23.183594 L 304.476562 23.183594 Z M 304.476562 92.175781 "/>
</g>
<g clip-path="url(#clip-41)">
<path fill-rule="nonzero" fill="rgb(100%, 100%, 100%)" fill-opacity="1" d="M 304.476562 197.4375 L 570.519531 197.4375 L 570.519531 128.445312 L 304.476562 128.445312 Z M 304.476562 197.4375 "/>
</g>
<g clip-path="url(#clip-42)">
<path fill="none" stroke-width="1.49377" stroke-linecap="butt" stroke-linejoin="round" stroke="rgb(92.156863%, 92.156863%, 92.156863%)" stroke-opacity="1" stroke-dasharray="5.975079 5.975079" stroke-miterlimit="10" d="M 304.476562 185.71875 L 570.519531 185.71875 "/>
</g>
<g clip-path="url(#clip-43)">
<path fill="none" stroke-width="1.49377" stroke-linecap="butt" stroke-linejoin="round" stroke="rgb(92.156863%, 92.156863%, 92.156863%)" stroke-opacity="1" stroke-dasharray="5.975079 5.975079" stroke-miterlimit="10" d="M 304.476562 173.796875 L 570.519531 173.796875 "/>
</g>
<g clip-path="url(#clip-44)">
<path fill="none" stroke-width="1.49377" stroke-linecap="butt" stroke-linejoin="round" stroke="rgb(92.156863%, 92.156863%, 92.156863%)" stroke-opacity="1" stroke-dasharray="5.975079 5.975079" stroke-miterlimit="10" d="M 304.476562 161.875 L 570.519531 161.875 "/>
</g>
<g clip-path="url(#clip-45)">
<path fill="none" stroke-width="1.49377" stroke-linecap="butt" stroke-linejoin="round" stroke="rgb(92.156863%, 92.156863%, 92.156863%)" stroke-opacity="1" stroke-dasharray="5.975079 5.975079" stroke-miterlimit="10" d="M 304.476562 149.953125 L 570.519531 149.953125 "/>
</g>
<g clip-path="url(#clip-46)">
<path fill="none" stroke-width="1.49377" stroke-linecap="butt" stroke-linejoin="round" stroke="rgb(92.156863%, 92.156863%, 92.156863%)" stroke-opacity="1" stroke-dasharray="5.975079 5.975079" stroke-miterlimit="10" d="M 304.476562 138.03125 L 570.519531 138.03125 "/>
</g>
<g clip-path="url(#clip-47)">
<path fill="none" stroke-width="1.49377" stroke-linecap="butt" stroke-linejoin="round" stroke="rgb(92.156863%, 92.156863%, 92.156863%)" stroke-opacity="1" stroke-dasharray="5.975079 5.975079" stroke-miterlimit="10" d="M 313.507812 197.4375 L 313.507812 128.445312 "/>
</g>
<g clip-path="url(#clip-48)">
<path fill="none" stroke-width="1.49377" stroke-linecap="butt" stroke-linejoin="round" stroke="rgb(92.156863%, 92.156863%, 92.156863%)" stroke-opacity="1" stroke-dasharray="5.975079 5.975079" stroke-miterlimit="10" d="M 374.738281 197.4375 L 374.738281 128.445312 "/>
</g>
<g clip-path="url(#clip-49)">
<path fill="none" stroke-width="1.49377" stroke-linecap="butt" stroke-linejoin="round" stroke="rgb(92.156863%, 92.156863%, 92.156863%)" stroke-opacity="1" stroke-dasharray="5.975079 5.975079" stroke-miterlimit="10" d="M 435.96875 197.4375 L 435.96875 128.445312 "/>
</g>
<g clip-path="url(#clip-50)">
<path fill="none" stroke-width="1.49377" stroke-linecap="butt" stroke-linejoin="round" stroke="rgb(92.156863%, 92.156863%, 92.156863%)" stroke-opacity="1" stroke-dasharray="5.975079 5.975079" stroke-miterlimit="10" d="M 497.199219 197.4375 L 497.199219 128.445312 "/>
</g>
<g clip-path="url(#clip-51)">
<path fill="none" stroke-width="1.49377" stroke-linecap="butt" stroke-linejoin="round" stroke="rgb(92.156863%, 92.156863%, 92.156863%)" stroke-opacity="1" stroke-dasharray="5.975079 5.975079" stroke-miterlimit="10" d="M 558.425781 197.4375 L 558.425781 128.445312 "/>
</g>
<path fill="none" stroke-width="1.707165" stroke-linecap="butt" stroke-linejoin="round" stroke="rgb(100%, 0%, 0%)" stroke-opacity="1" stroke-dasharray="6.828661 6.828661" stroke-miterlimit="10" d="M 316.570312 149.390625 L 319.632812 147.59375 L 322.695312 145.789062 L 325.753906 144.394531 L 328.816406 143.707031 L 331.878906 143.304688 L 334.9375 142.472656 L 338 140.980469 L 341.0625 140.355469 L 344.125 139.828125 L 347.183594 139.144531 L 350.246094 138.914062 L 353.308594 138.414062 L 356.371094 138.222656 L 359.429688 138.125 L 362.492188 137.761719 L 365.554688 137.367188 L 368.617188 137.367188 L 371.675781 137.242188 L 374.738281 137.101562 L 377.800781 136.824219 L 380.863281 136.703125 L 383.921875 136.699219 L 386.984375 136.691406 L 390.046875 136.636719 L 393.109375 136.621094 L 396.167969 136.621094 L 399.230469 136.605469 L 402.292969 136.410156 L 405.355469 136.410156 L 408.414062 136.371094 L 411.476562 136.371094 L 414.539062 136.070312 L 417.597656 136.0625 L 420.660156 136.0625 L 423.722656 135.988281 L 426.785156 135.988281 L 429.84375 135.847656 L 432.90625 135.679688 L 435.96875 135.660156 L 439.03125 135.398438 L 442.089844 135.328125 L 445.152344 134.964844 L 448.214844 134.964844 L 451.277344 134.851562 L 457.398438 134.851562 L 460.460938 134.8125 L 469.644531 134.8125 L 472.707031 134.746094 L 475.769531 134.746094 L 478.828125 134.539062 L 481.890625 134.539062 L 484.953125 134.46875 L 515.566406 134.46875 L 518.628906 134.378906 L 530.875 134.378906 L 533.9375 134.257812 L 536.996094 134.257812 L 540.058594 134.199219 L 558.425781 134.199219 "/>
<path fill="none" stroke-width="1.49377" stroke-linecap="butt" stroke-linejoin="round" stroke="rgb(0%, 0%, 100%)" stroke-opacity="1" stroke-miterlimit="10" d="M 316.570312 172.179688 L 319.632812 173.3125 L 322.695312 173.195312 L 325.753906 173.472656 L 328.816406 174.085938 L 331.878906 175.199219 L 334.9375 175.300781 L 338 175.832031 L 341.0625 176.980469 L 344.125 177.707031 L 347.183594 165.140625 L 350.246094 151.335938 L 353.308594 131.582031 L 356.371094 168.117188 L 359.429688 174.484375 L 362.492188 174.96875 L 365.554688 175.121094 L 368.617188 175.445312 L 371.675781 176.3125 L 374.738281 176.851562 L 377.800781 174.808594 L 380.863281 179.773438 L 383.921875 181.089844 L 386.984375 182.597656 L 390.046875 182.828125 L 393.109375 183.558594 L 396.167969 184.578125 L 399.230469 183.414062 L 402.292969 182.535156 L 405.355469 181.25 L 408.414062 182.558594 L 411.476562 184.332031 L 414.539062 184.554688 L 417.597656 184.953125 L 420.660156 185.773438 L 423.722656 186.128906 L 426.785156 187.332031 L 429.84375 188.199219 L 432.90625 187.332031 L 435.96875 189.691406 L 439.03125 190.34375 L 442.089844 191.675781 L 445.152344 192.511719 L 448.214844 193.082031 L 451.277344 193.621094 L 454.335938 194.199219 L 457.398438 194.300781 L 460.460938 189.167969 L 463.523438 177.710938 L 466.582031 190.304688 L 469.644531 190.710938 L 472.707031 190.5625 L 475.769531 186.398438 L 478.828125 188.050781 L 481.890625 187.5 L 484.953125 183.722656 L 488.011719 186.199219 L 491.074219 188.28125 L 494.136719 185.730469 L 497.199219 187.820312 L 500.257812 175.207031 L 503.320312 180.03125 L 506.382812 180.699219 L 509.445312 177.328125 L 512.503906 175.136719 L 515.566406 174.78125 L 518.628906 179.183594 L 521.691406 179.929688 L 524.75 183.21875 L 527.8125 181.386719 L 530.875 179.597656 L 533.9375 178.941406 L 536.996094 177.140625 L 540.058594 178.140625 L 543.121094 177.128906 L 546.183594 174.996094 L 549.242188 176.9375 L 552.304688 177.972656 L 555.367188 173.746094 L 558.425781 168.113281 "/>
<g clip-path="url(#clip-52)">
<path fill-rule="nonzero" fill="rgb(54.901961%, 54.901961%, 54.901961%)" fill-opacity="0.298039" d="M 353.308594 197.4375 L 356.371094 197.4375 L 356.371094 128.445312 L 353.308594 128.445312 Z M 353.308594 197.4375 "/>
</g>
<g clip-path="url(#clip-53)">
<path fill="none" stroke-width="1.066978" stroke-linecap="round" stroke-linejoin="round" stroke="rgb(74.901961%, 74.901961%, 74.901961%)" stroke-opacity="1" stroke-miterlimit="10" d="M 304.476562 197.4375 L 570.519531 197.4375 L 570.519531 128.445312 L 304.476562 128.445312 Z M 304.476562 197.4375 "/>
</g>
<g clip-path="url(#clip-54)">
<g fill="rgb(10.196078%, 10.196078%, 10.196078%)" fill-opacity="1">
<use xlink:href="#glyph-0-0" x="20.199219" y="120.1875"/>
<use xlink:href="#glyph-0-1" x="27.54043" y="120.1875"/>
<use xlink:href="#glyph-0-2" x="34.14043" y="120.1875"/>
<use xlink:href="#glyph-0-3" x="41.481641" y="120.1875"/>
<use xlink:href="#glyph-0-4" x="48.822852" y="120.1875"/>
</g>
</g>
<g clip-path="url(#clip-55)">
<g fill="rgb(10.196078%, 10.196078%, 10.196078%)" fill-opacity="1">
<use xlink:href="#glyph-0-5" x="304.476562" y="120.1875"/>
<use xlink:href="#glyph-0-6" x="311.817773" y="120.1875"/>
<use xlink:href="#glyph-0-2" x="314.750391" y="120.1875"/>
<use xlink:href="#glyph-0-3" x="322.091602" y="120.1875"/>
</g>
</g>
<g clip-path="url(#clip-56)">
<g fill="rgb(10.196078%, 10.196078%, 10.196078%)" fill-opacity="1">
<use xlink:href="#glyph-0-7" x="20.199219" y="14.929688"/>
<use xlink:href="#glyph-0-4" x="27.54043" y="14.929688"/>
<use xlink:href="#glyph-0-8" x="34.14043" y="14.929688"/>
<use xlink:href="#glyph-0-9" x="40.74043" y="14.929688"/>
</g>
</g>
<g clip-path="url(#clip-57)">
<g fill="rgb(10.196078%, 10.196078%, 10.196078%)" fill-opacity="1">
<use xlink:href="#glyph-0-7" x="304.476562" y="14.929688"/>
<use xlink:href="#glyph-0-4" x="311.817773" y="14.929688"/>
<use xlink:href="#glyph-0-8" x="318.417773" y="14.929688"/>
<use xlink:href="#glyph-0-10" x="325.017773" y="14.929688"/>
</g>
</g>
<path fill="none" stroke-width="1.066978" stroke-linecap="butt" stroke-linejoin="round" stroke="rgb(20%, 20%, 20%)" stroke-opacity="1" stroke-miterlimit="10" d="M 29.230469 200.175781 L 29.230469 197.4375 "/>
<path fill="none" stroke-width="1.066978" stroke-linecap="butt" stroke-linejoin="round" stroke="rgb(20%, 20%, 20%)" stroke-opacity="1" stroke-miterlimit="10" d="M 90.460938 200.175781 L 90.460938 197.4375 "/>
<path fill="none" stroke-width="1.066978" stroke-linecap="butt" stroke-linejoin="round" stroke="rgb(20%, 20%, 20%)" stroke-opacity="1" stroke-miterlimit="10" d="M 151.691406 200.175781 L 151.691406 197.4375 "/>
<path fill="none" stroke-width="1.066978" stroke-linecap="butt" stroke-linejoin="round" stroke="rgb(20%, 20%, 20%)" stroke-opacity="1" stroke-miterlimit="10" d="M 212.917969 200.175781 L 212.917969 197.4375 "/>
<path fill="none" stroke-width="1.066978" stroke-linecap="butt" stroke-linejoin="round" stroke="rgb(20%, 20%, 20%)" stroke-opacity="1" stroke-miterlimit="10" d="M 274.148438 200.175781 L 274.148438 197.4375 "/>
<g fill="rgb(30.196078%, 30.196078%, 30.196078%)" fill-opacity="1">
<use xlink:href="#glyph-1-0" x="24.335938" y="208.667969"/>
<use xlink:href="#glyph-1-1" x="29.230078" y="208.667969"/>
</g>
<g fill="rgb(30.196078%, 30.196078%, 30.196078%)" fill-opacity="1">
<use xlink:href="#glyph-1-2" x="85.566406" y="208.667969"/>
<use xlink:href="#glyph-1-1" x="90.460547" y="208.667969"/>
</g>
<g fill="rgb(30.196078%, 30.196078%, 30.196078%)" fill-opacity="1">
<use xlink:href="#glyph-1-3" x="146.796875" y="208.667969"/>
<use xlink:href="#glyph-1-1" x="151.691016" y="208.667969"/>
</g>
<g fill="rgb(30.196078%, 30.196078%, 30.196078%)" fill-opacity="1">
<use xlink:href="#glyph-1-4" x="208.023438" y="208.667969"/>
<use xlink:href="#glyph-1-1" x="212.917578" y="208.667969"/>
</g>
<g fill="rgb(30.196078%, 30.196078%, 30.196078%)" fill-opacity="1">
<use xlink:href="#glyph-1-5" x="266.808594" y="208.667969"/>
<use xlink:href="#glyph-1-1" x="271.702734" y="208.667969"/>
<use xlink:href="#glyph-1-1" x="276.596875" y="208.667969"/>
</g>
<path fill="none" stroke-width="1.066978" stroke-linecap="butt" stroke-linejoin="round" stroke="rgb(20%, 20%, 20%)" stroke-opacity="1" stroke-miterlimit="10" d="M 313.507812 200.175781 L 313.507812 197.4375 "/>
<path fill="none" stroke-width="1.066978" stroke-linecap="butt" stroke-linejoin="round" stroke="rgb(20%, 20%, 20%)" stroke-opacity="1" stroke-miterlimit="10" d="M 374.738281 200.175781 L 374.738281 197.4375 "/>
<path fill="none" stroke-width="1.066978" stroke-linecap="butt" stroke-linejoin="round" stroke="rgb(20%, 20%, 20%)" stroke-opacity="1" stroke-miterlimit="10" d="M 435.96875 200.175781 L 435.96875 197.4375 "/>
<path fill="none" stroke-width="1.066978" stroke-linecap="butt" stroke-linejoin="round" stroke="rgb(20%, 20%, 20%)" stroke-opacity="1" stroke-miterlimit="10" d="M 497.199219 200.175781 L 497.199219 197.4375 "/>
<path fill="none" stroke-width="1.066978" stroke-linecap="butt" stroke-linejoin="round" stroke="rgb(20%, 20%, 20%)" stroke-opacity="1" stroke-miterlimit="10" d="M 558.425781 200.175781 L 558.425781 197.4375 "/>
<g fill="rgb(30.196078%, 30.196078%, 30.196078%)" fill-opacity="1">
<use xlink:href="#glyph-1-0" x="308.613281" y="208.667969"/>
<use xlink:href="#glyph-1-1" x="313.507422" y="208.667969"/>
</g>
<g fill="rgb(30.196078%, 30.196078%, 30.196078%)" fill-opacity="1">
<use xlink:href="#glyph-1-2" x="369.84375" y="208.667969"/>
<use xlink:href="#glyph-1-1" x="374.737891" y="208.667969"/>
</g>
<g fill="rgb(30.196078%, 30.196078%, 30.196078%)" fill-opacity="1">
<use xlink:href="#glyph-1-3" x="431.074219" y="208.667969"/>
<use xlink:href="#glyph-1-1" x="435.968359" y="208.667969"/>
</g>
<g fill="rgb(30.196078%, 30.196078%, 30.196078%)" fill-opacity="1">
<use xlink:href="#glyph-1-4" x="492.304688" y="208.667969"/>
<use xlink:href="#glyph-1-1" x="497.198828" y="208.667969"/>
</g>
<g fill="rgb(30.196078%, 30.196078%, 30.196078%)" fill-opacity="1">
<use xlink:href="#glyph-1-5" x="551.085938" y="208.667969"/>
<use xlink:href="#glyph-1-1" x="555.980078" y="208.667969"/>
<use xlink:href="#glyph-1-1" x="560.874219" y="208.667969"/>
</g>
<path fill="none" stroke-width="1.066978" stroke-linecap="butt" stroke-linejoin="round" stroke="rgb(20%, 20%, 20%)" stroke-opacity="1" stroke-miterlimit="10" d="M 29.230469 94.917969 L 29.230469 92.175781 "/>
<path fill="none" stroke-width="1.066978" stroke-linecap="butt" stroke-linejoin="round" stroke="rgb(20%, 20%, 20%)" stroke-opacity="1" stroke-miterlimit="10" d="M 90.460938 94.917969 L 90.460938 92.175781 "/>
<path fill="none" stroke-width="1.066978" stroke-linecap="butt" stroke-linejoin="round" stroke="rgb(20%, 20%, 20%)" stroke-opacity="1" stroke-miterlimit="10" d="M 151.691406 94.917969 L 151.691406 92.175781 "/>
<path fill="none" stroke-width="1.066978" stroke-linecap="butt" stroke-linejoin="round" stroke="rgb(20%, 20%, 20%)" stroke-opacity="1" stroke-miterlimit="10" d="M 212.917969 94.917969 L 212.917969 92.175781 "/>
<path fill="none" stroke-width="1.066978" stroke-linecap="butt" stroke-linejoin="round" stroke="rgb(20%, 20%, 20%)" stroke-opacity="1" stroke-miterlimit="10" d="M 274.148438 94.917969 L 274.148438 92.175781 "/>
<g fill="rgb(30.196078%, 30.196078%, 30.196078%)" fill-opacity="1">
<use xlink:href="#glyph-1-0" x="24.335938" y="103.410156"/>
<use xlink:href="#glyph-1-1" x="29.230078" y="103.410156"/>
</g>
<g fill="rgb(30.196078%, 30.196078%, 30.196078%)" fill-opacity="1">
<use xlink:href="#glyph-1-2" x="85.566406" y="103.410156"/>
<use xlink:href="#glyph-1-1" x="90.460547" y="103.410156"/>
</g>
<g fill="rgb(30.196078%, 30.196078%, 30.196078%)" fill-opacity="1">
<use xlink:href="#glyph-1-3" x="146.796875" y="103.410156"/>
<use xlink:href="#glyph-1-1" x="151.691016" y="103.410156"/>
</g>
<g fill="rgb(30.196078%, 30.196078%, 30.196078%)" fill-opacity="1">
<use xlink:href="#glyph-1-4" x="208.023438" y="103.410156"/>
<use xlink:href="#glyph-1-1" x="212.917578" y="103.410156"/>
</g>
<g fill="rgb(30.196078%, 30.196078%, 30.196078%)" fill-opacity="1">
<use xlink:href="#glyph-1-5" x="266.808594" y="103.410156"/>
<use xlink:href="#glyph-1-1" x="271.702734" y="103.410156"/>
<use xlink:href="#glyph-1-1" x="276.596875" y="103.410156"/>
</g>
<path fill="none" stroke-width="1.066978" stroke-linecap="butt" stroke-linejoin="round" stroke="rgb(20%, 20%, 20%)" stroke-opacity="1" stroke-miterlimit="10" d="M 313.507812 94.917969 L 313.507812 92.175781 "/>
<path fill="none" stroke-width="1.066978" stroke-linecap="butt" stroke-linejoin="round" stroke="rgb(20%, 20%, 20%)" stroke-opacity="1" stroke-miterlimit="10" d="M 374.738281 94.917969 L 374.738281 92.175781 "/>
<path fill="none" stroke-width="1.066978" stroke-linecap="butt" stroke-linejoin="round" stroke="rgb(20%, 20%, 20%)" stroke-opacity="1" stroke-miterlimit="10" d="M 435.96875 94.917969 L 435.96875 92.175781 "/>
<path fill="none" stroke-width="1.066978" stroke-linecap="butt" stroke-linejoin="round" stroke="rgb(20%, 20%, 20%)" stroke-opacity="1" stroke-miterlimit="10" d="M 497.199219 94.917969 L 497.199219 92.175781 "/>
<path fill="none" stroke-width="1.066978" stroke-linecap="butt" stroke-linejoin="round" stroke="rgb(20%, 20%, 20%)" stroke-opacity="1" stroke-miterlimit="10" d="M 558.425781 94.917969 L 558.425781 92.175781 "/>
<g fill="rgb(30.196078%, 30.196078%, 30.196078%)" fill-opacity="1">
<use xlink:href="#glyph-1-0" x="308.613281" y="103.410156"/>
<use xlink:href="#glyph-1-1" x="313.507422" y="103.410156"/>
</g>
<g fill="rgb(30.196078%, 30.196078%, 30.196078%)" fill-opacity="1">
<use xlink:href="#glyph-1-2" x="369.84375" y="103.410156"/>
<use xlink:href="#glyph-1-1" x="374.737891" y="103.410156"/>
</g>
<g fill="rgb(30.196078%, 30.196078%, 30.196078%)" fill-opacity="1">
<use xlink:href="#glyph-1-3" x="431.074219" y="103.410156"/>
<use xlink:href="#glyph-1-1" x="435.968359" y="103.410156"/>
</g>
<g fill="rgb(30.196078%, 30.196078%, 30.196078%)" fill-opacity="1">
<use xlink:href="#glyph-1-4" x="492.304688" y="103.410156"/>
<use xlink:href="#glyph-1-1" x="497.198828" y="103.410156"/>
</g>
<g fill="rgb(30.196078%, 30.196078%, 30.196078%)" fill-opacity="1">
<use xlink:href="#glyph-1-5" x="551.085938" y="103.410156"/>
<use xlink:href="#glyph-1-1" x="555.980078" y="103.410156"/>
<use xlink:href="#glyph-1-1" x="560.874219" y="103.410156"/>
</g>
<g fill="rgb(30.196078%, 30.196078%, 30.196078%)" fill-opacity="1">
<use xlink:href="#glyph-1-1" x="294.652344" y="74.804688"/>
</g>
<g fill="rgb(30.196078%, 30.196078%, 30.196078%)" fill-opacity="1">
<use xlink:href="#glyph-1-0" x="294.652344" y="52.628906"/>
</g>
<g fill="rgb(30.196078%, 30.196078%, 30.196078%)" fill-opacity="1">
<use xlink:href="#glyph-1-2" x="294.652344" y="30.453125"/>
</g>
<path fill="none" stroke-width="1.066978" stroke-linecap="butt" stroke-linejoin="round" stroke="rgb(20%, 20%, 20%)" stroke-opacity="1" stroke-miterlimit="10" d="M 301.738281 71.65625 L 304.476562 71.65625 "/>
<path fill="none" stroke-width="1.066978" stroke-linecap="butt" stroke-linejoin="round" stroke="rgb(20%, 20%, 20%)" stroke-opacity="1" stroke-miterlimit="10" d="M 301.738281 49.480469 L 304.476562 49.480469 "/>
<path fill="none" stroke-width="1.066978" stroke-linecap="butt" stroke-linejoin="round" stroke="rgb(20%, 20%, 20%)" stroke-opacity="1" stroke-miterlimit="10" d="M 301.738281 27.304688 L 304.476562 27.304688 "/>
<g fill="rgb(30.196078%, 30.196078%, 30.196078%)" fill-opacity="1">
<use xlink:href="#glyph-1-6" x="291.722656" y="188.867188"/>
<use xlink:href="#glyph-1-7" x="294.653125" y="188.867188"/>
</g>
<g fill="rgb(30.196078%, 30.196078%, 30.196078%)" fill-opacity="1">
<use xlink:href="#glyph-1-6" x="291.722656" y="176.945312"/>
<use xlink:href="#glyph-1-0" x="294.653125" y="176.945312"/>
</g>
<g fill="rgb(30.196078%, 30.196078%, 30.196078%)" fill-opacity="1">
<use xlink:href="#glyph-1-6" x="291.722656" y="165.023438"/>
<use xlink:href="#glyph-1-5" x="294.653125" y="165.023438"/>
</g>
<g fill="rgb(30.196078%, 30.196078%, 30.196078%)" fill-opacity="1">
<use xlink:href="#glyph-1-1" x="294.652344" y="153.101562"/>
</g>
<g fill="rgb(30.196078%, 30.196078%, 30.196078%)" fill-opacity="1">
<use xlink:href="#glyph-1-5" x="294.652344" y="141.179688"/>
</g>
<path fill="none" stroke-width="1.066978" stroke-linecap="butt" stroke-linejoin="round" stroke="rgb(20%, 20%, 20%)" stroke-opacity="1" stroke-miterlimit="10" d="M 301.738281 185.71875 L 304.476562 185.71875 "/>
<path fill="none" stroke-width="1.066978" stroke-linecap="butt" stroke-linejoin="round" stroke="rgb(20%, 20%, 20%)" stroke-opacity="1" stroke-miterlimit="10" d="M 301.738281 173.796875 L 304.476562 173.796875 "/>
<path fill="none" stroke-width="1.066978" stroke-linecap="butt" stroke-linejoin="round" stroke="rgb(20%, 20%, 20%)" stroke-opacity="1" stroke-miterlimit="10" d="M 301.738281 161.875 L 304.476562 161.875 "/>
<path fill="none" stroke-width="1.066978" stroke-linecap="butt" stroke-linejoin="round" stroke="rgb(20%, 20%, 20%)" stroke-opacity="1" stroke-miterlimit="10" d="M 301.738281 149.953125 L 304.476562 149.953125 "/>
<path fill="none" stroke-width="1.066978" stroke-linecap="butt" stroke-linejoin="round" stroke="rgb(20%, 20%, 20%)" stroke-opacity="1" stroke-miterlimit="10" d="M 301.738281 138.03125 L 304.476562 138.03125 "/>
<g fill="rgb(30.196078%, 30.196078%, 30.196078%)" fill-opacity="1">
<use xlink:href="#glyph-1-6" x="7.445312" y="85.75"/>
<use xlink:href="#glyph-1-0" x="10.375781" y="85.75"/>
</g>
<g fill="rgb(30.196078%, 30.196078%, 30.196078%)" fill-opacity="1">
<use xlink:href="#glyph-1-6" x="7.445312" y="74.949219"/>
<use xlink:href="#glyph-1-5" x="10.375781" y="74.949219"/>
</g>
<g fill="rgb(30.196078%, 30.196078%, 30.196078%)" fill-opacity="1">
<use xlink:href="#glyph-1-1" x="10.375" y="64.152344"/>
</g>
<g fill="rgb(30.196078%, 30.196078%, 30.196078%)" fill-opacity="1">
<use xlink:href="#glyph-1-5" x="10.375" y="53.351562"/>
</g>
<g fill="rgb(30.196078%, 30.196078%, 30.196078%)" fill-opacity="1">
<use xlink:href="#glyph-1-0" x="10.375" y="42.550781"/>
</g>
<g fill="rgb(30.196078%, 30.196078%, 30.196078%)" fill-opacity="1">
<use xlink:href="#glyph-1-7" x="10.375" y="31.75"/>
</g>
<path fill="none" stroke-width="1.066978" stroke-linecap="butt" stroke-linejoin="round" stroke="rgb(20%, 20%, 20%)" stroke-opacity="1" stroke-miterlimit="10" d="M 17.460938 82.601562 L 20.199219 82.601562 "/>
<path fill="none" stroke-width="1.066978" stroke-linecap="butt" stroke-linejoin="round" stroke="rgb(20%, 20%, 20%)" stroke-opacity="1" stroke-miterlimit="10" d="M 17.460938 71.800781 L 20.199219 71.800781 "/>
<path fill="none" stroke-width="1.066978" stroke-linecap="butt" stroke-linejoin="round" stroke="rgb(20%, 20%, 20%)" stroke-opacity="1" stroke-miterlimit="10" d="M 17.460938 61 L 20.199219 61 "/>
<path fill="none" stroke-width="1.066978" stroke-linecap="butt" stroke-linejoin="round" stroke="rgb(20%, 20%, 20%)" stroke-opacity="1" stroke-miterlimit="10" d="M 17.460938 50.203125 L 20.199219 50.203125 "/>
<path fill="none" stroke-width="1.066978" stroke-linecap="butt" stroke-linejoin="round" stroke="rgb(20%, 20%, 20%)" stroke-opacity="1" stroke-miterlimit="10" d="M 17.460938 39.402344 L 20.199219 39.402344 "/>
<path fill="none" stroke-width="1.066978" stroke-linecap="butt" stroke-linejoin="round" stroke="rgb(20%, 20%, 20%)" stroke-opacity="1" stroke-miterlimit="10" d="M 17.460938 28.601562 L 20.199219 28.601562 "/>
<g fill="rgb(30.196078%, 30.196078%, 30.196078%)" fill-opacity="1">
<use xlink:href="#glyph-1-1" x="10.375" y="192.8125"/>
</g>
<g fill="rgb(30.196078%, 30.196078%, 30.196078%)" fill-opacity="1">
<use xlink:href="#glyph-1-5" x="5.480469" y="172.988281"/>
<use xlink:href="#glyph-1-1" x="10.374609" y="172.988281"/>
</g>
<g fill="rgb(30.196078%, 30.196078%, 30.196078%)" fill-opacity="1">
<use xlink:href="#glyph-1-0" x="5.480469" y="153.167969"/>
<use xlink:href="#glyph-1-1" x="10.374609" y="153.167969"/>
</g>
<g fill="rgb(30.196078%, 30.196078%, 30.196078%)" fill-opacity="1">
<use xlink:href="#glyph-1-7" x="5.480469" y="133.347656"/>
<use xlink:href="#glyph-1-1" x="10.374609" y="133.347656"/>
</g>
<path fill="none" stroke-width="1.066978" stroke-linecap="butt" stroke-linejoin="round" stroke="rgb(20%, 20%, 20%)" stroke-opacity="1" stroke-miterlimit="10" d="M 17.460938 189.660156 L 20.199219 189.660156 "/>
<path fill="none" stroke-width="1.066978" stroke-linecap="butt" stroke-linejoin="round" stroke="rgb(20%, 20%, 20%)" stroke-opacity="1" stroke-miterlimit="10" d="M 17.460938 169.839844 L 20.199219 169.839844 "/>
<path fill="none" stroke-width="1.066978" stroke-linecap="butt" stroke-linejoin="round" stroke="rgb(20%, 20%, 20%)" stroke-opacity="1" stroke-miterlimit="10" d="M 17.460938 150.019531 L 20.199219 150.019531 "/>
<path fill="none" stroke-width="1.066978" stroke-linecap="butt" stroke-linejoin="round" stroke="rgb(20%, 20%, 20%)" stroke-opacity="1" stroke-miterlimit="10" d="M 17.460938 130.195312 L 20.199219 130.195312 "/>
</svg>
