<?xml version="1.0" encoding="UTF-8"?>
<svg xmlns="http://www.w3.org/2000/svg" xmlns:xlink="http://www.w3.org/1999/xlink" width="576pt" height="288pt" viewBox="0 0 576 288">
<defs>
<g>
<g id="glyph-0-0">
<path d="M 4.429688 -0.742188 L 4.429688 0 L 0.265625 0 C 0.257812 -0.1875 0.289062 -0.367188 0.355469 -0.539062 C 0.460938 -0.820312 0.628906 -1.097656 0.863281 -1.375 C 1.09375 -1.648438 1.433594 -1.964844 1.878906 -2.328125 C 2.5625 -2.886719 3.023438 -3.332031 3.265625 -3.664062 C 3.5 -3.988281 3.621094 -4.300781 3.625 -4.59375 C 3.621094 -4.898438 3.511719 -5.15625 3.296875 -5.367188 C 3.074219 -5.578125 2.789062 -5.683594 2.441406 -5.683594 C 2.066406 -5.683594 1.769531 -5.570312 1.546875 -5.347656 C 1.320312 -5.125 1.207031 -4.816406 1.207031 -4.421875 L 0.414062 -4.503906 C 0.464844 -5.09375 0.667969 -5.542969 1.027344 -5.855469 C 1.378906 -6.164062 1.855469 -6.320312 2.457031 -6.324219 C 3.058594 -6.320312 3.539062 -6.152344 3.890625 -5.820312 C 4.242188 -5.484375 4.417969 -5.070312 4.421875 -4.578125 C 4.417969 -4.320312 4.367188 -4.074219 4.265625 -3.832031 C 4.164062 -3.589844 3.992188 -3.332031 3.753906 -3.0625 C 3.511719 -2.792969 3.113281 -2.425781 2.5625 -1.957031 C 2.09375 -1.566406 1.796875 -1.300781 1.664062 -1.160156 C 1.53125 -1.019531 1.421875 -0.878906 1.339844 -0.742188 Z M 4.429688 -0.742188 "/>
</g>
<g id="glyph-0-1">
<path d="M 0.367188 -3.105469 C 0.363281 -3.847656 0.4375 -4.445312 0.59375 -4.902344 C 0.742188 -5.355469 0.972656 -5.707031 1.277344 -5.953125 C 1.578125 -6.199219 1.957031 -6.320312 2.417969 -6.324219 C 2.753906 -6.320312 3.050781 -6.253906 3.308594 -6.121094 C 3.5625 -5.984375 3.773438 -5.789062 3.9375 -5.53125 C 4.101562 -5.273438 4.230469 -4.960938 4.328125 -4.59375 C 4.421875 -4.226562 4.46875 -3.730469 4.472656 -3.105469 C 4.46875 -2.367188 4.394531 -1.769531 4.242188 -1.316406 C 4.089844 -0.859375 3.863281 -0.507812 3.5625 -0.261719 C 3.257812 -0.015625 2.875 0.105469 2.417969 0.109375 C 1.808594 0.105469 1.332031 -0.109375 0.988281 -0.546875 C 0.570312 -1.066406 0.363281 -1.921875 0.367188 -3.105469 Z M 1.160156 -3.105469 C 1.160156 -2.070312 1.28125 -1.378906 1.523438 -1.039062 C 1.765625 -0.695312 2.0625 -0.527344 2.417969 -0.527344 C 2.773438 -0.527344 3.074219 -0.699219 3.316406 -1.042969 C 3.558594 -1.386719 3.679688 -2.074219 3.679688 -3.105469 C 3.679688 -4.144531 3.558594 -4.832031 3.316406 -5.171875 C 3.074219 -5.511719 2.769531 -5.683594 2.410156 -5.683594 C 2.050781 -5.683594 1.769531 -5.53125 1.558594 -5.234375 C 1.292969 -4.84375 1.160156 -4.136719 1.160156 -3.105469 Z M 1.160156 -3.105469 "/>
</g>
<g id="glyph-0-2">
<path d="M 2.84375 0 L 2.84375 -1.507812 L 0.113281 -1.507812 L 0.113281 -2.21875 L 2.988281 -6.300781 L 3.617188 -6.300781 L 3.617188 -2.21875 L 4.46875 -2.21875 L 4.46875 -1.507812 L 3.617188 -1.507812 L 3.617188 0 Z M 2.84375 -2.21875 L 2.84375 -5.058594 L 0.871094 -2.21875 Z M 2.84375 -2.21875 "/>
</g>
<g id="glyph-0-3">
<path d="M 4.378906 -4.757812 L 3.609375 -4.695312 C 3.539062 -4.996094 3.441406 -5.21875 3.316406 -5.359375 C 3.105469 -5.574219 2.847656 -5.683594 2.542969 -5.6875 C 2.296875 -5.683594 2.078125 -5.617188 1.894531 -5.484375 C 1.648438 -5.304688 1.457031 -5.042969 1.320312 -4.703125 C 1.175781 -4.363281 1.105469 -3.878906 1.101562 -3.25 C 1.285156 -3.53125 1.511719 -3.742188 1.78125 -3.878906 C 2.050781 -4.015625 2.332031 -4.082031 2.628906 -4.085938 C 3.140625 -4.082031 3.578125 -3.894531 3.945312 -3.515625 C 4.304688 -3.136719 4.488281 -2.644531 4.492188 -2.046875 C 4.488281 -1.648438 4.402344 -1.28125 4.234375 -0.941406 C 4.0625 -0.601562 3.828125 -0.339844 3.53125 -0.160156 C 3.230469 0.0195312 2.894531 0.105469 2.519531 0.109375 C 1.871094 0.105469 1.34375 -0.128906 0.941406 -0.601562 C 0.53125 -1.074219 0.328125 -1.855469 0.332031 -2.949219 C 0.328125 -4.160156 0.550781 -5.046875 1.003906 -5.601562 C 1.394531 -6.082031 1.925781 -6.320312 2.589844 -6.324219 C 3.085938 -6.320312 3.492188 -6.183594 3.808594 -5.90625 C 4.125 -5.628906 4.3125 -5.246094 4.378906 -4.757812 Z M 1.21875 -2.039062 C 1.21875 -1.773438 1.273438 -1.515625 1.386719 -1.273438 C 1.5 -1.027344 1.660156 -0.84375 1.863281 -0.71875 C 2.066406 -0.589844 2.277344 -0.527344 2.503906 -0.527344 C 2.828125 -0.527344 3.109375 -0.65625 3.347656 -0.921875 C 3.578125 -1.183594 3.695312 -1.542969 3.699219 -2 C 3.695312 -2.429688 3.582031 -2.773438 3.351562 -3.027344 C 3.117188 -3.273438 2.824219 -3.398438 2.476562 -3.402344 C 2.121094 -3.398438 1.824219 -3.273438 1.582031 -3.027344 C 1.339844 -2.773438 1.21875 -2.445312 1.21875 -2.039062 Z M 1.21875 -2.039062 "/>
</g>
<g id="glyph-0-4">
<path d="M 1.554688 -3.417969 C 1.230469 -3.53125 0.992188 -3.699219 0.839844 -3.917969 C 0.683594 -4.132812 0.609375 -4.394531 0.609375 -4.699219 C 0.609375 -5.15625 0.773438 -5.539062 1.101562 -5.855469 C 1.429688 -6.164062 1.867188 -6.320312 2.417969 -6.324219 C 2.96875 -6.320312 3.410156 -6.160156 3.746094 -5.84375 C 4.078125 -5.523438 4.246094 -5.136719 4.25 -4.679688 C 4.246094 -4.386719 4.171875 -4.132812 4.019531 -3.917969 C 3.863281 -3.699219 3.628906 -3.53125 3.320312 -3.417969 C 3.707031 -3.285156 4 -3.082031 4.203125 -2.804688 C 4.402344 -2.519531 4.503906 -2.183594 4.507812 -1.800781 C 4.503906 -1.257812 4.3125 -0.804688 3.933594 -0.441406 C 3.550781 -0.0742188 3.050781 0.105469 2.433594 0.109375 C 1.808594 0.105469 1.308594 -0.0742188 0.925781 -0.441406 C 0.542969 -0.808594 0.351562 -1.269531 0.355469 -1.820312 C 0.351562 -2.230469 0.457031 -2.574219 0.667969 -2.851562 C 0.875 -3.125 1.167969 -3.3125 1.554688 -3.417969 Z M 1.402344 -4.726562 C 1.398438 -4.425781 1.496094 -4.183594 1.6875 -3.996094 C 1.878906 -3.804688 2.128906 -3.707031 2.4375 -3.710938 C 2.734375 -3.707031 2.976562 -3.800781 3.167969 -3.992188 C 3.355469 -4.175781 3.449219 -4.40625 3.453125 -4.683594 C 3.449219 -4.964844 3.351562 -5.203125 3.160156 -5.398438 C 2.960938 -5.585938 2.71875 -5.683594 2.429688 -5.6875 C 2.128906 -5.683594 1.882812 -5.589844 1.691406 -5.402344 C 1.496094 -5.214844 1.398438 -4.988281 1.402344 -4.726562 Z M 1.152344 -1.816406 C 1.148438 -1.597656 1.199219 -1.382812 1.308594 -1.175781 C 1.410156 -0.96875 1.566406 -0.808594 1.773438 -0.695312 C 1.980469 -0.582031 2.203125 -0.527344 2.441406 -0.527344 C 2.808594 -0.527344 3.113281 -0.644531 3.355469 -0.882812 C 3.59375 -1.121094 3.714844 -1.425781 3.71875 -1.792969 C 3.714844 -2.164062 3.589844 -2.46875 3.34375 -2.714844 C 3.09375 -2.957031 2.785156 -3.082031 2.414062 -3.082031 C 2.050781 -3.082031 1.75 -2.960938 1.511719 -2.71875 C 1.269531 -2.476562 1.148438 -2.175781 1.152344 -1.816406 Z M 1.152344 -1.816406 "/>
</g>
<g id="glyph-0-5">
<path d="M 0.367188 -1.648438 L 1.175781 -1.71875 C 1.234375 -1.320312 1.375 -1.023438 1.59375 -0.824219 C 1.8125 -0.625 2.078125 -0.527344 2.390625 -0.527344 C 2.761719 -0.527344 3.074219 -0.667969 3.335938 -0.949219 C 3.589844 -1.230469 3.71875 -1.601562 3.722656 -2.066406 C 3.71875 -2.503906 3.59375 -2.851562 3.347656 -3.109375 C 3.097656 -3.363281 2.773438 -3.492188 2.375 -3.492188 C 2.125 -3.492188 1.902344 -3.433594 1.703125 -3.320312 C 1.5 -3.207031 1.34375 -3.0625 1.230469 -2.882812 L 0.503906 -2.976562 L 1.113281 -6.214844 L 4.246094 -6.214844 L 4.246094 -5.472656 L 1.730469 -5.472656 L 1.390625 -3.78125 C 1.765625 -4.039062 2.164062 -4.171875 2.582031 -4.175781 C 3.128906 -4.171875 3.59375 -3.980469 3.972656 -3.605469 C 4.351562 -3.222656 4.539062 -2.734375 4.542969 -2.136719 C 4.539062 -1.5625 4.375 -1.070312 4.042969 -0.65625 C 3.636719 -0.148438 3.085938 0.105469 2.390625 0.109375 C 1.816406 0.105469 1.347656 -0.0507812 0.984375 -0.371094 C 0.621094 -0.691406 0.414062 -1.117188 0.367188 -1.648438 Z M 0.367188 -1.648438 "/>
</g>
<g id="glyph-0-6">
<path d="M 3.277344 0 L 2.503906 0 L 2.503906 -4.929688 C 2.316406 -4.75 2.074219 -4.574219 1.773438 -4.394531 C 1.46875 -4.214844 1.195312 -4.082031 0.957031 -3.996094 L 0.957031 -4.742188 C 1.386719 -4.941406 1.765625 -5.1875 2.089844 -5.480469 C 2.414062 -5.769531 2.644531 -6.050781 2.78125 -6.324219 L 3.277344 -6.324219 Z M 3.277344 0 "/>
</g>
</g>
<clipPath id="clip-0">
<path clip-rule="nonzero" d="M 25.09375 5.480469 L 570.519531 5.480469 L 570.519531 269.4375 L 25.09375 269.4375 Z M 25.09375 5.480469 "/>
</clipPath>
<clipPath id="clip-1">
<path clip-rule="nonzero" d="M 25.09375 213 L 570.519531 213 L 570.519531 215 L 25.09375 215 Z M 25.09375 213 "/>
</clipPath>
<clipPath id="clip-2">
<path clip-rule="nonzero" d="M 25.09375 151 L 570.519531 151 L 570.519531 153 L 25.09375 153 Z M 25.09375 151 "/>
</clipPath>
<clipPath id="clip-3">
<path clip-rule="nonzero" d="M 25.09375 88 L 570.519531 88 L 570.519531 91 L 25.09375 91 Z M 25.09375 88 "/>
</clipPath>
<clipPath id="clip-4">
<path clip-rule="nonzero" d="M 25.09375 26 L 570.519531 26 L 570.519531 28 L 25.09375 28 Z M 25.09375 26 "/>
</clipPath>
<clipPath id="clip-5">
<path clip-rule="nonzero" d="M 46 5.480469 L 49 5.480469 L 49 269.4375 L 46 269.4375 Z M 46 5.480469 "/>
</clipPath>
<clipPath id="clip-6">
<path clip-rule="nonzero" d="M 171 5.480469 L 173 5.480469 L 173 269.4375 L 171 269.4375 Z M 171 5.480469 "/>
</clipPath>
<clipPath id="clip-7">
<path clip-rule="nonzero" d="M 295 5.480469 L 298 5.480469 L 298 269.4375 L 295 269.4375 Z M 295 5.480469 "/>
</clipPath>
<clipPath id="clip-8">
<path clip-rule="nonzero" d="M 420 5.480469 L 422 5.480469 L 422 269.4375 L 420 269.4375 Z M 420 5.480469 "/>
</clipPath>
<clipPath id="clip-9">
<path clip-rule="nonzero" d="M 544 5.480469 L 547 5.480469 L 547 269.4375 L 544 269.4375 Z M 544 5.480469 "/>
</clipPath>
<clipPath id="clip-10">
<path clip-rule="nonzero" d="M 25.09375 5.480469 L 570.519531 5.480469 L 570.519531 269.4375 L 25.09375 269.4375 Z M 25.09375 5.480469 "/>
</clipPath>
</defs>
<rect x="-57.6" y="-28.8" width="691.2" height="345.6" fill="rgb(100%, 100%, 100%)" fill-opacity="1"/>
<rect x="-57.6" y="-28.8" width="691.2" height="345.6" fill="rgb(100%, 100%, 100%)" fill-opacity="1"/>
<path fill="none" stroke-width="1.066978" stroke-linecap="round" stroke-linejoin="round" stroke="rgb(100%, 100%, 100%)" stroke-opacity="1" stroke-miterlimit="10" d="M 0 288 L 576 288 L 576 0 L 0 0 Z M 0 288 "/>
<g clip-path="url(#clip-0)">
<path fill-rule="nonzero" fill="rgb(100%, 100%, 100%)" fill-opacity="1" d="M 25.09375 269.4375 L 570.519531 269.4375 L 570.519531 5.480469 L 25.09375 5.480469 Z M 25.09375 269.4375 "/>
</g>
<g clip-path="url(#clip-1)">
<path fill="none" stroke-width="1.49377" stroke-linecap="butt" stroke-linejoin="round" stroke="rgb(92.156863%, 92.156863%, 92.156863%)" stroke-opacity="1" stroke-dasharray="5.975079 5.975079" stroke-miterlimit="10" d="M 25.09375 214.011719 L 570.519531 214.011719 "/>
</g>
<g clip-path="url(#clip-2)">
<path fill="none" stroke-width="1.49377" stroke-linecap="butt" stroke-linejoin="round" stroke="rgb(92.156863%, 92.156863%, 92.156863%)" stroke-opacity="1" stroke-dasharray="5.975079 5.975079" stroke-miterlimit="10" d="M 25.09375 151.75 L 570.519531 151.75 "/>
</g>
<g clip-path="url(#clip-3)">
<path fill="none" stroke-width="1.49377" stroke-linecap="butt" stroke-linejoin="round" stroke="rgb(92.156863%, 92.156863%, 92.156863%)" stroke-opacity="1" stroke-dasharray="5.975079 5.975079" stroke-miterlimit="10" d="M 25.09375 89.484375 L 570.519531 89.484375 "/>
</g>
<g clip-path="url(#clip-4)">
<path fill="none" stroke-width="1.49377" stroke-linecap="butt" stroke-linejoin="round" stroke="rgb(92.156863%, 92.156863%, 92.156863%)" stroke-opacity="1" stroke-dasharray="5.975079 5.975079" stroke-miterlimit="10" d="M 25.09375 27.222656 L 570.519531 27.222656 "/>
</g>
<g clip-path="url(#clip-5)">
<path fill="none" stroke-width="1.49377" stroke-linecap="butt" stroke-linejoin="round" stroke="rgb(92.156863%, 92.156863%, 92.156863%)" stroke-opacity="1" stroke-dasharray="5.975079 5.975079" stroke-miterlimit="10" d="M 47.394531 269.4375 L 47.394531 5.480469 "/>
</g>
<g clip-path="url(#clip-6)">
<path fill="none" stroke-width="1.49377" stroke-linecap="butt" stroke-linejoin="round" stroke="rgb(92.156863%, 92.156863%, 92.156863%)" stroke-opacity="1" stroke-dasharray="5.975079 5.975079" stroke-miterlimit="10" d="M 171.976562 269.4375 L 171.976562 5.480469 "/>
</g>
<g clip-path="url(#clip-7)">
<path fill="none" stroke-width="1.49377" stroke-linecap="butt" stroke-linejoin="round" stroke="rgb(92.156863%, 92.156863%, 92.156863%)" stroke-opacity="1" stroke-dasharray="5.975079 5.975079" stroke-miterlimit="10" d="M 296.5625 269.4375 L 296.5625 5.480469 "/>
</g>
<g clip-path="url(#clip-8)">
<path fill="none" stroke-width="1.49377" stroke-linecap="butt" stroke-linejoin="round" stroke="rgb(92.156863%, 92.156863%, 92.156863%)" stroke-opacity="1" stroke-dasharray="5.975079 5.975079" stroke-miterlimit="10" d="M 421.144531 269.4375 L 421.144531 5.480469 "/>
</g>
<g clip-path="url(#clip-9)">
<path fill="none" stroke-width="1.49377" stroke-linecap="butt" stroke-linejoin="round" stroke="rgb(92.156863%, 92.156863%, 92.156863%)" stroke-opacity="1" stroke-dasharray="5.975079 5.975079" stroke-miterlimit="10" d="M 545.726562 269.4375 L 545.726562 5.480469 "/>
</g>
<path fill="none" stroke-width="1.066978" stroke-linecap="butt" stroke-linejoin="round" stroke="rgb(97.254902%, 46.27451%, 42.745098%)" stroke-opacity="1" stroke-miterlimit="10" d="M 49.886719 254.976562 L 52.378906 256.292969 L 54.867188 255.609375 L 57.359375 257.441406 L 59.851562 253.265625 L 62.34375 252.21875 L 64.835938 254.015625 L 67.328125 252.578125 L 69.820312 250.523438 L 72.3125 248.867188 L 74.800781 249.390625 L 77.292969 245.421875 L 79.785156 244.226562 L 82.277344 245.53125 L 84.769531 250.769531 L 87.261719 247.757812 L 89.753906 247.636719 L 92.242188 247.445312 L 94.734375 244.882812 L 97.226562 242.621094 L 99.71875 240.921875 L 102.210938 238.417969 L 104.703125 236.253906 L 107.195312 235.835938 L 109.6875 240.519531 L 112.175781 238.757812 L 114.667969 238.664062 L 117.160156 238.816406 L 119.652344 242.214844 L 122.144531 243.164062 L 124.636719 241.902344 L 127.128906 238.3125 L 129.617188 238.332031 L 132.109375 237.144531 L 134.601562 237.042969 L 137.09375 240.214844 L 139.585938 241.007812 L 142.078125 241.75 L 144.570312 241.664062 L 147.0625 238.714844 L 149.550781 236.597656 L 152.042969 236.769531 L 154.535156 237.164062 L 157.027344 235.210938 L 159.519531 233.601562 L 162.011719 235.070312 L 164.503906 236.585938 L 166.996094 235.453125 L 169.484375 233.324219 L 171.976562 233.367188 L 174.46875 230.960938 L 176.960938 229.746094 L 179.453125 231.023438 L 181.945312 229.949219 L 184.4375 232.507812 L 186.925781 228.734375 L 189.417969 223.609375 L 191.910156 224.285156 L 194.402344 226.632812 L 196.894531 224.992188 L 199.386719 225.09375 L 201.878906 218.929688 L 204.371094 218.792969 L 206.859375 216.859375 L 209.351562 216.554688 L 211.84375 218.160156 L 214.335938 217.460938 L 216.828125 221.6875 L 219.320312 217.835938 L 221.8125 217.222656 L 224.300781 211.625 L 226.792969 210.21875 L 229.285156 211.738281 L 231.777344 210 L 234.269531 212.074219 L 236.761719 214.9375 L 239.253906 213.988281 L 241.746094 214.847656 L 244.234375 214.613281 L 246.726562 214.199219 L 249.21875 215.421875 L 251.710938 216.59375 L 254.203125 216.695312 L 256.695312 213.554688 L 259.1875 217.085938 L 261.675781 215.386719 L 264.167969 214.332031 L 266.660156 211.472656 L 269.152344 211.992188 L 271.644531 210.847656 L 274.136719 209.953125 L 276.628906 211.0625 L 279.121094 207.847656 L 281.609375 204.746094 L 284.101562 202.785156 L 286.59375 198.632812 L 289.085938 197.019531 L 291.578125 199.941406 L 294.070312 201.125 L 296.5625 203.917969 L 299.054688 204.855469 L 301.542969 206.15625 L 304.035156 205.820312 L 306.527344 207.839844 L 309.019531 207.214844 L 311.511719 208.601562 L 314.003906 204.003906 L 316.496094 202 L 318.984375 199.519531 L 321.476562 198.339844 L 323.96875 193.949219 L 326.460938 195.289062 L 328.953125 196.195312 L 331.445312 192.425781 L 333.9375 193.800781 L 336.429688 194.082031 L 338.917969 194.820312 L 341.410156 195.378906 L 343.902344 195.835938 L 346.394531 194.382812 L 348.886719 194.589844 L 351.378906 195.605469 L 353.871094 192.054688 L 356.359375 192.355469 L 358.851562 192.566406 L 361.34375 192.582031 L 363.835938 190.585938 L 366.328125 190.535156 L 368.820312 190.398438 L 371.3125 191.847656 L 373.804688 192.417969 L 376.292969 192.039062 L 378.785156 193.257812 L 381.277344 191.714844 L 383.769531 195.234375 L 386.261719 194.242188 L 388.753906 197.804688 L 391.246094 198.316406 L 393.738281 199.390625 L 396.226562 200.769531 L 398.71875 200.675781 L 401.210938 205.175781 L 403.703125 202.035156 L 406.195312 205.917969 L 408.6875 206.828125 L 411.179688 209.351562 L 413.667969 210.976562 L 416.160156 205.585938 L 418.652344 205.3125 L 421.144531 208.257812 L 423.636719 212.078125 L 426.128906 210.734375 L 428.621094 210.546875 L 431.113281 211.101562 L 433.601562 213.164062 L 436.09375 216.605469 L 438.585938 219.03125 L 441.078125 216.328125 L 443.570312 217.628906 L 446.0625 220.816406 L 448.554688 215.96875 L 451.042969 214.683594 L 453.535156 215.042969 L 456.027344 212.195312 L 458.519531 209.773438 L 461.011719 211.070312 L 463.503906 205.390625 L 465.996094 205.789062 L 468.488281 209.074219 L 470.976562 209.199219 L 473.46875 208.453125 L 475.960938 202.519531 L 478.453125 202.027344 L 480.945312 200.664062 L 483.4375 200.625 L 485.929688 201.214844 L 488.421875 201.070312 L 490.910156 198.890625 L 493.402344 193.535156 L 495.894531 190.761719 L 498.386719 187.546875 L 500.878906 190.355469 L 503.371094 187.695312 L 505.863281 186.917969 L 508.351562 190.3125 L 510.84375 188.792969 L 513.335938 188.953125 L 515.828125 185.101562 L 518.320312 186.761719 L 520.8125 187.589844 L 523.304688 189.648438 L 525.796875 189.851562 L 528.285156 188.628906 L 530.777344 190.203125 L 533.269531 187.917969 L 535.761719 190.671875 L 538.253906 193.027344 L 540.746094 189.234375 L 543.238281 191.511719 L 545.726562 190.261719 "/>
<path fill="none" stroke-width="1.066978" stroke-linecap="butt" stroke-linejoin="round" stroke="rgb(0%, 74.901961%, 76.862745%)" stroke-opacity="1" stroke-miterlimit="10" d="M 49.886719 251.867188 L 52.378906 253.078125 L 54.867188 252.191406 L 57.359375 254.054688 L 59.851562 249.683594 L 62.34375 248.457031 L 64.835938 250.050781 L 67.328125 248.183594 L 69.820312 246.1875 L 72.3125 244.023438 L 74.800781 244.496094 L 77.292969 240.570312 L 79.785156 239.320312 L 82.277344 240.316406 L 84.769531 245.261719 L 87.261719 242.070312 L 89.753906 241.949219 L 92.242188 241.667969 L 94.734375 238.441406 L 97.226562 234.222656 L 99.71875 229.996094 L 102.210938 224.074219 L 104.703125 216.300781 L 107.195312 232.976562 L 109.6875 237.589844 L 112.175781 235.796875 L 114.667969 235.375 L 117.160156 235.1875 L 119.652344 238.425781 L 122.144531 239.410156 L 124.636719 237.78125 L 127.128906 233.804688 L 129.617188 233.429688 L 132.109375 231.808594 L 134.601562 231.546875 L 137.09375 234.242188 L 139.585938 234.324219 L 142.078125 238.632812 L 144.570312 238.550781 L 147.0625 235.320312 L 149.550781 232.894531 L 152.042969 232.945312 L 154.535156 232.800781 L 157.027344 230.8125 L 159.519531 228.910156 L 162.011719 230.675781 L 164.503906 232.015625 L 166.996094 230.378906 L 169.484375 228.121094 L 171.976562 228.15625 L 174.46875 225.289062 L 176.960938 224.035156 L 179.453125 224.953125 L 181.945312 224.113281 L 184.4375 226.804688 L 186.925781 222.886719 L 189.417969 217.789062 L 191.910156 217.75 L 194.402344 223.375 L 196.894531 221.710938 L 199.386719 221.550781 L 201.878906 215.039062 L 204.371094 214.664062 L 206.859375 212.449219 L 209.351562 211.652344 L 211.84375 213.140625 L 214.335938 212.304688 L 216.828125 216.015625 L 219.320312 212.257812 L 221.8125 211.324219 L 224.300781 205.445312 L 226.792969 203.585938 L 229.285156 202.683594 L 231.777344 197.597656 L 234.269531 194.625 L 236.761719 189.1875 L 239.253906 174.402344 L 241.746094 155.757812 L 244.234375 131.625 L 246.726562 92.164062 L 249.21875 17.476562 L 251.710938 213.539062 L 254.203125 213.378906 L 256.695312 209.855469 L 259.1875 213.050781 L 261.675781 211.15625 L 264.167969 209.847656 L 266.660156 206.976562 L 269.152344 207.171875 L 271.644531 206.007812 L 274.136719 205.09375 L 276.628906 206.210938 L 279.121094 202.921875 L 281.609375 199.304688 L 284.101562 197.1875 L 286.59375 192.78125 L 289.085938 191.027344 L 291.578125 193.484375 L 294.070312 197.867188 L 296.5625 200.539062 L 299.054688 201.199219 L 301.542969 202.398438 L 304.035156 201.667969 L 306.527344 203.347656 L 309.019531 202.261719 L 311.511719 203.246094 L 314.003906 198.328125 L 316.496094 196.589844 L 318.984375 194.035156 L 321.476562 192.445312 L 323.96875 187.914062 L 326.460938 189.046875 L 328.953125 188.339844 L 331.445312 181.109375 L 333.9375 178.734375 L 336.429688 191.042969 L 338.917969 191.628906 L 341.410156 191.996094 L 343.902344 192.253906 L 346.394531 190.636719 L 348.886719 190.945312 L 351.378906 191.714844 L 353.871094 187.867188 L 356.359375 188.066406 L 358.851562 187.914062 L 361.34375 187.886719 L 363.835938 185.566406 L 366.328125 185.445312 L 368.820312 185.5 L 371.3125 186.40625 L 373.804688 186.507812 L 376.292969 185.796875 L 378.785156 184.621094 L 381.277344 188.847656 L 383.769531 192.207031 L 386.261719 191.429688 L 388.753906 194.636719 L 391.246094 195.136719 L 393.738281 196.265625 L 396.226562 197.632812 L 398.71875 197.574219 L 401.210938 202.226562 L 403.703125 199.09375 L 406.195312 202.855469 L 408.6875 203.46875 L 411.179688 205.757812 L 413.667969 207.429688 L 416.160156 201.988281 L 418.652344 201.15625 L 421.144531 203.808594 L 423.636719 207.703125 L 426.128906 205.5 L 428.621094 204.921875 L 431.113281 204.945312 L 433.601562 206.347656 L 436.09375 213.460938 L 438.585938 215.722656 L 441.078125 213.023438 L 443.570312 214.386719 L 446.0625 216.96875 L 448.554688 212.0625 L 451.042969 210.398438 L 453.535156 210.328125 L 456.027344 206.835938 L 458.519531 203.613281 L 461.011719 204.378906 L 463.503906 196.152344 L 465.996094 193.964844 L 468.488281 205.859375 L 470.976562 205.617188 L 473.46875 204.652344 L 475.960938 198.617188 L 478.453125 197.882812 L 480.945312 196.4375 L 483.4375 196.300781 L 485.929688 196.410156 L 488.421875 195.457031 L 490.910156 193.488281 L 493.402344 188.300781 L 495.894531 185.554688 L 498.386719 181.996094 L 500.878906 184.789062 L 503.371094 181.738281 L 505.863281 180.597656 L 508.351562 182.347656 L 510.84375 178.484375 L 513.335938 175.742188 L 515.828125 181.882812 L 518.320312 183.003906 L 520.8125 183.730469 L 523.304688 185.863281 L 525.796875 186.015625 L 528.285156 184.472656 L 530.777344 185.671875 L 533.269531 182.488281 L 535.761719 185.351562 L 538.253906 187.433594 L 540.746094 183.429688 L 543.238281 185.792969 L 545.726562 184.460938 "/>
<g clip-path="url(#clip-10)">
<path fill="none" stroke-width="1.066978" stroke-linecap="round" stroke-linejoin="round" stroke="rgb(74.901961%, 74.901961%, 74.901961%)" stroke-opacity="1" stroke-miterlimit="10" d="M 25.09375 269.4375 L 570.519531 269.4375 L 570.519531 5.480469 L 25.09375 5.480469 Z M 25.09375 269.4375 "/>
</g>
<g fill="rgb(30.196078%, 30.196078%, 30.196078%)" fill-opacity="1">
<use xlink:href="#glyph-0-0" x="5.476562" y="217.164062"/>
<use xlink:href="#glyph-0-1" x="10.370703" y="217.164062"/>
<use xlink:href="#glyph-0-1" x="15.264844" y="217.164062"/>
</g>
<g fill="rgb(30.196078%, 30.196078%, 30.196078%)" fill-opacity="1">
<use xlink:href="#glyph-0-2" x="5.476562" y="154.898438"/>
<use xlink:href="#glyph-0-1" x="10.370703" y="154.898438"/>
<use xlink:href="#glyph-0-1" x="15.264844" y="154.898438"/>
</g>
<g fill="rgb(30.196078%, 30.196078%, 30.196078%)" fill-opacity="1">
<use xlink:href="#glyph-0-3" x="5.476562" y="92.636719"/>
<use xlink:href="#glyph-0-1" x="10.370703" y="92.636719"/>
<use xlink:href="#glyph-0-1" x="15.264844" y="92.636719"/>
</g>
<g fill="rgb(30.196078%, 30.196078%, 30.196078%)" fill-opacity="1">
<use xlink:href="#glyph-0-4" x="5.476562" y="30.371094"/>
<use xlink:href="#glyph-0-1" x="10.370703" y="30.371094"/>
<use xlink:href="#glyph-0-1" x="15.264844" y="30.371094"/>
</g>
<path fill="none" stroke-width="1.066978" stroke-linecap="butt" stroke-linejoin="round" stroke="rgb(20%, 20%, 20%)" stroke-opacity="1" stroke-miterlimit="10" d="M 22.355469 214.011719 L 25.09375 214.011719 "/>
<path fill="none" stroke-width="1.066978" stroke-linecap="butt" stroke-linejoin="round" stroke="rgb(20%, 20%, 20%)" stroke-opacity="1" stroke-miterlimit="10" d="M 22.355469 151.75 L 25.09375 151.75 "/>
<path fill="none" stroke-width="1.066978" stroke-linecap="butt" stroke-linejoin="round" stroke="rgb(20%, 20%, 20%)" stroke-opacity="1" stroke-miterlimit="10" d="M 22.355469 89.484375 L 25.09375 89.484375 "/>
<path fill="none" stroke-width="1.066978" stroke-linecap="butt" stroke-linejoin="round" stroke="rgb(20%, 20%, 20%)" stroke-opacity="1" stroke-miterlimit="10" d="M 22.355469 27.222656 L 25.09375 27.222656 "/>
<path fill="none" stroke-width="1.066978" stroke-linecap="butt" stroke-linejoin="round" stroke="rgb(20%, 20%, 20%)" stroke-opacity="1" stroke-miterlimit="10" d="M 47.394531 272.175781 L 47.394531 269.4375 "/>
<path fill="none" stroke-width="1.066978" stroke-linecap="butt" stroke-linejoin="round" stroke="rgb(20%, 20%, 20%)" stroke-opacity="1" stroke-miterlimit="10" d="M 171.976562 272.175781 L 171.976562 269.4375 "/>
<path fill="none" stroke-width="1.066978" stroke-linecap="butt" stroke-linejoin="round" stroke="rgb(20%, 20%, 20%)" stroke-opacity="1" stroke-miterlimit="10" d="M 296.5625 272.175781 L 296.5625 269.4375 "/>
<path fill="none" stroke-width="1.066978" stroke-linecap="butt" stroke-linejoin="round" stroke="rgb(20%, 20%, 20%)" stroke-opacity="1" stroke-miterlimit="10" d="M 421.144531 272.175781 L 421.144531 269.4375 "/>
<path fill="none" stroke-width="1.066978" stroke-linecap="butt" stroke-linejoin="round" stroke="rgb(20%, 20%, 20%)" stroke-opacity="1" stroke-miterlimit="10" d="M 545.726562 272.175781 L 545.726562 269.4375 "/>
<g fill="rgb(30.196078%, 30.196078%, 30.196078%)" fill-opacity="1">
<use xlink:href="#glyph-0-1" x="44.949219" y="280.667969"/>
</g>
<g fill="rgb(30.196078%, 30.196078%, 30.196078%)" fill-opacity="1">
<use xlink:href="#glyph-0-5" x="167.082031" y="280.667969"/>
<use xlink:href="#glyph-0-1" x="171.976172" y="280.667969"/>
</g>
<g fill="rgb(30.196078%, 30.196078%, 30.196078%)" fill-opacity="1">
<use xlink:href="#glyph-0-6" x="289.222656" y="280.667969"/>
<use xlink:href="#glyph-0-1" x="294.116797" y="280.667969"/>
<use xlink:href="#glyph-0-1" x="299.010937" y="280.667969"/>
</g>
<g fill="rgb(30.196078%, 30.196078%, 30.196078%)" fill-opacity="1">
<use xlink:href="#glyph-0-6" x="413.804688" y="280.667969"/>
<use xlink:href="#glyph-0-5" x="418.698828" y="280.667969"/>
<use xlink:href="#glyph-0-1" x="423.592969" y="280.667969"/>
</g>
<g fill="rgb(30.196078%, 30.196078%, 30.196078%)" fill-opacity="1">
<use xlink:href="#glyph-0-0" x="538.386719" y="280.667969"/>
<use xlink:href="#glyph-0-1" x="543.280859" y="280.667969"/>
<use xlink:href="#glyph-0-1" x="548.175" y="280.667969"/>
</g>
</svg>
