<?xml version="1.0" encoding="UTF-8"?>
<svg xmlns="http://www.w3.org/2000/svg" xmlns:xlink="http://www.w3.org/1999/xlink" width="504pt" height="259pt" viewBox="0 0 504 259">
<defs>
<g>
<g id="glyph-0-0">
<path d="M 0.367188 -3.105469 C 0.363281 -3.847656 0.4375 -4.445312 0.59375 -4.902344 C 0.742188 -5.355469 0.972656 -5.707031 1.277344 -5.953125 C 1.578125 -6.199219 1.957031 -6.320312 2.417969 -6.324219 C 2.753906 -6.320312 3.050781 -6.253906 3.308594 -6.121094 C 3.5625 -5.984375 3.773438 -5.789062 3.9375 -5.53125 C 4.101562 -5.273438 4.230469 -4.960938 4.328125 -4.59375 C 4.421875 -4.226562 4.46875 -3.730469 4.472656 -3.105469 C 4.46875 -2.367188 4.394531 -1.769531 4.242188 -1.316406 C 4.089844 -0.859375 3.863281 -0.507812 3.5625 -0.261719 C 3.257812 -0.015625 2.875 0.105469 2.417969 0.109375 C 1.808594 0.105469 1.332031 -0.109375 0.988281 -0.546875 C 0.570312 -1.066406 0.363281 -1.921875 0.367188 -3.105469 Z M 1.160156 -3.105469 C 1.160156 -2.070312 1.28125 -1.378906 1.523438 -1.039062 C 1.765625 -0.695312 2.0625 -0.527344 2.417969 -0.527344 C 2.773438 -0.527344 3.074219 -0.699219 3.316406 -1.042969 C 3.558594 -1.386719 3.679688 -2.074219 3.679688 -3.105469 C 3.679688 -4.144531 3.558594 -4.832031 3.316406 -5.171875 C 3.074219 -5.511719 2.769531 -5.683594 2.410156 -5.683594 C 2.050781 -5.683594 1.769531 -5.53125 1.558594 -5.234375 C 1.292969 -4.84375 1.160156 -4.136719 1.160156 -3.105469 Z M 1.160156 -3.105469 "/>
</g>
<g id="glyph-0-1">
<path d="M 0.800781 0 L 0.800781 -0.882812 L 1.679688 -0.882812 L 1.679688 0 Z M 0.800781 0 "/>
</g>
<g id="glyph-0-2">
<path d="M 4.429688 -0.742188 L 4.429688 0 L 0.265625 0 C 0.257812 -0.1875 0.289062 -0.367188 0.355469 -0.539062 C 0.460938 -0.820312 0.628906 -1.097656 0.863281 -1.375 C 1.09375 -1.648438 1.433594 -1.964844 1.878906 -2.328125 C 2.5625 -2.886719 3.023438 -3.332031 3.265625 -3.664062 C 3.5 -3.988281 3.621094 -4.300781 3.625 -4.59375 C 3.621094 -4.898438 3.511719 -5.15625 3.296875 -5.367188 C 3.074219 -5.578125 2.789062 -5.683594 2.441406 -5.683594 C 2.066406 -5.683594 1.769531 -5.570312 1.546875 -5.347656 C 1.320312 -5.125 1.207031 -4.816406 1.207031 -4.421875 L 0.414062 -4.503906 C 0.464844 -5.09375 0.667969 -5.542969 1.027344 -5.855469 C 1.378906 -6.164062 1.855469 -6.320312 2.457031 -6.324219 C 3.058594 -6.320312 3.539062 -6.152344 3.890625 -5.820312 C 4.242188 -5.484375 4.417969 -5.070312 4.421875 -4.578125 C 4.417969 -4.320312 4.367188 -4.074219 4.265625 -3.832031 C 4.164062 -3.589844 3.992188 -3.332031 3.753906 -3.0625 C 3.511719 -2.792969 3.113281 -2.425781 2.5625 -1.957031 C 2.09375 -1.566406 1.796875 -1.300781 1.664062 -1.160156 C 1.53125 -1.019531 1.421875 -0.878906 1.339844 -0.742188 Z M 4.429688 -0.742188 "/>
</g>
<g id="glyph-0-3">
<path d="M 2.84375 0 L 2.84375 -1.507812 L 0.113281 -1.507812 L 0.113281 -2.21875 L 2.988281 -6.300781 L 3.617188 -6.300781 L 3.617188 -2.21875 L 4.46875 -2.21875 L 4.46875 -1.507812 L 3.617188 -1.507812 L 3.617188 0 Z M 2.84375 -2.21875 L 2.84375 -5.058594 L 0.871094 -2.21875 Z M 2.84375 -2.21875 "/>
</g>
<g id="glyph-0-4">
<path d="M 4.378906 -4.757812 L 3.609375 -4.695312 C 3.539062 -4.996094 3.441406 -5.21875 3.316406 -5.359375 C 3.105469 -5.574219 2.847656 -5.683594 2.542969 -5.6875 C 2.296875 -5.683594 2.078125 -5.617188 1.894531 -5.484375 C 1.648438 -5.304688 1.457031 -5.042969 1.320312 -4.703125 C 1.175781 -4.363281 1.105469 -3.878906 1.101562 -3.25 C 1.285156 -3.53125 1.511719 -3.742188 1.78125 -3.878906 C 2.050781 -4.015625 2.332031 -4.082031 2.628906 -4.085938 C 3.140625 -4.082031 3.578125 -3.894531 3.945312 -3.515625 C 4.304688 -3.136719 4.488281 -2.644531 4.492188 -2.046875 C 4.488281 -1.648438 4.402344 -1.28125 4.234375 -0.941406 C 4.0625 -0.601562 3.828125 -0.339844 3.53125 -0.160156 C 3.230469 0.0195312 2.894531 0.105469 2.519531 0.109375 C 1.871094 0.105469 1.34375 -0.128906 0.941406 -0.601562 C 0.53125 -1.074219 0.328125 -1.855469 0.332031 -2.949219 C 0.328125 -4.160156 0.550781 -5.046875 1.003906 -5.601562 C 1.394531 -6.082031 1.925781 -6.320312 2.589844 -6.324219 C 3.085938 -6.320312 3.492188 -6.183594 3.808594 -5.90625 C 4.125 -5.628906 4.3125 -5.246094 4.378906 -4.757812 Z M 1.21875 -2.039062 C 1.21875 -1.773438 1.273438 -1.515625 1.386719 -1.273438 C 1.5 -1.027344 1.660156 -0.84375 1.863281 -0.71875 C 2.066406 -0.589844 2.277344 -0.527344 2.503906 -0.527344 C 2.828125 -0.527344 3.109375 -0.65625 3.347656 -0.921875 C 3.578125 -1.183594 3.695312 -1.542969 3.699219 -2 C 3.695312 -2.429688 3.582031 -2.773438 3.351562 -3.027344 C 3.117188 -3.273438 2.824219 -3.398438 2.476562 -3.402344 C 2.121094 -3.398438 1.824219 -3.273438 1.582031 -3.027344 C 1.339844 -2.773438 1.21875 -2.445312 1.21875 -2.039062 Z M 1.21875 -2.039062 "/>
</g>
<g id="glyph-0-5">
<path d="M 0.28125 -1.890625 L 0.28125 -2.667969 L 2.65625 -2.667969 L 2.65625 -1.890625 Z M 0.28125 -1.890625 "/>
</g>
<g id="glyph-0-6">
<path d="M 0.367188 -1.648438 L 1.175781 -1.71875 C 1.234375 -1.320312 1.375 -1.023438 1.59375 -0.824219 C 1.8125 -0.625 2.078125 -0.527344 2.390625 -0.527344 C 2.761719 -0.527344 3.074219 -0.667969 3.335938 -0.949219 C 3.589844 -1.230469 3.71875 -1.601562 3.722656 -2.066406 C 3.71875 -2.503906 3.59375 -2.851562 3.347656 -3.109375 C 3.097656 -3.363281 2.773438 -3.492188 2.375 -3.492188 C 2.125 -3.492188 1.902344 -3.433594 1.703125 -3.320312 C 1.5 -3.207031 1.34375 -3.0625 1.230469 -2.882812 L 0.503906 -2.976562 L 1.113281 -6.214844 L 4.246094 -6.214844 L 4.246094 -5.472656 L 1.730469 -5.472656 L 1.390625 -3.78125 C 1.765625 -4.039062 2.164062 -4.171875 2.582031 -4.175781 C 3.128906 -4.171875 3.59375 -3.980469 3.972656 -3.605469 C 4.351562 -3.222656 4.539062 -2.734375 4.542969 -2.136719 C 4.539062 -1.5625 4.375 -1.070312 4.042969 -0.65625 C 3.636719 -0.148438 3.085938 0.105469 2.390625 0.109375 C 1.816406 0.105469 1.347656 -0.0507812 0.984375 -0.371094 C 0.621094 -0.691406 0.414062 -1.117188 0.367188 -1.648438 Z M 0.367188 -1.648438 "/>
</g>
<g id="glyph-0-7">
<path d="M -0.0117188 0 L 2.40625 -6.300781 L 3.304688 -6.300781 L 5.882812 0 L 4.933594 0 L 4.199219 -1.90625 L 1.5625 -1.90625 L 0.871094 0 Z M 1.804688 -2.585938 L 3.941406 -2.585938 L 3.28125 -4.332031 C 3.078125 -4.855469 2.929688 -5.292969 2.835938 -5.636719 C 2.753906 -5.230469 2.640625 -4.828125 2.496094 -4.433594 Z M 1.804688 -2.585938 "/>
</g>
<g id="glyph-0-8">
<path d="M 0.679688 0 L 0.679688 -6.300781 L 2.847656 -6.300781 C 3.335938 -6.296875 3.707031 -6.269531 3.96875 -6.210938 C 4.328125 -6.125 4.636719 -5.972656 4.894531 -5.757812 C 5.222656 -5.472656 5.472656 -5.113281 5.636719 -4.679688 C 5.800781 -4.242188 5.882812 -3.742188 5.886719 -3.183594 C 5.882812 -2.699219 5.828125 -2.277344 5.71875 -1.910156 C 5.605469 -1.542969 5.460938 -1.238281 5.289062 -0.996094 C 5.113281 -0.753906 4.921875 -0.5625 4.714844 -0.421875 C 4.507812 -0.28125 4.257812 -0.175781 3.964844 -0.105469 C 3.667969 -0.0351562 3.332031 0 2.953125 0 Z M 1.511719 -0.742188 L 2.859375 -0.742188 C 3.273438 -0.738281 3.597656 -0.777344 3.832031 -0.859375 C 4.066406 -0.933594 4.253906 -1.042969 4.398438 -1.1875 C 4.59375 -1.382812 4.746094 -1.648438 4.859375 -1.984375 C 4.96875 -2.316406 5.027344 -2.71875 5.027344 -3.195312 C 5.027344 -3.851562 4.917969 -4.359375 4.703125 -4.714844 C 4.484375 -5.066406 4.222656 -5.304688 3.914062 -5.425781 C 3.6875 -5.511719 3.328125 -5.554688 2.835938 -5.554688 L 1.511719 -5.554688 Z M 1.511719 -0.742188 "/>
</g>
<g id="glyph-0-9">
<path d="M 0.722656 0 L 0.722656 -6.300781 L 4.972656 -6.300781 L 4.972656 -5.554688 L 1.554688 -5.554688 L 1.554688 -3.605469 L 4.511719 -3.605469 L 4.511719 -2.863281 L 1.554688 -2.863281 L 1.554688 0 Z M 0.722656 0 "/>
</g>
<g id="glyph-0-10">
<path d="M 0.394531 -2.023438 L 1.179688 -2.09375 C 1.214844 -1.773438 1.304688 -1.515625 1.441406 -1.316406 C 1.574219 -1.113281 1.785156 -0.949219 2.074219 -0.828125 C 2.359375 -0.699219 2.679688 -0.636719 3.042969 -0.640625 C 3.355469 -0.636719 3.636719 -0.683594 3.882812 -0.78125 C 4.125 -0.875 4.304688 -1.007812 4.425781 -1.171875 C 4.542969 -1.335938 4.605469 -1.515625 4.605469 -1.710938 C 4.605469 -1.90625 4.546875 -2.078125 4.433594 -2.226562 C 4.316406 -2.375 4.128906 -2.5 3.867188 -2.601562 C 3.695312 -2.664062 3.320312 -2.765625 2.746094 -2.90625 C 2.164062 -3.046875 1.757812 -3.175781 1.53125 -3.300781 C 1.226562 -3.453125 1.003906 -3.648438 0.855469 -3.886719 C 0.707031 -4.117188 0.632812 -4.378906 0.636719 -4.671875 C 0.632812 -4.984375 0.722656 -5.28125 0.90625 -5.5625 C 1.082031 -5.835938 1.34375 -6.046875 1.695312 -6.191406 C 2.039062 -6.332031 2.425781 -6.402344 2.851562 -6.40625 C 3.316406 -6.402344 3.730469 -6.328125 4.089844 -6.179688 C 4.445312 -6.027344 4.71875 -5.804688 4.910156 -5.515625 C 5.101562 -5.21875 5.203125 -4.890625 5.21875 -4.523438 L 4.421875 -4.464844 C 4.375 -4.863281 4.230469 -5.164062 3.984375 -5.367188 C 3.734375 -5.570312 3.367188 -5.671875 2.886719 -5.671875 C 2.382812 -5.671875 2.015625 -5.578125 1.785156 -5.394531 C 1.554688 -5.207031 1.441406 -4.984375 1.441406 -4.726562 C 1.441406 -4.496094 1.519531 -4.308594 1.683594 -4.167969 C 1.839844 -4.019531 2.261719 -3.871094 2.941406 -3.71875 C 3.617188 -3.5625 4.082031 -3.429688 4.335938 -3.316406 C 4.703125 -3.144531 4.972656 -2.929688 5.148438 -2.671875 C 5.320312 -2.414062 5.40625 -2.113281 5.410156 -1.777344 C 5.40625 -1.441406 5.3125 -1.128906 5.121094 -0.832031 C 4.929688 -0.535156 4.652344 -0.300781 4.292969 -0.136719 C 3.929688 0.0273438 3.527344 0.105469 3.082031 0.109375 C 2.511719 0.105469 2.03125 0.0234375 1.648438 -0.140625 C 1.257812 -0.304688 0.957031 -0.554688 0.742188 -0.890625 C 0.519531 -1.222656 0.402344 -1.597656 0.394531 -2.023438 Z M 0.394531 -2.023438 "/>
</g>
<g id="glyph-0-11">
<path d="M 3.625 -2.46875 L 3.625 -3.210938 L 6.296875 -3.214844 L 6.296875 -0.875 C 5.882812 -0.546875 5.460938 -0.300781 5.027344 -0.136719 C 4.589844 0.0273438 4.140625 0.105469 3.6875 0.109375 C 3.0625 0.105469 2.5 -0.0234375 2 -0.289062 C 1.492188 -0.550781 1.113281 -0.933594 0.855469 -1.4375 C 0.597656 -1.9375 0.46875 -2.5 0.46875 -3.121094 C 0.46875 -3.730469 0.59375 -4.300781 0.851562 -4.835938 C 1.105469 -5.363281 1.476562 -5.757812 1.957031 -6.019531 C 2.4375 -6.273438 2.992188 -6.402344 3.621094 -6.40625 C 4.074219 -6.402344 4.484375 -6.328125 4.855469 -6.183594 C 5.222656 -6.035156 5.511719 -5.832031 5.722656 -5.566406 C 5.929688 -5.300781 6.089844 -4.957031 6.199219 -4.539062 L 5.449219 -4.332031 C 5.351562 -4.648438 5.230469 -4.902344 5.09375 -5.085938 C 4.953125 -5.269531 4.753906 -5.414062 4.492188 -5.527344 C 4.230469 -5.636719 3.941406 -5.695312 3.625 -5.695312 C 3.242188 -5.695312 2.914062 -5.636719 2.636719 -5.519531 C 2.359375 -5.402344 2.132812 -5.246094 1.964844 -5.058594 C 1.792969 -4.867188 1.664062 -4.660156 1.570312 -4.4375 C 1.40625 -4.046875 1.324219 -3.625 1.328125 -3.171875 C 1.324219 -2.605469 1.421875 -2.136719 1.617188 -1.761719 C 1.808594 -1.382812 2.089844 -1.101562 2.460938 -0.917969 C 2.828125 -0.734375 3.21875 -0.644531 3.640625 -0.644531 C 3.996094 -0.644531 4.347656 -0.710938 4.695312 -0.851562 C 5.035156 -0.988281 5.296875 -1.136719 5.476562 -1.296875 L 5.476562 -2.46875 Z M 3.625 -2.46875 "/>
</g>
<g id="glyph-1-0">
<path d="M 0.847656 0 L 0.847656 -7.875 L 3.5625 -7.875 C 4.171875 -7.875 4.636719 -7.835938 4.960938 -7.761719 C 5.410156 -7.65625 5.796875 -7.46875 6.117188 -7.195312 C 6.53125 -6.84375 6.839844 -6.394531 7.050781 -5.851562 C 7.253906 -5.300781 7.359375 -4.675781 7.359375 -3.980469 C 7.359375 -3.378906 7.289062 -2.847656 7.148438 -2.386719 C 7.007812 -1.921875 6.828125 -1.542969 6.609375 -1.242188 C 6.390625 -0.9375 6.152344 -0.699219 5.894531 -0.527344 C 5.632812 -0.355469 5.316406 -0.222656 4.953125 -0.132812 C 4.585938 -0.0429688 4.167969 0 3.691406 0 Z M 1.890625 -0.929688 L 3.570312 -0.929688 C 4.085938 -0.925781 4.496094 -0.972656 4.792969 -1.074219 C 5.089844 -1.167969 5.324219 -1.304688 5.5 -1.484375 C 5.746094 -1.726562 5.9375 -2.058594 6.078125 -2.476562 C 6.210938 -2.894531 6.28125 -3.402344 6.285156 -3.996094 C 6.28125 -4.816406 6.144531 -5.449219 5.878906 -5.894531 C 5.605469 -6.335938 5.277344 -6.632812 4.894531 -6.785156 C 4.609375 -6.890625 4.160156 -6.941406 3.546875 -6.945312 L 1.890625 -6.945312 Z M 1.890625 -0.929688 "/>
</g>
<g id="glyph-1-1">
<path d="M 0.730469 -6.761719 L 0.730469 -7.875 L 1.695312 -7.875 L 1.695312 -6.761719 Z M 0.730469 0 L 0.730469 -5.703125 L 1.695312 -5.703125 L 1.695312 0 Z M 0.730469 0 "/>
</g>
<g id="glyph-1-2">
<path d="M 0.339844 -1.703125 L 1.292969 -1.851562 C 1.34375 -1.46875 1.492188 -1.171875 1.742188 -0.96875 C 1.984375 -0.761719 2.328125 -0.660156 2.773438 -0.664062 C 3.210938 -0.660156 3.539062 -0.75 3.757812 -0.933594 C 3.96875 -1.113281 4.078125 -1.328125 4.082031 -1.574219 C 4.078125 -1.789062 3.984375 -1.960938 3.796875 -2.089844 C 3.664062 -2.171875 3.332031 -2.28125 2.808594 -2.417969 C 2.097656 -2.59375 1.605469 -2.75 1.332031 -2.882812 C 1.054688 -3.011719 0.847656 -3.191406 0.710938 -3.421875 C 0.566406 -3.652344 0.496094 -3.90625 0.5 -4.1875 C 0.496094 -4.441406 0.554688 -4.675781 0.671875 -4.894531 C 0.785156 -5.105469 0.945312 -5.289062 1.148438 -5.4375 C 1.296875 -5.546875 1.5 -5.636719 1.761719 -5.714844 C 2.019531 -5.789062 2.300781 -5.828125 2.601562 -5.832031 C 3.046875 -5.828125 3.4375 -5.765625 3.777344 -5.636719 C 4.113281 -5.507812 4.363281 -5.332031 4.527344 -5.113281 C 4.6875 -4.890625 4.796875 -4.597656 4.859375 -4.234375 L 3.914062 -4.101562 C 3.871094 -4.394531 3.746094 -4.621094 3.542969 -4.789062 C 3.335938 -4.953125 3.042969 -5.039062 2.667969 -5.039062 C 2.222656 -5.039062 1.90625 -4.964844 1.71875 -4.816406 C 1.523438 -4.667969 1.429688 -4.496094 1.433594 -4.300781 C 1.429688 -4.175781 1.46875 -4.0625 1.550781 -3.964844 C 1.628906 -3.859375 1.753906 -3.773438 1.921875 -3.707031 C 2.015625 -3.667969 2.300781 -3.585938 2.777344 -3.460938 C 3.460938 -3.273438 3.9375 -3.121094 4.207031 -3.007812 C 4.476562 -2.890625 4.6875 -2.722656 4.84375 -2.503906 C 4.996094 -2.277344 5.074219 -2.003906 5.074219 -1.675781 C 5.074219 -1.351562 4.980469 -1.046875 4.792969 -0.765625 C 4.605469 -0.480469 4.332031 -0.261719 3.980469 -0.105469 C 3.621094 0.0507812 3.222656 0.128906 2.777344 0.128906 C 2.035156 0.128906 1.46875 -0.0234375 1.082031 -0.332031 C 0.691406 -0.640625 0.445312 -1.097656 0.339844 -1.703125 Z M 0.339844 -1.703125 "/>
</g>
<g id="glyph-1-3">
<path d="M 2.835938 -0.863281 L 2.976562 -0.0117188 C 2.703125 0.0429688 2.457031 0.0703125 2.246094 0.0742188 C 1.890625 0.0703125 1.621094 0.0195312 1.429688 -0.0898438 C 1.234375 -0.199219 1.097656 -0.347656 1.019531 -0.527344 C 0.941406 -0.707031 0.902344 -1.085938 0.902344 -1.671875 L 0.902344 -4.953125 L 0.195312 -4.953125 L 0.195312 -5.703125 L 0.902344 -5.703125 L 0.902344 -7.117188 L 1.863281 -7.695312 L 1.863281 -5.703125 L 2.835938 -5.703125 L 2.835938 -4.953125 L 1.863281 -4.953125 L 1.863281 -1.617188 C 1.863281 -1.339844 1.878906 -1.160156 1.914062 -1.085938 C 1.945312 -1.003906 2 -0.941406 2.078125 -0.898438 C 2.152344 -0.847656 2.261719 -0.824219 2.410156 -0.828125 C 2.515625 -0.824219 2.660156 -0.835938 2.835938 -0.863281 Z M 2.835938 -0.863281 "/>
</g>
<g id="glyph-1-4">
<path d="M 0.714844 0 L 0.714844 -5.703125 L 1.585938 -5.703125 L 1.585938 -4.839844 C 1.804688 -5.242188 2.007812 -5.507812 2.199219 -5.636719 C 2.382812 -5.765625 2.589844 -5.828125 2.820312 -5.832031 C 3.140625 -5.828125 3.472656 -5.726562 3.8125 -5.523438 L 3.480469 -4.625 C 3.242188 -4.761719 3.003906 -4.832031 2.773438 -4.835938 C 2.554688 -4.832031 2.363281 -4.769531 2.199219 -4.644531 C 2.027344 -4.515625 1.910156 -4.339844 1.84375 -4.113281 C 1.730469 -3.769531 1.675781 -3.390625 1.679688 -2.984375 L 1.679688 0 Z M 0.714844 0 "/>
</g>
<g id="glyph-1-5">
<path d="M 1.617188 0 L 0.71875 0 L 0.71875 -7.875 L 1.6875 -7.875 L 1.6875 -5.066406 C 2.09375 -5.574219 2.613281 -5.828125 3.25 -5.832031 C 3.597656 -5.828125 3.929688 -5.757812 4.246094 -5.621094 C 4.554688 -5.476562 4.8125 -5.277344 5.019531 -5.023438 C 5.21875 -4.765625 5.378906 -4.457031 5.496094 -4.097656 C 5.609375 -3.730469 5.664062 -3.34375 5.667969 -2.9375 C 5.664062 -1.957031 5.421875 -1.203125 4.941406 -0.671875 C 4.453125 -0.136719 3.875 0.128906 3.203125 0.128906 C 2.527344 0.128906 2 -0.152344 1.617188 -0.714844 Z M 1.605469 -2.894531 C 1.605469 -2.207031 1.699219 -1.710938 1.886719 -1.414062 C 2.191406 -0.910156 2.601562 -0.660156 3.121094 -0.664062 C 3.539062 -0.660156 3.902344 -0.84375 4.214844 -1.214844 C 4.519531 -1.578125 4.675781 -2.128906 4.679688 -2.859375 C 4.675781 -3.601562 4.527344 -4.148438 4.234375 -4.507812 C 3.9375 -4.859375 3.582031 -5.039062 3.164062 -5.039062 C 2.742188 -5.039062 2.375 -4.855469 2.066406 -4.488281 C 1.757812 -4.121094 1.605469 -3.589844 1.605469 -2.894531 Z M 1.605469 -2.894531 "/>
</g>
<g id="glyph-1-6">
<path d="M 4.464844 0 L 4.464844 -0.835938 C 4.019531 -0.191406 3.414062 0.128906 2.652344 0.128906 C 2.3125 0.128906 2 0.0664062 1.710938 -0.0625 C 1.417969 -0.191406 1.199219 -0.355469 1.058594 -0.550781 C 0.914062 -0.746094 0.816406 -0.984375 0.761719 -1.265625 C 0.722656 -1.453125 0.703125 -1.753906 0.703125 -2.171875 L 0.703125 -5.703125 L 1.671875 -5.703125 L 1.671875 -2.539062 C 1.667969 -2.03125 1.6875 -1.691406 1.730469 -1.519531 C 1.785156 -1.261719 1.914062 -1.0625 2.113281 -0.921875 C 2.308594 -0.773438 2.554688 -0.703125 2.847656 -0.703125 C 3.136719 -0.703125 3.40625 -0.777344 3.660156 -0.925781 C 3.914062 -1.074219 4.09375 -1.273438 4.199219 -1.53125 C 4.304688 -1.785156 4.359375 -2.160156 4.359375 -2.648438 L 4.359375 -5.703125 L 5.328125 -5.703125 L 5.328125 0 Z M 4.464844 0 "/>
</g>
<g id="glyph-1-7">
<path d="M 0.367188 -2.851562 C 0.363281 -3.90625 0.65625 -4.6875 1.246094 -5.199219 C 1.734375 -5.617188 2.332031 -5.828125 3.039062 -5.832031 C 3.820312 -5.828125 4.460938 -5.574219 4.960938 -5.0625 C 5.457031 -4.546875 5.707031 -3.835938 5.710938 -2.933594 C 5.707031 -2.195312 5.597656 -1.617188 5.378906 -1.199219 C 5.15625 -0.777344 4.832031 -0.449219 4.414062 -0.21875 C 3.992188 0.015625 3.535156 0.128906 3.039062 0.128906 C 2.238281 0.128906 1.59375 -0.125 1.105469 -0.636719 C 0.609375 -1.148438 0.363281 -1.886719 0.367188 -2.851562 Z M 1.359375 -2.851562 C 1.359375 -2.121094 1.515625 -1.574219 1.835938 -1.210938 C 2.152344 -0.84375 2.554688 -0.660156 3.039062 -0.664062 C 3.515625 -0.660156 3.914062 -0.84375 4.234375 -1.210938 C 4.550781 -1.574219 4.710938 -2.132812 4.714844 -2.882812 C 4.710938 -3.585938 4.550781 -4.117188 4.234375 -4.484375 C 3.910156 -4.84375 3.511719 -5.027344 3.039062 -5.03125 C 2.554688 -5.027344 2.152344 -4.847656 1.835938 -4.488281 C 1.515625 -4.128906 1.359375 -3.582031 1.359375 -2.851562 Z M 1.359375 -2.851562 "/>
</g>
<g id="glyph-1-8">
<path d="M 0.726562 0 L 0.726562 -5.703125 L 1.59375 -5.703125 L 1.59375 -4.894531 C 2.011719 -5.515625 2.617188 -5.828125 3.410156 -5.832031 C 3.753906 -5.828125 4.066406 -5.765625 4.355469 -5.644531 C 4.640625 -5.519531 4.859375 -5.359375 5.003906 -5.160156 C 5.144531 -4.957031 5.242188 -4.71875 5.304688 -4.445312 C 5.335938 -4.265625 5.355469 -3.953125 5.359375 -3.507812 L 5.359375 0 L 4.394531 0 L 4.394531 -3.46875 C 4.394531 -3.863281 4.355469 -4.15625 4.28125 -4.351562 C 4.203125 -4.542969 4.070312 -4.699219 3.878906 -4.820312 C 3.6875 -4.933594 3.460938 -4.992188 3.207031 -4.996094 C 2.792969 -4.992188 2.4375 -4.859375 2.140625 -4.601562 C 1.835938 -4.335938 1.6875 -3.84375 1.691406 -3.117188 L 1.691406 0 Z M 0.726562 0 "/>
</g>
<g id="glyph-2-0">
<path d="M 1.019531 0 L 1.019531 -9.449219 L 4.273438 -9.449219 C 5.003906 -9.445312 5.566406 -9.398438 5.957031 -9.3125 C 6.492188 -9.183594 6.953125 -8.960938 7.339844 -8.636719 C 7.835938 -8.214844 8.207031 -7.675781 8.457031 -7.019531 C 8.699219 -6.363281 8.824219 -5.613281 8.828125 -4.777344 C 8.824219 -4.054688 8.742188 -3.417969 8.578125 -2.867188 C 8.410156 -2.308594 8.195312 -1.851562 7.933594 -1.492188 C 7.667969 -1.128906 7.378906 -0.84375 7.070312 -0.632812 C 6.757812 -0.421875 6.382812 -0.261719 5.945312 -0.160156 C 5.503906 -0.0507812 5 0 4.429688 0 Z M 2.269531 -1.113281 L 4.285156 -1.113281 C 4.902344 -1.113281 5.390625 -1.171875 5.75 -1.289062 C 6.101562 -1.40625 6.386719 -1.566406 6.601562 -1.777344 C 6.894531 -2.070312 7.125 -2.46875 7.289062 -2.972656 C 7.453125 -3.472656 7.535156 -4.082031 7.539062 -4.796875 C 7.535156 -5.78125 7.371094 -6.539062 7.050781 -7.074219 C 6.722656 -7.601562 6.332031 -7.957031 5.871094 -8.140625 C 5.535156 -8.265625 4.996094 -8.332031 4.253906 -8.332031 L 2.269531 -8.332031 Z M 2.269531 -1.113281 "/>
</g>
<g id="glyph-2-1">
<path d="M 0.875 -8.113281 L 0.875 -9.449219 L 2.035156 -9.449219 L 2.035156 -8.113281 Z M 0.875 0 L 0.875 -6.84375 L 2.035156 -6.84375 L 2.035156 0 Z M 0.875 0 "/>
</g>
<g id="glyph-2-2">
<path d="M 0.40625 -2.042969 L 1.554688 -2.222656 C 1.613281 -1.761719 1.792969 -1.410156 2.089844 -1.167969 C 2.382812 -0.917969 2.792969 -0.796875 3.324219 -0.800781 C 3.855469 -0.796875 4.253906 -0.90625 4.511719 -1.125 C 4.769531 -1.339844 4.898438 -1.59375 4.898438 -1.886719 C 4.898438 -2.148438 4.785156 -2.355469 4.558594 -2.507812 C 4.398438 -2.609375 4 -2.738281 3.371094 -2.898438 C 2.515625 -3.113281 1.925781 -3.300781 1.601562 -3.457031 C 1.269531 -3.613281 1.019531 -3.828125 0.851562 -4.105469 C 0.679688 -4.382812 0.597656 -4.691406 0.597656 -5.027344 C 0.597656 -5.332031 0.667969 -5.613281 0.808594 -5.875 C 0.949219 -6.132812 1.136719 -6.347656 1.378906 -6.523438 C 1.554688 -6.652344 1.800781 -6.765625 2.117188 -6.859375 C 2.425781 -6.949219 2.761719 -6.996094 3.121094 -7 C 3.65625 -6.996094 4.128906 -6.917969 4.535156 -6.765625 C 4.941406 -6.609375 5.238281 -6.398438 5.433594 -6.136719 C 5.621094 -5.871094 5.753906 -5.519531 5.832031 -5.078125 L 4.699219 -4.925781 C 4.644531 -5.273438 4.492188 -5.546875 4.25 -5.75 C 4 -5.945312 3.652344 -6.046875 3.203125 -6.046875 C 2.667969 -6.046875 2.289062 -5.957031 2.0625 -5.78125 C 1.835938 -5.601562 1.722656 -5.394531 1.722656 -5.164062 C 1.722656 -5.007812 1.769531 -4.875 1.863281 -4.757812 C 1.957031 -4.632812 2.105469 -4.527344 2.308594 -4.445312 C 2.421875 -4.402344 2.761719 -4.304688 3.332031 -4.152344 C 4.148438 -3.929688 4.71875 -3.75 5.046875 -3.609375 C 5.367188 -3.46875 5.625 -3.265625 5.8125 -3.003906 C 5.996094 -2.734375 6.085938 -2.402344 6.089844 -2.011719 C 6.085938 -1.621094 5.972656 -1.257812 5.75 -0.917969 C 5.523438 -0.574219 5.199219 -0.308594 4.773438 -0.125 C 4.347656 0.0625 3.867188 0.152344 3.332031 0.15625 C 2.441406 0.152344 1.761719 -0.03125 1.296875 -0.398438 C 0.828125 -0.765625 0.53125 -1.3125 0.40625 -2.042969 Z M 0.40625 -2.042969 "/>
</g>
<g id="glyph-2-3">
<path d="M 3.402344 -1.039062 L 3.570312 -0.0117188 C 3.242188 0.0546875 2.953125 0.0859375 2.695312 0.0898438 C 2.273438 0.0859375 1.945312 0.0234375 1.714844 -0.109375 C 1.480469 -0.238281 1.316406 -0.414062 1.222656 -0.632812 C 1.125 -0.851562 1.078125 -1.308594 1.082031 -2.003906 L 1.082031 -5.941406 L 0.230469 -5.941406 L 0.230469 -6.84375 L 1.082031 -6.84375 L 1.082031 -8.539062 L 2.238281 -9.234375 L 2.238281 -6.84375 L 3.402344 -6.84375 L 3.402344 -5.941406 L 2.238281 -5.941406 L 2.238281 -1.941406 C 2.238281 -1.605469 2.257812 -1.394531 2.296875 -1.300781 C 2.335938 -1.207031 2.402344 -1.128906 2.496094 -1.074219 C 2.589844 -1.015625 2.722656 -0.988281 2.894531 -0.992188 C 3.019531 -0.988281 3.1875 -1.003906 3.402344 -1.039062 Z M 3.402344 -1.039062 "/>
</g>
<g id="glyph-2-4">
<path d="M 0.855469 0 L 0.855469 -6.84375 L 1.902344 -6.84375 L 1.902344 -5.808594 C 2.164062 -6.289062 2.410156 -6.609375 2.636719 -6.765625 C 2.863281 -6.917969 3.109375 -6.996094 3.382812 -7 C 3.769531 -6.996094 4.167969 -6.871094 4.578125 -6.625 L 4.175781 -5.550781 C 3.890625 -5.714844 3.605469 -5.800781 3.324219 -5.800781 C 3.066406 -5.800781 2.839844 -5.722656 2.640625 -5.570312 C 2.4375 -5.417969 2.292969 -5.207031 2.210938 -4.9375 C 2.078125 -4.523438 2.015625 -4.070312 2.015625 -3.582031 L 2.015625 0 Z M 0.855469 0 "/>
</g>
<g id="glyph-2-5">
<path d="M 1.941406 0 L 0.863281 0 L 0.863281 -9.449219 L 2.023438 -9.449219 L 2.023438 -6.078125 C 2.507812 -6.6875 3.132812 -6.996094 3.898438 -7 C 4.316406 -6.996094 4.714844 -6.910156 5.09375 -6.746094 C 5.46875 -6.574219 5.78125 -6.335938 6.023438 -6.03125 C 6.265625 -5.71875 6.453125 -5.347656 6.59375 -4.917969 C 6.726562 -4.480469 6.796875 -4.019531 6.800781 -3.527344 C 6.796875 -2.351562 6.507812 -1.441406 5.929688 -0.804688 C 5.347656 -0.164062 4.648438 0.152344 3.839844 0.15625 C 3.027344 0.152344 2.394531 -0.183594 1.941406 -0.855469 Z M 1.925781 -3.472656 C 1.921875 -2.648438 2.035156 -2.054688 2.261719 -1.695312 C 2.625 -1.09375 3.117188 -0.796875 3.746094 -0.800781 C 4.246094 -0.796875 4.683594 -1.015625 5.058594 -1.460938 C 5.425781 -1.898438 5.613281 -2.554688 5.613281 -3.429688 C 5.613281 -4.320312 5.433594 -4.980469 5.082031 -5.40625 C 4.722656 -5.832031 4.296875 -6.046875 3.796875 -6.046875 C 3.289062 -6.046875 2.847656 -5.824219 2.480469 -5.382812 C 2.105469 -4.941406 1.921875 -4.304688 1.925781 -3.472656 Z M 1.925781 -3.472656 "/>
</g>
<g id="glyph-2-6">
<path d="M 5.355469 0 L 5.355469 -1.003906 C 4.824219 -0.230469 4.097656 0.152344 3.183594 0.15625 C 2.777344 0.152344 2.402344 0.078125 2.050781 -0.0742188 C 1.699219 -0.226562 1.4375 -0.421875 1.273438 -0.660156 C 1.101562 -0.890625 0.984375 -1.175781 0.914062 -1.519531 C 0.867188 -1.746094 0.84375 -2.109375 0.84375 -2.605469 L 0.84375 -6.84375 L 2.003906 -6.84375 L 2.003906 -3.046875 C 2.003906 -2.441406 2.027344 -2.03125 2.074219 -1.824219 C 2.144531 -1.515625 2.296875 -1.277344 2.539062 -1.105469 C 2.773438 -0.929688 3.066406 -0.84375 3.414062 -0.84375 C 3.761719 -0.84375 4.089844 -0.929688 4.394531 -1.109375 C 4.699219 -1.285156 4.914062 -1.53125 5.042969 -1.839844 C 5.167969 -2.144531 5.230469 -2.589844 5.234375 -3.175781 L 5.234375 -6.84375 L 6.394531 -6.84375 L 6.394531 0 Z M 5.355469 0 "/>
</g>
<g id="glyph-2-7">
<path d="M 0.4375 -3.421875 C 0.433594 -4.6875 0.785156 -5.625 1.496094 -6.238281 C 2.082031 -6.742188 2.800781 -6.996094 3.648438 -7 C 4.585938 -6.996094 5.355469 -6.6875 5.953125 -6.074219 C 6.550781 -5.453125 6.847656 -4.601562 6.851562 -3.519531 C 6.847656 -2.636719 6.714844 -1.945312 6.453125 -1.441406 C 6.1875 -0.933594 5.804688 -0.539062 5.300781 -0.261719 C 4.792969 0.015625 4.242188 0.152344 3.648438 0.15625 C 2.6875 0.152344 1.914062 -0.152344 1.324219 -0.765625 C 0.730469 -1.378906 0.433594 -2.265625 0.4375 -3.421875 Z M 1.628906 -3.421875 C 1.628906 -2.546875 1.820312 -1.890625 2.203125 -1.453125 C 2.585938 -1.015625 3.066406 -0.796875 3.648438 -0.800781 C 4.222656 -0.796875 4.703125 -1.015625 5.085938 -1.457031 C 5.46875 -1.890625 5.660156 -2.558594 5.660156 -3.460938 C 5.660156 -4.304688 5.464844 -4.945312 5.082031 -5.382812 C 4.691406 -5.816406 4.214844 -6.035156 3.648438 -6.039062 C 3.066406 -6.035156 2.585938 -5.816406 2.203125 -5.386719 C 1.820312 -4.949219 1.628906 -4.296875 1.628906 -3.421875 Z M 1.628906 -3.421875 "/>
</g>
<g id="glyph-2-8">
<path d="M 0.871094 0 L 0.871094 -6.84375 L 1.914062 -6.84375 L 1.914062 -5.871094 C 2.414062 -6.621094 3.140625 -6.996094 4.09375 -7 C 4.503906 -6.996094 4.882812 -6.921875 5.230469 -6.777344 C 5.574219 -6.625 5.832031 -6.429688 6.007812 -6.191406 C 6.175781 -5.949219 6.296875 -5.664062 6.367188 -5.335938 C 6.410156 -5.121094 6.433594 -4.746094 6.433594 -4.207031 L 6.433594 0 L 5.273438 0 L 5.273438 -4.164062 C 5.273438 -4.632812 5.226562 -4.984375 5.136719 -5.222656 C 5.042969 -5.453125 4.882812 -5.640625 4.65625 -5.78125 C 4.425781 -5.917969 4.15625 -5.988281 3.847656 -5.992188 C 3.351562 -5.988281 2.925781 -5.832031 2.566406 -5.523438 C 2.207031 -5.207031 2.027344 -4.613281 2.03125 -3.738281 L 2.03125 0 Z M 0.871094 0 "/>
</g>
<g id="glyph-2-9">
</g>
<g id="glyph-2-10">
<path d="M 1.148438 0 L 1.148438 -5.941406 L 0.121094 -5.941406 L 0.121094 -6.84375 L 1.148438 -6.84375 L 1.148438 -7.574219 C 1.148438 -8.03125 1.1875 -8.371094 1.269531 -8.597656 C 1.378906 -8.894531 1.574219 -9.140625 1.859375 -9.328125 C 2.136719 -9.515625 2.53125 -9.609375 3.042969 -9.609375 C 3.363281 -9.609375 3.726562 -9.570312 4.125 -9.492188 L 3.949219 -8.480469 C 3.707031 -8.519531 3.480469 -8.542969 3.269531 -8.546875 C 2.914062 -8.542969 2.664062 -8.46875 2.519531 -8.320312 C 2.371094 -8.167969 2.296875 -7.886719 2.300781 -7.476562 L 2.300781 -6.84375 L 3.636719 -6.84375 L 3.636719 -5.941406 L 2.300781 -5.941406 L 2.300781 0 Z M 1.148438 0 "/>
</g>
<g id="glyph-2-11">
<path d="M 5.554688 -2.203125 L 6.753906 -2.054688 C 6.5625 -1.351562 6.210938 -0.808594 5.703125 -0.421875 C 5.1875 -0.0390625 4.535156 0.152344 3.746094 0.15625 C 2.738281 0.152344 1.945312 -0.152344 1.363281 -0.769531 C 0.773438 -1.382812 0.480469 -2.25 0.484375 -3.363281 C 0.480469 -4.515625 0.777344 -5.410156 1.371094 -6.046875 C 1.964844 -6.679688 2.734375 -6.996094 3.679688 -7 C 4.59375 -6.996094 5.339844 -6.683594 5.921875 -6.0625 C 6.5 -5.4375 6.789062 -4.5625 6.792969 -3.433594 C 6.789062 -3.363281 6.789062 -3.257812 6.785156 -3.125 L 1.683594 -3.125 C 1.722656 -2.371094 1.9375 -1.796875 2.320312 -1.398438 C 2.703125 -0.996094 3.179688 -0.796875 3.75 -0.800781 C 4.175781 -0.796875 4.539062 -0.90625 4.839844 -1.132812 C 5.140625 -1.351562 5.378906 -1.710938 5.554688 -2.203125 Z M 1.746094 -4.078125 L 5.570312 -4.078125 C 5.515625 -4.65625 5.367188 -5.085938 5.128906 -5.375 C 4.757812 -5.820312 4.28125 -6.046875 3.691406 -6.046875 C 3.160156 -6.046875 2.710938 -5.867188 2.347656 -5.511719 C 1.984375 -5.152344 1.785156 -4.675781 1.746094 -4.078125 Z M 1.746094 -4.078125 "/>
</g>
<g id="glyph-2-12">
<path d="M 5.335938 -0.84375 C 4.902344 -0.476562 4.488281 -0.21875 4.09375 -0.0703125 C 3.695312 0.078125 3.269531 0.152344 2.816406 0.15625 C 2.0625 0.152344 1.484375 -0.0273438 1.082031 -0.394531 C 0.675781 -0.761719 0.472656 -1.234375 0.476562 -1.804688 C 0.472656 -2.140625 0.550781 -2.445312 0.703125 -2.722656 C 0.855469 -3 1.054688 -3.222656 1.304688 -3.390625 C 1.550781 -3.554688 1.828125 -3.679688 2.140625 -3.769531 C 2.363281 -3.824219 2.707031 -3.882812 3.171875 -3.945312 C 4.105469 -4.054688 4.796875 -4.1875 5.238281 -4.34375 C 5.242188 -4.5 5.242188 -4.601562 5.246094 -4.648438 C 5.242188 -5.117188 5.132812 -5.449219 4.917969 -5.644531 C 4.617188 -5.902344 4.179688 -6.035156 3.597656 -6.039062 C 3.050781 -6.035156 2.644531 -5.9375 2.386719 -5.75 C 2.125 -5.554688 1.933594 -5.21875 1.8125 -4.738281 L 0.675781 -4.890625 C 0.777344 -5.375 0.949219 -5.765625 1.183594 -6.066406 C 1.417969 -6.363281 1.757812 -6.59375 2.210938 -6.757812 C 2.65625 -6.914062 3.175781 -6.996094 3.765625 -7 C 4.347656 -6.996094 4.820312 -6.925781 5.1875 -6.792969 C 5.546875 -6.652344 5.816406 -6.480469 5.992188 -6.273438 C 6.160156 -6.0625 6.28125 -5.800781 6.355469 -5.484375 C 6.390625 -5.285156 6.410156 -4.925781 6.414062 -4.414062 L 6.414062 -2.867188 C 6.410156 -1.785156 6.433594 -1.105469 6.488281 -0.820312 C 6.535156 -0.535156 6.632812 -0.261719 6.78125 0 L 5.570312 0 C 5.445312 -0.238281 5.367188 -0.519531 5.335938 -0.84375 Z M 5.238281 -3.433594 C 4.816406 -3.261719 4.183594 -3.113281 3.34375 -2.996094 C 2.863281 -2.925781 2.527344 -2.851562 2.332031 -2.765625 C 2.132812 -2.679688 1.980469 -2.550781 1.875 -2.386719 C 1.765625 -2.21875 1.710938 -2.035156 1.714844 -1.835938 C 1.710938 -1.523438 1.828125 -1.265625 2.066406 -1.0625 C 2.296875 -0.851562 2.640625 -0.75 3.09375 -0.753906 C 3.539062 -0.75 3.933594 -0.847656 4.285156 -1.046875 C 4.628906 -1.238281 4.886719 -1.507812 5.054688 -1.851562 C 5.175781 -2.109375 5.238281 -2.496094 5.238281 -3.011719 Z M 5.238281 -3.433594 "/>
</g>
<g id="glyph-2-13">
<path d="M 5.335938 -2.507812 L 6.476562 -2.359375 C 6.347656 -1.570312 6.03125 -0.953125 5.519531 -0.511719 C 5.003906 -0.0664062 4.371094 0.152344 3.628906 0.15625 C 2.6875 0.152344 1.933594 -0.152344 1.367188 -0.761719 C 0.796875 -1.375 0.515625 -2.253906 0.515625 -3.398438 C 0.515625 -4.132812 0.636719 -4.777344 0.882812 -5.335938 C 1.125 -5.886719 1.496094 -6.300781 2 -6.582031 C 2.5 -6.855469 3.046875 -6.996094 3.636719 -7 C 4.375 -6.996094 4.980469 -6.808594 5.457031 -6.433594 C 5.925781 -6.058594 6.230469 -5.523438 6.367188 -4.835938 L 5.238281 -4.660156 C 5.128906 -5.117188 4.9375 -5.464844 4.667969 -5.699219 C 4.394531 -5.929688 4.066406 -6.046875 3.679688 -6.046875 C 3.09375 -6.046875 2.617188 -5.835938 2.253906 -5.417969 C 1.886719 -4.996094 1.703125 -4.332031 1.707031 -3.429688 C 1.703125 -2.507812 1.878906 -1.839844 2.234375 -1.425781 C 2.585938 -1.003906 3.046875 -0.796875 3.617188 -0.800781 C 4.070312 -0.796875 4.453125 -0.9375 4.757812 -1.21875 C 5.0625 -1.496094 5.253906 -1.925781 5.335938 -2.507812 Z M 5.335938 -2.507812 "/>
</g>
</g>
<clipPath id="clip-0">
<path clip-rule="nonzero" d="M 35.574219 23.1875 L 421.582031 23.1875 L 421.582031 227.511719 L 35.574219 227.511719 Z M 35.574219 23.1875 "/>
</clipPath>
<clipPath id="clip-1">
<path clip-rule="nonzero" d="M 35.574219 187 L 421.582031 187 L 421.582031 188 L 35.574219 188 Z M 35.574219 187 "/>
</clipPath>
<clipPath id="clip-2">
<path clip-rule="nonzero" d="M 35.574219 126 L 421.582031 126 L 421.582031 127 L 35.574219 127 Z M 35.574219 126 "/>
</clipPath>
<clipPath id="clip-3">
<path clip-rule="nonzero" d="M 35.574219 65 L 421.582031 65 L 421.582031 66 L 35.574219 66 Z M 35.574219 65 "/>
</clipPath>
<clipPath id="clip-4">
<path clip-rule="nonzero" d="M 70 23.1875 L 71 23.1875 L 71 227.511719 L 70 227.511719 Z M 70 23.1875 "/>
</clipPath>
<clipPath id="clip-5">
<path clip-rule="nonzero" d="M 165 23.1875 L 167 23.1875 L 167 227.511719 L 165 227.511719 Z M 165 23.1875 "/>
</clipPath>
<clipPath id="clip-6">
<path clip-rule="nonzero" d="M 261 23.1875 L 262 23.1875 L 262 227.511719 L 261 227.511719 Z M 261 23.1875 "/>
</clipPath>
<clipPath id="clip-7">
<path clip-rule="nonzero" d="M 356 23.1875 L 358 23.1875 L 358 227.511719 L 356 227.511719 Z M 356 23.1875 "/>
</clipPath>
<clipPath id="clip-8">
<path clip-rule="nonzero" d="M 35.574219 217 L 421.582031 217 L 421.582031 219 L 35.574219 219 Z M 35.574219 217 "/>
</clipPath>
<clipPath id="clip-9">
<path clip-rule="nonzero" d="M 35.574219 156 L 421.582031 156 L 421.582031 158 L 35.574219 158 Z M 35.574219 156 "/>
</clipPath>
<clipPath id="clip-10">
<path clip-rule="nonzero" d="M 35.574219 95 L 421.582031 95 L 421.582031 97 L 35.574219 97 Z M 35.574219 95 "/>
</clipPath>
<clipPath id="clip-11">
<path clip-rule="nonzero" d="M 35.574219 34 L 421.582031 34 L 421.582031 36 L 35.574219 36 Z M 35.574219 34 "/>
</clipPath>
<clipPath id="clip-12">
<path clip-rule="nonzero" d="M 117 23.1875 L 119 23.1875 L 119 227.511719 L 117 227.511719 Z M 117 23.1875 "/>
</clipPath>
<clipPath id="clip-13">
<path clip-rule="nonzero" d="M 213 23.1875 L 215 23.1875 L 215 227.511719 L 213 227.511719 Z M 213 23.1875 "/>
</clipPath>
<clipPath id="clip-14">
<path clip-rule="nonzero" d="M 308 23.1875 L 310 23.1875 L 310 227.511719 L 308 227.511719 Z M 308 23.1875 "/>
</clipPath>
<clipPath id="clip-15">
<path clip-rule="nonzero" d="M 404 23.1875 L 406 23.1875 L 406 227.511719 L 404 227.511719 Z M 404 23.1875 "/>
</clipPath>
<clipPath id="clip-16">
<path clip-rule="nonzero" d="M 35.574219 23.1875 L 421.582031 23.1875 L 421.582031 227.511719 L 35.574219 227.511719 Z M 35.574219 23.1875 "/>
</clipPath>
</defs>
<rect x="-50.4" y="-25.9" width="604.8" height="310.8" fill="rgb(100%, 100%, 100%)" fill-opacity="1"/>
<rect x="-50.4" y="-25.9" width="604.8" height="310.8" fill="rgb(100%, 100%, 100%)" fill-opacity="1"/>
<path fill="none" stroke-width="1.066978" stroke-linecap="round" stroke-linejoin="round" stroke="rgb(100%, 100%, 100%)" stroke-opacity="1" stroke-miterlimit="10" d="M 0 259 L 504 259 L 504 0 L 0 0 Z M 0 259 "/>
<g clip-path="url(#clip-0)">
<path fill-rule="nonzero" fill="rgb(100%, 100%, 100%)" fill-opacity="1" d="M 35.574219 227.507812 L 421.582031 227.507812 L 421.582031 23.183594 L 35.574219 23.183594 Z M 35.574219 227.507812 "/>
</g>
<g clip-path="url(#clip-1)">
<path fill="none" stroke-width="0.533489" stroke-linecap="butt" stroke-linejoin="round" stroke="rgb(92.156863%, 92.156863%, 92.156863%)" stroke-opacity="1" stroke-miterlimit="10" d="M 35.574219 187.652344 L 421.582031 187.652344 "/>
</g>
<g clip-path="url(#clip-2)">
<path fill="none" stroke-width="0.533489" stroke-linecap="butt" stroke-linejoin="round" stroke="rgb(92.156863%, 92.156863%, 92.156863%)" stroke-opacity="1" stroke-miterlimit="10" d="M 35.574219 126.507812 L 421.582031 126.507812 "/>
</g>
<g clip-path="url(#clip-3)">
<path fill="none" stroke-width="0.533489" stroke-linecap="butt" stroke-linejoin="round" stroke="rgb(92.156863%, 92.156863%, 92.156863%)" stroke-opacity="1" stroke-miterlimit="10" d="M 35.574219 65.367188 L 421.582031 65.367188 "/>
</g>
<g clip-path="url(#clip-4)">
<path fill="none" stroke-width="0.533489" stroke-linecap="butt" stroke-linejoin="round" stroke="rgb(92.156863%, 92.156863%, 92.156863%)" stroke-opacity="1" stroke-miterlimit="10" d="M 70.441406 227.507812 L 70.441406 23.1875 "/>
</g>
<g clip-path="url(#clip-5)">
<path fill="none" stroke-width="0.533489" stroke-linecap="butt" stroke-linejoin="round" stroke="rgb(92.156863%, 92.156863%, 92.156863%)" stroke-opacity="1" stroke-miterlimit="10" d="M 165.996094 227.507812 L 165.996094 23.1875 "/>
</g>
<g clip-path="url(#clip-6)">
<path fill="none" stroke-width="0.533489" stroke-linecap="butt" stroke-linejoin="round" stroke="rgb(92.156863%, 92.156863%, 92.156863%)" stroke-opacity="1" stroke-miterlimit="10" d="M 261.546875 227.507812 L 261.546875 23.1875 "/>
</g>
<g clip-path="url(#clip-7)">
<path fill="none" stroke-width="0.533489" stroke-linecap="butt" stroke-linejoin="round" stroke="rgb(92.156863%, 92.156863%, 92.156863%)" stroke-opacity="1" stroke-miterlimit="10" d="M 357.097656 227.507812 L 357.097656 23.1875 "/>
</g>
<g clip-path="url(#clip-8)">
<path fill="none" stroke-width="1.066978" stroke-linecap="butt" stroke-linejoin="round" stroke="rgb(92.156863%, 92.156863%, 92.156863%)" stroke-opacity="1" stroke-miterlimit="10" d="M 35.574219 218.222656 L 421.582031 218.222656 "/>
</g>
<g clip-path="url(#clip-9)">
<path fill="none" stroke-width="1.066978" stroke-linecap="butt" stroke-linejoin="round" stroke="rgb(92.156863%, 92.156863%, 92.156863%)" stroke-opacity="1" stroke-miterlimit="10" d="M 35.574219 157.078125 L 421.582031 157.078125 "/>
</g>
<g clip-path="url(#clip-10)">
<path fill="none" stroke-width="1.066978" stroke-linecap="butt" stroke-linejoin="round" stroke="rgb(92.156863%, 92.156863%, 92.156863%)" stroke-opacity="1" stroke-miterlimit="10" d="M 35.574219 95.9375 L 421.582031 95.9375 "/>
</g>
<g clip-path="url(#clip-11)">
<path fill="none" stroke-width="1.066978" stroke-linecap="butt" stroke-linejoin="round" stroke="rgb(92.156863%, 92.156863%, 92.156863%)" stroke-opacity="1" stroke-miterlimit="10" d="M 35.574219 34.792969 L 421.582031 34.792969 "/>
</g>
<g clip-path="url(#clip-12)">
<path fill="none" stroke-width="1.066978" stroke-linecap="butt" stroke-linejoin="round" stroke="rgb(92.156863%, 92.156863%, 92.156863%)" stroke-opacity="1" stroke-miterlimit="10" d="M 118.21875 227.507812 L 118.21875 23.1875 "/>
</g>
<g clip-path="url(#clip-13)">
<path fill="none" stroke-width="1.066978" stroke-linecap="butt" stroke-linejoin="round" stroke="rgb(92.156863%, 92.156863%, 92.156863%)" stroke-opacity="1" stroke-miterlimit="10" d="M 213.769531 227.507812 L 213.769531 23.1875 "/>
</g>
<g clip-path="url(#clip-14)">
<path fill="none" stroke-width="1.066978" stroke-linecap="butt" stroke-linejoin="round" stroke="rgb(92.156863%, 92.156863%, 92.156863%)" stroke-opacity="1" stroke-miterlimit="10" d="M 309.324219 227.507812 L 309.324219 23.1875 "/>
</g>
<g clip-path="url(#clip-15)">
<path fill="none" stroke-width="1.066978" stroke-linecap="butt" stroke-linejoin="round" stroke="rgb(92.156863%, 92.156863%, 92.156863%)" stroke-opacity="1" stroke-miterlimit="10" d="M 404.875 227.507812 L 404.875 23.1875 "/>
</g>
<path fill-rule="nonzero" fill="rgb(97.254902%, 46.27451%, 42.745098%)" fill-opacity="0.2" d="M 53.117188 216.894531 L 53.804688 216.867188 L 54.492188 216.855469 L 55.179688 216.855469 L 55.867188 216.867188 L 56.550781 216.890625 L 57.238281 216.929688 L 57.925781 216.972656 L 58.613281 217.023438 L 59.300781 217.078125 L 59.984375 217.136719 L 61.359375 217.246094 L 62.046875 217.289062 L 62.734375 217.324219 L 63.417969 217.34375 L 64.105469 217.351562 L 64.792969 217.335938 L 65.480469 217.296875 L 66.167969 217.238281 L 66.851562 217.148438 L 67.539062 217.023438 L 68.226562 216.867188 L 68.914062 216.679688 L 69.601562 216.449219 L 70.285156 216.1875 L 70.972656 215.882812 L 71.660156 215.542969 L 72.347656 215.15625 L 73.035156 214.730469 L 73.71875 214.265625 L 74.40625 213.765625 L 75.09375 213.230469 L 75.78125 212.667969 L 76.46875 212.078125 L 77.152344 211.464844 L 77.839844 210.828125 L 78.527344 210.183594 L 79.214844 209.535156 L 79.902344 208.882812 L 80.585938 208.230469 L 81.273438 207.589844 L 81.960938 206.957031 L 82.648438 206.335938 L 83.335938 205.734375 L 84.019531 205.144531 L 84.707031 204.570312 L 85.394531 204.003906 L 86.769531 202.886719 L 87.453125 202.324219 L 88.140625 201.746094 L 88.828125 201.152344 L 89.515625 200.527344 L 90.203125 199.875 L 90.886719 199.179688 L 91.574219 198.445312 L 92.261719 197.660156 L 92.949219 196.828125 L 93.636719 195.933594 L 94.320312 194.988281 L 95.007812 193.996094 L 95.695312 192.960938 L 96.382812 191.878906 L 97.070312 190.765625 L 97.753906 189.621094 L 98.441406 188.449219 L 99.128906 187.265625 L 99.816406 186.070312 L 101.191406 183.6875 L 101.875 182.503906 L 102.5625 181.332031 L 103.25 180.171875 L 103.9375 179.027344 L 104.625 177.890625 L 105.308594 176.757812 L 105.996094 175.621094 L 106.683594 174.476562 L 107.371094 173.308594 L 108.058594 172.109375 L 108.742188 170.867188 L 109.429688 169.550781 L 110.117188 168.164062 L 110.804688 166.6875 L 111.492188 165.109375 L 112.175781 163.421875 L 112.863281 161.613281 L 113.550781 159.679688 L 114.238281 157.59375 L 114.925781 155.363281 L 115.609375 153.007812 L 116.296875 150.519531 L 116.984375 147.917969 L 117.671875 145.207031 L 118.359375 142.402344 L 119.042969 139.519531 L 119.730469 136.570312 L 120.417969 133.589844 L 121.105469 130.597656 L 121.792969 127.613281 L 122.476562 124.660156 L 123.164062 121.75 L 123.851562 118.90625 L 124.539062 116.15625 L 125.226562 113.511719 L 125.910156 110.972656 L 126.597656 108.554688 L 127.285156 106.257812 L 127.972656 104.082031 L 128.660156 102.027344 L 129.34375 100.09375 L 130.03125 98.296875 L 130.71875 96.609375 L 131.40625 95.023438 L 132.09375 93.53125 L 132.777344 92.128906 L 133.464844 90.816406 L 134.152344 89.578125 L 134.839844 88.425781 L 135.527344 87.355469 L 136.210938 86.359375 L 136.898438 85.4375 L 137.585938 84.585938 L 138.273438 83.804688 L 138.960938 83.09375 L 139.644531 82.453125 L 140.332031 81.875 L 141.019531 81.351562 L 141.707031 80.863281 L 142.394531 80.402344 L 143.078125 79.949219 L 143.765625 79.484375 L 144.453125 78.996094 L 145.140625 78.460938 L 145.828125 77.847656 L 146.511719 77.148438 L 147.199219 76.351562 L 147.886719 75.449219 L 148.574219 74.433594 L 149.261719 73.308594 L 149.945312 72.078125 L 150.632812 70.75 L 151.320312 69.347656 L 152.007812 67.90625 L 152.695312 66.457031 L 153.378906 65.023438 L 154.066406 63.648438 L 154.753906 62.367188 L 155.441406 61.207031 L 156.128906 60.246094 L 156.8125 59.484375 L 157.5 58.953125 L 158.1875 58.671875 L 158.875 58.652344 L 159.5625 58.90625 L 160.246094 59.4375 L 160.933594 60.265625 L 161.621094 61.390625 L 162.308594 62.777344 L 162.996094 64.40625 L 163.679688 66.257812 L 164.367188 68.316406 L 165.054688 70.5625 L 165.742188 72.972656 L 166.429688 75.542969 L 167.113281 78.230469 L 167.800781 81.015625 L 168.488281 83.871094 L 169.175781 86.777344 L 169.863281 89.71875 L 170.546875 92.671875 L 171.234375 95.621094 L 171.921875 98.535156 L 172.609375 101.398438 L 173.296875 104.191406 L 173.980469 106.898438 L 174.667969 109.507812 L 175.355469 112.003906 L 176.042969 114.378906 L 176.730469 116.605469 L 177.414062 118.683594 L 178.101562 120.625 L 178.789062 122.425781 L 179.476562 124.097656 L 180.164062 125.648438 L 180.851562 127.082031 L 181.535156 128.417969 L 182.222656 129.65625 L 182.910156 130.832031 L 183.597656 131.964844 L 184.285156 133.066406 L 184.96875 134.160156 L 185.65625 135.257812 L 186.34375 136.378906 L 187.03125 137.535156 L 187.71875 138.753906 L 188.402344 140.03125 L 189.089844 141.375 L 189.777344 142.792969 L 190.464844 144.289062 L 191.152344 145.855469 L 191.835938 147.5 L 192.523438 149.222656 L 193.210938 151.011719 L 193.898438 152.851562 L 194.585938 154.742188 L 195.269531 156.667969 L 195.957031 158.621094 L 196.644531 160.59375 L 198.019531 164.5625 L 198.703125 166.535156 L 199.390625 168.488281 L 200.078125 170.414062 L 200.765625 172.304688 L 201.453125 174.15625 L 202.136719 175.960938 L 202.824219 177.703125 L 203.511719 179.382812 L 204.199219 180.992188 L 204.886719 182.53125 L 205.570312 183.996094 L 206.257812 185.382812 L 206.945312 186.691406 L 207.632812 187.921875 L 208.320312 189.054688 L 209.003906 190.113281 L 209.691406 191.097656 L 210.378906 192.011719 L 211.066406 192.863281 L 211.753906 193.65625 L 212.4375 194.394531 L 213.125 195.085938 L 213.8125 195.734375 L 214.5 196.347656 L 215.1875 196.933594 L 215.871094 197.5 L 216.558594 198.046875 L 217.246094 198.578125 L 217.933594 199.097656 L 218.621094 199.605469 L 219.304688 200.109375 L 219.992188 200.609375 L 221.367188 201.601562 L 222.054688 202.09375 L 222.738281 202.589844 L 223.425781 203.085938 L 224.113281 203.585938 L 224.800781 204.082031 L 225.488281 204.582031 L 226.171875 205.082031 L 226.859375 205.582031 L 227.546875 206.078125 L 228.921875 207.054688 L 229.605469 207.53125 L 230.292969 208 L 230.980469 208.457031 L 231.667969 208.898438 L 232.355469 209.328125 L 233.039062 209.742188 L 233.726562 210.136719 L 234.414062 210.511719 L 235.101562 210.871094 L 235.789062 211.203125 L 236.472656 211.519531 L 237.160156 211.816406 L 237.847656 212.089844 L 238.535156 212.347656 L 239.222656 212.578125 L 239.90625 212.792969 L 240.59375 212.988281 L 241.28125 213.167969 L 241.96875 213.332031 L 242.65625 213.484375 L 243.339844 213.628906 L 244.027344 213.761719 L 244.714844 213.890625 L 245.402344 214.015625 L 246.089844 214.144531 L 246.773438 214.273438 L 247.460938 214.402344 L 248.148438 214.539062 L 248.835938 214.683594 L 249.523438 214.835938 L 250.207031 214.996094 L 250.894531 215.160156 L 252.269531 215.511719 L 252.957031 215.695312 L 253.640625 215.878906 L 254.328125 216.058594 L 255.015625 216.242188 L 255.703125 216.417969 L 256.390625 216.585938 L 257.074219 216.746094 L 257.761719 216.894531 L 258.449219 217.03125 L 259.136719 217.15625 L 259.824219 217.265625 L 260.511719 217.355469 L 261.195312 217.433594 L 261.882812 217.492188 L 262.570312 217.535156 L 263.257812 217.5625 L 263.945312 217.574219 L 264.628906 217.574219 L 265.316406 217.558594 L 266.003906 217.53125 L 266.691406 217.488281 L 267.378906 217.441406 L 268.0625 217.386719 L 268.75 217.328125 L 270.8125 217.140625 L 271.496094 217.082031 L 272.183594 217.027344 L 272.871094 216.984375 L 273.558594 216.945312 L 274.246094 216.917969 L 274.929688 216.902344 L 275.617188 216.898438 L 276.304688 216.90625 L 276.992188 216.929688 L 277.679688 216.960938 L 278.363281 217.003906 L 279.050781 217.054688 L 279.738281 217.113281 L 280.425781 217.179688 L 281.113281 217.25 L 281.796875 217.328125 L 283.171875 217.484375 L 284.546875 217.632812 L 285.230469 217.703125 L 285.917969 217.773438 L 287.292969 217.890625 L 287.980469 217.941406 L 288.664062 217.988281 L 289.351562 218.027344 L 290.039062 218.0625 L 291.414062 218.117188 L 292.097656 218.136719 L 292.785156 218.15625 L 293.472656 218.171875 L 294.160156 218.183594 L 294.847656 218.191406 L 295.53125 218.199219 L 298.28125 218.214844 L 298.964844 218.214844 L 299.652344 218.21875 L 301.714844 218.21875 L 302.398438 218.222656 L 404.035156 218.222656 L 53.117188 218.222656 Z M 53.117188 216.894531 "/>
<path fill="none" stroke-width="1.066978" stroke-linecap="butt" stroke-linejoin="round" stroke="rgb(0%, 0%, 0%)" stroke-opacity="1" stroke-miterlimit="10" d="M 53.117188 216.894531 L 53.804688 216.867188 L 54.492188 216.855469 L 55.179688 216.855469 L 55.867188 216.867188 L 56.550781 216.890625 L 57.238281 216.929688 L 57.925781 216.972656 L 58.613281 217.023438 L 59.300781 217.078125 L 59.984375 217.136719 L 61.359375 217.246094 L 62.046875 217.289062 L 62.734375 217.324219 L 63.417969 217.34375 L 64.105469 217.351562 L 64.792969 217.335938 L 65.480469 217.296875 L 66.167969 217.238281 L 66.851562 217.148438 L 67.539062 217.023438 L 68.226562 216.867188 L 68.914062 216.679688 L 69.601562 216.449219 L 70.285156 216.1875 L 70.972656 215.882812 L 71.660156 215.542969 L 72.347656 215.15625 L 73.035156 214.730469 L 73.71875 214.265625 L 74.40625 213.765625 L 75.09375 213.230469 L 75.78125 212.667969 L 76.46875 212.078125 L 77.152344 211.464844 L 77.839844 210.828125 L 78.527344 210.183594 L 79.214844 209.535156 L 79.902344 208.882812 L 80.585938 208.230469 L 81.273438 207.589844 L 81.960938 206.957031 L 82.648438 206.335938 L 83.335938 205.734375 L 84.019531 205.144531 L 84.707031 204.570312 L 85.394531 204.003906 L 86.769531 202.886719 L 87.453125 202.324219 L 88.140625 201.746094 L 88.828125 201.152344 L 89.515625 200.527344 L 90.203125 199.875 L 90.886719 199.179688 L 91.574219 198.445312 L 92.261719 197.660156 L 92.949219 196.828125 L 93.636719 195.933594 L 94.320312 194.988281 L 95.007812 193.996094 L 95.695312 192.960938 L 96.382812 191.878906 L 97.070312 190.765625 L 97.753906 189.621094 L 98.441406 188.449219 L 99.128906 187.265625 L 99.816406 186.070312 L 101.191406 183.6875 L 101.875 182.503906 L 102.5625 181.332031 L 103.25 180.171875 L 103.9375 179.027344 L 104.625 177.890625 L 105.308594 176.757812 L 105.996094 175.621094 L 106.683594 174.476562 L 107.371094 173.308594 L 108.058594 172.109375 L 108.742188 170.867188 L 109.429688 169.550781 L 110.117188 168.164062 L 110.804688 166.6875 L 111.492188 165.109375 L 112.175781 163.421875 L 112.863281 161.613281 L 113.550781 159.679688 L 114.238281 157.59375 L 114.925781 155.363281 L 115.609375 153.007812 L 116.296875 150.519531 L 116.984375 147.917969 L 117.671875 145.207031 L 118.359375 142.402344 L 119.042969 139.519531 L 119.730469 136.570312 L 120.417969 133.589844 L 121.105469 130.597656 L 121.792969 127.613281 L 122.476562 124.660156 L 123.164062 121.75 L 123.851562 118.90625 L 124.539062 116.15625 L 125.226562 113.511719 L 125.910156 110.972656 L 126.597656 108.554688 L 127.285156 106.257812 L 127.972656 104.082031 L 128.660156 102.027344 L 129.34375 100.09375 L 130.03125 98.296875 L 130.71875 96.609375 L 131.40625 95.023438 L 132.09375 93.53125 L 132.777344 92.128906 L 133.464844 90.816406 L 134.152344 89.578125 L 134.839844 88.425781 L 135.527344 87.355469 L 136.210938 86.359375 L 136.898438 85.4375 L 137.585938 84.585938 L 138.273438 83.804688 L 138.960938 83.09375 L 139.644531 82.453125 L 140.332031 81.875 L 141.019531 81.351562 L 141.707031 80.863281 L 142.394531 80.402344 L 143.078125 79.949219 L 143.765625 79.484375 L 144.453125 78.996094 L 145.140625 78.460938 L 145.828125 77.847656 L 146.511719 77.148438 L 147.199219 76.351562 L 147.886719 75.449219 L 148.574219 74.433594 L 149.261719 73.308594 L 149.945312 72.078125 L 150.632812 70.75 L 151.320312 69.347656 L 152.007812 67.90625 L 152.695312 66.457031 L 153.378906 65.023438 L 154.066406 63.648438 L 154.753906 62.367188 L 155.441406 61.207031 L 156.128906 60.246094 L 156.8125 59.484375 L 157.5 58.953125 L 158.1875 58.671875 L 158.875 58.652344 L 159.5625 58.90625 L 160.246094 59.4375 L 160.933594 60.265625 L 161.621094 61.390625 L 162.308594 62.777344 L 162.996094 64.40625 L 163.679688 66.257812 L 164.367188 68.316406 L 165.054688 70.5625 L 165.742188 72.972656 L 166.429688 75.542969 L 167.113281 78.230469 L 167.800781 81.015625 L 168.488281 83.871094 L 169.175781 86.777344 L 169.863281 89.71875 L 170.546875 92.671875 L 171.234375 95.621094 L 171.921875 98.535156 L 172.609375 101.398438 L 173.296875 104.191406 L 173.980469 106.898438 L 174.667969 109.507812 L 175.355469 112.003906 L 176.042969 114.378906 L 176.730469 116.605469 L 177.414062 118.683594 L 178.101562 120.625 L 178.789062 122.425781 L 179.476562 124.097656 L 180.164062 125.648438 L 180.851562 127.082031 L 181.535156 128.417969 L 182.222656 129.65625 L 182.910156 130.832031 L 183.597656 131.964844 L 184.285156 133.066406 L 184.96875 134.160156 L 185.65625 135.257812 L 186.34375 136.378906 L 187.03125 137.535156 L 187.71875 138.753906 L 188.402344 140.03125 L 189.089844 141.375 L 189.777344 142.792969 L 190.464844 144.289062 L 191.152344 145.855469 L 191.835938 147.5 L 192.523438 149.222656 L 193.210938 151.011719 L 193.898438 152.851562 L 194.585938 154.742188 L 195.269531 156.667969 L 195.957031 158.621094 L 196.644531 160.59375 L 198.019531 164.5625 L 198.703125 166.535156 L 199.390625 168.488281 L 200.078125 170.414062 L 200.765625 172.304688 L 201.453125 174.15625 L 202.136719 175.960938 L 202.824219 177.703125 L 203.511719 179.382812 L 204.199219 180.992188 L 204.886719 182.53125 L 205.570312 183.996094 L 206.257812 185.382812 L 206.945312 186.691406 L 207.632812 187.921875 L 208.320312 189.054688 L 209.003906 190.113281 L 209.691406 191.097656 L 210.378906 192.011719 L 211.066406 192.863281 L 211.753906 193.65625 L 212.4375 194.394531 L 213.125 195.085938 L 213.8125 195.734375 L 214.5 196.347656 L 215.1875 196.933594 L 215.871094 197.5 L 216.558594 198.046875 L 217.246094 198.578125 L 217.933594 199.097656 L 218.621094 199.605469 L 219.304688 200.109375 L 219.992188 200.609375 L 221.367188 201.601562 L 222.054688 202.09375 L 222.738281 202.589844 L 223.425781 203.085938 L 224.113281 203.585938 L 224.800781 204.082031 L 225.488281 204.582031 L 226.171875 205.082031 L 226.859375 205.582031 L 227.546875 206.078125 L 228.921875 207.054688 L 229.605469 207.53125 L 230.292969 208 L 230.980469 208.457031 L 231.667969 208.898438 L 232.355469 209.328125 L 233.039062 209.742188 L 233.726562 210.136719 L 234.414062 210.511719 L 235.101562 210.871094 L 235.789062 211.203125 L 236.472656 211.519531 L 237.160156 211.816406 L 237.847656 212.089844 L 238.535156 212.347656 L 239.222656 212.578125 L 239.90625 212.792969 L 240.59375 212.988281 L 241.28125 213.167969 L 241.96875 213.332031 L 242.65625 213.484375 L 243.339844 213.628906 L 244.027344 213.761719 L 244.714844 213.890625 L 245.402344 214.015625 L 246.089844 214.144531 L 246.773438 214.273438 L 247.460938 214.402344 L 248.148438 214.539062 L 248.835938 214.683594 L 249.523438 214.835938 L 250.207031 214.996094 L 250.894531 215.160156 L 252.269531 215.511719 L 252.957031 215.695312 L 253.640625 215.878906 L 254.328125 216.058594 L 255.015625 216.242188 L 255.703125 216.417969 L 256.390625 216.585938 L 257.074219 216.746094 L 257.761719 216.894531 L 258.449219 217.03125 L 259.136719 217.15625 L 259.824219 217.265625 L 260.511719 217.355469 L 261.195312 217.433594 L 261.882812 217.492188 L 262.570312 217.535156 L 263.257812 217.5625 L 263.945312 217.574219 L 264.628906 217.574219 L 265.316406 217.558594 L 266.003906 217.53125 L 266.691406 217.488281 L 267.378906 217.441406 L 268.0625 217.386719 L 268.75 217.328125 L 270.8125 217.140625 L 271.496094 217.082031 L 272.183594 217.027344 L 272.871094 216.984375 L 273.558594 216.945312 L 274.246094 216.917969 L 274.929688 216.902344 L 275.617188 216.898438 L 276.304688 216.90625 L 276.992188 216.929688 L 277.679688 216.960938 L 278.363281 217.003906 L 279.050781 217.054688 L 279.738281 217.113281 L 280.425781 217.179688 L 281.113281 217.25 L 281.796875 217.328125 L 283.171875 217.484375 L 284.546875 217.632812 L 285.230469 217.703125 L 285.917969 217.773438 L 287.292969 217.890625 L 287.980469 217.941406 L 288.664062 217.988281 L 289.351562 218.027344 L 290.039062 218.0625 L 291.414062 218.117188 L 292.097656 218.136719 L 292.785156 218.15625 L 293.472656 218.171875 L 294.160156 218.183594 L 294.847656 218.191406 L 295.53125 218.199219 L 298.28125 218.214844 L 298.964844 218.214844 L 299.652344 218.21875 L 301.714844 218.21875 L 302.398438 218.222656 L 404.035156 218.222656 "/>
<path fill-rule="nonzero" fill="rgb(0%, 72.941176%, 21.960784%)" fill-opacity="0.2" d="M 53.117188 218.222656 L 76.46875 218.222656 L 77.152344 218.21875 L 79.902344 218.21875 L 80.585938 218.214844 L 81.273438 218.214844 L 83.335938 218.203125 L 84.019531 218.199219 L 86.082031 218.175781 L 86.769531 218.164062 L 87.453125 218.148438 L 88.140625 218.132812 L 89.515625 218.09375 L 90.203125 218.070312 L 90.886719 218.042969 L 92.261719 217.980469 L 93.636719 217.902344 L 94.320312 217.859375 L 95.695312 217.765625 L 97.070312 217.664062 L 97.753906 217.609375 L 98.441406 217.554688 L 100.503906 217.378906 L 101.191406 217.316406 L 101.875 217.253906 L 103.25 217.121094 L 104.625 216.980469 L 105.308594 216.90625 L 105.996094 216.832031 L 108.058594 216.585938 L 108.742188 216.5 L 110.117188 216.328125 L 110.804688 216.238281 L 111.492188 216.152344 L 112.175781 216.066406 L 113.550781 215.894531 L 114.925781 215.730469 L 115.609375 215.648438 L 116.296875 215.566406 L 116.984375 215.480469 L 117.671875 215.390625 L 118.359375 215.292969 L 119.042969 215.1875 L 119.730469 215.074219 L 120.417969 214.945312 L 121.105469 214.804688 L 121.792969 214.648438 L 122.476562 214.476562 L 123.164062 214.285156 L 123.851562 214.074219 L 124.539062 213.847656 L 125.226562 213.601562 L 125.910156 213.339844 L 126.597656 213.058594 L 127.285156 212.761719 L 127.972656 212.449219 L 128.660156 212.125 L 129.34375 211.789062 L 130.03125 211.4375 L 130.71875 211.078125 L 131.40625 210.703125 L 132.09375 210.3125 L 132.777344 209.910156 L 133.464844 209.488281 L 134.152344 209.050781 L 134.839844 208.59375 L 135.527344 208.113281 L 136.210938 207.601562 L 136.898438 207.058594 L 137.585938 206.480469 L 138.273438 205.871094 L 138.960938 205.222656 L 139.644531 204.535156 L 140.332031 203.808594 L 141.019531 203.039062 L 141.707031 202.222656 L 142.394531 201.367188 L 143.078125 200.480469 L 143.765625 199.558594 L 144.453125 198.609375 L 145.140625 197.632812 L 145.828125 196.636719 L 146.511719 195.621094 L 147.199219 194.601562 L 148.574219 192.546875 L 149.261719 191.523438 L 149.945312 190.507812 L 150.632812 189.5 L 151.320312 188.507812 L 152.007812 187.519531 L 152.695312 186.542969 L 153.378906 185.566406 L 154.066406 184.589844 L 154.753906 183.609375 L 155.441406 182.621094 L 156.128906 181.605469 L 156.8125 180.566406 L 157.5 179.488281 L 158.1875 178.375 L 158.875 177.214844 L 159.5625 176 L 160.246094 174.734375 L 160.933594 173.402344 L 161.621094 172.007812 L 162.308594 170.554688 L 162.996094 169.046875 L 163.679688 167.484375 L 164.367188 165.871094 L 165.054688 164.21875 L 165.742188 162.519531 L 166.429688 160.785156 L 167.113281 159.023438 L 167.800781 157.242188 L 168.488281 155.445312 L 169.175781 153.632812 L 169.863281 151.808594 L 170.546875 149.972656 L 171.234375 148.132812 L 171.921875 146.285156 L 172.609375 144.425781 L 173.296875 142.5625 L 173.980469 140.6875 L 174.667969 138.804688 L 175.355469 136.910156 L 176.042969 135.003906 L 176.730469 133.085938 L 177.414062 131.160156 L 178.101562 129.222656 L 178.789062 127.28125 L 179.476562 125.332031 L 180.851562 121.425781 L 181.535156 119.480469 L 182.222656 117.539062 L 182.910156 115.609375 L 183.597656 113.691406 L 184.285156 111.792969 L 184.96875 109.914062 L 185.65625 108.0625 L 186.34375 106.238281 L 187.03125 104.441406 L 187.71875 102.679688 L 188.402344 100.953125 L 189.089844 99.265625 L 189.777344 97.621094 L 190.464844 96.027344 L 191.152344 94.480469 L 191.835938 92.984375 L 192.523438 91.542969 L 193.210938 90.15625 L 193.898438 88.828125 L 194.585938 87.558594 L 195.269531 86.367188 L 195.957031 85.238281 L 196.644531 84.179688 L 197.332031 83.183594 L 198.019531 82.261719 L 198.703125 81.40625 L 199.390625 80.625 L 200.078125 79.929688 L 200.765625 79.300781 L 201.453125 78.746094 L 202.136719 78.261719 L 202.824219 77.84375 L 203.511719 77.496094 L 204.199219 77.21875 L 204.886719 77.019531 L 205.570312 76.882812 L 206.257812 76.808594 L 206.945312 76.796875 L 207.632812 76.84375 L 208.320312 76.949219 L 209.003906 77.109375 L 209.691406 77.332031 L 210.378906 77.605469 L 211.066406 77.921875 L 211.753906 78.285156 L 212.4375 78.6875 L 213.125 79.128906 L 213.8125 79.597656 L 214.5 80.101562 L 215.1875 80.625 L 215.871094 81.167969 L 216.558594 81.71875 L 217.246094 82.273438 L 218.621094 83.390625 L 219.304688 83.941406 L 219.992188 84.480469 L 220.679688 85.015625 L 221.367188 85.542969 L 222.054688 86.066406 L 222.738281 86.589844 L 223.425781 87.121094 L 224.113281 87.671875 L 224.800781 88.253906 L 225.488281 88.875 L 226.171875 89.546875 L 226.859375 90.277344 L 227.546875 91.085938 L 228.234375 91.980469 L 228.921875 92.980469 L 229.605469 94.097656 L 230.292969 95.332031 L 230.980469 96.6875 L 231.667969 98.171875 L 232.355469 99.777344 L 233.039062 101.515625 L 233.726562 103.382812 L 234.414062 105.382812 L 235.101562 107.492188 L 235.789062 109.703125 L 236.472656 112.007812 L 237.160156 114.386719 L 237.847656 116.835938 L 238.535156 119.339844 L 239.222656 121.890625 L 239.90625 124.460938 L 240.59375 127.039062 L 241.28125 129.613281 L 241.96875 132.171875 L 242.65625 134.703125 L 243.339844 137.191406 L 244.027344 139.617188 L 244.714844 141.980469 L 245.402344 144.269531 L 246.089844 146.480469 L 246.773438 148.609375 L 247.460938 150.648438 L 248.148438 152.59375 L 248.835938 154.425781 L 249.523438 156.167969 L 250.207031 157.820312 L 250.894531 159.382812 L 251.582031 160.867188 L 252.269531 162.273438 L 252.957031 163.609375 L 253.640625 164.878906 L 254.328125 166.105469 L 255.015625 167.292969 L 255.703125 168.460938 L 256.390625 169.613281 L 257.074219 170.757812 L 257.761719 171.910156 L 258.449219 173.082031 L 259.136719 174.273438 L 259.824219 175.492188 L 260.511719 176.742188 L 261.195312 178.023438 L 261.882812 179.332031 L 262.570312 180.667969 L 263.257812 182.03125 L 263.945312 183.40625 L 264.628906 184.789062 L 265.316406 186.167969 L 266.003906 187.535156 L 266.691406 188.886719 L 267.378906 190.207031 L 268.0625 191.484375 L 268.75 192.710938 L 269.4375 193.886719 L 270.125 195 L 270.8125 196.054688 L 271.496094 197.046875 L 272.183594 197.972656 L 272.871094 198.828125 L 273.558594 199.617188 L 274.246094 200.351562 L 274.929688 201.03125 L 275.617188 201.667969 L 276.304688 202.257812 L 276.992188 202.808594 L 277.679688 203.328125 L 278.363281 203.816406 L 279.050781 204.285156 L 279.738281 204.738281 L 280.425781 205.171875 L 281.113281 205.597656 L 281.796875 206.007812 L 282.484375 206.410156 L 283.171875 206.796875 L 283.859375 207.167969 L 284.546875 207.53125 L 285.230469 207.875 L 285.917969 208.203125 L 286.605469 208.507812 L 287.292969 208.792969 L 287.980469 209.054688 L 288.664062 209.289062 L 289.351562 209.503906 L 290.039062 209.699219 L 290.726562 209.871094 L 291.414062 210.027344 L 292.097656 210.167969 L 292.785156 210.296875 L 294.847656 210.660156 L 295.53125 210.789062 L 296.21875 210.929688 L 296.90625 211.078125 L 297.59375 211.25 L 298.28125 211.441406 L 298.964844 211.648438 L 299.652344 211.878906 L 300.339844 212.125 L 301.027344 212.390625 L 301.714844 212.671875 L 302.398438 212.964844 L 303.773438 213.574219 L 304.460938 213.882812 L 305.148438 214.1875 L 305.832031 214.484375 L 306.519531 214.769531 L 307.207031 215.039062 L 307.894531 215.289062 L 308.582031 215.523438 L 309.265625 215.730469 L 309.953125 215.921875 L 310.640625 216.085938 L 311.328125 216.230469 L 312.015625 216.351562 L 312.699219 216.449219 L 313.386719 216.535156 L 314.074219 216.601562 L 314.761719 216.65625 L 315.449219 216.699219 L 316.132812 216.730469 L 316.820312 216.761719 L 318.195312 216.808594 L 318.882812 216.835938 L 319.566406 216.863281 L 320.253906 216.894531 L 320.941406 216.929688 L 321.628906 216.96875 L 322.316406 217.019531 L 323 217.070312 L 323.6875 217.125 L 324.375 217.1875 L 325.75 217.320312 L 326.433594 217.390625 L 327.121094 217.460938 L 327.808594 217.527344 L 328.496094 217.597656 L 329.183594 217.664062 L 329.867188 217.726562 L 330.554688 217.785156 L 331.242188 217.839844 L 331.929688 217.890625 L 332.617188 217.9375 L 333.300781 217.980469 L 333.988281 218.019531 L 335.363281 218.082031 L 336.050781 218.105469 L 336.734375 218.128906 L 338.109375 218.160156 L 339.484375 218.183594 L 340.171875 218.191406 L 340.855469 218.199219 L 343.605469 218.214844 L 344.289062 218.214844 L 344.976562 218.21875 L 347.722656 218.21875 L 348.410156 218.222656 L 404.035156 218.222656 Z M 53.117188 218.222656 "/>
<path fill="none" stroke-width="1.066978" stroke-linecap="butt" stroke-linejoin="round" stroke="rgb(0%, 0%, 0%)" stroke-opacity="1" stroke-miterlimit="10" d="M 53.117188 218.222656 L 76.46875 218.222656 L 77.152344 218.21875 L 79.902344 218.21875 L 80.585938 218.214844 L 81.273438 218.214844 L 83.335938 218.203125 L 84.019531 218.199219 L 86.082031 218.175781 L 86.769531 218.164062 L 87.453125 218.148438 L 88.140625 218.132812 L 89.515625 218.09375 L 90.203125 218.070312 L 90.886719 218.042969 L 92.261719 217.980469 L 93.636719 217.902344 L 94.320312 217.859375 L 95.695312 217.765625 L 97.070312 217.664062 L 97.753906 217.609375 L 98.441406 217.554688 L 100.503906 217.378906 L 101.191406 217.316406 L 101.875 217.253906 L 103.25 217.121094 L 104.625 216.980469 L 105.308594 216.90625 L 105.996094 216.832031 L 108.058594 216.585938 L 108.742188 216.5 L 110.117188 216.328125 L 110.804688 216.238281 L 111.492188 216.152344 L 112.175781 216.066406 L 113.550781 215.894531 L 114.925781 215.730469 L 115.609375 215.648438 L 116.296875 215.566406 L 116.984375 215.480469 L 117.671875 215.390625 L 118.359375 215.292969 L 119.042969 215.1875 L 119.730469 215.074219 L 120.417969 214.945312 L 121.105469 214.804688 L 121.792969 214.648438 L 122.476562 214.476562 L 123.164062 214.285156 L 123.851562 214.074219 L 124.539062 213.847656 L 125.226562 213.601562 L 125.910156 213.339844 L 126.597656 213.058594 L 127.285156 212.761719 L 127.972656 212.449219 L 128.660156 212.125 L 129.34375 211.789062 L 130.03125 211.4375 L 130.71875 211.078125 L 131.40625 210.703125 L 132.09375 210.3125 L 132.777344 209.910156 L 133.464844 209.488281 L 134.152344 209.050781 L 134.839844 208.59375 L 135.527344 208.113281 L 136.210938 207.601562 L 136.898438 207.058594 L 137.585938 206.480469 L 138.273438 205.871094 L 138.960938 205.222656 L 139.644531 204.535156 L 140.332031 203.808594 L 141.019531 203.039062 L 141.707031 202.222656 L 142.394531 201.367188 L 143.078125 200.480469 L 143.765625 199.558594 L 144.453125 198.609375 L 145.140625 197.632812 L 145.828125 196.636719 L 146.511719 195.621094 L 147.199219 194.601562 L 148.574219 192.546875 L 149.261719 191.523438 L 149.945312 190.507812 L 150.632812 189.5 L 151.320312 188.507812 L 152.007812 187.519531 L 152.695312 186.542969 L 153.378906 185.566406 L 154.066406 184.589844 L 154.753906 183.609375 L 155.441406 182.621094 L 156.128906 181.605469 L 156.8125 180.566406 L 157.5 179.488281 L 158.1875 178.375 L 158.875 177.214844 L 159.5625 176 L 160.246094 174.734375 L 160.933594 173.402344 L 161.621094 172.007812 L 162.308594 170.554688 L 162.996094 169.046875 L 163.679688 167.484375 L 164.367188 165.871094 L 165.054688 164.21875 L 165.742188 162.519531 L 166.429688 160.785156 L 167.113281 159.023438 L 167.800781 157.242188 L 168.488281 155.445312 L 169.175781 153.632812 L 169.863281 151.808594 L 170.546875 149.972656 L 171.234375 148.132812 L 171.921875 146.285156 L 172.609375 144.425781 L 173.296875 142.5625 L 173.980469 140.6875 L 174.667969 138.804688 L 175.355469 136.910156 L 176.042969 135.003906 L 176.730469 133.085938 L 177.414062 131.160156 L 178.101562 129.222656 L 178.789062 127.28125 L 179.476562 125.332031 L 180.851562 121.425781 L 181.535156 119.480469 L 182.222656 117.539062 L 182.910156 115.609375 L 183.597656 113.691406 L 184.285156 111.792969 L 184.96875 109.914062 L 185.65625 108.0625 L 186.34375 106.238281 L 187.03125 104.441406 L 187.71875 102.679688 L 188.402344 100.953125 L 189.089844 99.265625 L 189.777344 97.621094 L 190.464844 96.027344 L 191.152344 94.480469 L 191.835938 92.984375 L 192.523438 91.542969 L 193.210938 90.15625 L 193.898438 88.828125 L 194.585938 87.558594 L 195.269531 86.367188 L 195.957031 85.238281 L 196.644531 84.179688 L 197.332031 83.183594 L 198.019531 82.261719 L 198.703125 81.40625 L 199.390625 80.625 L 200.078125 79.929688 L 200.765625 79.300781 L 201.453125 78.746094 L 202.136719 78.261719 L 202.824219 77.84375 L 203.511719 77.496094 L 204.199219 77.21875 L 204.886719 77.019531 L 205.570312 76.882812 L 206.257812 76.808594 L 206.945312 76.796875 L 207.632812 76.84375 L 208.320312 76.949219 L 209.003906 77.109375 L 209.691406 77.332031 L 210.378906 77.605469 L 211.066406 77.921875 L 211.753906 78.285156 L 212.4375 78.6875 L 213.125 79.128906 L 213.8125 79.597656 L 214.5 80.101562 L 215.1875 80.625 L 215.871094 81.167969 L 216.558594 81.71875 L 217.246094 82.273438 L 218.621094 83.390625 L 219.304688 83.941406 L 219.992188 84.480469 L 220.679688 85.015625 L 221.367188 85.542969 L 222.054688 86.066406 L 222.738281 86.589844 L 223.425781 87.121094 L 224.113281 87.671875 L 224.800781 88.253906 L 225.488281 88.875 L 226.171875 89.546875 L 226.859375 90.277344 L 227.546875 91.085938 L 228.234375 91.980469 L 228.921875 92.980469 L 229.605469 94.097656 L 230.292969 95.332031 L 230.980469 96.6875 L 231.667969 98.171875 L 232.355469 99.777344 L 233.039062 101.515625 L 233.726562 103.382812 L 234.414062 105.382812 L 235.101562 107.492188 L 235.789062 109.703125 L 236.472656 112.007812 L 237.160156 114.386719 L 237.847656 116.835938 L 238.535156 119.339844 L 239.222656 121.890625 L 239.90625 124.460938 L 240.59375 127.039062 L 241.28125 129.613281 L 241.96875 132.171875 L 242.65625 134.703125 L 243.339844 137.191406 L 244.027344 139.617188 L 244.714844 141.980469 L 245.402344 144.269531 L 246.089844 146.480469 L 246.773438 148.609375 L 247.460938 150.648438 L 248.148438 152.59375 L 248.835938 154.425781 L 249.523438 156.167969 L 250.207031 157.820312 L 250.894531 159.382812 L 251.582031 160.867188 L 252.269531 162.273438 L 252.957031 163.609375 L 253.640625 164.878906 L 254.328125 166.105469 L 255.015625 167.292969 L 255.703125 168.460938 L 256.390625 169.613281 L 257.074219 170.757812 L 257.761719 171.910156 L 258.449219 173.082031 L 259.136719 174.273438 L 259.824219 175.492188 L 260.511719 176.742188 L 261.195312 178.023438 L 261.882812 179.332031 L 262.570312 180.667969 L 263.257812 182.03125 L 263.945312 183.40625 L 264.628906 184.789062 L 265.316406 186.167969 L 266.003906 187.535156 L 266.691406 188.886719 L 267.378906 190.207031 L 268.0625 191.484375 L 268.75 192.710938 L 269.4375 193.886719 L 270.125 195 L 270.8125 196.054688 L 271.496094 197.046875 L 272.183594 197.972656 L 272.871094 198.828125 L 273.558594 199.617188 L 274.246094 200.351562 L 274.929688 201.03125 L 275.617188 201.667969 L 276.304688 202.257812 L 276.992188 202.808594 L 277.679688 203.328125 L 278.363281 203.816406 L 279.050781 204.285156 L 279.738281 204.738281 L 280.425781 205.171875 L 281.113281 205.597656 L 281.796875 206.007812 L 282.484375 206.410156 L 283.171875 206.796875 L 283.859375 207.167969 L 284.546875 207.53125 L 285.230469 207.875 L 285.917969 208.203125 L 286.605469 208.507812 L 287.292969 208.792969 L 287.980469 209.054688 L 288.664062 209.289062 L 289.351562 209.503906 L 290.039062 209.699219 L 290.726562 209.871094 L 291.414062 210.027344 L 292.097656 210.167969 L 292.785156 210.296875 L 294.847656 210.660156 L 295.53125 210.789062 L 296.21875 210.929688 L 296.90625 211.078125 L 297.59375 211.25 L 298.28125 211.441406 L 298.964844 211.648438 L 299.652344 211.878906 L 300.339844 212.125 L 301.027344 212.390625 L 301.714844 212.671875 L 302.398438 212.964844 L 303.773438 213.574219 L 304.460938 213.882812 L 305.148438 214.1875 L 305.832031 214.484375 L 306.519531 214.769531 L 307.207031 215.039062 L 307.894531 215.289062 L 308.582031 215.523438 L 309.265625 215.730469 L 309.953125 215.921875 L 310.640625 216.085938 L 311.328125 216.230469 L 312.015625 216.351562 L 312.699219 216.449219 L 313.386719 216.535156 L 314.074219 216.601562 L 314.761719 216.65625 L 315.449219 216.699219 L 316.132812 216.730469 L 316.820312 216.761719 L 318.195312 216.808594 L 318.882812 216.835938 L 319.566406 216.863281 L 320.253906 216.894531 L 320.941406 216.929688 L 321.628906 216.96875 L 322.316406 217.019531 L 323 217.070312 L 323.6875 217.125 L 324.375 217.1875 L 325.75 217.320312 L 326.433594 217.390625 L 327.121094 217.460938 L 327.808594 217.527344 L 328.496094 217.597656 L 329.183594 217.664062 L 329.867188 217.726562 L 330.554688 217.785156 L 331.242188 217.839844 L 331.929688 217.890625 L 332.617188 217.9375 L 333.300781 217.980469 L 333.988281 218.019531 L 335.363281 218.082031 L 336.050781 218.105469 L 336.734375 218.128906 L 338.109375 218.160156 L 339.484375 218.183594 L 340.171875 218.191406 L 340.855469 218.199219 L 343.605469 218.214844 L 344.289062 218.214844 L 344.976562 218.21875 L 347.722656 218.21875 L 348.410156 218.222656 L 404.035156 218.222656 "/>
<path fill-rule="nonzero" fill="rgb(38.039216%, 61.176471%, 100%)" fill-opacity="0.2" d="M 53.117188 218.222656 L 159.5625 218.222656 L 160.246094 218.21875 L 162.308594 218.21875 L 162.996094 218.214844 L 163.679688 218.210938 L 164.367188 218.207031 L 165.742188 218.191406 L 166.429688 218.175781 L 167.113281 218.15625 L 167.800781 218.132812 L 168.488281 218.097656 L 169.175781 218.054688 L 169.863281 217.996094 L 170.546875 217.921875 L 171.234375 217.824219 L 171.921875 217.707031 L 172.609375 217.558594 L 173.296875 217.375 L 173.980469 217.160156 L 174.667969 216.898438 L 175.355469 216.59375 L 176.042969 216.234375 L 176.730469 215.816406 L 177.414062 215.34375 L 178.101562 214.808594 L 178.789062 214.214844 L 179.476562 213.566406 L 180.164062 212.855469 L 180.851562 212.09375 L 181.535156 211.28125 L 182.222656 210.421875 L 182.910156 209.53125 L 183.597656 208.609375 L 184.285156 207.675781 L 184.96875 206.726562 L 185.65625 205.777344 L 186.34375 204.835938 L 187.03125 203.898438 L 187.71875 202.976562 L 188.402344 202.066406 L 189.777344 200.269531 L 190.464844 199.367188 L 191.152344 198.457031 L 191.835938 197.515625 L 192.523438 196.542969 L 193.210938 195.523438 L 193.898438 194.433594 L 194.585938 193.269531 L 195.269531 192.023438 L 195.957031 190.6875 L 196.644531 189.253906 L 197.332031 187.722656 L 198.019531 186.085938 L 198.703125 184.34375 L 199.390625 182.480469 L 200.078125 180.496094 L 200.765625 178.390625 L 201.453125 176.164062 L 202.136719 173.804688 L 202.824219 171.316406 L 203.511719 168.6875 L 204.199219 165.917969 L 204.886719 163.003906 L 205.570312 159.925781 L 206.257812 156.707031 L 206.945312 153.355469 L 207.632812 149.886719 L 208.320312 146.308594 L 209.003906 142.644531 L 209.691406 138.910156 L 210.378906 135.128906 L 211.066406 131.320312 L 211.753906 127.507812 L 212.4375 123.714844 L 213.125 119.960938 L 213.8125 116.257812 L 214.5 112.621094 L 215.1875 109.058594 L 215.871094 105.578125 L 216.558594 102.191406 L 217.246094 98.914062 L 217.933594 95.746094 L 218.621094 92.695312 L 219.304688 89.761719 L 219.992188 86.957031 L 220.679688 84.292969 L 221.367188 81.769531 L 222.054688 79.402344 L 222.738281 77.191406 L 223.425781 75.167969 L 224.113281 73.300781 L 224.800781 71.589844 L 225.488281 70.023438 L 226.171875 68.582031 L 226.859375 67.25 L 227.546875 66.003906 L 228.234375 64.8125 L 228.921875 63.644531 L 229.605469 62.46875 L 230.292969 61.246094 L 230.980469 59.957031 L 231.667969 58.578125 L 232.355469 57.089844 L 233.039062 55.492188 L 233.726562 53.78125 L 234.414062 51.960938 L 235.101562 50.039062 L 235.789062 48.058594 L 236.472656 46.050781 L 237.160156 44.050781 L 237.847656 42.089844 L 238.535156 40.214844 L 239.222656 38.457031 L 239.90625 36.855469 L 240.59375 35.457031 L 241.28125 34.308594 L 241.96875 33.417969 L 242.65625 32.804688 L 243.339844 32.488281 L 244.027344 32.472656 L 244.714844 32.769531 L 245.402344 33.378906 L 246.089844 34.289062 L 246.773438 35.527344 L 247.460938 37.039062 L 248.148438 38.785156 L 248.835938 40.734375 L 249.523438 42.847656 L 250.207031 45.085938 L 250.894531 47.410156 L 251.582031 49.785156 L 252.269531 52.175781 L 252.957031 54.546875 L 253.640625 56.890625 L 254.328125 59.199219 L 255.015625 61.476562 L 255.703125 63.734375 L 256.390625 65.996094 L 257.074219 68.285156 L 257.761719 70.628906 L 258.449219 73.058594 L 259.136719 75.597656 L 259.824219 78.261719 L 260.511719 81.054688 L 261.195312 83.96875 L 261.882812 87.003906 L 262.570312 90.140625 L 263.257812 93.359375 L 263.945312 96.625 L 264.628906 99.910156 L 265.316406 103.175781 L 266.003906 106.394531 L 266.691406 109.539062 L 267.378906 112.585938 L 268.0625 115.523438 L 268.75 118.332031 L 269.4375 121.011719 L 270.125 123.550781 L 270.8125 125.949219 L 271.496094 128.226562 L 272.183594 130.394531 L 272.871094 132.464844 L 273.558594 134.457031 L 274.246094 136.386719 L 274.929688 138.269531 L 275.617188 140.121094 L 276.304688 141.957031 L 276.992188 143.804688 L 277.679688 145.671875 L 278.363281 147.574219 L 279.050781 149.519531 L 279.738281 151.515625 L 280.425781 153.570312 L 281.113281 155.679688 L 281.796875 157.847656 L 282.484375 160.066406 L 283.171875 162.324219 L 283.859375 164.609375 L 284.546875 166.898438 L 285.230469 169.183594 L 285.917969 171.4375 L 286.605469 173.644531 L 287.292969 175.789062 L 287.980469 177.832031 L 288.664062 179.761719 L 289.351562 181.566406 L 290.039062 183.242188 L 290.726562 184.777344 L 291.414062 186.167969 L 292.097656 187.417969 L 292.785156 188.535156 L 293.472656 189.527344 L 294.160156 190.394531 L 294.847656 191.175781 L 295.53125 191.878906 L 296.21875 192.535156 L 296.90625 193.152344 L 297.59375 193.753906 L 298.28125 194.347656 L 298.964844 194.949219 L 299.652344 195.566406 L 300.339844 196.207031 L 301.027344 196.867188 L 301.714844 197.542969 L 302.398438 198.238281 L 303.085938 198.9375 L 303.773438 199.640625 L 304.460938 200.339844 L 305.148438 201.027344 L 305.832031 201.699219 L 306.519531 202.351562 L 307.207031 202.988281 L 307.894531 203.605469 L 308.582031 204.207031 L 309.265625 204.792969 L 309.953125 205.367188 L 310.640625 205.933594 L 311.328125 206.488281 L 312.015625 207.035156 L 312.699219 207.570312 L 313.386719 208.097656 L 314.074219 208.609375 L 314.761719 209.101562 L 315.449219 209.570312 L 316.132812 210.011719 L 316.820312 210.421875 L 317.507812 210.792969 L 318.195312 211.128906 L 318.882812 211.425781 L 319.566406 211.691406 L 320.253906 211.921875 L 320.941406 212.121094 L 321.628906 212.292969 L 322.316406 212.449219 L 323 212.585938 L 324.375 212.84375 L 325.0625 212.96875 L 325.75 213.101562 L 326.433594 213.242188 L 327.121094 213.390625 L 327.808594 213.550781 L 328.496094 213.71875 L 329.183594 213.902344 L 329.867188 214.09375 L 330.554688 214.292969 L 331.242188 214.5 L 331.929688 214.710938 L 332.617188 214.925781 L 333.300781 215.140625 L 334.675781 215.578125 L 336.050781 216.007812 L 336.734375 216.214844 L 337.421875 216.417969 L 338.109375 216.613281 L 338.796875 216.796875 L 339.484375 216.972656 L 340.171875 217.136719 L 340.855469 217.289062 L 341.542969 217.429688 L 342.230469 217.554688 L 342.917969 217.664062 L 343.605469 217.761719 L 344.289062 217.847656 L 344.976562 217.921875 L 345.664062 217.984375 L 346.351562 218.035156 L 347.039062 218.078125 L 347.722656 218.109375 L 348.410156 218.136719 L 349.097656 218.160156 L 349.785156 218.175781 L 350.472656 218.1875 L 351.15625 218.199219 L 351.84375 218.203125 L 352.53125 218.210938 L 353.21875 218.214844 L 353.90625 218.214844 L 354.589844 218.21875 L 355.964844 218.21875 L 356.652344 218.222656 L 382.746094 218.222656 L 383.433594 218.21875 L 385.492188 218.21875 L 388.242188 218.203125 L 388.925781 218.195312 L 390.300781 218.171875 L 390.988281 218.15625 L 391.675781 218.136719 L 392.359375 218.117188 L 393.046875 218.089844 L 394.421875 218.019531 L 395.109375 217.976562 L 395.792969 217.929688 L 396.480469 217.878906 L 397.167969 217.824219 L 398.542969 217.707031 L 399.226562 217.652344 L 399.914062 217.597656 L 400.601562 217.546875 L 401.289062 217.503906 L 401.976562 217.46875 L 402.660156 217.441406 L 403.347656 217.425781 L 404.035156 217.417969 L 404.035156 218.222656 Z M 53.117188 218.222656 "/>
<path fill="none" stroke-width="1.066978" stroke-linecap="butt" stroke-linejoin="round" stroke="rgb(0%, 0%, 0%)" stroke-opacity="1" stroke-miterlimit="10" d="M 53.117188 218.222656 L 159.5625 218.222656 L 160.246094 218.21875 L 162.308594 218.21875 L 162.996094 218.214844 L 163.679688 218.210938 L 164.367188 218.207031 L 165.742188 218.191406 L 166.429688 218.175781 L 167.113281 218.15625 L 167.800781 218.132812 L 168.488281 218.097656 L 169.175781 218.054688 L 169.863281 217.996094 L 170.546875 217.921875 L 171.234375 217.824219 L 171.921875 217.707031 L 172.609375 217.558594 L 173.296875 217.375 L 173.980469 217.160156 L 174.667969 216.898438 L 175.355469 216.59375 L 176.042969 216.234375 L 176.730469 215.816406 L 177.414062 215.34375 L 178.101562 214.808594 L 178.789062 214.214844 L 179.476562 213.566406 L 180.164062 212.855469 L 180.851562 212.09375 L 181.535156 211.28125 L 182.222656 210.421875 L 182.910156 209.53125 L 183.597656 208.609375 L 184.285156 207.675781 L 184.96875 206.726562 L 185.65625 205.777344 L 186.34375 204.835938 L 187.03125 203.898438 L 187.71875 202.976562 L 188.402344 202.066406 L 189.777344 200.269531 L 190.464844 199.367188 L 191.152344 198.457031 L 191.835938 197.515625 L 192.523438 196.542969 L 193.210938 195.523438 L 193.898438 194.433594 L 194.585938 193.269531 L 195.269531 192.023438 L 195.957031 190.6875 L 196.644531 189.253906 L 197.332031 187.722656 L 198.019531 186.085938 L 198.703125 184.34375 L 199.390625 182.480469 L 200.078125 180.496094 L 200.765625 178.390625 L 201.453125 176.164062 L 202.136719 173.804688 L 202.824219 171.316406 L 203.511719 168.6875 L 204.199219 165.917969 L 204.886719 163.003906 L 205.570312 159.925781 L 206.257812 156.707031 L 206.945312 153.355469 L 207.632812 149.886719 L 208.320312 146.308594 L 209.003906 142.644531 L 209.691406 138.910156 L 210.378906 135.128906 L 211.066406 131.320312 L 211.753906 127.507812 L 212.4375 123.714844 L 213.125 119.960938 L 213.8125 116.257812 L 214.5 112.621094 L 215.1875 109.058594 L 215.871094 105.578125 L 216.558594 102.191406 L 217.246094 98.914062 L 217.933594 95.746094 L 218.621094 92.695312 L 219.304688 89.761719 L 219.992188 86.957031 L 220.679688 84.292969 L 221.367188 81.769531 L 222.054688 79.402344 L 222.738281 77.191406 L 223.425781 75.167969 L 224.113281 73.300781 L 224.800781 71.589844 L 225.488281 70.023438 L 226.171875 68.582031 L 226.859375 67.25 L 227.546875 66.003906 L 228.234375 64.8125 L 228.921875 63.644531 L 229.605469 62.46875 L 230.292969 61.246094 L 230.980469 59.957031 L 231.667969 58.578125 L 232.355469 57.089844 L 233.039062 55.492188 L 233.726562 53.78125 L 234.414062 51.960938 L 235.101562 50.039062 L 235.789062 48.058594 L 236.472656 46.050781 L 237.160156 44.050781 L 237.847656 42.089844 L 238.535156 40.214844 L 239.222656 38.457031 L 239.90625 36.855469 L 240.59375 35.457031 L 241.28125 34.308594 L 241.96875 33.417969 L 242.65625 32.804688 L 243.339844 32.488281 L 244.027344 32.472656 L 244.714844 32.769531 L 245.402344 33.378906 L 246.089844 34.289062 L 246.773438 35.527344 L 247.460938 37.039062 L 248.148438 38.785156 L 248.835938 40.734375 L 249.523438 42.847656 L 250.207031 45.085938 L 250.894531 47.410156 L 251.582031 49.785156 L 252.269531 52.175781 L 252.957031 54.546875 L 253.640625 56.890625 L 254.328125 59.199219 L 255.015625 61.476562 L 255.703125 63.734375 L 256.390625 65.996094 L 257.074219 68.285156 L 257.761719 70.628906 L 258.449219 73.058594 L 259.136719 75.597656 L 259.824219 78.261719 L 260.511719 81.054688 L 261.195312 83.96875 L 261.882812 87.003906 L 262.570312 90.140625 L 263.257812 93.359375 L 263.945312 96.625 L 264.628906 99.910156 L 265.316406 103.175781 L 266.003906 106.394531 L 266.691406 109.539062 L 267.378906 112.585938 L 268.0625 115.523438 L 268.75 118.332031 L 269.4375 121.011719 L 270.125 123.550781 L 270.8125 125.949219 L 271.496094 128.226562 L 272.183594 130.394531 L 272.871094 132.464844 L 273.558594 134.457031 L 274.246094 136.386719 L 274.929688 138.269531 L 275.617188 140.121094 L 276.304688 141.957031 L 276.992188 143.804688 L 277.679688 145.671875 L 278.363281 147.574219 L 279.050781 149.519531 L 279.738281 151.515625 L 280.425781 153.570312 L 281.113281 155.679688 L 281.796875 157.847656 L 282.484375 160.066406 L 283.171875 162.324219 L 283.859375 164.609375 L 284.546875 166.898438 L 285.230469 169.183594 L 285.917969 171.4375 L 286.605469 173.644531 L 287.292969 175.789062 L 287.980469 177.832031 L 288.664062 179.761719 L 289.351562 181.566406 L 290.039062 183.242188 L 290.726562 184.777344 L 291.414062 186.167969 L 292.097656 187.417969 L 292.785156 188.535156 L 293.472656 189.527344 L 294.160156 190.394531 L 294.847656 191.175781 L 295.53125 191.878906 L 296.21875 192.535156 L 296.90625 193.152344 L 297.59375 193.753906 L 298.28125 194.347656 L 298.964844 194.949219 L 299.652344 195.566406 L 300.339844 196.207031 L 301.027344 196.867188 L 301.714844 197.542969 L 302.398438 198.238281 L 303.085938 198.9375 L 303.773438 199.640625 L 304.460938 200.339844 L 305.148438 201.027344 L 305.832031 201.699219 L 306.519531 202.351562 L 307.207031 202.988281 L 307.894531 203.605469 L 308.582031 204.207031 L 309.265625 204.792969 L 309.953125 205.367188 L 310.640625 205.933594 L 311.328125 206.488281 L 312.015625 207.035156 L 312.699219 207.570312 L 313.386719 208.097656 L 314.074219 208.609375 L 314.761719 209.101562 L 315.449219 209.570312 L 316.132812 210.011719 L 316.820312 210.421875 L 317.507812 210.792969 L 318.195312 211.128906 L 318.882812 211.425781 L 319.566406 211.691406 L 320.253906 211.921875 L 320.941406 212.121094 L 321.628906 212.292969 L 322.316406 212.449219 L 323 212.585938 L 324.375 212.84375 L 325.0625 212.96875 L 325.75 213.101562 L 326.433594 213.242188 L 327.121094 213.390625 L 327.808594 213.550781 L 328.496094 213.71875 L 329.183594 213.902344 L 329.867188 214.09375 L 330.554688 214.292969 L 331.242188 214.5 L 331.929688 214.710938 L 332.617188 214.925781 L 333.300781 215.140625 L 334.675781 215.578125 L 336.050781 216.007812 L 336.734375 216.214844 L 337.421875 216.417969 L 338.109375 216.613281 L 338.796875 216.796875 L 339.484375 216.972656 L 340.171875 217.136719 L 340.855469 217.289062 L 341.542969 217.429688 L 342.230469 217.554688 L 342.917969 217.664062 L 343.605469 217.761719 L 344.289062 217.847656 L 344.976562 217.921875 L 345.664062 217.984375 L 346.351562 218.035156 L 347.039062 218.078125 L 347.722656 218.109375 L 348.410156 218.136719 L 349.097656 218.160156 L 349.785156 218.175781 L 350.472656 218.1875 L 351.15625 218.199219 L 351.84375 218.203125 L 352.53125 218.210938 L 353.21875 218.214844 L 353.90625 218.214844 L 354.589844 218.21875 L 355.964844 218.21875 L 356.652344 218.222656 L 382.746094 218.222656 L 383.433594 218.21875 L 385.492188 218.21875 L 388.242188 218.203125 L 388.925781 218.195312 L 390.300781 218.171875 L 390.988281 218.15625 L 391.675781 218.136719 L 392.359375 218.117188 L 393.046875 218.089844 L 394.421875 218.019531 L 395.109375 217.976562 L 395.792969 217.929688 L 396.480469 217.878906 L 397.167969 217.824219 L 398.542969 217.707031 L 399.226562 217.652344 L 399.914062 217.597656 L 400.601562 217.546875 L 401.289062 217.503906 L 401.976562 217.46875 L 402.660156 217.441406 L 403.347656 217.425781 L 404.035156 217.417969 "/>
<g clip-path="url(#clip-16)">
<path fill="none" stroke-width="1.066978" stroke-linecap="round" stroke-linejoin="round" stroke="rgb(20%, 20%, 20%)" stroke-opacity="1" stroke-miterlimit="10" d="M 35.574219 227.507812 L 421.582031 227.507812 L 421.582031 23.183594 L 35.574219 23.183594 Z M 35.574219 227.507812 "/>
</g>
<g fill="rgb(30.196078%, 30.196078%, 30.196078%)" fill-opacity="1">
<use xlink:href="#glyph-0-0" x="18.40625" y="221.371094"/>
<use xlink:href="#glyph-0-1" x="23.300391" y="221.371094"/>
<use xlink:href="#glyph-0-0" x="25.745312" y="221.371094"/>
</g>
<g fill="rgb(30.196078%, 30.196078%, 30.196078%)" fill-opacity="1">
<use xlink:href="#glyph-0-0" x="18.40625" y="160.230469"/>
<use xlink:href="#glyph-0-1" x="23.300391" y="160.230469"/>
<use xlink:href="#glyph-0-2" x="25.745312" y="160.230469"/>
</g>
<g fill="rgb(30.196078%, 30.196078%, 30.196078%)" fill-opacity="1">
<use xlink:href="#glyph-0-0" x="18.40625" y="99.085938"/>
<use xlink:href="#glyph-0-1" x="23.300391" y="99.085938"/>
<use xlink:href="#glyph-0-3" x="25.745312" y="99.085938"/>
</g>
<g fill="rgb(30.196078%, 30.196078%, 30.196078%)" fill-opacity="1">
<use xlink:href="#glyph-0-0" x="18.40625" y="37.945312"/>
<use xlink:href="#glyph-0-1" x="23.300391" y="37.945312"/>
<use xlink:href="#glyph-0-4" x="25.745312" y="37.945312"/>
</g>
<path fill="none" stroke-width="1.066978" stroke-linecap="butt" stroke-linejoin="round" stroke="rgb(20%, 20%, 20%)" stroke-opacity="1" stroke-miterlimit="10" d="M 32.832031 218.222656 L 35.574219 218.222656 "/>
<path fill="none" stroke-width="1.066978" stroke-linecap="butt" stroke-linejoin="round" stroke="rgb(20%, 20%, 20%)" stroke-opacity="1" stroke-miterlimit="10" d="M 32.832031 157.078125 L 35.574219 157.078125 "/>
<path fill="none" stroke-width="1.066978" stroke-linecap="butt" stroke-linejoin="round" stroke="rgb(20%, 20%, 20%)" stroke-opacity="1" stroke-miterlimit="10" d="M 32.832031 95.9375 L 35.574219 95.9375 "/>
<path fill="none" stroke-width="1.066978" stroke-linecap="butt" stroke-linejoin="round" stroke="rgb(20%, 20%, 20%)" stroke-opacity="1" stroke-miterlimit="10" d="M 32.832031 34.792969 L 35.574219 34.792969 "/>
<path fill="none" stroke-width="1.066978" stroke-linecap="butt" stroke-linejoin="round" stroke="rgb(20%, 20%, 20%)" stroke-opacity="1" stroke-miterlimit="10" d="M 118.21875 230.25 L 118.21875 227.507812 "/>
<path fill="none" stroke-width="1.066978" stroke-linecap="butt" stroke-linejoin="round" stroke="rgb(20%, 20%, 20%)" stroke-opacity="1" stroke-miterlimit="10" d="M 213.769531 230.25 L 213.769531 227.507812 "/>
<path fill="none" stroke-width="1.066978" stroke-linecap="butt" stroke-linejoin="round" stroke="rgb(20%, 20%, 20%)" stroke-opacity="1" stroke-miterlimit="10" d="M 309.324219 230.25 L 309.324219 227.507812 "/>
<path fill="none" stroke-width="1.066978" stroke-linecap="butt" stroke-linejoin="round" stroke="rgb(20%, 20%, 20%)" stroke-opacity="1" stroke-miterlimit="10" d="M 404.875 230.25 L 404.875 227.507812 "/>
<g fill="rgb(30.196078%, 30.196078%, 30.196078%)" fill-opacity="1">
<use xlink:href="#glyph-0-5" x="110.636719" y="238.738281"/>
<use xlink:href="#glyph-0-2" x="113.567188" y="238.738281"/>
<use xlink:href="#glyph-0-1" x="118.461328" y="238.738281"/>
<use xlink:href="#glyph-0-6" x="120.90625" y="238.738281"/>
</g>
<g fill="rgb(30.196078%, 30.196078%, 30.196078%)" fill-opacity="1">
<use xlink:href="#glyph-0-0" x="207.652344" y="238.738281"/>
<use xlink:href="#glyph-0-1" x="212.546484" y="238.738281"/>
<use xlink:href="#glyph-0-0" x="214.991406" y="238.738281"/>
</g>
<g fill="rgb(30.196078%, 30.196078%, 30.196078%)" fill-opacity="1">
<use xlink:href="#glyph-0-2" x="303.207031" y="238.738281"/>
<use xlink:href="#glyph-0-1" x="308.101172" y="238.738281"/>
<use xlink:href="#glyph-0-6" x="310.546094" y="238.738281"/>
</g>
<g fill="rgb(30.196078%, 30.196078%, 30.196078%)" fill-opacity="1">
<use xlink:href="#glyph-0-6" x="398.757812" y="238.738281"/>
<use xlink:href="#glyph-0-1" x="403.651953" y="238.738281"/>
<use xlink:href="#glyph-0-0" x="406.096875" y="238.738281"/>
</g>
<path fill-rule="nonzero" fill="rgb(100%, 100%, 100%)" fill-opacity="1" d="M 432.539062 164.582031 L 498.519531 164.582031 L 498.519531 86.113281 L 432.539062 86.113281 Z M 432.539062 164.582031 "/>
<g fill="rgb(0%, 0%, 0%)" fill-opacity="1">
<use xlink:href="#glyph-1-0" x="438.019531" y="100.625"/>
<use xlink:href="#glyph-1-1" x="445.963379" y="100.625"/>
<use xlink:href="#glyph-1-2" x="448.407227" y="100.625"/>
<use xlink:href="#glyph-1-3" x="453.907227" y="100.625"/>
<use xlink:href="#glyph-1-4" x="456.963379" y="100.625"/>
<use xlink:href="#glyph-1-1" x="460.626465" y="100.625"/>
<use xlink:href="#glyph-1-5" x="463.070312" y="100.625"/>
<use xlink:href="#glyph-1-6" x="469.187988" y="100.625"/>
<use xlink:href="#glyph-1-3" x="475.305664" y="100.625"/>
<use xlink:href="#glyph-1-1" x="478.361816" y="100.625"/>
<use xlink:href="#glyph-1-7" x="480.805664" y="100.625"/>
<use xlink:href="#glyph-1-8" x="486.92334" y="100.625"/>
</g>
<path fill-rule="nonzero" fill="rgb(100%, 100%, 100%)" fill-opacity="1" d="M 438.019531 124.542969 L 455.300781 124.542969 L 455.300781 107.261719 L 438.019531 107.261719 Z M 438.019531 124.542969 "/>
<path fill-rule="nonzero" fill="rgb(97.254902%, 46.27451%, 42.745098%)" fill-opacity="0.2" stroke-width="1.066978" stroke-linecap="butt" stroke-linejoin="round" stroke="rgb(0%, 0%, 0%)" stroke-opacity="1" stroke-miterlimit="10" d="M 438.726562 123.832031 L 454.589844 123.832031 L 454.589844 107.96875 L 438.726562 107.96875 Z M 438.726562 123.832031 "/>
<path fill-rule="nonzero" fill="rgb(100%, 100%, 100%)" fill-opacity="1" d="M 438.019531 141.820312 L 455.300781 141.820312 L 455.300781 124.539062 L 438.019531 124.539062 Z M 438.019531 141.820312 "/>
<path fill-rule="nonzero" fill="rgb(0%, 72.941176%, 21.960784%)" fill-opacity="0.2" stroke-width="1.066978" stroke-linecap="butt" stroke-linejoin="round" stroke="rgb(0%, 0%, 0%)" stroke-opacity="1" stroke-miterlimit="10" d="M 438.726562 141.113281 L 454.589844 141.113281 L 454.589844 125.25 L 438.726562 125.25 Z M 438.726562 141.113281 "/>
<path fill-rule="nonzero" fill="rgb(100%, 100%, 100%)" fill-opacity="1" d="M 438.019531 159.101562 L 455.300781 159.101562 L 455.300781 141.820312 L 438.019531 141.820312 Z M 438.019531 159.101562 "/>
<path fill-rule="nonzero" fill="rgb(38.039216%, 61.176471%, 100%)" fill-opacity="0.2" stroke-width="1.066978" stroke-linecap="butt" stroke-linejoin="round" stroke="rgb(0%, 0%, 0%)" stroke-opacity="1" stroke-miterlimit="10" d="M 438.726562 158.394531 L 454.589844 158.394531 L 454.589844 142.53125 L 438.726562 142.53125 Z M 438.726562 158.394531 "/>
<g fill="rgb(0%, 0%, 0%)" fill-opacity="1">
<use xlink:href="#glyph-0-7" x="460.777344" y="119.050781"/>
<use xlink:href="#glyph-0-8" x="466.646875" y="119.050781"/>
<use xlink:href="#glyph-0-9" x="473.001953" y="119.050781"/>
</g>
<g fill="rgb(0%, 0%, 0%)" fill-opacity="1">
<use xlink:href="#glyph-0-10" x="460.777344" y="136.332031"/>
<use xlink:href="#glyph-0-7" x="466.646875" y="136.332031"/>
<use xlink:href="#glyph-0-8" x="472.516406" y="136.332031"/>
<use xlink:href="#glyph-0-9" x="478.871484" y="136.332031"/>
</g>
<g fill="rgb(0%, 0%, 0%)" fill-opacity="1">
<use xlink:href="#glyph-0-11" x="460.777344" y="153.609375"/>
<use xlink:href="#glyph-0-10" x="467.622266" y="153.609375"/>
<use xlink:href="#glyph-0-7" x="473.491797" y="153.609375"/>
<use xlink:href="#glyph-0-8" x="479.361328" y="153.609375"/>
<use xlink:href="#glyph-0-9" x="485.716406" y="153.609375"/>
</g>
<g fill="rgb(0%, 0%, 0%)" fill-opacity="1">
<use xlink:href="#glyph-2-0" x="35.574219" y="14.929688"/>
<use xlink:href="#glyph-2-1" x="45.106836" y="14.929688"/>
<use xlink:href="#glyph-2-2" x="48.039453" y="14.929688"/>
<use xlink:href="#glyph-2-3" x="54.639453" y="14.929688"/>
<use xlink:href="#glyph-2-4" x="58.306836" y="14.929688"/>
<use xlink:href="#glyph-2-1" x="62.702539" y="14.929688"/>
<use xlink:href="#glyph-2-5" x="65.635156" y="14.929688"/>
<use xlink:href="#glyph-2-6" x="72.976367" y="14.929688"/>
<use xlink:href="#glyph-2-3" x="80.317578" y="14.929688"/>
<use xlink:href="#glyph-2-1" x="83.984961" y="14.929688"/>
<use xlink:href="#glyph-2-7" x="86.917578" y="14.929688"/>
<use xlink:href="#glyph-2-8" x="94.258789" y="14.929688"/>
<use xlink:href="#glyph-2-2" x="101.6" y="14.929688"/>
<use xlink:href="#glyph-2-9" x="108.2" y="14.929688"/>
<use xlink:href="#glyph-2-7" x="111.867383" y="14.929688"/>
<use xlink:href="#glyph-2-10" x="119.208594" y="14.929688"/>
<use xlink:href="#glyph-2-9" x="122.875977" y="14.929688"/>
<use xlink:href="#glyph-2-6" x="126.543359" y="14.929688"/>
<use xlink:href="#glyph-2-8" x="133.88457" y="14.929688"/>
<use xlink:href="#glyph-2-1" x="141.225781" y="14.929688"/>
<use xlink:href="#glyph-2-3" x="144.158398" y="14.929688"/>
<use xlink:href="#glyph-2-9" x="147.825781" y="14.929688"/>
<use xlink:href="#glyph-2-4" x="151.493164" y="14.929688"/>
<use xlink:href="#glyph-2-7" x="155.888867" y="14.929688"/>
<use xlink:href="#glyph-2-7" x="163.230078" y="14.929688"/>
<use xlink:href="#glyph-2-3" x="170.571289" y="14.929688"/>
<use xlink:href="#glyph-2-9" x="174.238672" y="14.929688"/>
<use xlink:href="#glyph-2-3" x="177.906055" y="14.929688"/>
<use xlink:href="#glyph-2-11" x="181.573437" y="14.929688"/>
<use xlink:href="#glyph-2-2" x="188.914648" y="14.929688"/>
<use xlink:href="#glyph-2-3" x="195.514648" y="14.929688"/>
<use xlink:href="#glyph-2-9" x="199.182031" y="14.929688"/>
<use xlink:href="#glyph-2-2" x="202.849414" y="14.929688"/>
<use xlink:href="#glyph-2-3" x="209.449414" y="14.929688"/>
<use xlink:href="#glyph-2-12" x="213.116797" y="14.929688"/>
<use xlink:href="#glyph-2-3" x="220.458008" y="14.929688"/>
<use xlink:href="#glyph-2-1" x="224.125391" y="14.929688"/>
<use xlink:href="#glyph-2-2" x="227.058008" y="14.929688"/>
<use xlink:href="#glyph-2-3" x="233.658008" y="14.929688"/>
<use xlink:href="#glyph-2-1" x="237.325391" y="14.929688"/>
<use xlink:href="#glyph-2-13" x="240.258008" y="14.929688"/>
<use xlink:href="#glyph-2-2" x="246.858008" y="14.929688"/>
</g>
</svg>
