<?xml version="1.0" encoding="UTF-8"?>
<svg xmlns="http://www.w3.org/2000/svg" xmlns:xlink="http://www.w3.org/1999/xlink" width="504pt" height="259pt" viewBox="0 0 504 259">
<defs>
<g>
<g id="glyph-0-0">
<path d="M 0.28125 -1.890625 L 0.28125 -2.667969 L 2.65625 -2.667969 L 2.65625 -1.890625 Z M 0.28125 -1.890625 "/>
</g>
<g id="glyph-0-1">
<path d="M 4.429688 -0.742188 L 4.429688 0 L 0.265625 0 C 0.257812 -0.1875 0.289062 -0.367188 0.355469 -0.539062 C 0.460938 -0.820312 0.628906 -1.097656 0.863281 -1.375 C 1.09375 -1.648438 1.433594 -1.964844 1.878906 -2.328125 C 2.5625 -2.886719 3.023438 -3.332031 3.265625 -3.664062 C 3.5 -3.988281 3.621094 -4.300781 3.625 -4.59375 C 3.621094 -4.898438 3.511719 -5.15625 3.296875 -5.367188 C 3.074219 -5.578125 2.789062 -5.683594 2.441406 -5.683594 C 2.066406 -5.683594 1.769531 -5.570312 1.546875 -5.347656 C 1.320312 -5.125 1.207031 -4.816406 1.207031 -4.421875 L 0.414062 -4.503906 C 0.464844 -5.09375 0.667969 -5.542969 1.027344 -5.855469 C 1.378906 -6.164062 1.855469 -6.320312 2.457031 -6.324219 C 3.058594 -6.320312 3.539062 -6.152344 3.890625 -5.820312 C 4.242188 -5.484375 4.417969 -5.070312 4.421875 -4.578125 C 4.417969 -4.320312 4.367188 -4.074219 4.265625 -3.832031 C 4.164062 -3.589844 3.992188 -3.332031 3.753906 -3.0625 C 3.511719 -2.792969 3.113281 -2.425781 2.5625 -1.957031 C 2.09375 -1.566406 1.796875 -1.300781 1.664062 -1.160156 C 1.53125 -1.019531 1.421875 -0.878906 1.339844 -0.742188 Z M 4.429688 -0.742188 "/>
</g>
<g id="glyph-0-2">
<path d="M 3.277344 0 L 2.503906 0 L 2.503906 -4.929688 C 2.316406 -4.75 2.074219 -4.574219 1.773438 -4.394531 C 1.46875 -4.214844 1.195312 -4.082031 0.957031 -3.996094 L 0.957031 -4.742188 C 1.386719 -4.941406 1.765625 -5.1875 2.089844 -5.480469 C 2.414062 -5.769531 2.644531 -6.050781 2.78125 -6.324219 L 3.277344 -6.324219 Z M 3.277344 0 "/>
</g>
<g id="glyph-0-3">
<path d="M 0.367188 -3.105469 C 0.363281 -3.847656 0.4375 -4.445312 0.59375 -4.902344 C 0.742188 -5.355469 0.972656 -5.707031 1.277344 -5.953125 C 1.578125 -6.199219 1.957031 -6.320312 2.417969 -6.324219 C 2.753906 -6.320312 3.050781 -6.253906 3.308594 -6.121094 C 3.5625 -5.984375 3.773438 -5.789062 3.9375 -5.53125 C 4.101562 -5.273438 4.230469 -4.960938 4.328125 -4.59375 C 4.421875 -4.226562 4.46875 -3.730469 4.472656 -3.105469 C 4.46875 -2.367188 4.394531 -1.769531 4.242188 -1.316406 C 4.089844 -0.859375 3.863281 -0.507812 3.5625 -0.261719 C 3.257812 -0.015625 2.875 0.105469 2.417969 0.109375 C 1.808594 0.105469 1.332031 -0.109375 0.988281 -0.546875 C 0.570312 -1.066406 0.363281 -1.921875 0.367188 -3.105469 Z M 1.160156 -3.105469 C 1.160156 -2.070312 1.28125 -1.378906 1.523438 -1.039062 C 1.765625 -0.695312 2.0625 -0.527344 2.417969 -0.527344 C 2.773438 -0.527344 3.074219 -0.699219 3.316406 -1.042969 C 3.558594 -1.386719 3.679688 -2.074219 3.679688 -3.105469 C 3.679688 -4.144531 3.558594 -4.832031 3.316406 -5.171875 C 3.074219 -5.511719 2.769531 -5.683594 2.410156 -5.683594 C 2.050781 -5.683594 1.769531 -5.53125 1.558594 -5.234375 C 1.292969 -4.84375 1.160156 -4.136719 1.160156 -3.105469 Z M 1.160156 -3.105469 "/>
</g>
<g id="glyph-0-4">
<path d="M 0.367188 -1.648438 L 1.175781 -1.71875 C 1.234375 -1.320312 1.375 -1.023438 1.59375 -0.824219 C 1.8125 -0.625 2.078125 -0.527344 2.390625 -0.527344 C 2.761719 -0.527344 3.074219 -0.667969 3.335938 -0.949219 C 3.589844 -1.230469 3.71875 -1.601562 3.722656 -2.066406 C 3.71875 -2.503906 3.59375 -2.851562 3.347656 -3.109375 C 3.097656 -3.363281 2.773438 -3.492188 2.375 -3.492188 C 2.125 -3.492188 1.902344 -3.433594 1.703125 -3.320312 C 1.5 -3.207031 1.34375 -3.0625 1.230469 -2.882812 L 0.503906 -2.976562 L 1.113281 -6.214844 L 4.246094 -6.214844 L 4.246094 -5.472656 L 1.730469 -5.472656 L 1.390625 -3.78125 C 1.765625 -4.039062 2.164062 -4.171875 2.582031 -4.175781 C 3.128906 -4.171875 3.59375 -3.980469 3.972656 -3.605469 C 4.351562 -3.222656 4.539062 -2.734375 4.542969 -2.136719 C 4.539062 -1.5625 4.375 -1.070312 4.042969 -0.65625 C 3.636719 -0.148438 3.085938 0.105469 2.390625 0.109375 C 1.816406 0.105469 1.347656 -0.0507812 0.984375 -0.371094 C 0.621094 -0.691406 0.414062 -1.117188 0.367188 -1.648438 Z M 0.367188 -1.648438 "/>
</g>
<g id="glyph-1-0">
<path d="M 0.40625 -2.042969 L 1.554688 -2.222656 C 1.613281 -1.761719 1.792969 -1.410156 2.089844 -1.167969 C 2.382812 -0.917969 2.792969 -0.796875 3.324219 -0.800781 C 3.855469 -0.796875 4.253906 -0.90625 4.511719 -1.125 C 4.769531 -1.339844 4.898438 -1.59375 4.898438 -1.886719 C 4.898438 -2.148438 4.785156 -2.355469 4.558594 -2.507812 C 4.398438 -2.609375 4 -2.738281 3.371094 -2.898438 C 2.515625 -3.113281 1.925781 -3.300781 1.601562 -3.457031 C 1.269531 -3.613281 1.019531 -3.828125 0.851562 -4.105469 C 0.679688 -4.382812 0.597656 -4.691406 0.597656 -5.027344 C 0.597656 -5.332031 0.667969 -5.613281 0.808594 -5.875 C 0.949219 -6.132812 1.136719 -6.347656 1.378906 -6.523438 C 1.554688 -6.652344 1.800781 -6.765625 2.117188 -6.859375 C 2.425781 -6.949219 2.761719 -6.996094 3.121094 -7 C 3.65625 -6.996094 4.128906 -6.917969 4.535156 -6.765625 C 4.941406 -6.609375 5.238281 -6.398438 5.433594 -6.136719 C 5.621094 -5.871094 5.753906 -5.519531 5.832031 -5.078125 L 4.699219 -4.925781 C 4.644531 -5.273438 4.492188 -5.546875 4.25 -5.75 C 4 -5.945312 3.652344 -6.046875 3.203125 -6.046875 C 2.667969 -6.046875 2.289062 -5.957031 2.0625 -5.78125 C 1.835938 -5.601562 1.722656 -5.394531 1.722656 -5.164062 C 1.722656 -5.007812 1.769531 -4.875 1.863281 -4.757812 C 1.957031 -4.632812 2.105469 -4.527344 2.308594 -4.445312 C 2.421875 -4.402344 2.761719 -4.304688 3.332031 -4.152344 C 4.148438 -3.929688 4.71875 -3.75 5.046875 -3.609375 C 5.367188 -3.46875 5.625 -3.265625 5.8125 -3.003906 C 5.996094 -2.734375 6.085938 -2.402344 6.089844 -2.011719 C 6.085938 -1.621094 5.972656 -1.257812 5.75 -0.917969 C 5.523438 -0.574219 5.199219 -0.308594 4.773438 -0.125 C 4.347656 0.0625 3.867188 0.152344 3.332031 0.15625 C 2.441406 0.152344 1.761719 -0.03125 1.296875 -0.398438 C 0.828125 -0.765625 0.53125 -1.3125 0.40625 -2.042969 Z M 0.40625 -2.042969 "/>
</g>
<g id="glyph-1-1">
<path d="M 5.554688 -2.203125 L 6.753906 -2.054688 C 6.5625 -1.351562 6.210938 -0.808594 5.703125 -0.421875 C 5.1875 -0.0390625 4.535156 0.152344 3.746094 0.15625 C 2.738281 0.152344 1.945312 -0.152344 1.363281 -0.769531 C 0.773438 -1.382812 0.480469 -2.25 0.484375 -3.363281 C 0.480469 -4.515625 0.777344 -5.410156 1.371094 -6.046875 C 1.964844 -6.679688 2.734375 -6.996094 3.679688 -7 C 4.59375 -6.996094 5.339844 -6.683594 5.921875 -6.0625 C 6.5 -5.4375 6.789062 -4.5625 6.792969 -3.433594 C 6.789062 -3.363281 6.789062 -3.257812 6.785156 -3.125 L 1.683594 -3.125 C 1.722656 -2.371094 1.9375 -1.796875 2.320312 -1.398438 C 2.703125 -0.996094 3.179688 -0.796875 3.75 -0.800781 C 4.175781 -0.796875 4.539062 -0.90625 4.839844 -1.132812 C 5.140625 -1.351562 5.378906 -1.710938 5.554688 -2.203125 Z M 1.746094 -4.078125 L 5.570312 -4.078125 C 5.515625 -4.65625 5.367188 -5.085938 5.128906 -5.375 C 4.757812 -5.820312 4.28125 -6.046875 3.691406 -6.046875 C 3.160156 -6.046875 2.710938 -5.867188 2.347656 -5.511719 C 1.984375 -5.152344 1.785156 -4.675781 1.746094 -4.078125 Z M 1.746094 -4.078125 "/>
</g>
<g id="glyph-1-2">
<path d="M 0.855469 0 L 0.855469 -6.84375 L 1.902344 -6.84375 L 1.902344 -5.808594 C 2.164062 -6.289062 2.410156 -6.609375 2.636719 -6.765625 C 2.863281 -6.917969 3.109375 -6.996094 3.382812 -7 C 3.769531 -6.996094 4.167969 -6.871094 4.578125 -6.625 L 4.175781 -5.550781 C 3.890625 -5.714844 3.605469 -5.800781 3.324219 -5.800781 C 3.066406 -5.800781 2.839844 -5.722656 2.640625 -5.570312 C 2.4375 -5.417969 2.292969 -5.207031 2.210938 -4.9375 C 2.078125 -4.523438 2.015625 -4.070312 2.015625 -3.582031 L 2.015625 0 Z M 0.855469 0 "/>
</g>
<g id="glyph-1-3">
<path d="M 0.875 -8.113281 L 0.875 -9.449219 L 2.035156 -9.449219 L 2.035156 -8.113281 Z M 0.875 0 L 0.875 -6.84375 L 2.035156 -6.84375 L 2.035156 0 Z M 0.875 0 "/>
</g>
<g id="glyph-1-4">
<path d="M 4.917969 0 L 3.757812 0 L 3.757812 -7.394531 C 3.476562 -7.125 3.113281 -6.855469 2.660156 -6.59375 C 2.207031 -6.324219 1.796875 -6.125 1.4375 -5.992188 L 1.4375 -7.117188 C 2.082031 -7.417969 2.648438 -7.785156 3.136719 -8.222656 C 3.621094 -8.652344 3.96875 -9.074219 4.171875 -9.488281 L 4.917969 -9.488281 Z M 4.917969 0 "/>
</g>
</g>
<clipPath id="clip-0">
<path clip-rule="nonzero" d="M 18.234375 23.1875 L 498.519531 23.1875 L 498.519531 240.441406 L 18.234375 240.441406 Z M 18.234375 23.1875 "/>
</clipPath>
<clipPath id="clip-1">
<path clip-rule="nonzero" d="M 18.234375 225 L 498.519531 225 L 498.519531 228 L 18.234375 228 Z M 18.234375 225 "/>
</clipPath>
<clipPath id="clip-2">
<path clip-rule="nonzero" d="M 18.234375 183 L 498.519531 183 L 498.519531 186 L 18.234375 186 Z M 18.234375 183 "/>
</clipPath>
<clipPath id="clip-3">
<path clip-rule="nonzero" d="M 18.234375 142 L 498.519531 142 L 498.519531 144 L 18.234375 144 Z M 18.234375 142 "/>
</clipPath>
<clipPath id="clip-4">
<path clip-rule="nonzero" d="M 18.234375 100 L 498.519531 100 L 498.519531 102 L 18.234375 102 Z M 18.234375 100 "/>
</clipPath>
<clipPath id="clip-5">
<path clip-rule="nonzero" d="M 18.234375 58 L 498.519531 58 L 498.519531 61 L 18.234375 61 Z M 18.234375 58 "/>
</clipPath>
<clipPath id="clip-6">
<path clip-rule="nonzero" d="M 110 23.1875 L 112 23.1875 L 112 240.441406 L 110 240.441406 Z M 110 23.1875 "/>
</clipPath>
<clipPath id="clip-7">
<path clip-rule="nonzero" d="M 233 23.1875 L 235 23.1875 L 235 240.441406 L 233 240.441406 Z M 233 23.1875 "/>
</clipPath>
<clipPath id="clip-8">
<path clip-rule="nonzero" d="M 355 23.1875 L 358 23.1875 L 358 240.441406 L 355 240.441406 Z M 355 23.1875 "/>
</clipPath>
<clipPath id="clip-9">
<path clip-rule="nonzero" d="M 478 23.1875 L 480 23.1875 L 480 240.441406 L 478 240.441406 Z M 478 23.1875 "/>
</clipPath>
<clipPath id="clip-10">
<path clip-rule="nonzero" d="M 209 23.1875 L 247 23.1875 L 247 240.441406 L 209 240.441406 Z M 209 23.1875 "/>
</clipPath>
<clipPath id="clip-11">
<path clip-rule="nonzero" d="M 248 23.1875 L 256 23.1875 L 256 240.441406 L 248 240.441406 Z M 248 23.1875 "/>
</clipPath>
<clipPath id="clip-12">
<path clip-rule="nonzero" d="M 334 23.1875 L 337 23.1875 L 337 240.441406 L 334 240.441406 Z M 334 23.1875 "/>
</clipPath>
<clipPath id="clip-13">
<path clip-rule="nonzero" d="M 344 23.1875 L 350 23.1875 L 350 240.441406 L 344 240.441406 Z M 344 23.1875 "/>
</clipPath>
<clipPath id="clip-14">
<path clip-rule="nonzero" d="M 18.234375 23.1875 L 498.519531 23.1875 L 498.519531 240.441406 L 18.234375 240.441406 Z M 18.234375 23.1875 "/>
</clipPath>
</defs>
<rect x="-50.4" y="-25.9" width="604.8" height="310.8" fill="rgb(100%, 100%, 100%)" fill-opacity="1"/>
<rect x="-50.4" y="-25.9" width="604.8" height="310.8" fill="rgb(100%, 100%, 100%)" fill-opacity="1"/>
<path fill="none" stroke-width="1.066978" stroke-linecap="round" stroke-linejoin="round" stroke="rgb(100%, 100%, 100%)" stroke-opacity="1" stroke-miterlimit="10" d="M 0 259 L 504 259 L 504 0 L 0 0 Z M 0 259 "/>
<g clip-path="url(#clip-0)">
<path fill-rule="nonzero" fill="rgb(100%, 100%, 100%)" fill-opacity="1" d="M 18.234375 240.4375 L 498.519531 240.4375 L 498.519531 23.183594 L 18.234375 23.183594 Z M 18.234375 240.4375 "/>
</g>
<g clip-path="url(#clip-1)">
<path fill="none" stroke-width="1.49377" stroke-linecap="butt" stroke-linejoin="round" stroke="rgb(92.156863%, 92.156863%, 92.156863%)" stroke-opacity="1" stroke-dasharray="5.975079 5.975079" stroke-miterlimit="10" d="M 18.234375 226.488281 L 498.519531 226.488281 "/>
</g>
<g clip-path="url(#clip-2)">
<path fill="none" stroke-width="1.49377" stroke-linecap="butt" stroke-linejoin="round" stroke="rgb(92.156863%, 92.156863%, 92.156863%)" stroke-opacity="1" stroke-dasharray="5.975079 5.975079" stroke-miterlimit="10" d="M 18.234375 184.734375 L 498.519531 184.734375 "/>
</g>
<g clip-path="url(#clip-3)">
<path fill="none" stroke-width="1.49377" stroke-linecap="butt" stroke-linejoin="round" stroke="rgb(92.156863%, 92.156863%, 92.156863%)" stroke-opacity="1" stroke-dasharray="5.975079 5.975079" stroke-miterlimit="10" d="M 18.234375 142.984375 L 498.519531 142.984375 "/>
</g>
<g clip-path="url(#clip-4)">
<path fill="none" stroke-width="1.49377" stroke-linecap="butt" stroke-linejoin="round" stroke="rgb(92.156863%, 92.156863%, 92.156863%)" stroke-opacity="1" stroke-dasharray="5.975079 5.975079" stroke-miterlimit="10" d="M 18.234375 101.230469 L 498.519531 101.230469 "/>
</g>
<g clip-path="url(#clip-5)">
<path fill="none" stroke-width="1.49377" stroke-linecap="butt" stroke-linejoin="round" stroke="rgb(92.156863%, 92.156863%, 92.156863%)" stroke-opacity="1" stroke-dasharray="5.975079 5.975079" stroke-miterlimit="10" d="M 18.234375 59.480469 L 498.519531 59.480469 "/>
</g>
<g clip-path="url(#clip-6)">
<path fill="none" stroke-width="1.49377" stroke-linecap="butt" stroke-linejoin="round" stroke="rgb(92.156863%, 92.156863%, 92.156863%)" stroke-opacity="1" stroke-dasharray="5.975079 5.975079" stroke-miterlimit="10" d="M 111.203125 240.4375 L 111.203125 23.1875 "/>
</g>
<g clip-path="url(#clip-7)">
<path fill="none" stroke-width="1.49377" stroke-linecap="butt" stroke-linejoin="round" stroke="rgb(92.156863%, 92.156863%, 92.156863%)" stroke-opacity="1" stroke-dasharray="5.975079 5.975079" stroke-miterlimit="10" d="M 233.847656 240.4375 L 233.847656 23.1875 "/>
</g>
<g clip-path="url(#clip-8)">
<path fill="none" stroke-width="1.49377" stroke-linecap="butt" stroke-linejoin="round" stroke="rgb(92.156863%, 92.156863%, 92.156863%)" stroke-opacity="1" stroke-dasharray="5.975079 5.975079" stroke-miterlimit="10" d="M 356.496094 240.4375 L 356.496094 23.1875 "/>
</g>
<g clip-path="url(#clip-9)">
<path fill="none" stroke-width="1.49377" stroke-linecap="butt" stroke-linejoin="round" stroke="rgb(92.156863%, 92.156863%, 92.156863%)" stroke-opacity="1" stroke-dasharray="5.975079 5.975079" stroke-miterlimit="10" d="M 479.140625 240.4375 L 479.140625 23.1875 "/>
</g>
<path fill="none" stroke-width="1.707165" stroke-linecap="butt" stroke-linejoin="round" stroke="rgb(100%, 0%, 0%)" stroke-opacity="1" stroke-dasharray="6.828661 6.828661" stroke-miterlimit="10" d="M 40.066406 145.445312 L 42.519531 142.070312 L 44.972656 134.441406 L 47.425781 125.511719 L 49.878906 122.859375 L 52.332031 122.617188 L 54.785156 119.910156 L 57.238281 118.277344 L 59.691406 115.261719 L 62.144531 114.117188 L 64.597656 113.039062 L 67.050781 109.289062 L 69.5 107.425781 L 71.953125 107.425781 L 74.40625 106.035156 L 76.859375 105.675781 L 79.3125 105.128906 L 81.765625 102.394531 L 84.21875 101.832031 L 89.125 101.832031 L 91.578125 99.011719 L 94.03125 98.671875 L 96.484375 98.488281 L 98.9375 97.492188 L 101.390625 97.015625 L 103.84375 97.015625 L 106.296875 96.875 L 108.75 96.875 L 111.203125 96.789062 L 113.65625 96.769531 L 116.109375 96.671875 L 121.011719 96.671875 L 123.464844 95.964844 L 125.917969 95.964844 L 128.371094 95.734375 L 130.824219 95.382812 L 135.730469 95.382812 L 138.183594 95.175781 L 140.636719 95.175781 L 143.089844 94.867188 L 145.542969 94.496094 L 147.996094 94.480469 L 150.449219 93.382812 L 155.355469 93.382812 L 157.808594 93.164062 L 167.621094 93.164062 L 170.074219 92.9375 L 172.523438 92.8125 L 179.882812 92.8125 L 182.335938 92.558594 L 187.242188 92.558594 L 189.695312 92.324219 L 197.054688 92.324219 L 199.507812 90.96875 L 201.960938 90.417969 L 204.414062 89.828125 L 206.867188 89.828125 L 209.320312 89.195312 L 211.773438 89.066406 L 219.132812 89.066406 L 221.585938 88.222656 L 241.207031 88.222656 L 243.660156 88.0625 L 246.113281 87.863281 L 248.566406 87.863281 L 251.019531 87.410156 L 253.472656 87.410156 L 255.925781 87.148438 L 258.378906 87.148438 L 260.832031 86.964844 L 263.285156 86.964844 L 265.738281 85.519531 L 268.191406 85.519531 L 270.644531 85.117188 L 282.90625 85.117188 L 285.359375 84.847656 L 307.4375 84.847656 L 309.890625 84.75 L 312.34375 83.847656 L 331.964844 83.847656 L 334.417969 83.691406 L 351.589844 83.691406 L 354.042969 82.988281 L 395.742188 82.988281 L 398.195312 82.683594 L 408.007812 82.683594 L 410.460938 81.875 L 432.535156 81.875 L 434.988281 81.5625 L 437.441406 81.496094 L 439.894531 81.300781 L 447.253906 81.300781 L 449.707031 81.289062 L 469.332031 81.289062 L 471.785156 81.179688 L 476.6875 81.179688 "/>
<path fill="none" stroke-width="1.49377" stroke-linecap="butt" stroke-linejoin="round" stroke="rgb(0%, 0%, 100%)" stroke-opacity="1" stroke-miterlimit="10" d="M 40.066406 175.527344 L 42.519531 160.636719 L 44.972656 163.761719 L 47.425781 201.613281 L 49.878906 196.238281 L 52.332031 198.601562 L 54.785156 201.9375 L 57.238281 212.617188 L 59.691406 211.042969 L 62.144531 215.273438 L 64.597656 210.328125 L 67.050781 210.195312 L 69.5 207.921875 L 71.953125 209.792969 L 74.40625 217.90625 L 76.859375 215.234375 L 79.3125 210.050781 L 81.765625 198.917969 L 84.21875 214.660156 L 86.671875 217.390625 L 89.125 220.023438 L 91.578125 222.402344 L 94.03125 223.324219 L 96.484375 205.914062 L 98.9375 221.574219 L 101.390625 229.289062 L 103.84375 230.5625 L 106.296875 215.691406 L 108.75 217.976562 L 111.203125 203.421875 L 113.65625 183.75 L 116.109375 194.433594 L 118.5625 188.824219 L 121.011719 201.925781 L 123.464844 191.875 L 125.917969 162.636719 L 128.371094 172.070312 L 130.824219 187.871094 L 133.277344 182.359375 L 135.730469 184.382812 L 138.183594 159.023438 L 140.636719 161.394531 L 143.089844 153.082031 L 145.542969 155.003906 L 147.996094 167.003906 L 150.449219 166.15625 L 152.902344 185.296875 L 155.355469 176.453125 L 157.808594 175.9375 L 160.261719 156.273438 L 162.714844 151.8125 L 165.167969 162.9375 L 167.621094 157.058594 L 170.074219 169.4375 L 172.523438 181.796875 L 174.976562 180.347656 L 177.429688 183.996094 L 179.882812 184.550781 L 182.335938 178.875 L 184.789062 176.347656 L 187.242188 173.621094 L 189.695312 168.074219 L 192.148438 153.578125 L 194.601562 157.027344 L 197.054688 146.296875 L 199.507812 136.859375 L 201.960938 115.152344 L 204.414062 111.207031 L 206.867188 99.71875 L 209.320312 70.964844 L 211.773438 76.082031 L 214.226562 59.71875 L 216.679688 46.925781 L 219.132812 42.625 L 221.585938 33.0625 L 224.035156 36.613281 L 226.488281 54.484375 L 228.941406 64.074219 L 231.394531 68.183594 L 233.847656 72.421875 L 236.300781 77.019531 L 238.753906 78.734375 L 241.207031 83.605469 L 243.660156 85.042969 L 246.113281 88.5 L 248.566406 86.414062 L 251.019531 86.648438 L 253.472656 86.480469 L 255.925781 87.230469 L 258.378906 129.894531 L 260.832031 132.265625 L 263.285156 134.324219 L 265.738281 133.878906 L 268.191406 136.191406 L 270.644531 137.824219 L 273.09375 139.714844 L 275.546875 141.476562 L 278 143.167969 L 280.453125 143.214844 L 282.90625 144.777344 L 285.359375 147.34375 L 287.8125 143.714844 L 290.265625 145.769531 L 292.71875 147.75 L 295.171875 149.347656 L 297.625 145.417969 L 300.078125 147.082031 L 302.53125 148.421875 L 304.984375 155.023438 L 307.4375 158.191406 L 309.890625 158.550781 L 312.34375 162.929688 L 314.796875 160.671875 L 317.25 156.410156 L 319.703125 168.464844 L 322.15625 117.640625 L 324.605469 116.65625 L 327.058594 106.632812 L 329.511719 94.738281 L 331.964844 106.101562 L 334.417969 64.59375 L 336.871094 122.625 L 339.324219 95.609375 L 341.777344 95.1875 L 344.230469 80.496094 L 346.683594 75.15625 L 349.136719 132.789062 L 351.589844 135.398438 L 354.042969 122.5625 L 356.496094 104.742188 L 358.949219 115.867188 L 361.402344 118.800781 L 363.855469 117.59375 L 366.308594 108.875 L 368.761719 93.332031 L 371.214844 83.066406 L 373.667969 103.898438 L 376.117188 99.621094 L 378.570312 86.523438 L 381.023438 116.761719 L 383.476562 123.480469 L 385.929688 123.136719 L 388.382812 134.855469 L 390.835938 143.007812 L 393.289062 139.527344 L 395.742188 156.128906 L 398.195312 155.269531 L 400.648438 148.054688 L 403.101562 147.8125 L 405.554688 149.84375 L 408.007812 164.089844 L 410.460938 164.863281 L 412.914062 166.984375 L 415.367188 167.007812 L 417.820312 166.078125 L 420.273438 166.238281 L 422.726562 169.421875 L 425.179688 145.785156 L 427.628906 131.648438 L 430.082031 115.714844 L 432.535156 146.976562 L 434.988281 135.757812 L 437.441406 135.78125 L 439.894531 160.367188 L 442.347656 156.125 L 444.800781 159.367188 L 447.253906 144.621094 L 449.707031 157.25 L 452.160156 163.375 L 454.613281 173.050781 L 457.066406 175.046875 L 459.519531 173.101562 L 461.972656 178.757812 L 464.425781 174.5 L 466.878906 180.960938 L 469.332031 178.667969 L 471.785156 182.914062 L 474.238281 181.238281 L 476.6875 182.457031 "/>
<g clip-path="url(#clip-10)">
<path fill-rule="nonzero" fill="rgb(54.901961%, 54.901961%, 54.901961%)" fill-opacity="0.298039" d="M 209.320312 240.4375 L 246.113281 240.4375 L 246.113281 23.183594 L 209.320312 23.183594 Z M 209.320312 240.4375 "/>
</g>
<g clip-path="url(#clip-11)">
<path fill-rule="nonzero" fill="rgb(54.901961%, 54.901961%, 54.901961%)" fill-opacity="0.298039" d="M 248.566406 240.4375 L 255.925781 240.4375 L 255.925781 23.183594 L 248.566406 23.183594 Z M 248.566406 240.4375 "/>
</g>
<g clip-path="url(#clip-12)">
<path fill-rule="nonzero" fill="rgb(54.901961%, 54.901961%, 54.901961%)" fill-opacity="0.298039" d="M 334.417969 240.4375 L 336.871094 240.4375 L 336.871094 23.183594 L 334.417969 23.183594 Z M 334.417969 240.4375 "/>
</g>
<g clip-path="url(#clip-13)">
<path fill-rule="nonzero" fill="rgb(54.901961%, 54.901961%, 54.901961%)" fill-opacity="0.298039" d="M 344.230469 240.4375 L 349.136719 240.4375 L 349.136719 23.183594 L 344.230469 23.183594 Z M 344.230469 240.4375 "/>
</g>
<g clip-path="url(#clip-14)">
<path fill="none" stroke-width="1.066978" stroke-linecap="round" stroke-linejoin="round" stroke="rgb(74.901961%, 74.901961%, 74.901961%)" stroke-opacity="1" stroke-miterlimit="10" d="M 18.234375 240.4375 L 498.519531 240.4375 L 498.519531 23.183594 L 18.234375 23.183594 Z M 18.234375 240.4375 "/>
</g>
<g fill="rgb(30.196078%, 30.196078%, 30.196078%)" fill-opacity="1">
<use xlink:href="#glyph-0-0" x="5.480469" y="229.636719"/>
<use xlink:href="#glyph-0-1" x="8.410937" y="229.636719"/>
</g>
<g fill="rgb(30.196078%, 30.196078%, 30.196078%)" fill-opacity="1">
<use xlink:href="#glyph-0-0" x="5.480469" y="187.882812"/>
<use xlink:href="#glyph-0-2" x="8.410937" y="187.882812"/>
</g>
<g fill="rgb(30.196078%, 30.196078%, 30.196078%)" fill-opacity="1">
<use xlink:href="#glyph-0-3" x="8.410156" y="146.132812"/>
</g>
<g fill="rgb(30.196078%, 30.196078%, 30.196078%)" fill-opacity="1">
<use xlink:href="#glyph-0-2" x="8.410156" y="104.382812"/>
</g>
<g fill="rgb(30.196078%, 30.196078%, 30.196078%)" fill-opacity="1">
<use xlink:href="#glyph-0-1" x="8.410156" y="62.628906"/>
</g>
<path fill="none" stroke-width="1.066978" stroke-linecap="butt" stroke-linejoin="round" stroke="rgb(20%, 20%, 20%)" stroke-opacity="1" stroke-miterlimit="10" d="M 15.496094 226.488281 L 18.234375 226.488281 "/>
<path fill="none" stroke-width="1.066978" stroke-linecap="butt" stroke-linejoin="round" stroke="rgb(20%, 20%, 20%)" stroke-opacity="1" stroke-miterlimit="10" d="M 15.496094 184.734375 L 18.234375 184.734375 "/>
<path fill="none" stroke-width="1.066978" stroke-linecap="butt" stroke-linejoin="round" stroke="rgb(20%, 20%, 20%)" stroke-opacity="1" stroke-miterlimit="10" d="M 15.496094 142.984375 L 18.234375 142.984375 "/>
<path fill="none" stroke-width="1.066978" stroke-linecap="butt" stroke-linejoin="round" stroke="rgb(20%, 20%, 20%)" stroke-opacity="1" stroke-miterlimit="10" d="M 15.496094 101.230469 L 18.234375 101.230469 "/>
<path fill="none" stroke-width="1.066978" stroke-linecap="butt" stroke-linejoin="round" stroke="rgb(20%, 20%, 20%)" stroke-opacity="1" stroke-miterlimit="10" d="M 15.496094 59.480469 L 18.234375 59.480469 "/>
<path fill="none" stroke-width="1.066978" stroke-linecap="butt" stroke-linejoin="round" stroke="rgb(20%, 20%, 20%)" stroke-opacity="1" stroke-miterlimit="10" d="M 111.203125 243.175781 L 111.203125 240.4375 "/>
<path fill="none" stroke-width="1.066978" stroke-linecap="butt" stroke-linejoin="round" stroke="rgb(20%, 20%, 20%)" stroke-opacity="1" stroke-miterlimit="10" d="M 233.847656 243.175781 L 233.847656 240.4375 "/>
<path fill="none" stroke-width="1.066978" stroke-linecap="butt" stroke-linejoin="round" stroke="rgb(20%, 20%, 20%)" stroke-opacity="1" stroke-miterlimit="10" d="M 356.496094 243.175781 L 356.496094 240.4375 "/>
<path fill="none" stroke-width="1.066978" stroke-linecap="butt" stroke-linejoin="round" stroke="rgb(20%, 20%, 20%)" stroke-opacity="1" stroke-miterlimit="10" d="M 479.140625 243.175781 L 479.140625 240.4375 "/>
<g fill="rgb(30.196078%, 30.196078%, 30.196078%)" fill-opacity="1">
<use xlink:href="#glyph-0-4" x="106.308594" y="251.667969"/>
<use xlink:href="#glyph-0-3" x="111.202734" y="251.667969"/>
</g>
<g fill="rgb(30.196078%, 30.196078%, 30.196078%)" fill-opacity="1">
<use xlink:href="#glyph-0-2" x="226.507812" y="251.667969"/>
<use xlink:href="#glyph-0-3" x="231.401953" y="251.667969"/>
<use xlink:href="#glyph-0-3" x="236.296094" y="251.667969"/>
</g>
<g fill="rgb(30.196078%, 30.196078%, 30.196078%)" fill-opacity="1">
<use xlink:href="#glyph-0-2" x="349.15625" y="251.667969"/>
<use xlink:href="#glyph-0-4" x="354.050391" y="251.667969"/>
<use xlink:href="#glyph-0-3" x="358.944531" y="251.667969"/>
</g>
<g fill="rgb(30.196078%, 30.196078%, 30.196078%)" fill-opacity="1">
<use xlink:href="#glyph-0-1" x="471.800781" y="251.667969"/>
<use xlink:href="#glyph-0-3" x="476.694922" y="251.667969"/>
<use xlink:href="#glyph-0-3" x="481.589062" y="251.667969"/>
</g>
<g fill="rgb(0%, 0%, 0%)" fill-opacity="1">
<use xlink:href="#glyph-1-0" x="18.234375" y="14.929688"/>
<use xlink:href="#glyph-1-1" x="24.834375" y="14.929688"/>
<use xlink:href="#glyph-1-2" x="32.175586" y="14.929688"/>
<use xlink:href="#glyph-1-3" x="36.571289" y="14.929688"/>
<use xlink:href="#glyph-1-1" x="39.503906" y="14.929688"/>
<use xlink:href="#glyph-1-0" x="46.845117" y="14.929688"/>
<use xlink:href="#glyph-1-4" x="53.445117" y="14.929688"/>
</g>
</svg>
