<?xml version="1.0" encoding="UTF-8"?>
<svg xmlns="http://www.w3.org/2000/svg" xmlns:xlink="http://www.w3.org/1999/xlink" width="504pt" height="259pt" viewBox="0 0 504 259">
<defs>
<g>
<g id="glyph-0-0">
<path d="M 5.554688 -2.203125 L 6.753906 -2.054688 C 6.5625 -1.351562 6.210938 -0.808594 5.703125 -0.421875 C 5.1875 -0.0390625 4.535156 0.152344 3.746094 0.15625 C 2.738281 0.152344 1.945312 -0.152344 1.363281 -0.769531 C 0.773438 -1.382812 0.480469 -2.25 0.484375 -3.363281 C 0.480469 -4.515625 0.777344 -5.410156 1.371094 -6.046875 C 1.964844 -6.679688 2.734375 -6.996094 3.679688 -7 C 4.59375 -6.996094 5.339844 -6.683594 5.921875 -6.0625 C 6.5 -5.4375 6.789062 -4.5625 6.792969 -3.433594 C 6.789062 -3.363281 6.789062 -3.257812 6.785156 -3.125 L 1.683594 -3.125 C 1.722656 -2.371094 1.9375 -1.796875 2.320312 -1.398438 C 2.703125 -0.996094 3.179688 -0.796875 3.75 -0.800781 C 4.175781 -0.796875 4.539062 -0.90625 4.839844 -1.132812 C 5.140625 -1.351562 5.378906 -1.710938 5.554688 -2.203125 Z M 1.746094 -4.078125 L 5.570312 -4.078125 C 5.515625 -4.65625 5.367188 -5.085938 5.128906 -5.375 C 4.757812 -5.820312 4.28125 -6.046875 3.691406 -6.046875 C 3.160156 -6.046875 2.710938 -5.867188 2.347656 -5.511719 C 1.984375 -5.152344 1.785156 -4.675781 1.746094 -4.078125 Z M 1.746094 -4.078125 "/>
</g>
<g id="glyph-0-1">
<path d="M 2.773438 0 L 0.167969 -6.84375 L 1.390625 -6.84375 L 2.863281 -2.746094 C 3.019531 -2.300781 3.164062 -1.839844 3.300781 -1.367188 C 3.398438 -1.722656 3.542969 -2.15625 3.730469 -2.667969 L 5.253906 -6.84375 L 6.445312 -6.84375 L 3.855469 0 Z M 2.773438 0 "/>
</g>
<g id="glyph-0-2">
<path d="M 5.335938 -0.84375 C 4.902344 -0.476562 4.488281 -0.21875 4.09375 -0.0703125 C 3.695312 0.078125 3.269531 0.152344 2.816406 0.15625 C 2.0625 0.152344 1.484375 -0.0273438 1.082031 -0.394531 C 0.675781 -0.761719 0.472656 -1.234375 0.476562 -1.804688 C 0.472656 -2.140625 0.550781 -2.445312 0.703125 -2.722656 C 0.855469 -3 1.054688 -3.222656 1.304688 -3.390625 C 1.550781 -3.554688 1.828125 -3.679688 2.140625 -3.769531 C 2.363281 -3.824219 2.707031 -3.882812 3.171875 -3.945312 C 4.105469 -4.054688 4.796875 -4.1875 5.238281 -4.34375 C 5.242188 -4.5 5.242188 -4.601562 5.246094 -4.648438 C 5.242188 -5.117188 5.132812 -5.449219 4.917969 -5.644531 C 4.617188 -5.902344 4.179688 -6.035156 3.597656 -6.039062 C 3.050781 -6.035156 2.644531 -5.9375 2.386719 -5.75 C 2.125 -5.554688 1.933594 -5.21875 1.8125 -4.738281 L 0.675781 -4.890625 C 0.777344 -5.375 0.949219 -5.765625 1.183594 -6.066406 C 1.417969 -6.363281 1.757812 -6.59375 2.210938 -6.757812 C 2.65625 -6.914062 3.175781 -6.996094 3.765625 -7 C 4.347656 -6.996094 4.820312 -6.925781 5.1875 -6.792969 C 5.550781 -6.652344 5.820312 -6.480469 5.996094 -6.273438 C 6.164062 -6.0625 6.285156 -5.800781 6.355469 -5.484375 C 6.390625 -5.285156 6.410156 -4.925781 6.414062 -4.414062 L 6.414062 -2.867188 C 6.410156 -1.785156 6.433594 -1.105469 6.488281 -0.820312 C 6.535156 -0.535156 6.632812 -0.261719 6.78125 0 L 5.570312 0 C 5.445312 -0.238281 5.367188 -0.519531 5.335938 -0.84375 Z M 5.238281 -3.433594 C 4.816406 -3.261719 4.183594 -3.113281 3.34375 -2.996094 C 2.863281 -2.925781 2.527344 -2.851562 2.332031 -2.765625 C 2.132812 -2.679688 1.980469 -2.550781 1.875 -2.386719 C 1.765625 -2.21875 1.710938 -2.035156 1.714844 -1.835938 C 1.710938 -1.523438 1.828125 -1.265625 2.066406 -1.0625 C 2.296875 -0.851562 2.640625 -0.75 3.09375 -0.753906 C 3.539062 -0.75 3.933594 -0.847656 4.285156 -1.046875 C 4.628906 -1.238281 4.886719 -1.507812 5.054688 -1.851562 C 5.175781 -2.109375 5.238281 -2.496094 5.238281 -3.011719 Z M 5.238281 -3.433594 "/>
</g>
<g id="glyph-0-3">
<path d="M 0.871094 0 L 0.871094 -6.84375 L 1.914062 -6.84375 L 1.914062 -5.871094 C 2.414062 -6.621094 3.140625 -6.996094 4.09375 -7 C 4.503906 -6.996094 4.882812 -6.921875 5.230469 -6.777344 C 5.574219 -6.625 5.832031 -6.429688 6.007812 -6.191406 C 6.175781 -5.949219 6.296875 -5.664062 6.367188 -5.335938 C 6.410156 -5.121094 6.433594 -4.746094 6.433594 -4.207031 L 6.433594 0 L 5.273438 0 L 5.273438 -4.164062 C 5.273438 -4.632812 5.226562 -4.984375 5.136719 -5.222656 C 5.042969 -5.453125 4.882812 -5.640625 4.65625 -5.785156 C 4.425781 -5.921875 4.15625 -5.992188 3.847656 -5.996094 C 3.351562 -5.992188 2.925781 -5.835938 2.566406 -5.523438 C 2.207031 -5.207031 2.027344 -4.613281 2.03125 -3.738281 L 2.03125 0 Z M 0.871094 0 "/>
</g>
<g id="glyph-0-4">
<path d="M 0.40625 -2.042969 L 1.554688 -2.222656 C 1.613281 -1.761719 1.792969 -1.410156 2.089844 -1.167969 C 2.382812 -0.917969 2.792969 -0.796875 3.324219 -0.800781 C 3.855469 -0.796875 4.253906 -0.90625 4.511719 -1.125 C 4.769531 -1.339844 4.898438 -1.59375 4.898438 -1.886719 C 4.898438 -2.148438 4.785156 -2.355469 4.558594 -2.507812 C 4.398438 -2.609375 4 -2.738281 3.371094 -2.902344 C 2.515625 -3.113281 1.925781 -3.300781 1.601562 -3.457031 C 1.269531 -3.613281 1.019531 -3.828125 0.851562 -4.105469 C 0.679688 -4.382812 0.597656 -4.691406 0.597656 -5.027344 C 0.597656 -5.332031 0.667969 -5.613281 0.808594 -5.875 C 0.949219 -6.132812 1.136719 -6.347656 1.378906 -6.523438 C 1.554688 -6.652344 1.800781 -6.765625 2.117188 -6.859375 C 2.425781 -6.949219 2.761719 -6.996094 3.121094 -7 C 3.65625 -6.996094 4.128906 -6.917969 4.535156 -6.765625 C 4.941406 -6.609375 5.238281 -6.398438 5.433594 -6.136719 C 5.621094 -5.871094 5.753906 -5.519531 5.832031 -5.078125 L 4.699219 -4.925781 C 4.644531 -5.273438 4.492188 -5.546875 4.25 -5.75 C 4 -5.945312 3.652344 -6.046875 3.203125 -6.046875 C 2.667969 -6.046875 2.289062 -5.957031 2.0625 -5.78125 C 1.835938 -5.601562 1.722656 -5.394531 1.722656 -5.164062 C 1.722656 -5.007812 1.769531 -4.875 1.863281 -4.757812 C 1.957031 -4.632812 2.105469 -4.527344 2.308594 -4.445312 C 2.421875 -4.402344 2.761719 -4.304688 3.332031 -4.152344 C 4.148438 -3.929688 4.71875 -3.75 5.046875 -3.609375 C 5.367188 -3.46875 5.625 -3.265625 5.8125 -3.003906 C 5.996094 -2.734375 6.085938 -2.402344 6.089844 -2.011719 C 6.085938 -1.621094 5.972656 -1.257812 5.75 -0.917969 C 5.523438 -0.574219 5.199219 -0.308594 4.773438 -0.125 C 4.347656 0.0625 3.867188 0.152344 3.332031 0.15625 C 2.441406 0.152344 1.761719 -0.03125 1.296875 -0.398438 C 0.828125 -0.765625 0.53125 -1.3125 0.40625 -2.042969 Z M 0.40625 -2.042969 "/>
</g>
<g id="glyph-0-5">
<path d="M 1.941406 0 L 0.863281 0 L 0.863281 -9.449219 L 2.023438 -9.449219 L 2.023438 -6.078125 C 2.507812 -6.6875 3.132812 -6.996094 3.898438 -7 C 4.316406 -6.996094 4.714844 -6.910156 5.09375 -6.746094 C 5.46875 -6.574219 5.78125 -6.335938 6.023438 -6.03125 C 6.265625 -5.71875 6.453125 -5.347656 6.59375 -4.917969 C 6.726562 -4.480469 6.796875 -4.019531 6.800781 -3.527344 C 6.796875 -2.351562 6.507812 -1.441406 5.929688 -0.804688 C 5.347656 -0.164062 4.648438 0.152344 3.839844 0.15625 C 3.027344 0.152344 2.394531 -0.183594 1.941406 -0.855469 Z M 1.925781 -3.472656 C 1.921875 -2.648438 2.035156 -2.054688 2.261719 -1.695312 C 2.625 -1.09375 3.117188 -0.796875 3.746094 -0.800781 C 4.246094 -0.796875 4.683594 -1.015625 5.058594 -1.460938 C 5.425781 -1.898438 5.613281 -2.554688 5.613281 -3.429688 C 5.613281 -4.320312 5.433594 -4.980469 5.082031 -5.40625 C 4.722656 -5.832031 4.296875 -6.046875 3.796875 -6.046875 C 3.289062 -6.046875 2.847656 -5.824219 2.480469 -5.382812 C 2.105469 -4.941406 1.921875 -4.304688 1.925781 -3.472656 Z M 1.925781 -3.472656 "/>
</g>
<g id="glyph-0-6">
<path d="M 0.84375 0 L 0.84375 -9.449219 L 2.003906 -9.449219 L 2.003906 0 Z M 0.84375 0 "/>
</g>
<g id="glyph-0-7">
<path d="M 0.871094 2.625 L 0.871094 -6.84375 L 1.925781 -6.84375 L 1.925781 -5.957031 C 2.171875 -6.300781 2.453125 -6.5625 2.769531 -6.738281 C 3.082031 -6.910156 3.464844 -6.996094 3.914062 -7 C 4.496094 -6.996094 5.007812 -6.84375 5.457031 -6.546875 C 5.902344 -6.242188 6.242188 -5.820312 6.46875 -5.273438 C 6.695312 -4.726562 6.808594 -4.125 6.8125 -3.472656 C 6.808594 -2.769531 6.683594 -2.140625 6.433594 -1.582031 C 6.183594 -1.019531 5.816406 -0.589844 5.339844 -0.292969 C 4.855469 0.00390625 4.351562 0.152344 3.828125 0.15625 C 3.4375 0.152344 3.09375 0.0742188 2.789062 -0.0898438 C 2.480469 -0.25 2.226562 -0.457031 2.03125 -0.710938 L 2.03125 2.625 Z M 1.921875 -3.382812 C 1.921875 -2.5 2.097656 -1.851562 2.457031 -1.429688 C 2.808594 -1.007812 3.242188 -0.796875 3.75 -0.800781 C 4.265625 -0.796875 4.707031 -1.015625 5.074219 -1.453125 C 5.441406 -1.890625 5.625 -2.566406 5.625 -3.480469 C 5.625 -4.351562 5.445312 -5.003906 5.085938 -5.4375 C 4.726562 -5.871094 4.296875 -6.085938 3.804688 -6.089844 C 3.304688 -6.085938 2.867188 -5.855469 2.492188 -5.394531 C 2.109375 -4.929688 1.921875 -4.257812 1.921875 -3.382812 Z M 1.921875 -3.382812 "/>
</g>
<g id="glyph-0-8">
<path d="M 0.820312 2.636719 L 0.691406 1.546875 C 0.941406 1.613281 1.160156 1.644531 1.351562 1.648438 C 1.609375 1.644531 1.816406 1.601562 1.972656 1.519531 C 2.125 1.429688 2.25 1.3125 2.351562 1.160156 C 2.421875 1.042969 2.542969 0.753906 2.707031 0.296875 C 2.726562 0.230469 2.757812 0.136719 2.808594 0.0117188 L 0.210938 -6.84375 L 1.464844 -6.84375 L 2.886719 -2.882812 C 3.070312 -2.375 3.234375 -1.84375 3.382812 -1.296875 C 3.511719 -1.824219 3.671875 -2.34375 3.859375 -2.855469 L 5.324219 -6.84375 L 6.484375 -6.84375 L 3.878906 0.117188 C 3.597656 0.867188 3.378906 1.382812 3.230469 1.667969 C 3.019531 2.046875 2.785156 2.328125 2.519531 2.507812 C 2.253906 2.6875 1.933594 2.777344 1.566406 2.777344 C 1.339844 2.777344 1.09375 2.730469 0.820312 2.636719 Z M 0.820312 2.636719 "/>
</g>
<g id="glyph-0-9">
<path d="M 4.917969 0 L 3.757812 0 L 3.757812 -7.394531 C 3.476562 -7.125 3.113281 -6.855469 2.660156 -6.59375 C 2.207031 -6.324219 1.796875 -6.125 1.4375 -5.996094 L 1.4375 -7.117188 C 2.082031 -7.417969 2.648438 -7.785156 3.136719 -8.222656 C 3.621094 -8.652344 3.96875 -9.074219 4.171875 -9.488281 L 4.917969 -9.488281 Z M 4.917969 0 "/>
</g>
<g id="glyph-0-10">
<path d="M 6.644531 -1.113281 L 6.644531 0 L 0.398438 0 C 0.390625 -0.277344 0.433594 -0.542969 0.535156 -0.804688 C 0.691406 -1.226562 0.945312 -1.648438 1.296875 -2.0625 C 1.644531 -2.472656 2.152344 -2.949219 2.816406 -3.492188 C 3.839844 -4.335938 4.535156 -5.003906 4.898438 -5.496094 C 5.257812 -5.988281 5.4375 -6.453125 5.441406 -6.890625 C 5.4375 -7.347656 5.273438 -7.734375 4.945312 -8.050781 C 4.617188 -8.367188 4.1875 -8.523438 3.660156 -8.527344 C 3.101562 -8.523438 2.65625 -8.355469 2.320312 -8.023438 C 1.984375 -7.6875 1.8125 -7.226562 1.8125 -6.632812 L 0.617188 -6.753906 C 0.695312 -7.640625 1.003906 -8.320312 1.539062 -8.789062 C 2.070312 -9.253906 2.785156 -9.484375 3.6875 -9.488281 C 4.589844 -9.484375 5.308594 -9.234375 5.839844 -8.734375 C 6.367188 -8.230469 6.632812 -7.605469 6.632812 -6.863281 C 6.632812 -6.480469 6.554688 -6.109375 6.398438 -5.75 C 6.242188 -5.382812 5.984375 -5 5.628906 -4.59375 C 5.269531 -4.1875 4.671875 -3.632812 3.839844 -2.933594 C 3.140625 -2.34375 2.695312 -1.945312 2.5 -1.742188 C 2.300781 -1.53125 2.136719 -1.324219 2.011719 -1.113281 Z M 6.644531 -1.113281 "/>
</g>
<g id="glyph-1-0">
<path d="M 4.429688 -0.742188 L 4.429688 0 L 0.265625 0 C 0.257812 -0.1875 0.289062 -0.367188 0.355469 -0.539062 C 0.460938 -0.820312 0.628906 -1.097656 0.863281 -1.375 C 1.09375 -1.648438 1.433594 -1.964844 1.878906 -2.328125 C 2.5625 -2.886719 3.023438 -3.332031 3.265625 -3.664062 C 3.5 -3.988281 3.621094 -4.300781 3.625 -4.59375 C 3.621094 -4.898438 3.511719 -5.15625 3.296875 -5.367188 C 3.074219 -5.578125 2.789062 -5.683594 2.441406 -5.683594 C 2.066406 -5.683594 1.769531 -5.570312 1.546875 -5.347656 C 1.320312 -5.125 1.207031 -4.816406 1.207031 -4.421875 L 0.414062 -4.503906 C 0.464844 -5.09375 0.667969 -5.542969 1.027344 -5.855469 C 1.378906 -6.164062 1.855469 -6.320312 2.457031 -6.324219 C 3.058594 -6.320312 3.539062 -6.152344 3.890625 -5.820312 C 4.242188 -5.484375 4.417969 -5.070312 4.421875 -4.578125 C 4.417969 -4.320312 4.367188 -4.074219 4.265625 -3.832031 C 4.164062 -3.589844 3.992188 -3.332031 3.753906 -3.0625 C 3.511719 -2.792969 3.113281 -2.425781 2.5625 -1.957031 C 2.09375 -1.566406 1.796875 -1.300781 1.664062 -1.160156 C 1.53125 -1.019531 1.421875 -0.878906 1.339844 -0.742188 Z M 4.429688 -0.742188 "/>
</g>
<g id="glyph-1-1">
<path d="M 0.367188 -3.105469 C 0.363281 -3.847656 0.4375 -4.445312 0.59375 -4.902344 C 0.742188 -5.355469 0.972656 -5.707031 1.277344 -5.953125 C 1.578125 -6.199219 1.957031 -6.320312 2.417969 -6.324219 C 2.753906 -6.320312 3.050781 -6.253906 3.308594 -6.121094 C 3.5625 -5.984375 3.773438 -5.789062 3.9375 -5.53125 C 4.101562 -5.273438 4.230469 -4.960938 4.328125 -4.59375 C 4.421875 -4.226562 4.46875 -3.730469 4.472656 -3.105469 C 4.46875 -2.367188 4.394531 -1.769531 4.242188 -1.316406 C 4.089844 -0.859375 3.863281 -0.507812 3.5625 -0.261719 C 3.257812 -0.015625 2.875 0.105469 2.417969 0.109375 C 1.808594 0.105469 1.332031 -0.109375 0.988281 -0.546875 C 0.570312 -1.066406 0.363281 -1.921875 0.367188 -3.105469 Z M 1.160156 -3.105469 C 1.160156 -2.070312 1.28125 -1.378906 1.523438 -1.039062 C 1.765625 -0.695312 2.0625 -0.527344 2.417969 -0.527344 C 2.773438 -0.527344 3.074219 -0.699219 3.316406 -1.042969 C 3.558594 -1.386719 3.679688 -2.074219 3.679688 -3.105469 C 3.679688 -4.144531 3.558594 -4.832031 3.316406 -5.171875 C 3.074219 -5.511719 2.769531 -5.683594 2.410156 -5.683594 C 2.050781 -5.683594 1.769531 -5.53125 1.558594 -5.234375 C 1.292969 -4.84375 1.160156 -4.136719 1.160156 -3.105469 Z M 1.160156 -3.105469 "/>
</g>
<g id="glyph-1-2">
<path d="M 2.84375 0 L 2.84375 -1.507812 L 0.113281 -1.507812 L 0.113281 -2.21875 L 2.988281 -6.300781 L 3.617188 -6.300781 L 3.617188 -2.21875 L 4.46875 -2.21875 L 4.46875 -1.507812 L 3.617188 -1.507812 L 3.617188 0 Z M 2.84375 -2.21875 L 2.84375 -5.058594 L 0.871094 -2.21875 Z M 2.84375 -2.21875 "/>
</g>
<g id="glyph-1-3">
<path d="M 4.378906 -4.757812 L 3.609375 -4.695312 C 3.539062 -4.996094 3.441406 -5.21875 3.316406 -5.359375 C 3.105469 -5.574219 2.847656 -5.683594 2.542969 -5.6875 C 2.296875 -5.683594 2.078125 -5.617188 1.894531 -5.484375 C 1.648438 -5.304688 1.457031 -5.042969 1.320312 -4.703125 C 1.175781 -4.363281 1.105469 -3.878906 1.101562 -3.25 C 1.285156 -3.53125 1.511719 -3.742188 1.78125 -3.878906 C 2.050781 -4.015625 2.332031 -4.082031 2.628906 -4.085938 C 3.140625 -4.082031 3.578125 -3.894531 3.945312 -3.515625 C 4.304688 -3.136719 4.488281 -2.644531 4.492188 -2.046875 C 4.488281 -1.648438 4.402344 -1.28125 4.234375 -0.941406 C 4.0625 -0.601562 3.828125 -0.339844 3.53125 -0.160156 C 3.230469 0.0195312 2.894531 0.105469 2.519531 0.109375 C 1.871094 0.105469 1.34375 -0.128906 0.941406 -0.601562 C 0.53125 -1.074219 0.328125 -1.855469 0.332031 -2.949219 C 0.328125 -4.160156 0.550781 -5.046875 1.003906 -5.601562 C 1.394531 -6.082031 1.925781 -6.320312 2.589844 -6.324219 C 3.085938 -6.320312 3.492188 -6.183594 3.808594 -5.90625 C 4.125 -5.628906 4.3125 -5.246094 4.378906 -4.757812 Z M 1.21875 -2.039062 C 1.21875 -1.773438 1.273438 -1.515625 1.386719 -1.273438 C 1.5 -1.027344 1.660156 -0.84375 1.863281 -0.71875 C 2.066406 -0.589844 2.277344 -0.527344 2.503906 -0.527344 C 2.828125 -0.527344 3.109375 -0.65625 3.347656 -0.921875 C 3.578125 -1.183594 3.695312 -1.542969 3.699219 -2 C 3.695312 -2.429688 3.582031 -2.773438 3.351562 -3.027344 C 3.117188 -3.273438 2.824219 -3.398438 2.476562 -3.402344 C 2.121094 -3.398438 1.824219 -3.273438 1.582031 -3.027344 C 1.339844 -2.773438 1.21875 -2.445312 1.21875 -2.039062 Z M 1.21875 -2.039062 "/>
</g>
<g id="glyph-1-4">
<path d="M 1.554688 -3.417969 C 1.230469 -3.53125 0.992188 -3.699219 0.839844 -3.917969 C 0.683594 -4.132812 0.609375 -4.394531 0.609375 -4.699219 C 0.609375 -5.15625 0.773438 -5.539062 1.101562 -5.855469 C 1.429688 -6.164062 1.867188 -6.320312 2.417969 -6.324219 C 2.96875 -6.320312 3.410156 -6.160156 3.746094 -5.84375 C 4.078125 -5.523438 4.246094 -5.136719 4.25 -4.679688 C 4.246094 -4.386719 4.171875 -4.132812 4.019531 -3.917969 C 3.863281 -3.699219 3.628906 -3.53125 3.320312 -3.417969 C 3.707031 -3.285156 4 -3.082031 4.203125 -2.804688 C 4.402344 -2.519531 4.503906 -2.183594 4.507812 -1.800781 C 4.503906 -1.257812 4.3125 -0.804688 3.933594 -0.441406 C 3.550781 -0.0742188 3.050781 0.105469 2.433594 0.109375 C 1.808594 0.105469 1.308594 -0.0742188 0.925781 -0.441406 C 0.542969 -0.808594 0.351562 -1.269531 0.355469 -1.820312 C 0.351562 -2.230469 0.457031 -2.574219 0.667969 -2.851562 C 0.875 -3.125 1.167969 -3.3125 1.554688 -3.417969 Z M 1.402344 -4.726562 C 1.398438 -4.425781 1.496094 -4.183594 1.6875 -3.996094 C 1.878906 -3.804688 2.128906 -3.707031 2.4375 -3.710938 C 2.734375 -3.707031 2.976562 -3.800781 3.167969 -3.992188 C 3.355469 -4.175781 3.449219 -4.40625 3.453125 -4.683594 C 3.449219 -4.964844 3.351562 -5.203125 3.160156 -5.398438 C 2.960938 -5.585938 2.71875 -5.683594 2.429688 -5.6875 C 2.128906 -5.683594 1.882812 -5.589844 1.691406 -5.402344 C 1.496094 -5.214844 1.398438 -4.988281 1.402344 -4.726562 Z M 1.152344 -1.816406 C 1.148438 -1.597656 1.199219 -1.382812 1.308594 -1.175781 C 1.410156 -0.96875 1.566406 -0.808594 1.773438 -0.695312 C 1.980469 -0.582031 2.203125 -0.527344 2.441406 -0.527344 C 2.808594 -0.527344 3.113281 -0.644531 3.355469 -0.882812 C 3.59375 -1.121094 3.714844 -1.425781 3.71875 -1.792969 C 3.714844 -2.164062 3.589844 -2.46875 3.34375 -2.714844 C 3.09375 -2.957031 2.785156 -3.082031 2.414062 -3.082031 C 2.050781 -3.082031 1.75 -2.960938 1.511719 -2.71875 C 1.269531 -2.476562 1.148438 -2.175781 1.152344 -1.816406 Z M 1.152344 -1.816406 "/>
</g>
<g id="glyph-1-5">
<path d="M 3.277344 0 L 2.503906 0 L 2.503906 -4.929688 C 2.316406 -4.75 2.074219 -4.574219 1.773438 -4.394531 C 1.46875 -4.214844 1.195312 -4.082031 0.957031 -3.996094 L 0.957031 -4.742188 C 1.386719 -4.941406 1.765625 -5.1875 2.089844 -5.480469 C 2.414062 -5.769531 2.644531 -6.050781 2.78125 -6.324219 L 3.277344 -6.324219 Z M 3.277344 0 "/>
</g>
<g id="glyph-1-6">
<path d="M 0.371094 -1.664062 L 1.144531 -1.765625 C 1.230469 -1.324219 1.382812 -1.007812 1.597656 -0.816406 C 1.808594 -0.621094 2.066406 -0.527344 2.375 -0.527344 C 2.734375 -0.527344 3.042969 -0.652344 3.296875 -0.90625 C 3.546875 -1.15625 3.671875 -1.46875 3.675781 -1.84375 C 3.671875 -2.195312 3.554688 -2.488281 3.324219 -2.71875 C 3.089844 -2.949219 2.796875 -3.0625 2.441406 -3.066406 C 2.292969 -3.0625 2.109375 -3.035156 1.894531 -2.980469 L 1.980469 -3.660156 C 2.03125 -3.652344 2.070312 -3.648438 2.105469 -3.652344 C 2.433594 -3.648438 2.730469 -3.734375 2.996094 -3.910156 C 3.253906 -4.078125 3.386719 -4.34375 3.390625 -4.703125 C 3.386719 -4.984375 3.289062 -5.21875 3.101562 -5.40625 C 2.90625 -5.589844 2.660156 -5.683594 2.359375 -5.6875 C 2.054688 -5.683594 1.804688 -5.589844 1.605469 -5.402344 C 1.402344 -5.214844 1.273438 -4.929688 1.21875 -4.554688 L 0.445312 -4.691406 C 0.539062 -5.207031 0.753906 -5.609375 1.089844 -5.894531 C 1.425781 -6.179688 1.84375 -6.320312 2.34375 -6.324219 C 2.6875 -6.320312 3.003906 -6.246094 3.292969 -6.101562 C 3.582031 -5.953125 3.800781 -5.753906 3.953125 -5.5 C 4.105469 -5.242188 4.183594 -4.972656 4.183594 -4.6875 C 4.183594 -4.414062 4.109375 -4.164062 3.964844 -3.945312 C 3.816406 -3.71875 3.601562 -3.542969 3.316406 -3.410156 C 3.6875 -3.324219 3.976562 -3.144531 4.183594 -2.875 C 4.390625 -2.601562 4.492188 -2.261719 4.496094 -1.859375 C 4.492188 -1.304688 4.292969 -0.839844 3.894531 -0.460938 C 3.492188 -0.078125 2.984375 0.109375 2.371094 0.113281 C 1.816406 0.109375 1.355469 -0.0507812 0.992188 -0.378906 C 0.625 -0.707031 0.417969 -1.136719 0.371094 -1.664062 Z M 0.371094 -1.664062 "/>
</g>
<g id="glyph-1-7">
<path d="M 0.367188 -1.648438 L 1.175781 -1.71875 C 1.234375 -1.320312 1.375 -1.023438 1.59375 -0.824219 C 1.8125 -0.625 2.078125 -0.527344 2.390625 -0.527344 C 2.761719 -0.527344 3.074219 -0.667969 3.335938 -0.949219 C 3.589844 -1.230469 3.71875 -1.601562 3.722656 -2.066406 C 3.71875 -2.503906 3.59375 -2.851562 3.347656 -3.109375 C 3.097656 -3.363281 2.773438 -3.492188 2.375 -3.492188 C 2.125 -3.492188 1.902344 -3.433594 1.703125 -3.320312 C 1.5 -3.207031 1.34375 -3.0625 1.230469 -2.882812 L 0.503906 -2.976562 L 1.113281 -6.214844 L 4.246094 -6.214844 L 4.246094 -5.472656 L 1.730469 -5.472656 L 1.390625 -3.78125 C 1.765625 -4.039062 2.164062 -4.171875 2.582031 -4.175781 C 3.128906 -4.171875 3.59375 -3.980469 3.972656 -3.605469 C 4.351562 -3.222656 4.539062 -2.734375 4.542969 -2.136719 C 4.539062 -1.5625 4.375 -1.070312 4.042969 -0.65625 C 3.636719 -0.148438 3.085938 0.105469 2.390625 0.109375 C 1.816406 0.105469 1.347656 -0.0507812 0.984375 -0.371094 C 0.621094 -0.691406 0.414062 -1.117188 0.367188 -1.648438 Z M 0.367188 -1.648438 "/>
</g>
<g id="glyph-1-8">
<path d="M 0.800781 0 L 0.800781 -0.882812 L 1.679688 -0.882812 L 1.679688 0 Z M 0.800781 0 "/>
</g>
<g id="glyph-1-9">
<path d="M 0.417969 -5.472656 L 0.417969 -6.21875 L 4.496094 -6.21875 L 4.496094 -5.617188 C 4.089844 -5.1875 3.691406 -4.621094 3.300781 -3.914062 C 2.902344 -3.203125 2.601562 -2.472656 2.390625 -1.730469 C 2.234375 -1.199219 2.132812 -0.625 2.09375 0 L 1.296875 0 C 1.304688 -0.492188 1.402344 -1.089844 1.589844 -1.792969 C 1.773438 -2.496094 2.042969 -3.171875 2.390625 -3.824219 C 2.738281 -4.476562 3.109375 -5.027344 3.503906 -5.472656 Z M 0.417969 -5.472656 "/>
</g>
</g>
<clipPath id="clip-0">
<path clip-rule="nonzero" d="M 25.09375 23.1875 L 248.039062 23.1875 L 248.039062 113.679688 L 25.09375 113.679688 Z M 25.09375 23.1875 "/>
</clipPath>
<clipPath id="clip-1">
<path clip-rule="nonzero" d="M 25.09375 90 L 248.039062 90 L 248.039062 92 L 25.09375 92 Z M 25.09375 90 "/>
</clipPath>
<clipPath id="clip-2">
<path clip-rule="nonzero" d="M 25.09375 62 L 248.039062 62 L 248.039062 65 L 25.09375 65 Z M 25.09375 62 "/>
</clipPath>
<clipPath id="clip-3">
<path clip-rule="nonzero" d="M 25.09375 35 L 248.039062 35 L 248.039062 38 L 25.09375 38 Z M 25.09375 35 "/>
</clipPath>
<clipPath id="clip-4">
<path clip-rule="nonzero" d="M 34 23.1875 L 36 23.1875 L 36 113.679688 L 34 113.679688 Z M 34 23.1875 "/>
</clipPath>
<clipPath id="clip-5">
<path clip-rule="nonzero" d="M 83 23.1875 L 86 23.1875 L 86 113.679688 L 83 113.679688 Z M 83 23.1875 "/>
</clipPath>
<clipPath id="clip-6">
<path clip-rule="nonzero" d="M 132 23.1875 L 135 23.1875 L 135 113.679688 L 132 113.679688 Z M 132 23.1875 "/>
</clipPath>
<clipPath id="clip-7">
<path clip-rule="nonzero" d="M 181 23.1875 L 184 23.1875 L 184 113.679688 L 181 113.679688 Z M 181 23.1875 "/>
</clipPath>
<clipPath id="clip-8">
<path clip-rule="nonzero" d="M 231 23.1875 L 233 23.1875 L 233 113.679688 L 231 113.679688 Z M 231 23.1875 "/>
</clipPath>
<clipPath id="clip-9">
<path clip-rule="nonzero" d="M 123 23.1875 L 148 23.1875 L 148 113.679688 L 123 113.679688 Z M 123 23.1875 "/>
</clipPath>
<clipPath id="clip-10">
<path clip-rule="nonzero" d="M 25.09375 23.1875 L 248.039062 23.1875 L 248.039062 113.679688 L 25.09375 113.679688 Z M 25.09375 23.1875 "/>
</clipPath>
<clipPath id="clip-11">
<path clip-rule="nonzero" d="M 25.09375 149.945312 L 248.039062 149.945312 L 248.039062 240.4375 L 25.09375 240.4375 Z M 25.09375 149.945312 "/>
</clipPath>
<clipPath id="clip-12">
<path clip-rule="nonzero" d="M 25.09375 233 L 248.039062 233 L 248.039062 235 L 25.09375 235 Z M 25.09375 233 "/>
</clipPath>
<clipPath id="clip-13">
<path clip-rule="nonzero" d="M 25.09375 205 L 248.039062 205 L 248.039062 208 L 25.09375 208 Z M 25.09375 205 "/>
</clipPath>
<clipPath id="clip-14">
<path clip-rule="nonzero" d="M 25.09375 178 L 248.039062 178 L 248.039062 181 L 25.09375 181 Z M 25.09375 178 "/>
</clipPath>
<clipPath id="clip-15">
<path clip-rule="nonzero" d="M 25.09375 151 L 248.039062 151 L 248.039062 153 L 25.09375 153 Z M 25.09375 151 "/>
</clipPath>
<clipPath id="clip-16">
<path clip-rule="nonzero" d="M 34 149.945312 L 36 149.945312 L 36 240.4375 L 34 240.4375 Z M 34 149.945312 "/>
</clipPath>
<clipPath id="clip-17">
<path clip-rule="nonzero" d="M 83 149.945312 L 86 149.945312 L 86 240.4375 L 83 240.4375 Z M 83 149.945312 "/>
</clipPath>
<clipPath id="clip-18">
<path clip-rule="nonzero" d="M 132 149.945312 L 135 149.945312 L 135 240.4375 L 132 240.4375 Z M 132 149.945312 "/>
</clipPath>
<clipPath id="clip-19">
<path clip-rule="nonzero" d="M 181 149.945312 L 184 149.945312 L 184 240.4375 L 181 240.4375 Z M 181 149.945312 "/>
</clipPath>
<clipPath id="clip-20">
<path clip-rule="nonzero" d="M 231 149.945312 L 233 149.945312 L 233 240.4375 L 231 240.4375 Z M 231 149.945312 "/>
</clipPath>
<clipPath id="clip-21">
<path clip-rule="nonzero" d="M 74 149.945312 L 77 149.945312 L 77 240.4375 L 74 240.4375 Z M 74 149.945312 "/>
</clipPath>
<clipPath id="clip-22">
<path clip-rule="nonzero" d="M 123 149.945312 L 126 149.945312 L 126 240.4375 L 123 240.4375 Z M 123 149.945312 "/>
</clipPath>
<clipPath id="clip-23">
<path clip-rule="nonzero" d="M 168 149.945312 L 173 149.945312 L 173 240.4375 L 168 240.4375 Z M 168 149.945312 "/>
</clipPath>
<clipPath id="clip-24">
<path clip-rule="nonzero" d="M 25.09375 149.945312 L 248.039062 149.945312 L 248.039062 240.4375 L 25.09375 240.4375 Z M 25.09375 149.945312 "/>
</clipPath>
<clipPath id="clip-25">
<path clip-rule="nonzero" d="M 275.574219 23.1875 L 498.519531 23.1875 L 498.519531 113.679688 L 275.574219 113.679688 Z M 275.574219 23.1875 "/>
</clipPath>
<clipPath id="clip-26">
<path clip-rule="nonzero" d="M 275.574219 108 L 498.519531 108 L 498.519531 111 L 275.574219 111 Z M 275.574219 108 "/>
</clipPath>
<clipPath id="clip-27">
<path clip-rule="nonzero" d="M 275.574219 88 L 498.519531 88 L 498.519531 91 L 275.574219 91 Z M 275.574219 88 "/>
</clipPath>
<clipPath id="clip-28">
<path clip-rule="nonzero" d="M 275.574219 69 L 498.519531 69 L 498.519531 71 L 275.574219 71 Z M 275.574219 69 "/>
</clipPath>
<clipPath id="clip-29">
<path clip-rule="nonzero" d="M 275.574219 49 L 498.519531 49 L 498.519531 51 L 275.574219 51 Z M 275.574219 49 "/>
</clipPath>
<clipPath id="clip-30">
<path clip-rule="nonzero" d="M 275.574219 29 L 498.519531 29 L 498.519531 31 L 275.574219 31 Z M 275.574219 29 "/>
</clipPath>
<clipPath id="clip-31">
<path clip-rule="nonzero" d="M 284 23.1875 L 287 23.1875 L 287 113.679688 L 284 113.679688 Z M 284 23.1875 "/>
</clipPath>
<clipPath id="clip-32">
<path clip-rule="nonzero" d="M 334 23.1875 L 336 23.1875 L 336 113.679688 L 334 113.679688 Z M 334 23.1875 "/>
</clipPath>
<clipPath id="clip-33">
<path clip-rule="nonzero" d="M 383 23.1875 L 385 23.1875 L 385 113.679688 L 383 113.679688 Z M 383 23.1875 "/>
</clipPath>
<clipPath id="clip-34">
<path clip-rule="nonzero" d="M 432 23.1875 L 434 23.1875 L 434 113.679688 L 432 113.679688 Z M 432 23.1875 "/>
</clipPath>
<clipPath id="clip-35">
<path clip-rule="nonzero" d="M 481 23.1875 L 484 23.1875 L 484 113.679688 L 481 113.679688 Z M 481 23.1875 "/>
</clipPath>
<clipPath id="clip-36">
<path clip-rule="nonzero" d="M 330 23.1875 L 368 23.1875 L 368 113.679688 L 330 113.679688 Z M 330 23.1875 "/>
</clipPath>
<clipPath id="clip-37">
<path clip-rule="nonzero" d="M 410 23.1875 L 430 23.1875 L 430 113.679688 L 410 113.679688 Z M 410 23.1875 "/>
</clipPath>
<clipPath id="clip-38">
<path clip-rule="nonzero" d="M 275.574219 23.1875 L 498.519531 23.1875 L 498.519531 113.679688 L 275.574219 113.679688 Z M 275.574219 23.1875 "/>
</clipPath>
<clipPath id="clip-39">
<path clip-rule="nonzero" d="M 275.574219 149.945312 L 498.519531 149.945312 L 498.519531 240.4375 L 275.574219 240.4375 Z M 275.574219 149.945312 "/>
</clipPath>
<clipPath id="clip-40">
<path clip-rule="nonzero" d="M 275.574219 235 L 498.519531 235 L 498.519531 238 L 275.574219 238 Z M 275.574219 235 "/>
</clipPath>
<clipPath id="clip-41">
<path clip-rule="nonzero" d="M 275.574219 215 L 498.519531 215 L 498.519531 218 L 275.574219 218 Z M 275.574219 215 "/>
</clipPath>
<clipPath id="clip-42">
<path clip-rule="nonzero" d="M 275.574219 195 L 498.519531 195 L 498.519531 198 L 275.574219 198 Z M 275.574219 195 "/>
</clipPath>
<clipPath id="clip-43">
<path clip-rule="nonzero" d="M 275.574219 175 L 498.519531 175 L 498.519531 178 L 275.574219 178 Z M 275.574219 175 "/>
</clipPath>
<clipPath id="clip-44">
<path clip-rule="nonzero" d="M 275.574219 156 L 498.519531 156 L 498.519531 158 L 275.574219 158 Z M 275.574219 156 "/>
</clipPath>
<clipPath id="clip-45">
<path clip-rule="nonzero" d="M 284 149.945312 L 287 149.945312 L 287 240.4375 L 284 240.4375 Z M 284 149.945312 "/>
</clipPath>
<clipPath id="clip-46">
<path clip-rule="nonzero" d="M 334 149.945312 L 336 149.945312 L 336 240.4375 L 334 240.4375 Z M 334 149.945312 "/>
</clipPath>
<clipPath id="clip-47">
<path clip-rule="nonzero" d="M 383 149.945312 L 385 149.945312 L 385 240.4375 L 383 240.4375 Z M 383 149.945312 "/>
</clipPath>
<clipPath id="clip-48">
<path clip-rule="nonzero" d="M 432 149.945312 L 434 149.945312 L 434 240.4375 L 432 240.4375 Z M 432 149.945312 "/>
</clipPath>
<clipPath id="clip-49">
<path clip-rule="nonzero" d="M 481 149.945312 L 484 149.945312 L 484 240.4375 L 481 240.4375 Z M 481 149.945312 "/>
</clipPath>
<clipPath id="clip-50">
<path clip-rule="nonzero" d="M 353 149.945312 L 360 149.945312 L 360 240.4375 L 353 240.4375 Z M 353 149.945312 "/>
</clipPath>
<clipPath id="clip-51">
<path clip-rule="nonzero" d="M 455 149.945312 L 462 149.945312 L 462 240.4375 L 455 240.4375 Z M 455 149.945312 "/>
</clipPath>
<clipPath id="clip-52">
<path clip-rule="nonzero" d="M 275.574219 149.945312 L 498.519531 149.945312 L 498.519531 240.4375 L 275.574219 240.4375 Z M 275.574219 149.945312 "/>
</clipPath>
<clipPath id="clip-53">
<path clip-rule="nonzero" d="M 25.09375 134 L 60 134 L 60 142 L 25.09375 142 Z M 25.09375 134 "/>
</clipPath>
<clipPath id="clip-54">
<path clip-rule="nonzero" d="M 276 132.238281 L 300 132.238281 L 300 142 L 276 142 Z M 276 132.238281 "/>
</clipPath>
<clipPath id="clip-55">
<path clip-rule="nonzero" d="M 25.09375 5.480469 L 51 5.480469 L 51 18 L 25.09375 18 Z M 25.09375 5.480469 "/>
</clipPath>
<clipPath id="clip-56">
<path clip-rule="nonzero" d="M 276 5.480469 L 303 5.480469 L 303 18 L 276 18 Z M 276 5.480469 "/>
</clipPath>
</defs>
<rect x="-50.4" y="-25.9" width="604.8" height="310.8" fill="rgb(100%, 100%, 100%)" fill-opacity="1"/>
<rect x="-50.4" y="-25.9" width="604.8" height="310.8" fill="rgb(100%, 100%, 100%)" fill-opacity="1"/>
<path fill="none" stroke-width="1.066978" stroke-linecap="round" stroke-linejoin="round" stroke="rgb(100%, 100%, 100%)" stroke-opacity="1" stroke-miterlimit="10" d="M 0 259 L 504 259 L 504 0 L 0 0 Z M 0 259 "/>
<g clip-path="url(#clip-0)">
<path fill-rule="nonzero" fill="rgb(100%, 100%, 100%)" fill-opacity="1" d="M 25.09375 113.675781 L 248.039062 113.675781 L 248.039062 23.183594 L 25.09375 23.183594 Z M 25.09375 113.675781 "/>
</g>
<g clip-path="url(#clip-1)">
<path fill="none" stroke-width="1.49377" stroke-linecap="butt" stroke-linejoin="round" stroke="rgb(92.156863%, 92.156863%, 92.156863%)" stroke-opacity="1" stroke-dasharray="5.975079 5.975079" stroke-miterlimit="10" d="M 25.09375 90.808594 L 248.039062 90.808594 "/>
</g>
<g clip-path="url(#clip-2)">
<path fill="none" stroke-width="1.49377" stroke-linecap="butt" stroke-linejoin="round" stroke="rgb(92.156863%, 92.156863%, 92.156863%)" stroke-opacity="1" stroke-dasharray="5.975079 5.975079" stroke-miterlimit="10" d="M 25.09375 63.742188 L 248.039062 63.742188 "/>
</g>
<g clip-path="url(#clip-3)">
<path fill="none" stroke-width="1.49377" stroke-linecap="butt" stroke-linejoin="round" stroke="rgb(92.156863%, 92.156863%, 92.156863%)" stroke-opacity="1" stroke-dasharray="5.975079 5.975079" stroke-miterlimit="10" d="M 25.09375 36.675781 L 248.039062 36.675781 "/>
</g>
<g clip-path="url(#clip-4)">
<path fill="none" stroke-width="1.49377" stroke-linecap="butt" stroke-linejoin="round" stroke="rgb(92.156863%, 92.156863%, 92.156863%)" stroke-opacity="1" stroke-dasharray="5.975079 5.975079" stroke-miterlimit="10" d="M 35.226562 113.675781 L 35.226562 23.1875 "/>
</g>
<g clip-path="url(#clip-5)">
<path fill="none" stroke-width="1.49377" stroke-linecap="butt" stroke-linejoin="round" stroke="rgb(92.156863%, 92.156863%, 92.156863%)" stroke-opacity="1" stroke-dasharray="5.975079 5.975079" stroke-miterlimit="10" d="M 84.398438 113.675781 L 84.398438 23.1875 "/>
</g>
<g clip-path="url(#clip-6)">
<path fill="none" stroke-width="1.49377" stroke-linecap="butt" stroke-linejoin="round" stroke="rgb(92.156863%, 92.156863%, 92.156863%)" stroke-opacity="1" stroke-dasharray="5.975079 5.975079" stroke-miterlimit="10" d="M 133.503906 113.675781 L 133.503906 23.1875 "/>
</g>
<g clip-path="url(#clip-7)">
<path fill="none" stroke-width="1.49377" stroke-linecap="butt" stroke-linejoin="round" stroke="rgb(92.156863%, 92.156863%, 92.156863%)" stroke-opacity="1" stroke-dasharray="5.975079 5.975079" stroke-miterlimit="10" d="M 182.675781 113.675781 L 182.675781 23.1875 "/>
</g>
<g clip-path="url(#clip-8)">
<path fill="none" stroke-width="1.49377" stroke-linecap="butt" stroke-linejoin="round" stroke="rgb(92.156863%, 92.156863%, 92.156863%)" stroke-opacity="1" stroke-dasharray="5.975079 5.975079" stroke-miterlimit="10" d="M 231.78125 113.675781 L 231.78125 23.1875 "/>
</g>
<path fill="none" stroke-width="1.066978" stroke-linecap="butt" stroke-linejoin="round" stroke="rgb(0%, 0%, 0%)" stroke-opacity="1" stroke-miterlimit="10" d="M 35.226562 90.808594 L 37.3125 96.042969 L 39.261719 94.390625 L 41.347656 94.648438 L 43.367188 87.441406 L 45.453125 89.464844 L 47.46875 85.910156 L 49.554688 87.839844 L 51.640625 84.230469 L 53.660156 77.617188 L 55.742188 83.035156 L 57.761719 81.351562 L 59.847656 84.042969 L 61.933594 87.691406 L 63.816406 92.847656 L 65.902344 88.492188 L 67.917969 94.1875 L 70.003906 83.574219 L 72.023438 87.011719 L 74.109375 88.398438 L 76.191406 85.375 L 78.210938 91.828125 L 80.296875 95.664062 L 82.3125 101.433594 L 84.398438 107.480469 L 86.484375 105.820312 L 88.367188 108.320312 L 90.453125 107.527344 L 92.472656 109.5625 L 94.558594 105.75 L 96.574219 105.808594 L 98.660156 106.558594 L 100.746094 106.476562 L 102.765625 104.730469 L 104.847656 102.207031 L 106.867188 99.894531 L 108.953125 101.945312 L 111.039062 103.121094 L 112.921875 102.285156 L 115.007812 99.964844 L 117.023438 102.230469 L 119.109375 94.070312 L 121.128906 91.082031 L 123.214844 86.292969 L 125.296875 82.933594 L 127.316406 77.050781 L 129.402344 66.792969 L 131.417969 55.085938 L 133.503906 51.601562 L 135.589844 46.042969 L 137.539062 43.636719 L 139.625 44.773438 L 141.644531 36.039062 L 143.730469 31.550781 L 145.746094 27.300781 L 147.832031 99.730469 L 149.917969 95.839844 L 151.9375 94.160156 L 154.023438 91.289062 L 156.039062 88.601562 L 158.125 90.332031 L 160.210938 94.601562 L 162.09375 97.410156 L 164.179688 99.269531 L 166.195312 97.089844 L 168.28125 92.816406 L 170.300781 93.3125 L 172.386719 93.449219 L 174.472656 95.789062 L 176.488281 97.667969 L 178.574219 93.78125 L 180.59375 93.476562 L 182.675781 88.984375 L 184.761719 86.617188 L 186.644531 89.578125 L 188.730469 87.144531 L 190.75 89.007812 L 192.835938 92.3125 L 194.851562 85.949219 L 196.9375 86.625 L 199.023438 76.78125 L 201.042969 71.226562 L 203.125 74.382812 L 205.144531 80.847656 L 207.230469 81.597656 L 209.316406 78.335938 L 211.199219 81.230469 L 213.285156 80.71875 L 215.300781 76.078125 L 217.386719 72.472656 L 219.40625 75.804688 L 221.492188 76.519531 L 223.574219 76.546875 L 225.59375 76.378906 L 227.679688 75.65625 L 229.699219 77.4375 L 231.78125 75.558594 L 233.867188 77.671875 L 235.820312 72.761719 L 237.902344 67.914062 "/>
<g clip-path="url(#clip-9)">
<path fill-rule="nonzero" fill="rgb(54.901961%, 54.901961%, 54.901961%)" fill-opacity="0.298039" d="M 123.214844 113.675781 L 147.835938 113.675781 L 147.835938 23.183594 L 123.214844 23.183594 Z M 123.214844 113.675781 "/>
</g>
<g clip-path="url(#clip-10)">
<path fill="none" stroke-width="1.066978" stroke-linecap="round" stroke-linejoin="round" stroke="rgb(74.901961%, 74.901961%, 74.901961%)" stroke-opacity="1" stroke-miterlimit="10" d="M 25.09375 113.675781 L 248.039062 113.675781 L 248.039062 23.183594 L 25.09375 23.183594 Z M 25.09375 113.675781 "/>
</g>
<g clip-path="url(#clip-11)">
<path fill-rule="nonzero" fill="rgb(100%, 100%, 100%)" fill-opacity="1" d="M 25.09375 240.4375 L 248.039062 240.4375 L 248.039062 149.945312 L 25.09375 149.945312 Z M 25.09375 240.4375 "/>
</g>
<g clip-path="url(#clip-12)">
<path fill="none" stroke-width="1.49377" stroke-linecap="butt" stroke-linejoin="round" stroke="rgb(92.156863%, 92.156863%, 92.156863%)" stroke-opacity="1" stroke-dasharray="5.975079 5.975079" stroke-miterlimit="10" d="M 25.09375 233.980469 L 248.039062 233.980469 "/>
</g>
<g clip-path="url(#clip-13)">
<path fill="none" stroke-width="1.49377" stroke-linecap="butt" stroke-linejoin="round" stroke="rgb(92.156863%, 92.156863%, 92.156863%)" stroke-opacity="1" stroke-dasharray="5.975079 5.975079" stroke-miterlimit="10" d="M 25.09375 206.660156 L 248.039062 206.660156 "/>
</g>
<g clip-path="url(#clip-14)">
<path fill="none" stroke-width="1.49377" stroke-linecap="butt" stroke-linejoin="round" stroke="rgb(92.156863%, 92.156863%, 92.156863%)" stroke-opacity="1" stroke-dasharray="5.975079 5.975079" stroke-miterlimit="10" d="M 25.09375 179.34375 L 248.039062 179.34375 "/>
</g>
<g clip-path="url(#clip-15)">
<path fill="none" stroke-width="1.49377" stroke-linecap="butt" stroke-linejoin="round" stroke="rgb(92.156863%, 92.156863%, 92.156863%)" stroke-opacity="1" stroke-dasharray="5.975079 5.975079" stroke-miterlimit="10" d="M 25.09375 152.027344 L 248.039062 152.027344 "/>
</g>
<g clip-path="url(#clip-16)">
<path fill="none" stroke-width="1.49377" stroke-linecap="butt" stroke-linejoin="round" stroke="rgb(92.156863%, 92.156863%, 92.156863%)" stroke-opacity="1" stroke-dasharray="5.975079 5.975079" stroke-miterlimit="10" d="M 35.226562 240.4375 L 35.226562 149.945312 "/>
</g>
<g clip-path="url(#clip-17)">
<path fill="none" stroke-width="1.49377" stroke-linecap="butt" stroke-linejoin="round" stroke="rgb(92.156863%, 92.156863%, 92.156863%)" stroke-opacity="1" stroke-dasharray="5.975079 5.975079" stroke-miterlimit="10" d="M 84.398438 240.4375 L 84.398438 149.945312 "/>
</g>
<g clip-path="url(#clip-18)">
<path fill="none" stroke-width="1.49377" stroke-linecap="butt" stroke-linejoin="round" stroke="rgb(92.156863%, 92.156863%, 92.156863%)" stroke-opacity="1" stroke-dasharray="5.975079 5.975079" stroke-miterlimit="10" d="M 133.503906 240.4375 L 133.503906 149.945312 "/>
</g>
<g clip-path="url(#clip-19)">
<path fill="none" stroke-width="1.49377" stroke-linecap="butt" stroke-linejoin="round" stroke="rgb(92.156863%, 92.156863%, 92.156863%)" stroke-opacity="1" stroke-dasharray="5.975079 5.975079" stroke-miterlimit="10" d="M 182.675781 240.4375 L 182.675781 149.945312 "/>
</g>
<g clip-path="url(#clip-20)">
<path fill="none" stroke-width="1.49377" stroke-linecap="butt" stroke-linejoin="round" stroke="rgb(92.156863%, 92.156863%, 92.156863%)" stroke-opacity="1" stroke-dasharray="5.975079 5.975079" stroke-miterlimit="10" d="M 231.78125 240.4375 L 231.78125 149.945312 "/>
</g>
<path fill="none" stroke-width="1.066978" stroke-linecap="butt" stroke-linejoin="round" stroke="rgb(0%, 0%, 0%)" stroke-opacity="1" stroke-miterlimit="10" d="M 35.226562 233.980469 L 37.3125 230.519531 L 39.261719 229.453125 L 41.347656 229.894531 L 43.367188 231.496094 L 45.453125 229.765625 L 47.46875 225.324219 L 49.554688 223.042969 L 51.640625 223.917969 L 53.660156 221.148438 L 55.742188 219.910156 L 57.761719 219.425781 L 59.847656 217.210938 L 61.933594 213.746094 L 63.816406 211.984375 L 65.902344 210.410156 L 67.917969 210.921875 L 70.003906 202.382812 L 72.023438 186.117188 L 74.109375 156.308594 L 76.191406 234.5625 L 78.210938 232.125 L 80.296875 230.863281 L 82.3125 230.273438 L 84.398438 231.132812 L 86.484375 229.785156 L 88.367188 227.957031 L 90.453125 224.417969 L 92.472656 221.257812 L 94.558594 224.160156 L 96.574219 223.324219 L 98.660156 220.566406 L 100.746094 221.242188 L 102.765625 218.609375 L 104.847656 215.085938 L 106.867188 212.84375 L 108.953125 212.550781 L 111.039062 211.828125 L 112.921875 208.871094 L 115.007812 207.71875 L 117.023438 209.132812 L 119.109375 209.4375 L 121.128906 202.925781 L 123.214844 188.050781 L 125.296875 232.253906 L 127.316406 230.289062 L 129.402344 228.984375 L 131.417969 227.203125 L 133.503906 224.058594 L 135.589844 221.390625 L 137.539062 220.726562 L 139.625 217.597656 L 141.644531 216.09375 L 143.730469 215.417969 L 145.746094 216.234375 L 147.832031 212.726562 L 149.917969 217.355469 L 151.9375 218.085938 L 154.023438 215.832031 L 156.039062 217.527344 L 158.125 215.941406 L 160.210938 212.921875 L 162.09375 211.753906 L 164.179688 208.535156 L 166.195312 202.863281 L 168.28125 186.066406 L 170.300781 154.058594 L 172.386719 232.535156 L 174.472656 230.820312 L 176.488281 227.414062 L 178.574219 226.542969 L 180.59375 224.941406 L 182.675781 222.445312 L 184.761719 217.101562 L 186.644531 211.09375 L 188.730469 209.890625 L 190.75 201.363281 L 192.835938 236.324219 L 194.851562 235.679688 L 196.9375 235.644531 L 199.023438 234.257812 L 201.042969 232.019531 L 203.125 229.324219 L 205.144531 226.671875 L 207.230469 227.511719 L 209.316406 228.367188 L 211.199219 226.855469 L 213.285156 227.796875 L 215.300781 224.832031 L 217.386719 223.378906 L 219.40625 223.203125 L 221.492188 221.136719 L 223.574219 218.765625 L 225.59375 221.148438 L 227.679688 225.355469 L 229.699219 222.886719 L 231.78125 221.46875 L 233.867188 222.46875 L 235.820312 221.0625 L 237.902344 220.648438 "/>
<g clip-path="url(#clip-21)">
<path fill-rule="nonzero" fill="rgb(54.901961%, 54.901961%, 54.901961%)" fill-opacity="0.298039" d="M 74.109375 240.4375 L 76.195312 240.4375 L 76.195312 149.945312 L 74.109375 149.945312 Z M 74.109375 240.4375 "/>
</g>
<g clip-path="url(#clip-22)">
<path fill-rule="nonzero" fill="rgb(54.901961%, 54.901961%, 54.901961%)" fill-opacity="0.298039" d="M 123.214844 240.4375 L 125.300781 240.4375 L 125.300781 149.945312 L 123.214844 149.945312 Z M 123.214844 240.4375 "/>
</g>
<g clip-path="url(#clip-23)">
<path fill-rule="nonzero" fill="rgb(54.901961%, 54.901961%, 54.901961%)" fill-opacity="0.298039" d="M 168.28125 240.4375 L 172.382812 240.4375 L 172.382812 149.945312 L 168.28125 149.945312 Z M 168.28125 240.4375 "/>
</g>
<g clip-path="url(#clip-24)">
<path fill="none" stroke-width="1.066978" stroke-linecap="round" stroke-linejoin="round" stroke="rgb(74.901961%, 74.901961%, 74.901961%)" stroke-opacity="1" stroke-miterlimit="10" d="M 25.09375 240.4375 L 248.039062 240.4375 L 248.039062 149.945312 L 25.09375 149.945312 Z M 25.09375 240.4375 "/>
</g>
<g clip-path="url(#clip-25)">
<path fill-rule="nonzero" fill="rgb(100%, 100%, 100%)" fill-opacity="1" d="M 275.574219 113.675781 L 498.519531 113.675781 L 498.519531 23.183594 L 275.574219 23.183594 Z M 275.574219 113.675781 "/>
</g>
<g clip-path="url(#clip-26)">
<path fill="none" stroke-width="1.49377" stroke-linecap="butt" stroke-linejoin="round" stroke="rgb(92.156863%, 92.156863%, 92.156863%)" stroke-opacity="1" stroke-dasharray="5.975079 5.975079" stroke-miterlimit="10" d="M 275.574219 109.5625 L 498.519531 109.5625 "/>
</g>
<g clip-path="url(#clip-27)">
<path fill="none" stroke-width="1.49377" stroke-linecap="butt" stroke-linejoin="round" stroke="rgb(92.156863%, 92.156863%, 92.156863%)" stroke-opacity="1" stroke-dasharray="5.975079 5.975079" stroke-miterlimit="10" d="M 275.574219 89.71875 L 498.519531 89.71875 "/>
</g>
<g clip-path="url(#clip-28)">
<path fill="none" stroke-width="1.49377" stroke-linecap="butt" stroke-linejoin="round" stroke="rgb(92.156863%, 92.156863%, 92.156863%)" stroke-opacity="1" stroke-dasharray="5.975079 5.975079" stroke-miterlimit="10" d="M 275.574219 69.871094 L 498.519531 69.871094 "/>
</g>
<g clip-path="url(#clip-29)">
<path fill="none" stroke-width="1.49377" stroke-linecap="butt" stroke-linejoin="round" stroke="rgb(92.156863%, 92.156863%, 92.156863%)" stroke-opacity="1" stroke-dasharray="5.975079 5.975079" stroke-miterlimit="10" d="M 275.574219 50.023438 L 498.519531 50.023438 "/>
</g>
<g clip-path="url(#clip-30)">
<path fill="none" stroke-width="1.49377" stroke-linecap="butt" stroke-linejoin="round" stroke="rgb(92.156863%, 92.156863%, 92.156863%)" stroke-opacity="1" stroke-dasharray="5.975079 5.975079" stroke-miterlimit="10" d="M 275.574219 30.175781 L 498.519531 30.175781 "/>
</g>
<g clip-path="url(#clip-31)">
<path fill="none" stroke-width="1.49377" stroke-linecap="butt" stroke-linejoin="round" stroke="rgb(92.156863%, 92.156863%, 92.156863%)" stroke-opacity="1" stroke-dasharray="5.975079 5.975079" stroke-miterlimit="10" d="M 285.710938 113.675781 L 285.710938 23.1875 "/>
</g>
<g clip-path="url(#clip-32)">
<path fill="none" stroke-width="1.49377" stroke-linecap="butt" stroke-linejoin="round" stroke="rgb(92.156863%, 92.156863%, 92.156863%)" stroke-opacity="1" stroke-dasharray="5.975079 5.975079" stroke-miterlimit="10" d="M 334.882812 113.675781 L 334.882812 23.1875 "/>
</g>
<g clip-path="url(#clip-33)">
<path fill="none" stroke-width="1.49377" stroke-linecap="butt" stroke-linejoin="round" stroke="rgb(92.156863%, 92.156863%, 92.156863%)" stroke-opacity="1" stroke-dasharray="5.975079 5.975079" stroke-miterlimit="10" d="M 383.988281 113.675781 L 383.988281 23.1875 "/>
</g>
<g clip-path="url(#clip-34)">
<path fill="none" stroke-width="1.49377" stroke-linecap="butt" stroke-linejoin="round" stroke="rgb(92.156863%, 92.156863%, 92.156863%)" stroke-opacity="1" stroke-dasharray="5.975079 5.975079" stroke-miterlimit="10" d="M 433.160156 113.675781 L 433.160156 23.1875 "/>
</g>
<g clip-path="url(#clip-35)">
<path fill="none" stroke-width="1.49377" stroke-linecap="butt" stroke-linejoin="round" stroke="rgb(92.156863%, 92.156863%, 92.156863%)" stroke-opacity="1" stroke-dasharray="5.975079 5.975079" stroke-miterlimit="10" d="M 482.265625 113.675781 L 482.265625 23.1875 "/>
</g>
<path fill="none" stroke-width="1.066978" stroke-linecap="butt" stroke-linejoin="round" stroke="rgb(0%, 0%, 0%)" stroke-opacity="1" stroke-miterlimit="10" d="M 285.710938 109.5625 L 287.796875 109.207031 L 289.746094 107.652344 L 291.832031 106.429688 L 293.847656 104.210938 L 295.933594 106.695312 L 297.953125 105.5 L 300.039062 103.640625 L 302.125 104.03125 L 304.140625 103.453125 L 306.226562 104.425781 L 308.246094 102.6875 L 310.328125 105.886719 L 312.414062 104.148438 L 314.296875 103.710938 L 316.382812 104.460938 L 318.402344 103.8125 L 320.488281 103.214844 L 322.503906 101.316406 L 324.589844 97.507812 L 326.675781 95.691406 L 328.695312 94.074219 L 330.777344 91.601562 L 332.796875 88.167969 L 334.882812 87.496094 L 336.96875 85.664062 L 338.851562 83.492188 L 340.9375 83.074219 L 342.953125 81.207031 L 345.039062 78.3125 L 347.058594 72.792969 L 349.144531 69.519531 L 351.226562 66.078125 L 353.246094 60.910156 L 355.332031 55.007812 L 357.351562 51.40625 L 359.433594 47.027344 L 361.519531 40.542969 L 363.402344 34.261719 L 365.488281 27.300781 L 367.507812 98.863281 L 369.59375 98.578125 L 371.609375 99.808594 L 373.695312 100.292969 L 375.78125 97.871094 L 377.800781 97.277344 L 379.882812 95.023438 L 381.902344 96.382812 L 383.988281 93.777344 L 386.074219 96.46875 L 388.023438 97.339844 L 390.109375 96.414062 L 392.128906 96.898438 L 394.210938 97.011719 L 396.230469 96.875 L 398.316406 96.027344 L 400.402344 96.910156 L 402.417969 95.113281 L 404.503906 94.667969 L 406.523438 92.746094 L 408.609375 87.761719 L 410.691406 84.863281 L 412.578125 83.589844 L 414.660156 80.886719 L 416.679688 76.773438 L 418.765625 71.652344 L 420.78125 67.171875 L 422.867188 63.167969 L 424.953125 60.105469 L 426.972656 53.5625 L 429.058594 91.707031 L 431.074219 91.855469 L 433.160156 91.140625 L 435.246094 90.589844 L 437.128906 90.65625 L 439.214844 90.007812 L 441.230469 92.398438 L 443.316406 93.03125 L 445.335938 91.300781 L 447.421875 89.308594 L 449.507812 88.070312 L 451.523438 89.132812 L 453.609375 89.722656 L 455.628906 89.945312 L 457.710938 88.492188 L 459.796875 89.035156 L 461.679688 90.128906 L 463.765625 90.6875 L 465.785156 88.445312 L 467.871094 89.777344 L 469.886719 90.890625 L 471.972656 92.734375 L 474.058594 92.320312 L 476.078125 93.671875 L 478.160156 95.441406 L 480.179688 93.84375 L 482.265625 92.753906 L 484.351562 92.679688 L 486.300781 92.453125 L 488.386719 91.398438 "/>
<g clip-path="url(#clip-36)">
<path fill-rule="nonzero" fill="rgb(54.901961%, 54.901961%, 54.901961%)" fill-opacity="0.298039" d="M 330.777344 113.675781 L 367.503906 113.675781 L 367.503906 23.183594 L 330.777344 23.183594 Z M 330.777344 113.675781 "/>
</g>
<g clip-path="url(#clip-37)">
<path fill-rule="nonzero" fill="rgb(54.901961%, 54.901961%, 54.901961%)" fill-opacity="0.298039" d="M 410.691406 113.675781 L 429.054688 113.675781 L 429.054688 23.183594 L 410.691406 23.183594 Z M 410.691406 113.675781 "/>
</g>
<g clip-path="url(#clip-38)">
<path fill="none" stroke-width="1.066978" stroke-linecap="round" stroke-linejoin="round" stroke="rgb(74.901961%, 74.901961%, 74.901961%)" stroke-opacity="1" stroke-miterlimit="10" d="M 275.574219 113.675781 L 498.519531 113.675781 L 498.519531 23.183594 L 275.574219 23.183594 Z M 275.574219 113.675781 "/>
</g>
<g clip-path="url(#clip-39)">
<path fill-rule="nonzero" fill="rgb(100%, 100%, 100%)" fill-opacity="1" d="M 275.574219 240.4375 L 498.519531 240.4375 L 498.519531 149.945312 L 275.574219 149.945312 Z M 275.574219 240.4375 "/>
</g>
<g clip-path="url(#clip-40)">
<path fill="none" stroke-width="1.49377" stroke-linecap="butt" stroke-linejoin="round" stroke="rgb(92.156863%, 92.156863%, 92.156863%)" stroke-opacity="1" stroke-dasharray="5.975079 5.975079" stroke-miterlimit="10" d="M 275.574219 236.355469 L 498.519531 236.355469 "/>
</g>
<g clip-path="url(#clip-41)">
<path fill="none" stroke-width="1.49377" stroke-linecap="butt" stroke-linejoin="round" stroke="rgb(92.156863%, 92.156863%, 92.156863%)" stroke-opacity="1" stroke-dasharray="5.975079 5.975079" stroke-miterlimit="10" d="M 275.574219 216.480469 L 498.519531 216.480469 "/>
</g>
<g clip-path="url(#clip-42)">
<path fill="none" stroke-width="1.49377" stroke-linecap="butt" stroke-linejoin="round" stroke="rgb(92.156863%, 92.156863%, 92.156863%)" stroke-opacity="1" stroke-dasharray="5.975079 5.975079" stroke-miterlimit="10" d="M 275.574219 196.605469 L 498.519531 196.605469 "/>
</g>
<g clip-path="url(#clip-43)">
<path fill="none" stroke-width="1.49377" stroke-linecap="butt" stroke-linejoin="round" stroke="rgb(92.156863%, 92.156863%, 92.156863%)" stroke-opacity="1" stroke-dasharray="5.975079 5.975079" stroke-miterlimit="10" d="M 275.574219 176.726562 L 498.519531 176.726562 "/>
</g>
<g clip-path="url(#clip-44)">
<path fill="none" stroke-width="1.49377" stroke-linecap="butt" stroke-linejoin="round" stroke="rgb(92.156863%, 92.156863%, 92.156863%)" stroke-opacity="1" stroke-dasharray="5.975079 5.975079" stroke-miterlimit="10" d="M 275.574219 156.851562 L 498.519531 156.851562 "/>
</g>
<g clip-path="url(#clip-45)">
<path fill="none" stroke-width="1.49377" stroke-linecap="butt" stroke-linejoin="round" stroke="rgb(92.156863%, 92.156863%, 92.156863%)" stroke-opacity="1" stroke-dasharray="5.975079 5.975079" stroke-miterlimit="10" d="M 285.710938 240.4375 L 285.710938 149.945312 "/>
</g>
<g clip-path="url(#clip-46)">
<path fill="none" stroke-width="1.49377" stroke-linecap="butt" stroke-linejoin="round" stroke="rgb(92.156863%, 92.156863%, 92.156863%)" stroke-opacity="1" stroke-dasharray="5.975079 5.975079" stroke-miterlimit="10" d="M 334.882812 240.4375 L 334.882812 149.945312 "/>
</g>
<g clip-path="url(#clip-47)">
<path fill="none" stroke-width="1.49377" stroke-linecap="butt" stroke-linejoin="round" stroke="rgb(92.156863%, 92.156863%, 92.156863%)" stroke-opacity="1" stroke-dasharray="5.975079 5.975079" stroke-miterlimit="10" d="M 383.988281 240.4375 L 383.988281 149.945312 "/>
</g>
<g clip-path="url(#clip-48)">
<path fill="none" stroke-width="1.49377" stroke-linecap="butt" stroke-linejoin="round" stroke="rgb(92.156863%, 92.156863%, 92.156863%)" stroke-opacity="1" stroke-dasharray="5.975079 5.975079" stroke-miterlimit="10" d="M 433.160156 240.4375 L 433.160156 149.945312 "/>
</g>
<g clip-path="url(#clip-49)">
<path fill="none" stroke-width="1.49377" stroke-linecap="butt" stroke-linejoin="round" stroke="rgb(92.156863%, 92.156863%, 92.156863%)" stroke-opacity="1" stroke-dasharray="5.975079 5.975079" stroke-miterlimit="10" d="M 482.265625 240.4375 L 482.265625 149.945312 "/>
</g>
<path fill="none" stroke-width="1.066978" stroke-linecap="butt" stroke-linejoin="round" stroke="rgb(0%, 0%, 0%)" stroke-opacity="1" stroke-miterlimit="10" d="M 285.710938 228.40625 L 287.796875 233.109375 L 289.746094 226.753906 L 291.832031 234.804688 L 293.847656 234.640625 L 295.933594 235.421875 L 297.953125 234.246094 L 300.039062 234.46875 L 302.125 233.714844 L 304.140625 233.632812 L 306.226562 229.503906 L 308.246094 225.847656 L 310.328125 221.058594 L 312.414062 212.195312 L 314.296875 233.433594 L 316.382812 231.164062 L 318.402344 229.804688 L 320.488281 229.929688 L 322.503906 233.585938 L 324.589844 231.703125 L 326.675781 232.875 L 328.695312 230.722656 L 330.777344 233.164062 L 332.796875 231.839844 L 334.882812 231.796875 L 336.96875 236.324219 L 338.851562 230.863281 L 340.9375 229.25 L 342.953125 229.171875 L 345.039062 227.273438 L 347.058594 225.292969 L 349.144531 220.71875 L 351.226562 212.324219 L 353.246094 200.265625 L 355.332031 181.632812 L 357.351562 154.058594 L 359.433594 232.058594 L 361.519531 227.96875 L 363.402344 223.328125 L 365.488281 233.992188 L 367.507812 232.027344 L 369.59375 229.914062 L 371.609375 227.015625 L 373.695312 235.925781 L 375.78125 236.109375 L 377.800781 234.332031 L 379.882812 235.683594 L 381.902344 233.398438 L 383.988281 231.628906 L 386.074219 233.191406 L 388.023438 228.449219 L 390.109375 235.851562 L 392.128906 232.832031 L 394.210938 228.265625 L 396.230469 227.867188 L 398.316406 227.273438 L 400.402344 223.089844 L 402.417969 215.539062 L 404.503906 236.035156 L 406.523438 231.632812 L 408.609375 236.269531 L 410.691406 235.679688 L 412.578125 233.609375 L 414.660156 230.34375 L 416.679688 231.195312 L 418.765625 227.132812 L 420.78125 231.4375 L 422.867188 235.957031 L 424.953125 233.203125 L 426.972656 228.757812 L 429.058594 228.808594 L 431.074219 231.28125 L 433.160156 234.503906 L 435.246094 236.261719 L 437.128906 236.042969 L 439.214844 232.628906 L 441.230469 229.828125 L 443.316406 224.421875 L 445.335938 233.628906 L 447.421875 228.730469 L 449.507812 221.628906 L 451.523438 215.863281 L 453.609375 210.847656 L 455.628906 200.902344 L 457.710938 184.316406 L 459.796875 159.503906 L 461.679688 235.527344 L 463.765625 233.75 L 465.785156 234.09375 L 467.871094 231.089844 L 469.886719 235.816406 L 471.972656 234.691406 L 474.058594 234.46875 L 476.078125 232.71875 L 478.160156 235.765625 L 480.179688 234.15625 L 482.265625 230.949219 L 484.351562 225.960938 L 486.300781 223.265625 L 488.386719 222.070312 "/>
<g clip-path="url(#clip-50)">
<path fill-rule="nonzero" fill="rgb(54.901961%, 54.901961%, 54.901961%)" fill-opacity="0.298039" d="M 353.246094 240.4375 L 359.433594 240.4375 L 359.433594 149.945312 L 353.246094 149.945312 Z M 353.246094 240.4375 "/>
</g>
<g clip-path="url(#clip-51)">
<path fill-rule="nonzero" fill="rgb(54.901961%, 54.901961%, 54.901961%)" fill-opacity="0.298039" d="M 455.628906 240.4375 L 461.683594 240.4375 L 461.683594 149.945312 L 455.628906 149.945312 Z M 455.628906 240.4375 "/>
</g>
<g clip-path="url(#clip-52)">
<path fill="none" stroke-width="1.066978" stroke-linecap="round" stroke-linejoin="round" stroke="rgb(74.901961%, 74.901961%, 74.901961%)" stroke-opacity="1" stroke-miterlimit="10" d="M 275.574219 240.4375 L 498.519531 240.4375 L 498.519531 149.945312 L 275.574219 149.945312 Z M 275.574219 240.4375 "/>
</g>
<g clip-path="url(#clip-53)">
<g fill="rgb(10.196078%, 10.196078%, 10.196078%)" fill-opacity="1">
<use xlink:href="#glyph-0-0" x="25.09375" y="141.6875"/>
<use xlink:href="#glyph-0-1" x="32.434961" y="141.6875"/>
<use xlink:href="#glyph-0-2" x="39.034961" y="141.6875"/>
<use xlink:href="#glyph-0-3" x="46.376172" y="141.6875"/>
<use xlink:href="#glyph-0-4" x="53.717383" y="141.6875"/>
</g>
</g>
<g clip-path="url(#clip-54)">
<g fill="rgb(10.196078%, 10.196078%, 10.196078%)" fill-opacity="1">
<use xlink:href="#glyph-0-5" x="275.574219" y="141.6875"/>
<use xlink:href="#glyph-0-6" x="282.91543" y="141.6875"/>
<use xlink:href="#glyph-0-2" x="285.848047" y="141.6875"/>
<use xlink:href="#glyph-0-3" x="293.189258" y="141.6875"/>
</g>
</g>
<g clip-path="url(#clip-55)">
<g fill="rgb(10.196078%, 10.196078%, 10.196078%)" fill-opacity="1">
<use xlink:href="#glyph-0-7" x="25.09375" y="14.929688"/>
<use xlink:href="#glyph-0-4" x="32.434961" y="14.929688"/>
<use xlink:href="#glyph-0-8" x="39.034961" y="14.929688"/>
<use xlink:href="#glyph-0-9" x="45.634961" y="14.929688"/>
</g>
</g>
<g clip-path="url(#clip-56)">
<g fill="rgb(10.196078%, 10.196078%, 10.196078%)" fill-opacity="1">
<use xlink:href="#glyph-0-7" x="275.574219" y="14.929688"/>
<use xlink:href="#glyph-0-4" x="282.91543" y="14.929688"/>
<use xlink:href="#glyph-0-8" x="289.51543" y="14.929688"/>
<use xlink:href="#glyph-0-10" x="296.11543" y="14.929688"/>
</g>
</g>
<path fill="none" stroke-width="1.066978" stroke-linecap="butt" stroke-linejoin="round" stroke="rgb(20%, 20%, 20%)" stroke-opacity="1" stroke-miterlimit="10" d="M 35.226562 243.175781 L 35.226562 240.4375 "/>
<path fill="none" stroke-width="1.066978" stroke-linecap="butt" stroke-linejoin="round" stroke="rgb(20%, 20%, 20%)" stroke-opacity="1" stroke-miterlimit="10" d="M 84.398438 243.175781 L 84.398438 240.4375 "/>
<path fill="none" stroke-width="1.066978" stroke-linecap="butt" stroke-linejoin="round" stroke="rgb(20%, 20%, 20%)" stroke-opacity="1" stroke-miterlimit="10" d="M 133.503906 243.175781 L 133.503906 240.4375 "/>
<path fill="none" stroke-width="1.066978" stroke-linecap="butt" stroke-linejoin="round" stroke="rgb(20%, 20%, 20%)" stroke-opacity="1" stroke-miterlimit="10" d="M 182.675781 243.175781 L 182.675781 240.4375 "/>
<path fill="none" stroke-width="1.066978" stroke-linecap="butt" stroke-linejoin="round" stroke="rgb(20%, 20%, 20%)" stroke-opacity="1" stroke-miterlimit="10" d="M 231.78125 243.175781 L 231.78125 240.4375 "/>
<g fill="rgb(30.196078%, 30.196078%, 30.196078%)" fill-opacity="1">
<use xlink:href="#glyph-1-0" x="25.4375" y="251.667969"/>
<use xlink:href="#glyph-1-1" x="30.331641" y="251.667969"/>
<use xlink:href="#glyph-1-1" x="35.225781" y="251.667969"/>
<use xlink:href="#glyph-1-1" x="40.119922" y="251.667969"/>
</g>
<g fill="rgb(30.196078%, 30.196078%, 30.196078%)" fill-opacity="1">
<use xlink:href="#glyph-1-0" x="74.609375" y="251.667969"/>
<use xlink:href="#glyph-1-1" x="79.503516" y="251.667969"/>
<use xlink:href="#glyph-1-1" x="84.397656" y="251.667969"/>
<use xlink:href="#glyph-1-0" x="89.291797" y="251.667969"/>
</g>
<g fill="rgb(30.196078%, 30.196078%, 30.196078%)" fill-opacity="1">
<use xlink:href="#glyph-1-0" x="123.714844" y="251.667969"/>
<use xlink:href="#glyph-1-1" x="128.608984" y="251.667969"/>
<use xlink:href="#glyph-1-1" x="133.503125" y="251.667969"/>
<use xlink:href="#glyph-1-2" x="138.397266" y="251.667969"/>
</g>
<g fill="rgb(30.196078%, 30.196078%, 30.196078%)" fill-opacity="1">
<use xlink:href="#glyph-1-0" x="172.886719" y="251.667969"/>
<use xlink:href="#glyph-1-1" x="177.780859" y="251.667969"/>
<use xlink:href="#glyph-1-1" x="182.675" y="251.667969"/>
<use xlink:href="#glyph-1-3" x="187.569141" y="251.667969"/>
</g>
<g fill="rgb(30.196078%, 30.196078%, 30.196078%)" fill-opacity="1">
<use xlink:href="#glyph-1-0" x="221.992188" y="251.667969"/>
<use xlink:href="#glyph-1-1" x="226.886328" y="251.667969"/>
<use xlink:href="#glyph-1-1" x="231.780469" y="251.667969"/>
<use xlink:href="#glyph-1-4" x="236.674609" y="251.667969"/>
</g>
<path fill="none" stroke-width="1.066978" stroke-linecap="butt" stroke-linejoin="round" stroke="rgb(20%, 20%, 20%)" stroke-opacity="1" stroke-miterlimit="10" d="M 285.710938 243.175781 L 285.710938 240.4375 "/>
<path fill="none" stroke-width="1.066978" stroke-linecap="butt" stroke-linejoin="round" stroke="rgb(20%, 20%, 20%)" stroke-opacity="1" stroke-miterlimit="10" d="M 334.882812 243.175781 L 334.882812 240.4375 "/>
<path fill="none" stroke-width="1.066978" stroke-linecap="butt" stroke-linejoin="round" stroke="rgb(20%, 20%, 20%)" stroke-opacity="1" stroke-miterlimit="10" d="M 383.988281 243.175781 L 383.988281 240.4375 "/>
<path fill="none" stroke-width="1.066978" stroke-linecap="butt" stroke-linejoin="round" stroke="rgb(20%, 20%, 20%)" stroke-opacity="1" stroke-miterlimit="10" d="M 433.160156 243.175781 L 433.160156 240.4375 "/>
<path fill="none" stroke-width="1.066978" stroke-linecap="butt" stroke-linejoin="round" stroke="rgb(20%, 20%, 20%)" stroke-opacity="1" stroke-miterlimit="10" d="M 482.265625 243.175781 L 482.265625 240.4375 "/>
<g fill="rgb(30.196078%, 30.196078%, 30.196078%)" fill-opacity="1">
<use xlink:href="#glyph-1-0" x="275.921875" y="251.667969"/>
<use xlink:href="#glyph-1-1" x="280.816016" y="251.667969"/>
<use xlink:href="#glyph-1-1" x="285.710156" y="251.667969"/>
<use xlink:href="#glyph-1-1" x="290.604297" y="251.667969"/>
</g>
<g fill="rgb(30.196078%, 30.196078%, 30.196078%)" fill-opacity="1">
<use xlink:href="#glyph-1-0" x="325.09375" y="251.667969"/>
<use xlink:href="#glyph-1-1" x="329.987891" y="251.667969"/>
<use xlink:href="#glyph-1-1" x="334.882031" y="251.667969"/>
<use xlink:href="#glyph-1-0" x="339.776172" y="251.667969"/>
</g>
<g fill="rgb(30.196078%, 30.196078%, 30.196078%)" fill-opacity="1">
<use xlink:href="#glyph-1-0" x="374.199219" y="251.667969"/>
<use xlink:href="#glyph-1-1" x="379.093359" y="251.667969"/>
<use xlink:href="#glyph-1-1" x="383.9875" y="251.667969"/>
<use xlink:href="#glyph-1-2" x="388.881641" y="251.667969"/>
</g>
<g fill="rgb(30.196078%, 30.196078%, 30.196078%)" fill-opacity="1">
<use xlink:href="#glyph-1-0" x="423.371094" y="251.667969"/>
<use xlink:href="#glyph-1-1" x="428.265234" y="251.667969"/>
<use xlink:href="#glyph-1-1" x="433.159375" y="251.667969"/>
<use xlink:href="#glyph-1-3" x="438.053516" y="251.667969"/>
</g>
<g fill="rgb(30.196078%, 30.196078%, 30.196078%)" fill-opacity="1">
<use xlink:href="#glyph-1-0" x="472.476562" y="251.667969"/>
<use xlink:href="#glyph-1-1" x="477.370703" y="251.667969"/>
<use xlink:href="#glyph-1-1" x="482.264844" y="251.667969"/>
<use xlink:href="#glyph-1-4" x="487.158984" y="251.667969"/>
</g>
<path fill="none" stroke-width="1.066978" stroke-linecap="butt" stroke-linejoin="round" stroke="rgb(20%, 20%, 20%)" stroke-opacity="1" stroke-miterlimit="10" d="M 35.226562 116.417969 L 35.226562 113.675781 "/>
<path fill="none" stroke-width="1.066978" stroke-linecap="butt" stroke-linejoin="round" stroke="rgb(20%, 20%, 20%)" stroke-opacity="1" stroke-miterlimit="10" d="M 84.398438 116.417969 L 84.398438 113.675781 "/>
<path fill="none" stroke-width="1.066978" stroke-linecap="butt" stroke-linejoin="round" stroke="rgb(20%, 20%, 20%)" stroke-opacity="1" stroke-miterlimit="10" d="M 133.503906 116.417969 L 133.503906 113.675781 "/>
<path fill="none" stroke-width="1.066978" stroke-linecap="butt" stroke-linejoin="round" stroke="rgb(20%, 20%, 20%)" stroke-opacity="1" stroke-miterlimit="10" d="M 182.675781 116.417969 L 182.675781 113.675781 "/>
<path fill="none" stroke-width="1.066978" stroke-linecap="butt" stroke-linejoin="round" stroke="rgb(20%, 20%, 20%)" stroke-opacity="1" stroke-miterlimit="10" d="M 231.78125 116.417969 L 231.78125 113.675781 "/>
<g fill="rgb(30.196078%, 30.196078%, 30.196078%)" fill-opacity="1">
<use xlink:href="#glyph-1-0" x="25.4375" y="124.910156"/>
<use xlink:href="#glyph-1-1" x="30.331641" y="124.910156"/>
<use xlink:href="#glyph-1-1" x="35.225781" y="124.910156"/>
<use xlink:href="#glyph-1-1" x="40.119922" y="124.910156"/>
</g>
<g fill="rgb(30.196078%, 30.196078%, 30.196078%)" fill-opacity="1">
<use xlink:href="#glyph-1-0" x="74.609375" y="124.910156"/>
<use xlink:href="#glyph-1-1" x="79.503516" y="124.910156"/>
<use xlink:href="#glyph-1-1" x="84.397656" y="124.910156"/>
<use xlink:href="#glyph-1-0" x="89.291797" y="124.910156"/>
</g>
<g fill="rgb(30.196078%, 30.196078%, 30.196078%)" fill-opacity="1">
<use xlink:href="#glyph-1-0" x="123.714844" y="124.910156"/>
<use xlink:href="#glyph-1-1" x="128.608984" y="124.910156"/>
<use xlink:href="#glyph-1-1" x="133.503125" y="124.910156"/>
<use xlink:href="#glyph-1-2" x="138.397266" y="124.910156"/>
</g>
<g fill="rgb(30.196078%, 30.196078%, 30.196078%)" fill-opacity="1">
<use xlink:href="#glyph-1-0" x="172.886719" y="124.910156"/>
<use xlink:href="#glyph-1-1" x="177.780859" y="124.910156"/>
<use xlink:href="#glyph-1-1" x="182.675" y="124.910156"/>
<use xlink:href="#glyph-1-3" x="187.569141" y="124.910156"/>
</g>
<g fill="rgb(30.196078%, 30.196078%, 30.196078%)" fill-opacity="1">
<use xlink:href="#glyph-1-0" x="221.992188" y="124.910156"/>
<use xlink:href="#glyph-1-1" x="226.886328" y="124.910156"/>
<use xlink:href="#glyph-1-1" x="231.780469" y="124.910156"/>
<use xlink:href="#glyph-1-4" x="236.674609" y="124.910156"/>
</g>
<path fill="none" stroke-width="1.066978" stroke-linecap="butt" stroke-linejoin="round" stroke="rgb(20%, 20%, 20%)" stroke-opacity="1" stroke-miterlimit="10" d="M 285.710938 116.417969 L 285.710938 113.675781 "/>
<path fill="none" stroke-width="1.066978" stroke-linecap="butt" stroke-linejoin="round" stroke="rgb(20%, 20%, 20%)" stroke-opacity="1" stroke-miterlimit="10" d="M 334.882812 116.417969 L 334.882812 113.675781 "/>
<path fill="none" stroke-width="1.066978" stroke-linecap="butt" stroke-linejoin="round" stroke="rgb(20%, 20%, 20%)" stroke-opacity="1" stroke-miterlimit="10" d="M 383.988281 116.417969 L 383.988281 113.675781 "/>
<path fill="none" stroke-width="1.066978" stroke-linecap="butt" stroke-linejoin="round" stroke="rgb(20%, 20%, 20%)" stroke-opacity="1" stroke-miterlimit="10" d="M 433.160156 116.417969 L 433.160156 113.675781 "/>
<path fill="none" stroke-width="1.066978" stroke-linecap="butt" stroke-linejoin="round" stroke="rgb(20%, 20%, 20%)" stroke-opacity="1" stroke-miterlimit="10" d="M 482.265625 116.417969 L 482.265625 113.675781 "/>
<g fill="rgb(30.196078%, 30.196078%, 30.196078%)" fill-opacity="1">
<use xlink:href="#glyph-1-0" x="275.921875" y="124.910156"/>
<use xlink:href="#glyph-1-1" x="280.816016" y="124.910156"/>
<use xlink:href="#glyph-1-1" x="285.710156" y="124.910156"/>
<use xlink:href="#glyph-1-1" x="290.604297" y="124.910156"/>
</g>
<g fill="rgb(30.196078%, 30.196078%, 30.196078%)" fill-opacity="1">
<use xlink:href="#glyph-1-0" x="325.09375" y="124.910156"/>
<use xlink:href="#glyph-1-1" x="329.987891" y="124.910156"/>
<use xlink:href="#glyph-1-1" x="334.882031" y="124.910156"/>
<use xlink:href="#glyph-1-0" x="339.776172" y="124.910156"/>
</g>
<g fill="rgb(30.196078%, 30.196078%, 30.196078%)" fill-opacity="1">
<use xlink:href="#glyph-1-0" x="374.199219" y="124.910156"/>
<use xlink:href="#glyph-1-1" x="379.093359" y="124.910156"/>
<use xlink:href="#glyph-1-1" x="383.9875" y="124.910156"/>
<use xlink:href="#glyph-1-2" x="388.881641" y="124.910156"/>
</g>
<g fill="rgb(30.196078%, 30.196078%, 30.196078%)" fill-opacity="1">
<use xlink:href="#glyph-1-0" x="423.371094" y="124.910156"/>
<use xlink:href="#glyph-1-1" x="428.265234" y="124.910156"/>
<use xlink:href="#glyph-1-1" x="433.159375" y="124.910156"/>
<use xlink:href="#glyph-1-3" x="438.053516" y="124.910156"/>
</g>
<g fill="rgb(30.196078%, 30.196078%, 30.196078%)" fill-opacity="1">
<use xlink:href="#glyph-1-0" x="472.476562" y="124.910156"/>
<use xlink:href="#glyph-1-1" x="477.370703" y="124.910156"/>
<use xlink:href="#glyph-1-1" x="482.264844" y="124.910156"/>
<use xlink:href="#glyph-1-4" x="487.158984" y="124.910156"/>
</g>
<g fill="rgb(30.196078%, 30.196078%, 30.196078%)" fill-opacity="1">
<use xlink:href="#glyph-1-5" x="255.960938" y="112.714844"/>
<use xlink:href="#glyph-1-1" x="260.855078" y="112.714844"/>
<use xlink:href="#glyph-1-1" x="265.749219" y="112.714844"/>
</g>
<g fill="rgb(30.196078%, 30.196078%, 30.196078%)" fill-opacity="1">
<use xlink:href="#glyph-1-0" x="255.960938" y="92.867188"/>
<use xlink:href="#glyph-1-1" x="260.855078" y="92.867188"/>
<use xlink:href="#glyph-1-1" x="265.749219" y="92.867188"/>
</g>
<g fill="rgb(30.196078%, 30.196078%, 30.196078%)" fill-opacity="1">
<use xlink:href="#glyph-1-6" x="255.960938" y="73.019531"/>
<use xlink:href="#glyph-1-1" x="260.855078" y="73.019531"/>
<use xlink:href="#glyph-1-1" x="265.749219" y="73.019531"/>
</g>
<g fill="rgb(30.196078%, 30.196078%, 30.196078%)" fill-opacity="1">
<use xlink:href="#glyph-1-2" x="255.960938" y="53.171875"/>
<use xlink:href="#glyph-1-1" x="260.855078" y="53.171875"/>
<use xlink:href="#glyph-1-1" x="265.749219" y="53.171875"/>
</g>
<g fill="rgb(30.196078%, 30.196078%, 30.196078%)" fill-opacity="1">
<use xlink:href="#glyph-1-7" x="255.960938" y="33.324219"/>
<use xlink:href="#glyph-1-1" x="260.855078" y="33.324219"/>
<use xlink:href="#glyph-1-1" x="265.749219" y="33.324219"/>
</g>
<path fill="none" stroke-width="1.066978" stroke-linecap="butt" stroke-linejoin="round" stroke="rgb(20%, 20%, 20%)" stroke-opacity="1" stroke-miterlimit="10" d="M 272.835938 109.5625 L 275.574219 109.5625 "/>
<path fill="none" stroke-width="1.066978" stroke-linecap="butt" stroke-linejoin="round" stroke="rgb(20%, 20%, 20%)" stroke-opacity="1" stroke-miterlimit="10" d="M 272.835938 89.71875 L 275.574219 89.71875 "/>
<path fill="none" stroke-width="1.066978" stroke-linecap="butt" stroke-linejoin="round" stroke="rgb(20%, 20%, 20%)" stroke-opacity="1" stroke-miterlimit="10" d="M 272.835938 69.871094 L 275.574219 69.871094 "/>
<path fill="none" stroke-width="1.066978" stroke-linecap="butt" stroke-linejoin="round" stroke="rgb(20%, 20%, 20%)" stroke-opacity="1" stroke-miterlimit="10" d="M 272.835938 50.023438 L 275.574219 50.023438 "/>
<path fill="none" stroke-width="1.066978" stroke-linecap="butt" stroke-linejoin="round" stroke="rgb(20%, 20%, 20%)" stroke-opacity="1" stroke-miterlimit="10" d="M 272.835938 30.175781 L 275.574219 30.175781 "/>
<g fill="rgb(30.196078%, 30.196078%, 30.196078%)" fill-opacity="1">
<use xlink:href="#glyph-1-1" x="253.515625" y="239.503906"/>
<use xlink:href="#glyph-1-8" x="258.409766" y="239.503906"/>
<use xlink:href="#glyph-1-1" x="260.854687" y="239.503906"/>
<use xlink:href="#glyph-1-1" x="265.748828" y="239.503906"/>
</g>
<g fill="rgb(30.196078%, 30.196078%, 30.196078%)" fill-opacity="1">
<use xlink:href="#glyph-1-1" x="253.515625" y="219.628906"/>
<use xlink:href="#glyph-1-8" x="258.409766" y="219.628906"/>
<use xlink:href="#glyph-1-0" x="260.854687" y="219.628906"/>
<use xlink:href="#glyph-1-7" x="265.748828" y="219.628906"/>
</g>
<g fill="rgb(30.196078%, 30.196078%, 30.196078%)" fill-opacity="1">
<use xlink:href="#glyph-1-1" x="253.515625" y="199.753906"/>
<use xlink:href="#glyph-1-8" x="258.409766" y="199.753906"/>
<use xlink:href="#glyph-1-7" x="260.854687" y="199.753906"/>
<use xlink:href="#glyph-1-1" x="265.748828" y="199.753906"/>
</g>
<g fill="rgb(30.196078%, 30.196078%, 30.196078%)" fill-opacity="1">
<use xlink:href="#glyph-1-1" x="253.515625" y="179.878906"/>
<use xlink:href="#glyph-1-8" x="258.409766" y="179.878906"/>
<use xlink:href="#glyph-1-9" x="260.854687" y="179.878906"/>
<use xlink:href="#glyph-1-7" x="265.748828" y="179.878906"/>
</g>
<g fill="rgb(30.196078%, 30.196078%, 30.196078%)" fill-opacity="1">
<use xlink:href="#glyph-1-5" x="253.515625" y="160"/>
<use xlink:href="#glyph-1-8" x="258.409766" y="160"/>
<use xlink:href="#glyph-1-1" x="260.854687" y="160"/>
<use xlink:href="#glyph-1-1" x="265.748828" y="160"/>
</g>
<path fill="none" stroke-width="1.066978" stroke-linecap="butt" stroke-linejoin="round" stroke="rgb(20%, 20%, 20%)" stroke-opacity="1" stroke-miterlimit="10" d="M 272.835938 236.355469 L 275.574219 236.355469 "/>
<path fill="none" stroke-width="1.066978" stroke-linecap="butt" stroke-linejoin="round" stroke="rgb(20%, 20%, 20%)" stroke-opacity="1" stroke-miterlimit="10" d="M 272.835938 216.480469 L 275.574219 216.480469 "/>
<path fill="none" stroke-width="1.066978" stroke-linecap="butt" stroke-linejoin="round" stroke="rgb(20%, 20%, 20%)" stroke-opacity="1" stroke-miterlimit="10" d="M 272.835938 196.605469 L 275.574219 196.605469 "/>
<path fill="none" stroke-width="1.066978" stroke-linecap="butt" stroke-linejoin="round" stroke="rgb(20%, 20%, 20%)" stroke-opacity="1" stroke-miterlimit="10" d="M 272.835938 176.726562 L 275.574219 176.726562 "/>
<path fill="none" stroke-width="1.066978" stroke-linecap="butt" stroke-linejoin="round" stroke="rgb(20%, 20%, 20%)" stroke-opacity="1" stroke-miterlimit="10" d="M 272.835938 156.851562 L 275.574219 156.851562 "/>
<g fill="rgb(30.196078%, 30.196078%, 30.196078%)" fill-opacity="1">
<use xlink:href="#glyph-1-5" x="5.476562" y="93.960938"/>
<use xlink:href="#glyph-1-1" x="10.370703" y="93.960938"/>
<use xlink:href="#glyph-1-1" x="15.264844" y="93.960938"/>
</g>
<g fill="rgb(30.196078%, 30.196078%, 30.196078%)" fill-opacity="1">
<use xlink:href="#glyph-1-5" x="5.476562" y="66.890625"/>
<use xlink:href="#glyph-1-7" x="10.370703" y="66.890625"/>
<use xlink:href="#glyph-1-1" x="15.264844" y="66.890625"/>
</g>
<g fill="rgb(30.196078%, 30.196078%, 30.196078%)" fill-opacity="1">
<use xlink:href="#glyph-1-0" x="5.476562" y="39.824219"/>
<use xlink:href="#glyph-1-1" x="10.370703" y="39.824219"/>
<use xlink:href="#glyph-1-1" x="15.264844" y="39.824219"/>
</g>
<path fill="none" stroke-width="1.066978" stroke-linecap="butt" stroke-linejoin="round" stroke="rgb(20%, 20%, 20%)" stroke-opacity="1" stroke-miterlimit="10" d="M 22.355469 90.808594 L 25.09375 90.808594 "/>
<path fill="none" stroke-width="1.066978" stroke-linecap="butt" stroke-linejoin="round" stroke="rgb(20%, 20%, 20%)" stroke-opacity="1" stroke-miterlimit="10" d="M 22.355469 63.742188 L 25.09375 63.742188 "/>
<path fill="none" stroke-width="1.066978" stroke-linecap="butt" stroke-linejoin="round" stroke="rgb(20%, 20%, 20%)" stroke-opacity="1" stroke-miterlimit="10" d="M 22.355469 36.675781 L 25.09375 36.675781 "/>
<g fill="rgb(30.196078%, 30.196078%, 30.196078%)" fill-opacity="1">
<use xlink:href="#glyph-1-1" x="7.925781" y="237.128906"/>
<use xlink:href="#glyph-1-8" x="12.819922" y="237.128906"/>
<use xlink:href="#glyph-1-7" x="15.264844" y="237.128906"/>
</g>
<g fill="rgb(30.196078%, 30.196078%, 30.196078%)" fill-opacity="1">
<use xlink:href="#glyph-1-5" x="7.925781" y="209.8125"/>
<use xlink:href="#glyph-1-8" x="12.819922" y="209.8125"/>
<use xlink:href="#glyph-1-1" x="15.264844" y="209.8125"/>
</g>
<g fill="rgb(30.196078%, 30.196078%, 30.196078%)" fill-opacity="1">
<use xlink:href="#glyph-1-5" x="7.925781" y="182.492188"/>
<use xlink:href="#glyph-1-8" x="12.819922" y="182.492188"/>
<use xlink:href="#glyph-1-7" x="15.264844" y="182.492188"/>
</g>
<g fill="rgb(30.196078%, 30.196078%, 30.196078%)" fill-opacity="1">
<use xlink:href="#glyph-1-0" x="7.925781" y="155.175781"/>
<use xlink:href="#glyph-1-8" x="12.819922" y="155.175781"/>
<use xlink:href="#glyph-1-1" x="15.264844" y="155.175781"/>
</g>
<path fill="none" stroke-width="1.066978" stroke-linecap="butt" stroke-linejoin="round" stroke="rgb(20%, 20%, 20%)" stroke-opacity="1" stroke-miterlimit="10" d="M 22.355469 233.980469 L 25.09375 233.980469 "/>
<path fill="none" stroke-width="1.066978" stroke-linecap="butt" stroke-linejoin="round" stroke="rgb(20%, 20%, 20%)" stroke-opacity="1" stroke-miterlimit="10" d="M 22.355469 206.660156 L 25.09375 206.660156 "/>
<path fill="none" stroke-width="1.066978" stroke-linecap="butt" stroke-linejoin="round" stroke="rgb(20%, 20%, 20%)" stroke-opacity="1" stroke-miterlimit="10" d="M 22.355469 179.34375 L 25.09375 179.34375 "/>
<path fill="none" stroke-width="1.066978" stroke-linecap="butt" stroke-linejoin="round" stroke="rgb(20%, 20%, 20%)" stroke-opacity="1" stroke-miterlimit="10" d="M 22.355469 152.027344 L 25.09375 152.027344 "/>
</svg>
